<svg xmlns="http://www.w3.org/2000/svg" width="39.83" height="33" viewBox="0 0 39.83 33">
  <g id="Group_2076" data-name="Group 2076" transform="translate(-1738.119 -23.5)">
    <path id="Path_1748" data-name="Path 1748" d="M1775.3,32.9h-2.293a16.667,16.667,0,0,0-30,0h-2.239a2.651,2.651,0,0,0-2.651,2.651v7.12a2.652,2.652,0,0,0,2.651,2.653h3.416a14.747,14.747,0,1,1,28.042-1.235h0c-.042.154-.088.308-.136.461l-.019.061c-.048.153-.1.3-.152.455l-.005.016a14.8,14.8,0,0,1-10.984,9.547,1.176,1.176,0,0,0-.954-.487h-3.051a1.181,1.181,0,1,0,0,2.361h3.051a1.18,1.18,0,0,0,1.165-.994,15.711,15.711,0,0,0,11.644-10.185h2.512a2.652,2.652,0,0,0,2.651-2.653v-7.12A2.651,2.651,0,0,0,1775.3,32.9Z" fill="#546974"/>
    <path id="Path_1749" data-name="Path 1749" d="M1770.495,40.17a12.488,12.488,0,1,0-22.126,7.942,8.336,8.336,0,0,1-4.354,5.611.5.5,0,0,0,.175.945c4.833.444,7.856-1.026,9.7-2.7a12.5,12.5,0,0,0,16.6-11.794ZM1753.656,50.8l-.448.407a10.486,10.486,0,0,1-7.286,2.52,9.63,9.63,0,0,0,3.43-5.358l.135-.505-.334-.4A11.454,11.454,0,1,1,1754.228,51Z" fill="#546974"/>
    <circle id="Ellipse_337" data-name="Ellipse 337" cx="1.017" cy="1.017" r="1.017" transform="translate(1752.477 39.153)" fill="#546974"/>
    <circle id="Ellipse_338" data-name="Ellipse 338" cx="1.017" cy="1.017" r="1.017" transform="translate(1756.99 39.153)" fill="#546974"/>
    <circle id="Ellipse_339" data-name="Ellipse 339" cx="1.017" cy="1.017" r="1.017" transform="translate(1761.502 39.153)" fill="#546974"/>
  </g>
</svg>
