<svg xmlns="http://www.w3.org/2000/svg" width="22.551" height="25" viewBox="0 0 22.551 25">
  <g id="Group_3291" data-name="Group 3291" transform="translate(-667.3 -428.159)">
    <g id="Group_3276" data-name="Group 3276">
      <path id="Path_2603" data-name="Path 2603" d="M671.669,430.731c4.964,0,8.373-2.572,10.765-2.572s7.417,1.375,7.417,12.38-6.759,12.62-9.39,12.62c-12.322,0-17.585-22.428-8.792-22.428Z" fill="#ecebeb"/>
    </g>
    <g id="Group_3277" data-name="Group 3277">
      <path id="Path_2604" data-name="Path 2604" d="M682.142,433.3a1.413,1.413,0,0,0-1.234-.718h-8.254a1.439,1.439,0,0,0-1.435,1.436v11.125a1.4,1.4,0,0,0,.114.558l-.114.159a1.411,1.411,0,0,0,1.234.718h8.254a1.44,1.44,0,0,0,1.435-1.435V434.02a1.42,1.42,0,0,0-.114-.558Z" fill="#5cb267"/>
    </g>
    <g id="Group_3278" data-name="Group 3278">
      <path id="Path_2605" data-name="Path 2605" d="M685.932,447.3V436.891a1.435,1.435,0,0,0-1.435-1.436h-8.254a1.436,1.436,0,0,0-1.436,1.436V447.3a1.435,1.435,0,0,0,1.436,1.435H684.5A1.434,1.434,0,0,0,685.932,447.3Z" fill="#f0f1ee"/>
    </g>
    <g id="Group_3279" data-name="Group 3279">
      <path id="Path_2606" data-name="Path 2606" d="M672.833,445.862l.115-.159a1.4,1.4,0,0,1-.115-.558V434.02a1.44,1.44,0,0,1,1.436-1.436h-1.615a1.439,1.439,0,0,0-1.435,1.436v11.125a1.4,1.4,0,0,0,.114.558l-.114.159a1.411,1.411,0,0,0,1.234.718h1.615A1.413,1.413,0,0,1,672.833,445.862Z" fill="#35a85d"/>
    </g>
    <g id="Group_3280" data-name="Group 3280">
      <path id="Path_2607" data-name="Path 2607" d="M676.422,447.3V436.891a1.435,1.435,0,0,1,1.436-1.436h-1.615a1.436,1.436,0,0,0-1.436,1.436V447.3a1.435,1.435,0,0,0,1.436,1.435h1.615A1.435,1.435,0,0,1,676.422,447.3Z" fill="#cbd3da"/>
    </g>
    <g id="Group_3281" data-name="Group 3281">
      <path id="Path_2608" data-name="Path 2608" d="M677.678,443.171h5.383v1.077h-5.383Z" fill="#040505"/>
    </g>
    <g id="Group_3282" data-name="Group 3282">
      <path id="Path_2609" data-name="Path 2609" d="M677.678,446.042h5.383v1.077h-5.383Z" fill="#040505"/>
    </g>
    <g id="Group_3283" data-name="Group 3283">
      <path id="Path_2610" data-name="Path 2610" d="M677.678,440.659h5.383v1.077h-5.383Z" fill="#040505"/>
    </g>
    <g id="Group_3284" data-name="Group 3284">
      <path id="Path_2611" data-name="Path 2611" d="M677.678,437.788h5.383v1.077h-5.383Z" fill="#040505"/>
    </g>
    <g id="Group_3285" data-name="Group 3285">
      <path id="Path_2612" data-name="Path 2612" d="M673.192,447.119h-.538a1.976,1.976,0,0,1-1.974-1.974V434.02a1.976,1.976,0,0,1,1.974-1.974h8.254a1.961,1.961,0,0,1,1.7.991l.266.468-.937.531-.266-.468a.869.869,0,0,0-.766-.445h-8.254a.9.9,0,0,0-.9.9v11.125a.9.9,0,0,0,.9.9h.538Z" fill="#040505"/>
    </g>
    <g id="Group_3286" data-name="Group 3286">
      <path id="Path_2613" data-name="Path 2613" d="M684.5,449.272h-8.254a1.976,1.976,0,0,1-1.974-1.974V436.891a1.976,1.976,0,0,1,1.974-1.974H684.5a1.975,1.975,0,0,1,1.973,1.974V447.3A1.975,1.975,0,0,1,684.5,449.272Zm-8.254-13.278a.9.9,0,0,0-.9.9V447.3a.9.9,0,0,0,.9.9H684.5a.9.9,0,0,0,.9-.9V436.891a.9.9,0,0,0-.9-.9Z" fill="#040505"/>
    </g>
    <g id="Group_3287" data-name="Group 3287">
      <path id="Path_2614" data-name="Path 2614" d="M688.623,448.016a1.077,1.077,0,1,1,1.077-1.077A1.078,1.078,0,0,1,688.623,448.016Zm0-1.436a.359.359,0,1,0,.359.359A.359.359,0,0,0,688.623,446.58Z" fill="#92a0b5"/>
    </g>
    <g id="Group_3288" data-name="Group 3288">
      <path id="Path_2615" data-name="Path 2615" d="M670.636,430.841l1.015-1.015.507.508-1.015,1.015Z" fill="#92a0b5"/>
    </g>
    <g id="Group_3289" data-name="Group 3289">
      <path id="Path_2616" data-name="Path 2616" d="M667.718,433.759l1.014-1.015.508.508-1.015,1.014Z" fill="#92a0b5"/>
    </g>
    <g id="Group_3290" data-name="Group 3290">
      <path id="Path_2617" data-name="Path 2617" d="M667.845,430.333l.507-.507,1.015,1.015-.507.507Z" fill="#92a0b5"/>
    </g>
  </g>
</svg>
