<?xml version="1.0" encoding="utf-8"?>
<!-- Generator: Adobe Illustrator 24.2.3, SVG Export Plug-In . SVG Version: 6.00 Build 0)  -->
<svg version="1.1" id="Layer_1" xmlns="http://www.w3.org/2000/svg" xmlns:xlink="http://www.w3.org/1999/xlink" x="0px" y="0px"
	 viewBox="0 0 112.5 125" style="enable-background:new 0 0 112.5 125;" xml:space="preserve">
<style type="text/css">
	.st0{fill:#6BC7BD;}
</style>
<g>
	<path class="st0" d="M111.6,16.8l-5.3-4.7l5.3-4.7c1.1-1,1.2-2.6,0.2-3.7c-0.5-0.6-1.2-0.9-2-0.9H87.8v-1c0-1-0.8-1.8-1.8-1.8
		c-1,0-1.8,0.8-1.8,1.8v24.7L69,34.7c-0.1-0.7-0.3-1.3-0.6-1.9l-2.1-4.1c-1.5-2.8-4.9-4-7.8-2.5L56.9,27c-2.8,1.5-4,4.9-2.5,7.8
		c0,0,0,0,0,0l2.1,4.1c0.5,0.9,1.2,1.7,2.1,2.3c-1.1,1.6-1.8,3.4-2.2,5.3L56,47.9c-0.3,1,0.3,2,1.3,2.3c0,0,0,0,0,0
		c0.2,0,0.3,0.1,0.5,0.1c0.8,0,1.5-0.5,1.8-1.3l0.4-1.4c0.8-2.8,1.3-4.4,2.9-5.2l2.8-1.5l0.3-0.2c0.1-0.1,0.2-0.1,0.3-0.2l20.1-10.9
		c-0.1,2.6-1.5,4.9-3.7,6.2l-13,7.9h0l-4.1,2.5c-0.9,0.6-1.1,1.7-0.5,2.5c0.5,0.8,1.5,1.1,2.3,0.7l-3.1,9.4l-2.3,0.9l-6.1,2.5
		l1.8-6.2c0.3-1-0.3-2-1.3-2.3c-1-0.3-2,0.3-2.3,1.3c0,0,0,0,0,0l-2.8,9.8c0,0.1-0.1,0.3-0.1,0.4l-0.7,13.4c0.1,0.7,0,1.3-0.2,2
		l-8.1,17h-5.9c-3.5,0-6.3,2.8-6.3,6.3v5.3c-0.8-0.4-1.7-0.6-2.6-0.6H12.5c-3.5,0-6.3,2.8-6.3,6.3v6.6H1.8c-1-0.1-1.9,0.7-2,1.7
		c-0.1,1,0.7,1.9,1.7,2c0.1,0,0.2,0,0.3,0h108c1-0.1,1.8-1,1.7-2c-0.1-0.9-0.8-1.6-1.7-1.7h-4.8V74.1c0-3.5-2.8-6.3-6.3-6.3H87.8
		v-32c2.1-2.8,2.8-6.4,1.8-9.8c-0.2-0.5-0.5-1-1-1.2c-0.3-0.1-0.5-0.1-0.8-0.1v-3.3h22.1c1.5,0,2.6-1.2,2.6-2.6
		C112.5,18,112.2,17.3,111.6,16.8L111.6,16.8z M57.5,31.5c0.2-0.5,0.5-1,1-1.2l1.6-0.8c0.3-0.2,0.7-0.2,1-0.2c0.8,0,1.5,0.4,1.9,1.1
		l2.1,4.1c0.5,1,0.2,2.1-0.7,2.7l-0.6,0.3l-1.3,0.6c-1,0.5-2.3,0.1-2.9-0.9l-2.1-4.1C57.4,32.6,57.3,32,57.5,31.5z M53.8,98.1
		c-0.6-0.3-1.3-0.5-2-0.5l2-2.7V98.1z M62.5,83.3c0.7-1,1.2-2.1,1.3-3.3c0-0.2,1-5.2,1-5.2s0.9,0.5,1,0.6c0.1,0,0.1,0.1,0.1,0.2
		l1,10.1h-6.1L62.5,83.3z M73.4,73.2l-1.5,12.5h-1.3l-1-10.5c-0.1-1.3-1-2.5-2.2-3.1L65.5,71l1.2-6.8c0,0,5.2,6.1,5.3,6.3
		C73.1,71.9,73.5,72.4,73.4,73.2L73.4,73.2z M53.6,82.1c0.4-1.1,0.5-2.2,0.5-3.4l0.7-12.2l8.5-3.5l-1.5,8.5c0,0,0,0,0,0.1l-1.3,7
		c-0.1,0.9-0.4,1.7-0.8,2.4L47.3,97.5h-1L53.6,82.1z M9.9,114.8c0-1.4,1.2-2.6,2.6-2.6l0,0h15c1.4,0,2.6,1.2,2.6,2.6v0v6.6H9.9
		V114.8z M33.7,114.8v-11c0-1.4,1.2-2.6,2.6-2.6h15c1.4,0,2.6,1.2,2.6,2.6v0v17.5H33.7L33.7,114.8L33.7,114.8z M101.4,74.1v47.2
		H81.3v-11c0-1-0.8-1.8-1.8-1.8c-1,0-1.8,0.8-1.8,1.8c0,0,0,0,0,0v11H57.5V92c0-1.4,1.2-2.6,2.6-2.6l0,0h15c1.4,0,2.6,1.2,2.6,2.6
		v9.2c0,1,0.8,1.8,1.8,1.8c1,0,1.8-0.8,1.8-1.8c0,0,0,0,0,0V74.1c0-1.4,1.2-2.6,2.6-2.6l0,0h15C100.3,71.6,101.4,72.7,101.4,74.1z
		 M83.9,67.9c-3.5,0-6.3,2.8-6.3,6.3l0,0v12.2c-0.7-0.3-1.4-0.5-2.1-0.5L77,73.7c0.3-2.4-0.9-3.9-2.1-5.4l-7.3-8.6L72,46.5l12-7.3
		v28.7L83.9,67.9z M87.8,17.7V6.4h19.4l-4.2,3.7c-1.1,0.9-1.2,2.6-0.3,3.7c0.1,0.1,0.2,0.2,0.3,0.3l4.2,3.7L87.8,17.7z"/>
</g>
</svg>
