<svg xmlns="http://www.w3.org/2000/svg" width="20" height="20" viewBox="0 0 20 20">
  <g id="Group_2683" data-name="Group 2683" transform="translate(-1074.477 -235.145)">
    <g id="Group_2680" data-name="Group 2680">
      <g id="Group_2679" data-name="Group 2679">
        <path id="Path_2125" data-name="Path 2125" d="M1090.905,245.145a.714.714,0,0,0-.714.714V253a.715.715,0,0,1-.715.715h-12.857a.715.715,0,0,1-.714-.715V238.717a.715.715,0,0,1,.714-.715h8.572a.714.714,0,0,0,0-1.428h-8.572a2.142,2.142,0,0,0-2.142,2.143V253a2.142,2.142,0,0,0,2.142,2.143h12.858a2.142,2.142,0,0,0,2.142-2.143v-7.143A.714.714,0,0,0,1090.905,245.145Z" fill="#525353"/>
      </g>
    </g>
    <g id="Group_2682" data-name="Group 2682">
      <g id="Group_2681" data-name="Group 2681">
        <path id="Path_2126" data-name="Path 2126" d="M1093.676,235.946a2.733,2.733,0,0,0-3.867,0l-9.409,9.407a.725.725,0,0,0-.172.28l-1.429,4.285a.715.715,0,0,0,.9.9l4.286-1.429a.715.715,0,0,0,.279-.172l9.409-9.409A2.734,2.734,0,0,0,1093.676,235.946Zm-1.01,2.858-9.286,9.285-2.774.927.923-2.771,9.29-9.286a1.305,1.305,0,1,1,1.847,1.845Z" fill="#525353"/>
      </g>
    </g>
  </g>
</svg>
