<svg xmlns="http://www.w3.org/2000/svg" width="11.301" height="10" viewBox="0 0 11.301 10">
  <g id="Group_2690" data-name="Group 2690" transform="translate(-563.218 -335.379)">
    <g id="Group_2688" data-name="Group 2688">
      <path id="Path_2130" data-name="Path 2130" d="M563.725,337.863h10.286a.353.353,0,0,1,.354.353v1.7a1.589,1.589,0,0,1-1.59,1.589h-7.814a1.589,1.589,0,0,1-1.589-1.589v-1.7A.353.353,0,0,1,563.725,337.863Z" fill="#b14c1b"/>
      <path id="Path_2131" data-name="Path 2131" d="M572.775,341.509h-7.814a1.589,1.589,0,0,1-1.589-1.589v4.952a.353.353,0,0,0,.353.353h10.286a.353.353,0,0,0,.354-.353V339.92a1.589,1.589,0,0,1-1.59,1.589Z" fill="#ffd12b"/>
      <path id="Path_2132" data-name="Path 2132" d="M565.706,341.509h1.126v1.055a.264.264,0,0,1-.265.265h-.6a.265.265,0,0,1-.265-.265v-1.055Z" fill="#873b18"/>
      <path id="Path_2133" data-name="Path 2133" d="M571.766,342.829h-.6a.264.264,0,0,1-.265-.265v-1.055h1.125v1.055A.264.264,0,0,1,571.766,342.829Z" fill="#873b18"/>
      <path id="Path_2134" data-name="Path 2134" d="M566.331,337.863l.188-.917a.885.885,0,0,1,.865-.706h2.969a.885.885,0,0,1,.865.706l.188.917h.72l-.216-1.058a1.594,1.594,0,0,0-1.557-1.271h-2.969a1.593,1.593,0,0,0-1.557,1.271l-.217,1.058Z" fill="#005fa5"/>
    </g>
    <g id="Group_2689" data-name="Group 2689">
      <path id="Path_2135" data-name="Path 2135" d="M574.011,337.709h-1.758l-.191-.935a1.751,1.751,0,0,0-1.709-1.395h-2.969a1.752,1.752,0,0,0-1.709,1.395l-.191.935h-1.759a.507.507,0,0,0-.507.507v6.656a.507.507,0,0,0,.507.507h.883a.154.154,0,1,0,0-.309h-.883a.2.2,0,0,1-.2-.2v-3.963a1.742,1.742,0,0,0,1.434.755h.591v.9a.42.42,0,0,0,.419.42h.6a.421.421,0,0,0,.42-.42v-.9h3.763v.9a.42.42,0,0,0,.419.42h.6a.42.42,0,0,0,.42-.42v-.9h.59a1.742,1.742,0,0,0,1.435-.755v3.963a.2.2,0,0,1-.2.2h-6.82a.154.154,0,1,0,0,.309h6.82a.507.507,0,0,0,.508-.507v-6.656A.507.507,0,0,0,574.011,337.709Zm-8.033-.873a1.44,1.44,0,0,1,1.406-1.148h2.969a1.44,1.44,0,0,1,1.406,1.148l.178.873h-.405l-.162-.794a.155.155,0,0,0-.3.062l.149.732h-4.7l.149-.732a.732.732,0,0,1,.714-.583h2.969a.155.155,0,1,0,0-.309h-2.969a1.042,1.042,0,0,0-1.017.83l-.162.794H565.8Zm.7,5.729a.111.111,0,0,1-.111.11h-.6a.11.11,0,0,1-.11-.111v-.9h.817Zm5.2,0a.111.111,0,0,1-.111.11h-.6a.111.111,0,0,1-.11-.111v-.9h.817Zm.9-1.21h-7.814a1.436,1.436,0,0,1-1.434-1.435v-1.7a.2.2,0,0,1,.2-.2h10.286a.2.2,0,0,1,.2.2v1.7a1.437,1.437,0,0,1-1.435,1.435Z" fill="#040505"/>
      <path id="Path_2136" data-name="Path 2136" d="M566.12,345.07h-.441a.154.154,0,1,0,0,.309h.441a.154.154,0,1,0,0-.309Z" fill="#040505"/>
    </g>
  </g>
</svg>
