<?xml version="1.0" encoding="utf-8"?>
<!-- Generator: Adobe Illustrator 24.2.3, SVG Export Plug-In . SVG Version: 6.00 Build 0)  -->
<svg version="1.1" id="Layer_1" xmlns="http://www.w3.org/2000/svg" xmlns:xlink="http://www.w3.org/1999/xlink" x="0px" y="0px"
	 viewBox="0 0 125 125" style="enable-background:new 0 0 125 125;" xml:space="preserve">
<style type="text/css">
	.st0{fill:#F3AC57;}
</style>
<g>
	<path class="st0" d="M0,121h125v4H0V121z"/>
	<path class="st0" d="M48.9,13.9c4.4-1.2,9-1.8,13.6-1.9c12.2,0,24,4.4,33.1,12.4l-4.8,4.8l22.8,5.7l-5.7-22.8l-3.8,3.8
		C88.3,1.8,66.3-3.4,45.8,2.2l-1.5,0.4v11.5l4.1-0.2L48.9,13.9z M48.4,5.7c19.4-4.8,40,0.7,54.5,14.5l1.4,1.4l1.5-1.5l2.3,9.4
		l-9.4-2.4l2.7-2.7L99.9,23C86.2,10,66.7,5,48.4,9.9L48.4,5.7z"/>
	<path class="st0" d="M2.2,79.2l0.4,1.5h11.5L14,76.5l-0.1-0.4c-1.2-4.4-1.8-9-1.8-13.6c0-12.2,4.4-24,12.4-33.1l4.8,4.8L35,11.3
		L12.2,17l3.8,3.8C1.8,36.7-3.4,58.6,2.2,79.2z M20.2,22.2l1.4-1.4l-1.5-1.5l9.4-2.4l-2.4,9.4l-2.7-2.7L23,25.1
		C10,38.8,5.1,58.3,10,76.6H5.8C1,57.2,6.4,36.6,20.2,22.2L20.2,22.2z"/>
	<path class="st0" d="M111,42.4l0.1,0.5c4.6,16.3,0.6,33.9-10.6,46.7l-4.9-4.8l-5.7,22.8l22.8-5.7l-3.8-3.8
		c14.2-15.9,19.4-37.8,13.7-58.4l-0.4-1.5h-11.5L111,42.4z M119.3,42.3c4.8,19.4-0.7,40-14.5,54.5l-1.4,1.4l1.5,1.5l-9.4,2.4
		l2.3-9.4l2.7,2.7l1.4-1.5c9.6-10.1,14.9-23.5,14.9-37.4c0-4.8-0.6-9.5-1.8-14.1L119.3,42.3z"/>
	<path class="st0" d="M42.3,76.6h4v4h-4V76.6z"/>
	<path class="st0" d="M26.2,76.6h4v4h-4V76.6z"/>
	<path class="st0" d="M34.3,76.6h4v4h-4V76.6z"/>
	<path class="st0" d="M34.3,84.7h4v4h-4V84.7z"/>
	<path class="st0" d="M26.2,84.7h4v4h-4V84.7z"/>
	<path class="st0" d="M42.3,84.7h4v4h-4V84.7z"/>
	<path class="st0" d="M34.3,92.7h4v4h-4V92.7z"/>
	<path class="st0" d="M42.3,92.7h4v4h-4V92.7z"/>
	<path class="st0" d="M26.2,92.7h4v4h-4V92.7z"/>
	<path class="st0" d="M26.2,100.8h4v4h-4V100.8z"/>
	<path class="st0" d="M42.3,100.8h4v4h-4V100.8z"/>
	<path class="st0" d="M34.3,100.8h4v4h-4V100.8z"/>
	<path class="st0" d="M30.2,60.5h4v4h-4V60.5z"/>
	<path class="st0" d="M46.4,60.5h4v4h-4V60.5z"/>
	<path class="st0" d="M38.3,60.5h4v4h-4V60.5z"/>
	<path class="st0" d="M54.4,60.5h4v4h-4V60.5z"/>
	<path class="st0" d="M46.4,52.4h4v4h-4V52.4z"/>
	<path class="st0" d="M54.4,52.4h4v4h-4V52.4z"/>
	<path class="st0" d="M38.3,52.4h4v4h-4V52.4z"/>
	<path class="st0" d="M30.2,52.4h4v4h-4V52.4z"/>
	<path class="st0" d="M30.2,44.4h4v4h-4V44.4z"/>
	<path class="st0" d="M46.4,44.4h4v4h-4V44.4z"/>
	<path class="st0" d="M38.3,44.4h4v4h-4V44.4z"/>
	<path class="st0" d="M54.4,44.4h4v4h-4V44.4z"/>
	<path class="st0" d="M86.7,84.7h6c7.8,0,14.1-6.3,14.1-14.1v-2H96.8c-3.8,0-7.4,1.5-10.1,4.3v-8.4h6c7.8,0,14.1-6.3,14.1-14.1v-2
		H96.8c-3.9,0-7.5,1.6-10.2,4.4c-0.8-7.1-6.9-12.4-14-12.4h-6v-4H22.2v32.3h-4v40.3H0v4h125v-4H86.7V84.7z M96.8,72.6h5.9
		c-1,4.7-5.1,8.1-9.9,8.1h-5.8C87.9,76,92,72.6,96.8,72.6L96.8,72.6z M96.8,52.5h5.9c-1,4.7-5.1,8.1-9.9,8.1h-5.8
		C87.9,55.8,92,52.4,96.8,52.5L96.8,52.5z M82.6,108.9H66.5V72.4c2.7,2.7,6.3,4.3,10.1,4.3h6V108.9z M66.7,64.5h5.8
		c4.8,0,8.9,3.4,9.9,8.1h-5.8C71.8,72.6,67.7,69.2,66.7,64.5z M72.6,44.3c4.8,0,8.9,3.4,9.9,8.1h-5.8c-4.8,0-8.9-3.4-9.9-8.1H72.6z
		 M76.6,56.4h6v8.3c-2.6-2.7-6.3-4.3-10.1-4.3h-6v-8.3C69.1,54.9,72.8,56.5,76.6,56.4L76.6,56.4z M26.2,40.3h36.3v68.5h-8.1V68.5
		H26.2L26.2,40.3z M22.2,72.6h28.2v36.3H22.2L22.2,72.6z"/>
</g>
</svg>
