<svg xmlns="http://www.w3.org/2000/svg" width="30" height="30" viewBox="0 0 30 30">
  <g id="Group_2670" data-name="Group 2670" transform="translate(-1164.903 -519.008)">
    <path id="Path_2121" data-name="Path 2121" d="M1191.153,519.008h-22.5a3.753,3.753,0,0,0-3.75,3.75v22.5a3.753,3.753,0,0,0,3.75,3.75h22.5a3.754,3.754,0,0,0,3.75-3.75v-22.5A3.753,3.753,0,0,0,1191.153,519.008Z" fill="#0a62ae"/>
    <path id="Path_2122" data-name="Path 2122" d="M1190.215,534.008h-4.687v-3.75c0-1.035.84-.938,1.875-.938h1.875v-4.687h-3.75a5.625,5.625,0,0,0-5.625,5.625v3.75h-3.75V538.7h3.75v10.313h5.625V538.7h2.812Z" fill="#f8fbfb"/>
  </g>
</svg>
