<?xml version="1.0" encoding="utf-8"?>
<!-- Generator: Adobe Illustrator 22.0.1, SVG Export Plug-In . SVG Version: 6.00 Build 0)  -->
<svg version="1.1" id="Layer_1" xmlns="http://www.w3.org/2000/svg" xmlns:xlink="http://www.w3.org/1999/xlink" x="0px" y="0px"
	 viewBox="0 0 249.2 289.8" style="enable-background:new 0 0 249.2 289.8;" xml:space="preserve">
<style type="text/css">
	.st0{fill:none;}
	.st1{opacity:0.25;fill:#88AFDD;enable-background:new    ;}
	.st2{fill:#E3ECF8;}
	.st3{fill:#49ABE1;}
	.st4{fill:#E1E7F1;}
	.st5{fill:#12499F;}
	.st6{fill:#233E7E;}
	.st7{fill:#F58657;}
	.st8{fill:#F89E76;}
	.st9{fill:#D0DAE4;}
	.st10{fill:#489DD6;}
	.st11{fill:#E16B40;}
	.st12{fill:#94A2BF;}
	.st13{fill:#C8D8EF;}
	.st14{fill:#86ABDA;}
	.st15{fill:none;stroke:#B0CBEA;stroke-width:0;stroke-linecap:round;stroke-linejoin:round;}
	.st16{fill:#B0CBEA;}
	.st17{fill:#FFFFFF;}
	.st18{fill:#F05769;}
	.st19{fill:#A290C5;}
	.st20{fill:#D4D9DF;}
	.st21{fill:#F2F9FD;}
	.st22{fill:url(#SVGID_1_);}
	.st23{fill:url(#SVGID_2_);}
	.st24{fill:url(#SVGID_3_);}
	.st25{fill:url(#SVGID_4_);}
	.st26{fill:#35C6F4;}
	.st27{fill:#57449B;}
	.st28{fill:#452D8A;}
	.st29{fill:#7071B5;}
	.st30{fill:#4C7FC1;}
	.st31{fill:#4857A7;}
	.st32{fill:#69AADD;}
	.st33{fill:#EE2D6B;}
	.st34{fill:#EE438C;}
	.st35{fill:#EE4498;}
	.st36{fill:#86C9EF;}
	.st37{fill:#5BA4DA;}
	.st38{fill:#CB1B6C;}
	.st39{fill:#3D77BC;}
	.st40{fill:none;stroke:#3D77BC;stroke-width:0;stroke-linecap:round;stroke-linejoin:round;}
	.st41{fill:#E2A029;}
	.st42{fill:#FEBD3C;}
	.st43{fill:url(#SVGID_5_);}
	.st44{fill:url(#SVGID_6_);}
	.st45{fill:url(#SVGID_7_);}
	.st46{fill:url(#SVGID_8_);}
	.st47{fill:url(#SVGID_9_);}
	.st48{fill:#343C95;}
	.st49{fill:#61CBE8;}
	.st50{fill:#2CC1D8;}
	.st51{fill:#F2F1F1;}
	.st52{fill:#FCB817;}
	.st53{fill:#EF4673;}
	.st54{fill:#2B2E71;}
	.st55{fill:#62CBE8;}
	.st56{fill:#0DA94B;}
	.st57{fill:#77C043;}
	.st58{fill:#45B649;}
	.st59{fill:#382746;}
	.st60{fill:#263979;}
	.st61{fill:#253D8B;}
	.st62{fill:#CE7C56;}
	.st63{fill:#F9A984;}
	.st64{fill:#4D2C63;}
</style>
<g>
	<path class="st0" d="M245.7,68l-0.2,66.5c0,1-0.2,1.8-0.6,2.4l0.2-0.2c0.2-0.2,0.3-0.4,0.4-0.6c0.1-0.3,0.2-0.6,0.3-0.9
		c0.1-0.3,0.1-0.7,0.1-1.1l0.2-66.5c0-0.4,0-0.9-0.1-1.3c-0.1-0.4-0.2-0.9-0.3-1.3c-0.2-0.4-0.3-0.9-0.5-1.3
		c-0.2-0.4-0.4-0.8-0.6-1.2v-0.1c-0.5-0.8-1.1-1.5-1.7-2.2c-0.3-0.3-0.6-0.6-1-0.9c-0.3-0.2-0.6-0.4-0.9-0.6l-0.5,0.3
		C243.6,61,245.5,64.3,245.7,68z"/>
	<path class="st0" d="M70.1,104c-0.2,0-0.4,0-0.7,0c-1.7,0-7.6-2.4-13.1-4.8c0,0.3,0,0.6,0,0.9c-0.1,1-0.2,2.6-0.2,4.7
		c0.8,3.6,1.6,7.6,2.5,11.2l21.1-12.3c-2.7,0.4-5.2,0.6-6.9,0.7C71.8,104.3,70.9,104.2,70.1,104z"/>
	<path class="st1" d="M24.4,188.1c-0.2-0.2-0.4-0.4-0.6-0.6C24,187.6,24.2,187.9,24.4,188.1z"/>
	<path class="st1" d="M206,250.2v2.4c4.3,0.5,8.4,1.7,11.7,3.6c4.4,2.5,6.6,5.8,6.5,9.2c0,0.2,0,0.4,0,0.5c0,0,0,0.1,0,0.1
		c-0.1,3.1-0.6,5.7-3,8.1c-6.4,6.6-18.1,7.5-26.6,5.7c-4.4-0.8-9-2.7-12.1-6c-2.4-2.6-2.6-5.4-2.6-8.7c-0.1,2.4,1,4.5,2.6,6.2
		c-3.3-3.7-3.4-8-0.2-11.8c-0.9-0.5-1.9-1.2-3.1-2.2c-3.9-3-5.5-1.2-7.2-4.2c-1.1-2-0.7-3.2-0.3-3.9c0-0.3,0.1-0.6,0.2-0.9
		c1-1.2,2.6-1.6,4.1-1c1.1,0.5,2,1.2,3.4,1.7c-0.3-2-0.7-4.7-1.2-7.7l-7.9-4.5c-0.1-0.1-0.3-0.2-0.4-0.3c0,1.2,0,2.5-0.1,4
		c-0.5,5.6,0.5,15.1,1,18.8c0,0.4,0,0.9-0.3,1.3c0.3,1.4,0.7,3.5,1,5.2c0,0.1,0,0.3,0,0.4c0.2,0.7,0.5,1.5,0.2,2.1
		c-0.3,1.1-1.6,2.2-3.7,2.4c-2.1,0.2-3.4-0.4-7.4-3.4c-1.1-0.8-2.1-1.3-2.9-1.6c-0.4,6.2,3.5,12.6,11.8,17.3
		c15.7,9.1,41.1,9.1,56.8,0c15.7-9.1,15.5-23.8-0.2-32.9c-2.5-1.5-5.3-2.7-8.3-3.7l-1.3,0.7C213.2,248.8,209.6,249.8,206,250.2z"/>
	<path class="st1" d="M224,267.3c0-0.2,0.1-0.4,0.1-0.5C224,266.9,224,267.1,224,267.3z"/>
	<path class="st1" d="M153.3,259.1c0-0.3,0.1-0.6,0.2-0.9c1-1.2,2.6-1.6,4-1c1.1,0.5,2.1,1.2,3.5,1.8c-1-7.8-4.3-25.2-5.1-32.1
		c-0.9-7.4,2.5-8,2.5-8c2.8-3.1,9.7-4.7,15.5-5.6c-0.1-8.5,8.9-6.8,9-6.8c0.3,0.1,0.5,0.3,0.8,0.4c0-0.2,0-0.3,0.1-0.5
		c0-0.1,0-0.3,0.1-0.4c0.5-3.2,1.9-7.2,1.9-11.6L129,227.3c-0.9,0.6-1.9,1-2.9,1.3c-0.8,0.2-1.7,0.5-2.5,0.6
		c-0.6,0.1-1.2,0.1-1.7,0.2c-0.5,0.1-1.1,0.1-1.5,0.1c-0.4,0-0.9,0-1.3,0c-0.4,0-0.9-0.1-1.3-0.1v-0.2c-0.4,0-0.8-0.1-1.1-0.1
		c-0.4,0-0.8-0.1-1.3-0.2c-0.5-0.1-0.9-0.2-1.4-0.3c-0.6-0.1-1.1-0.3-1.6-0.5c-0.7-0.2-1.3-0.5-1.9-0.9l-7.4-4.3l0,9.7l-8.3,4.8
		l-8.3-4.8l0.1-19.2L54.6,195c-6,2.1-13.1,2.1-18.8,0.9c-4.4-0.9-9-2.7-12.1-6c-2.4-2.6-2.6-5.4-2.6-8.7c-0.1,2.4,1,4.5,2.6,6.2
		c-3-3.3-3.4-7.3-1-10.8l-7.8-4.5c-8.7,8.1-7.9,18.6,2.3,26.3l-13.5,7.8c-5.1,3-5.1,7.8,0.1,10.7l106.6,61.6c5.1,3,13.4,3,18.5,0
		l25.1-14.6c-0.2-0.2-0.4-0.5-0.6-0.8C152.3,260.9,152.9,259.6,153.3,259.1z"/>
	<path class="st1" d="M189,250.5c0.2,1.1,0.5,2.6,0.8,4.1c2.9-1.1,6.1-1.8,9.4-2.1v-2.3c-3.5-0.4-6.9-1.3-10.1-2.8
		c0.1,0.7,0.2,1.3,0.2,1.8C189.4,249.7,189.2,250.1,189,250.5z"/>
	<path class="st1" d="M183.2,272c-0.2-0.2-0.4-0.4-0.6-0.6C182.8,271.5,183,271.8,183.2,272z"/>
	<path class="st1" d="M223.2,269.2C223.2,269.1,223.2,269.1,223.2,269.2C223.2,269.1,223.2,269.1,223.2,269.2z"/>
	<path class="st1" d="M223.5,268.6c0.1-0.2,0.1-0.3,0.2-0.5C223.6,268.3,223.6,268.4,223.5,268.6z"/>
	<path class="st1" d="M224.2,266.1c0,0,0-0.1,0-0.1c0,0,0-0.1,0-0.1C224.2,266,224.2,266,224.2,266.1z"/>
	<path class="st2" d="M23.8,187.4c0.2,0.2,0.4,0.4,0.6,0.6c0.9,0.9,2,1.7,3.3,2.4c6.5,3.8,16.1,4.7,24.1,2.8l-29-16.7
		C20.4,180.1,20.7,184,23.8,187.4C23.8,187.4,23.8,187.4,23.8,187.4z"/>
	<path class="st3" d="M56.7,116.3c0.4,0,0.8,0,1.2,0l0.6-0.4c-0.9-3.6-1.7-7.6-2.5-11.2C56,107.9,56.1,111.9,56.7,116.3z"/>
	<path class="st3" d="M25.4,115.6c-2.8-5.6-6-12.7-6.9-15c-2.1,1-4.5,2.5-5.5,4.7c-1.3,3-1.5,21.2,2.5,35.6l11.7-6.8
		C26.5,131.2,26.3,122.6,25.4,115.6z"/>
	<path class="st4" d="M69.4,104c0.2,0,0.5,0,0.7,0c0.8,0.2,1.7,0.4,2.7,0.3c1.7,0,4.2-0.3,6.9-0.7c6.6-0.9,14.5-2.3,15.6-2.3
		c0.3-0.5,0.6-1,0.8-1.5c0.5-1.3,0.5-2.8-0.1-4.2c-0.1-0.2-0.2-0.4-0.3-0.6c0,0-0.4,0-1.1,0c-2.7,0-9.3,0-13-0.3
		c-2.7-0.2-8.5-1.2-12.5-0.4c-2.7-1.9-5.8-3.3-5.8-3.3s-5.2-4.3-9.3-7.1c1.5,5,2.3,10.1,2.3,15.3C61.8,101.6,67.7,104,69.4,104z"/>
	<path class="st5" d="M30.1,90.6c5,3.4,4.3,12.2,4.2,19.9c0.5,1.2,1.1,2.9,1.6,4.8c3.6-0.1,7.7,0.5,9.8,0.7c2.9,0.3,7.8,0.3,11,0.3
		c-0.6-4.4-0.7-8.5-0.6-11.5c0-2.1,0.1-3.7,0.2-4.7c0-0.3,0-0.6,0-0.9c0-5.2-0.7-10.3-2.3-15.3c0-0.2-0.1-0.3-0.1-0.5
		c-0.4-1.1-4.4-2.7-4.4-2.7s-0.6-0.3-2.1-0.6c-0.6,0.6-1.4,1.1-2.3,1.4c2.1,0.4,3.4,0.9,3.9,1.1c0.2,2.3,0.2,4.6-0.1,6.9
		c-0.8,4.6-2.6,17.3-2.6,17.3s0,0-0.1-0.1c0,0.1,0,0.2,0,0.2s-0.9-1.6-2.2-3.7l0-0.1c-2.1-3.4-5.3-8.4-7.8-11l0.2,0.1
		c0,0-0.1-0.1-0.1-0.1c-2.8-3-5.5-5.9-6.9-7.3c1.6-1.5,3.2-2.7,3.9-3.2c0-0.4,0-0.7-0.1-1.1c-1.9,1.5-6.5,5.3-9.3,8.2
		C26.2,88.5,28.3,89.2,30.1,90.6z"/>
	<path class="st5" d="M42.2,125.2c-0.7,0.1-1.5,0.2-2.1,0.2c0.4,0.2,0.8,0.4,1.2,0.6l0.2-0.1C41.7,125.6,41.9,125.4,42.2,125.2z"/>
	<path class="st6" d="M29.6,92.9c1.6,1.7,4.1,16.3,4.1,16.3s0.2,0.5,0.6,1.3c0.2-7.7,0.8-16.5-4.2-19.9c-1.8-1.4-3.9-2.1-6.2-1.9
		c0,0-0.1,0-0.1,0c-0.9,0.8-1.5,1.6-2,2.7C24.8,89.6,27.7,91,29.6,92.9z"/>
	<path class="st6" d="M36.9,125.6c-2.5,0-4.1-0.7-5.3-1.7c-0.6-0.2-1.2-0.5-1.7-0.9c-0.9-0.8-2.6-3.8-4.5-7.4
		c0.8,7,1.1,15.6,1.7,18.6l2.3-1.3c0.7-0.6,1.5-1.1,2.4-1.4l9.4-5.5c-0.4-0.2-0.8-0.4-1.2-0.6C38.9,125.5,37.8,125.6,36.9,125.6z"/>
	<path class="st4" d="M44.4,83.5c0.1,0.9-0.8,2.4-3.2,2.5c-2.4,0.1-6.4-0.7-7.9-3.5c0-0.3,0-0.6,0-0.9c-0.7,0.5-2.2,1.7-3.9,3.2
		c1.4,1.4,4.1,4.3,6.9,7.3c0,0,0.1,0.1,0.1,0.1l3.3,2.1l3.5-6.1l0.4,0.4l2.1,1.8l0,0.1l1.8,1.6l1.1-1.2c-0.4,2.3-0.9,5.5-1.3,8.5
		l0,0.1c-0.5,3.3-1,6.4-1.1,7.2c0,0.1,0.1,0.1,0.1,0.1s1.8-12.7,2.6-17.3c0.3-2.3,0.3-4.6,0.1-6.9c-0.6-0.2-1.8-0.7-3.9-1.1
		c-0.3,0.1-0.6,0.2-1,0.3C44.2,82.5,44.4,83.1,44.4,83.5z"/>
	<path class="st7" d="M33.3,82.5c1.5,2.8,5.5,3.6,7.9,3.5c2.4-0.1,3.3-1.6,3.2-2.5c0-0.4-0.2-1-0.3-1.7c-1.3,0.3-2.8,0.2-4.2-0.1
		c-2.3-0.6-4.4-1.7-6.2-3.3l-0.1-0.1c-0.2-0.2-0.5-0.5-0.7-0.7c0.1,0.9,0.2,1.9,0.3,2.8c0,0.4,0,0.7,0.1,1.1
		C33.3,81.9,33.3,82.2,33.3,82.5z"/>
	<path class="st8" d="M33.7,78.4c1.8,1.6,3.9,2.7,6.2,3.3c1.4,0.3,2.8,0.4,4.2,0.1c0.3-0.1,0.7-0.2,1-0.3c0.9-0.3,1.7-0.8,2.3-1.4
		c0.1-0.1,0.3-0.2,0.4-0.4c1.7-2.1,2.6-10.5,0.9-17.7c-0.3-1.4-0.8-2.7-1.5-3.8c-0.1,0.1-0.2,0.2-0.3,0.3c-1.9,1.2-3.9,1-8.6,1.9
		C35,61,33.5,60.5,33,60.2c0.8,0.7,1.4,1.4,2,2.2c1.4,1.8-0.2,4.1,1.2,5.5c1,1,1.6,2.4,1.4,3.9c0,1.2-0.6,1.8-1.2,2.1
		c-0.6,0.3-0.8-2.1-1.8-3c-1-0.9-1.2-2.1-2.8-2.8c-1.6-0.7-3-0.2-3,2.3s3.9,3,3.9,3s1.2,2.3,1.4,3c0.2,0.7-0.3,0.9-1.2,1.1
		c0,0-0.1,0-0.1,0c0,0,0.1,0.1,0.1,0.1c0,0,0,0,0,0c0.2,0.2,0.5,0.5,0.7,0.7L33.7,78.4z"/>
	<path class="st9" d="M43.5,93.1l-1.9-1.8l1.7-3l0.3,0.3l-0.4-0.4l-3.5,6.1l-3.3-2.1l-0.2-0.1c2.5,2.6,5.7,7.6,7.8,11L43.5,93.1z"/>
	<path class="st9" d="M47.3,99.4c0.4-3,0.9-6.2,1.3-8.5l-1.1,1.2l-1.8-1.6l-0.3,2.2L47.3,99.4z"/>
	<path class="st10" d="M47.3,99.4l-1.9-6.7l0.3-2.2l0-0.1l-2.1-1.8l-0.3-0.3l-1.7,3l1.9,1.8l0.5,10l0,0.1c1.3,2.1,2.2,3.7,2.2,3.7
		s0-0.1,0-0.2C46.3,105.9,46.8,102.8,47.3,99.4L47.3,99.4z"/>
	<path class="st11" d="M34.1,76.4c-0.2-0.7-1.4-3-1.4-3s-3.9-0.5-3.9-3s1.4-3,3-2.3c1.6,0.7,1.8,1.9,2.8,2.8c1,0.9,1.2,3.3,1.8,3
		c0.6-0.3,1.2-0.9,1.2-2.1c0.2-1.5-0.4-2.9-1.4-3.9c-1.4-1.4,0.2-3.7-1.2-5.5c-0.6-0.8-1.2-1.6-2-2.2c0.5,0.4,2,0.9,5.3,0.2
		c4.7-0.9,6.7-0.7,8.6-1.9c0.1-0.1,0.2-0.2,0.3-0.3c1-1,1.2-2.7,0.3-3.9c-0.1-0.2-0.2-0.3-0.4-0.4c-1.2-0.9-3.9-1.4-7.2-2.5
		c-3.3-1.1-5.1-0.5-9,0.5c-3.9,1-7.7,4.9-6.8,7.7c-1.6,3.4-1.3,7.3,0.7,10.4c3.4,5.1,7,7.5,8,7.5c0,0,0.1,0,0.1,0
		C33.8,77.3,34.3,77.1,34.1,76.4z"/>
	<path class="st12" d="M31.8,131.5c-0.9,0.3-1.7,0.8-2.4,1.4L31.8,131.5z"/>
	<path class="st12" d="M41.5,125.9l1.4-0.8c-0.2,0-0.5,0.1-0.7,0.1C41.9,125.4,41.7,125.6,41.5,125.9z"/>
	<polygon class="st13" points="94.8,237.4 103.1,232.6 103.1,222.9 94.9,218.2 	"/>
	<polygon class="st14" points="86.6,213.4 86.5,232.6 94.8,237.4 94.9,218.2 	"/>
	<path class="st15" d="M238.7,152.9v0.4c0,0.1,0,0.3,0,0.4"/>
	<path class="st16" d="M234.9,158.5l-14.1,8.2c0.8,1.8,1.3,4,1.4,6.4l12.7-7.4l0.2-0.1l0.3-0.2c0.2-0.1,0.3-0.2,0.5-0.3l0.4-0.3
		l0.4-0.3l0.1-0.1l0.5-0.5l0.1-0.1l0.3-0.3l0.1-0.1c0.1-0.1,0.2-0.3,0.3-0.5c0-0.1,0.1-0.1,0.1-0.2v-0.1c0.1-0.1,0.1-0.3,0.2-0.4
		c0.1-0.1,0.1-0.1,0.1-0.2s0-0.1,0-0.1s0.1-0.3,0.1-0.4s0-0.2,0.1-0.3c0,0,0,0,0-0.1c0-0.1,0-0.3,0-0.4c0-0.1,0-0.2,0-0.3v-0.1v-6.7
		c0,0.1,0,0.2-0.1,0.3C238.3,155.6,237.1,157.3,234.9,158.5z"/>
	<path class="st16" d="M51.8,193.3c-8,1.9-17.6,0.9-24.1-2.8c-1.3-0.8-2.4-1.6-3.3-2.4c-0.2-0.2-0.4-0.4-0.6-0.6c0,0,0,0,0,0
		c-1.6-1.7-2.7-3.8-2.6-6.2c0,3.3,0.2,6.1,2.6,8.7c3.1,3.3,7.7,5.1,12.1,6c5.7,1.2,12.8,1.2,18.8-0.9l31.9,18.4l8.3,4.8l8.2,4.8
		l7.4,4.3c0.6,0.4,1.2,0.7,1.9,0.9c0.5,0.2,1,0.4,1.6,0.5c0.5,0.1,0.9,0.2,1.4,0.3c0.5,0.1,0.9,0.2,1.3,0.2c0.3,0,0.7,0.1,1.1,0.1
		v0.2c0.4,0,0.9,0.1,1.3,0.1c0.4,0,0.9,0,1.3,0c0.4,0,1,0,1.5-0.1c0.5-0.1,1.1-0.1,1.7-0.2c0.8-0.1,1.7-0.4,2.5-0.6
		c1-0.3,2-0.7,2.9-1.3l56.7-32.9c0-1.7-0.2-3.5-0.7-5.4c-0.1-0.4-0.2-0.9-0.4-1.3L129,220.1c-5.1,3-13.4,3-18.5,0L3.9,158.5
		c-2.3-1.3-3.5-3-3.8-4.7c-0.1-0.3-0.1-0.7-0.1-1v7.5c0,2,1.3,3.9,3.9,5.4l11.1,6.4l7.8,4.5L51.8,193.3z"/>
	<path class="st2" d="M204.9,142.2c-1.4,3.7-1.1,7.9-2.3,9.5c-0.2,0.3-0.5,0.6-0.8,0.9c0.6,1,1.4,2.4,2.4,3.8c1.3-0.6,2.1-1,2.1-1
		c0.4,0.6,1,1.2,1.5,1.7c1.4-0.9,2.5-1.5,3.1-1.5c2.8-0.2,6.3,0.7,7.2,4.6c0.2,0.7,0.3,1.5,0.2,2.3c0.9,1.1,1.7,2.6,2.5,4.3
		l14.1-8.2c2.2-1.2,3.4-2.9,3.7-4.5c0.4-2.2-0.9-4.5-3.8-6.2l-30.6-17.7c0.1,0.2,0.1,0.3,0.2,0.5
		C205.6,133.9,206.3,138.5,204.9,142.2z"/>
	<path class="st2" d="M151.7,115.8c0-0.1,0-0.2,0-0.3c0,0,0,0,0-0.1c0,0.2,0,0.3,0,0.5L151.7,115.8z"/>
	<path class="st2" d="M155.1,195.2c0,0.1,0,0.1-0.1,0.2L155.1,195.2C155.1,195.2,155.1,195.2,155.1,195.2z"/>
	<path class="st2" d="M3.9,158.5l106.6,61.6c5.1,3,13.4,3,18.5,0l55.6-32.4c-0.2-0.8-0.4-1.5-0.6-2.2c-6.3,3-15.3,7-17.5,7
		c0,0-0.1,0-0.1,0c0,0,0,0,0,0c0,0-4.9,0.9-7.5-4.5c-0.6-1.3-1.4-3.2-2.1-5.2l-7.5,4.3l-29.1-17l20.5-11.8l6.3,3.6
		c-0.1-0.5-0.1-1-0.4-1.6c-0.3-0.7-0.5-1.5-0.6-2.3c-0.1-0.5-0.6-1.3-2.3-3c-1.7-1.7-1.7-2.4-1.2-2.9c0.1-0.1,0.2,0,0.4,0
		l-12.4-12.6l23-5.9l23.6,24.1l-21.2,5.4c0,0.1,0.1,0.3,0.1,0.4c0.2,0,0.4,0,0.6,0c0,0,1.4,2.7,3,5.7l10.3,6l-5,2.9
		c0.8,1.2,1.8,2.7,2.6,4.2c2.4-1.6,4.9-2.8,4.9-2.8s7.7-6.5,11.7-8.8c0.3-0.7,0.7-1.4,1.1-2.1c0.9-1.5,2.5-2.9,4.3-4.2
		c-0.3-0.1-0.4-0.2-0.4-0.2l0.9-1.8c0,0,0.8-0.4,2.4-1c0.6-0.8,1-2,0.9-3.6c-0.2-0.7-0.3-1.3-0.5-1.8c-1.7,0-3.5-0.8-5.3-3.1
		c-1.6-2.1-2.5-4.5-3.1-6.7c-0.8-0.7-1.6-1.4-1.8-2.4c-0.5-2.3,0.9-3,0.7-7.4c-0.2-4.4,3.7-7.4,3.7-7.4c-0.9-3.6,2.7-5,5.9-5.3
		l-64.8-37.5c-3.6-2.1-8.8-2.7-13.4-1.8v3.4c0,1.7-1.2,2.4-2.7,1.5l-3.9-2.2l-13.7,8c0.7,0,1.1,0,1.1,0c0.1,0.2,0.2,0.4,0.3,0.6
		c0.6-0.1,1.1-0.4,1.6-0.6c0.3-0.3,1.7-1.6,2.5-1.5c1.1,0.1,2.1,0.1,3.2,0.1c0.3,0,1.3-0.1,1.3,0.3c0,0.4-0.3,0.8-1,0.9
		c-0.7,0-1.3,0.1-2,0.2c-0.8,0.3-0.6,0.3-0.6,0.3c0.5,0.1,1.1,0.2,1.6,0.2c1.1-0.1,2.2-0.5,3.2-1c0.7-0.4,2.3-1.8,2.7-2
		c0.4-0.2,1.1-0.5,1.2,0.1c0.1,0.6-1.3,1.4-1.6,1.8c-0.3,0.4-1.1,1-1.1,1.8s-0.1,0.7-0.6,1.1s-0.7,1-1,1.3c-0.3,0.3-2.2,2-3.2,1.9
		c-1.6-0.1-3.3-0.4-4.9-0.8c-0.4-0.1-0.8,0-1.2,0.1c-0.2,0.5-0.4,1-0.8,1.5c-1.1,0-9,1.5-15.6,2.3l-21.1,12.3l-0.6,0.4
		c1.1,0,1.9,0,1.9,0c0.1,0.2,0.2,0.4,0.3,0.7c0.6,0,1.3,0,1.6,0c0.7,0,6-0.5,7-0.5c0.9,0,0.9,0.8,0.9,1l6.3-3.7l29.2,17l-20.5,11.8
		l-29.2-16.9l5.8-3.4l-0.7-0.3l-0.7-0.1c-0.1,0.2-0.3,0.5-0.4,0.7c-1.2,0-9.7,1.6-16.5,2.5l-1.4,0.8l-0.2,0.1l-9.4,5.5l-2.4,1.4
		l-2.3,1.3L15.5,141l-11.7,6.8c-2.8,1.6-4,3.8-3.7,6C0.4,155.5,1.6,157.2,3.9,158.5z M37.2,164.7l20.5-12c0.4-0.2,0.9-0.2,1.4,0
		c0.2,0.1,0.3,0.2,0.3,0.3c0,0.3-0.1,0.5-0.3,0.6l-20.5,11.9c-0.4,0.2-0.9,0.2-1.4,0C36.8,165.3,36.8,164.9,37.2,164.7z M44.7,146.5
		l3.3-1.8c3.9,2.4,4.3,6,1.2,8.7l-3.4-2C47.2,149.8,46.8,147.9,44.7,146.5z M50.2,164.3c-0.5,0.2-1,0.2-1.5,0
		c-0.4-0.3-0.4-0.7,0-0.9l13.6-7.8c0.5-0.2,1-0.2,1.5,0c0.4,0.2,0.4,0.6,0,0.8L50.2,164.3z M51.4,159.3l8.7-4.9c0.5-0.2,1-0.2,1.5,0
		c0.4,0.2,0.4,0.6,0,0.8l-8.7,5c-0.5,0.2-1,0.2-1.5,0c-0.1-0.1-0.3-0.2-0.3-0.3C51,159.6,51.2,159.4,51.4,159.3z M48.1,169.6
		l4.1-2.3l12.3,7.1v1.8l-4,2.3l-12.4-7.1V169.6z M56,166.8V165l4.1-2.3l27,15.6v1.7l-4.1,2.4L56,166.8z M102.4,177.9l-0.1,1.8
		l-4,2.4l-34.4-19.9v-1.8l4.1-2.3L102.4,177.9z M30.4,144.5c4.7-2.7,12.3-2.7,17.1-0.1l-3.3,1.9c-3.3-1.6-7.2-1.6-10.5,0.1l-0.2,0.1
		l-3.3-1.9L30.4,144.5z M34.2,152.8c3.3,1.5,7.1,1.4,10.3-0.2c0.4-0.2,0.7-0.5,1-0.7l3.3,1.9c-0.3,0.3-0.7,0.5-1.1,0.7
		c-4.6,2.7-12,2.8-16.8,0.2L34.2,152.8z M137.5,185.9c0.8-0.4,1.8-0.4,2.6,0l14.5,8.4c0.4,0.2,0.5,0.5,0.5,0.8c0.1,0,0.2,0,0.4-0.1
		v0.7c0,0.1,0,0.1,0,0.1c0,0.1,0,0.1,0,0.1v0.1v0.1l-0.1,0.1h-0.1h-0.1l-20.8,12.1l-0.3,0.1H134h-0.1h-0.1h-0.2h-0.1h-0.2h-0.8h-0.2
		h-0.1h-0.1l-0.2-0.1h-0.1c-0.1,0-0.2,0-0.3-0.1l-14.5-8.4c-0.1-0.1-0.2-0.2-0.3-0.3c-0.4-0.1-0.6-0.6-0.5-1
		c0.1-0.2,0.3-0.4,0.5-0.5L137.5,185.9z M109.7,114.8v-0.4v-0.1c0,0,0,0,0,0c0-3.1,2-6.2,6.1-8.5c8.2-4.7,21.5-4.7,29.7,0v1
		c4.1,2.4,6.2,5.5,6.2,8.6c0-0.1,0-0.2,0-0.2c0-0.1,0-0.2,0-0.3v0c0-0.1,0-0.2,0-0.1c0,0,0,0,0,0.1v0c0,0.1,0,0.2,0,0.3
		c0,0.1,0,0.2,0,0.2c0,0,0,0,0,0.1c0,0.1,0,0.2,0,0.3v2.3c0,0.1,0,0.1,0,0.2c0,0.1,0,0.1,0,0.2c0,0.1,0,0.2,0,0.3c0,0,0,0.1,0,0.1
		c0.7,3.7-1.4,7.6-6.3,10.4c-8.6,5-22.7,5-31.3,0C107.3,125.4,105.9,119.5,109.7,114.8z M29.7,144.8l3.4,2c-2.2,1.7-2.1,4.1,0.5,5.6
		l-3.3,1.9C25.9,151.7,25.7,147.6,29.7,144.8z"/>
	<path class="st17" d="M165,178.1l5-2.9l-10.3-6c1.3,2.4,2.7,5,3.8,6.7C163.9,176.5,164.4,177.2,165,178.1z"/>
	<path class="st17" d="M150.1,178.6c-0.3,0.2-0.6,0.2-0.9,0c-0.3-0.1-0.3-0.4,0-0.5l5-2.9c0-0.1-0.1-0.3-0.1-0.4l-2.2,1.3
		c-0.3,0.2-0.6,0.2-0.9,0c-0.1-0.1-0.2-0.1-0.2-0.2c0-0.2,0.1-0.4,0.2-0.4l2.8-1.6c-0.1-0.2-0.1-0.4-0.2-0.6l-10.7,6.2
		c-0.3,0.1-0.6,0.1-0.9,0c-0.1-0.1-0.2-0.1-0.2-0.2c0-0.2,0.1-0.4,0.2-0.4l11.3-6.5c-1-2.9-1.7-5.2-1.9-5.7c0.1-0.2,0.2-0.4,0.4-0.6
		c-0.9-0.7-2.7-1-3.8-2.2c-0.6-0.7-0.7-1.3-0.8-2l-6.3-3.6l-20.5,11.8l29.1,17l7.5-4.3c-0.8-2.1-1.6-4.5-2.4-6.7L150.1,178.6z
		 M143.5,165.3c0.5,0.1,1,0.3,1.6,0.6l-4.6,2.7l-5.8-1.7C136.3,165,140.2,164.3,143.5,165.3z M135,172.8c-2.5-1.4-3-3.5-1.5-5.3
		l7,2.1l5.6-3.3c3.1,1.8,3.1,4.7,0,6.5C142.6,174.6,138.5,174.6,135,172.8z"/>
	<path class="st18" d="M145.1,165.9c-0.6-0.3-1.1-0.5-1.6-0.6c-3.3-1-7.2-0.3-8.8,1.6l5.8,1.7L145.1,165.9z"/>
	<path class="st19" d="M146.1,166.3l-5.6,3.3l-7-2.1c-1.5,1.8-1,3.9,1.5,5.3c3.5,1.8,7.6,1.8,11.1,0
		C149.2,171,149.2,168.1,146.1,166.3z"/>
	<path class="st16" d="M141.7,179.3c0,0.1,0.1,0.1,0.2,0.2c0.3,0.1,0.6,0.1,0.9,0l10.7-6.2c-0.1-0.3-0.2-0.6-0.3-0.9l-11.3,6.5
		C141.8,178.9,141.7,179.1,141.7,179.3z"/>
	<path class="st20" d="M150.7,175.9c0,0.1,0.1,0.1,0.2,0.2c0.3,0.2,0.6,0.2,0.9,0l2.2-1.3c-0.1-0.3-0.2-0.6-0.3-0.9l-2.8,1.6
		C150.8,175.5,150.7,175.7,150.7,175.9z"/>
	<path class="st20" d="M149.2,178.6c0.3,0.2,0.6,0.2,0.9,0l4.4-2.5c-0.1-0.3-0.2-0.6-0.3-0.9l-5,2.9
		C148.9,178.2,148.9,178.5,149.2,178.6z"/>
	<path class="st21" d="M116.2,198.5c-0.1,0.4,0.1,0.8,0.5,1c-0.1-0.1-0.1-0.2-0.2-0.3v-0.1v-0.6c0-0.1,0-0.1,0-0.2
		c0,0.1,0,0.1,0,0.2c0.1,0.2,0.3,0.4,0.5,0.5l14.5,8.4c0.1,0,0.2,0.1,0.3,0.1l0.3,0.1h0.3h0.3h0.3h0.1h0.2h0.2h0.2h0.1
		c0.1,0,0.2-0.1,0.3-0.1l20.8-12.1h0.1l0,0c0-0.1,0-0.1,0.1-0.2c0,0,0,0,0,0s0,0,0-0.1c0,0,0,0,0,0c0-0.3-0.1-0.6-0.5-0.8l-14.5-8.4
		c-0.8-0.4-1.8-0.4-2.6,0L116.7,198C116.5,198.1,116.3,198.3,116.2,198.5z M118.8,198.5l19.8-11.5c0.3-0.1,0.6-0.1,0.8,0l13.1,7.6
		c0.2,0.1,0.2,0.3,0,0.5l-19.8,11.5c-0.3,0.1-0.6,0.1-0.8,0l-13.1-7.6C118.6,198.9,118.6,198.6,118.8,198.5z"/>
	<path class="st0" d="M116.5,198.3c0,0.1,0,0.1,0,0.2"/>
	<path class="st2" d="M155.1,195.3L155.1,195.3c-0.1,0.2-0.3,0.4-0.5,0.5l-20.8,12.1c-0.8,0.4-1.8,0.4-2.6,0l-14.5-8.4c0,0,0,0,0,0
		c0.1,0.1,0.2,0.3,0.3,0.3l14.5,8.4c0.1,0.1,0.2,0.1,0.3,0.1h0.1l0.2,0.1h0.1h0.1h0.2h0.8h0.2h0.1h0.2h0.1h0.1h0.1l0.3-0.1
		l20.8-12.1h0.1h0.1l0.1-0.1V196v-0.1c0,0,0,0,0-0.1c0,0,0,0,0-0.1V195c-0.2,0.1-0.3,0.1-0.4,0.1
		C155.1,195.1,155.1,195.2,155.1,195.3C155.1,195.2,155.1,195.2,155.1,195.3z"/>
	
		<linearGradient id="SVGID_1_" gradientUnits="userSpaceOnUse" x1="-752.0793" y1="938.8342" x2="-756.9592" y2="976.4142" gradientTransform="matrix(-1 0 0 1 -622.0099 -787.87)">
		<stop  offset="0" style="stop-color:#C8E5F8"/>
		<stop  offset="1" style="stop-color:#909ACD"/>
	</linearGradient>
	<path class="st22" d="M155.1,195.3L155.1,195.3c-0.1,0.2-0.3,0.4-0.5,0.5l-20.8,12.1c-0.8,0.4-1.8,0.4-2.6,0l-14.5-8.4c0,0,0,0,0,0
		c0.1,0.1,0.2,0.3,0.3,0.3l14.5,8.4c0.1,0.1,0.2,0.1,0.3,0.1h0.1l0.2,0.1h0.1h0.1h0.2h0.8h0.2h0.1h0.2h0.1h0.1h0.1l0.3-0.1
		l20.8-12.1h0.1h0.1l0.1-0.1V196v-0.1c0,0,0,0,0-0.1c0,0,0,0,0-0.1V195c-0.2,0.1-0.3,0.1-0.4,0.1
		C155.1,195.1,155.1,195.2,155.1,195.3C155.1,195.2,155.1,195.2,155.1,195.3z"/>
	<path class="st21" d="M155.1,195.2C155.1,195.2,155.1,195.2,155.1,195.2c0,0,0-0.1,0-0.1c0,0,0,0,0,0
		C155.1,195.2,155.1,195.2,155.1,195.2z"/>
	
		<linearGradient id="SVGID_2_" gradientUnits="userSpaceOnUse" x1="-771.0604" y1="936.3694" x2="-775.9404" y2="973.9494" gradientTransform="matrix(-1 0 0 1 -622.0099 -787.87)">
		<stop  offset="0" style="stop-color:#C8E5F8"/>
		<stop  offset="1" style="stop-color:#909ACD"/>
	</linearGradient>
	<path class="st23" d="M155.1,195.2C155.1,195.2,155.1,195.2,155.1,195.2c0,0,0-0.1,0-0.1c0,0,0,0,0,0
		C155.1,195.2,155.1,195.2,155.1,195.2z"/>
	<path class="st21" d="M131.2,207.9c0.8,0.4,1.8,0.4,2.6,0l20.8-12.1c0.2-0.1,0.4-0.3,0.4-0.4l0,0h-0.1l-20.8,12.1
		c-0.1,0-0.2,0.1-0.3,0.1h-0.1h-0.2h-0.2h-0.2H133h-0.3h-0.3h-0.3l-0.3-0.1c-0.1,0-0.2-0.1-0.3-0.1L117,199
		c-0.2-0.1-0.4-0.3-0.5-0.5v0.6v0.1c0,0.1,0.1,0.2,0.2,0.3c0,0,0,0,0,0L131.2,207.9z"/>
	
		<linearGradient id="SVGID_3_" gradientUnits="userSpaceOnUse" x1="-751.7708" y1="938.8743" x2="-756.6507" y2="976.4543" gradientTransform="matrix(-1 0 0 1 -622.0099 -787.87)">
		<stop  offset="0" style="stop-color:#C8E5F8"/>
		<stop  offset="1" style="stop-color:#909ACD"/>
	</linearGradient>
	<path class="st24" d="M131.2,207.9c0.8,0.4,1.8,0.4,2.6,0l20.8-12.1c0.2-0.1,0.4-0.3,0.4-0.4l0,0h-0.1l-20.8,12.1
		c-0.1,0-0.2,0.1-0.3,0.1h-0.1h-0.2h-0.2h-0.2H133h-0.3h-0.3h-0.3l-0.3-0.1c-0.1,0-0.2-0.1-0.3-0.1L117,199
		c-0.2-0.1-0.4-0.3-0.5-0.5v0.6v0.1c0,0.1,0.1,0.2,0.2,0.3c0,0,0,0,0,0L131.2,207.9z"/>
	<path class="st21" d="M118.8,199l13.1,7.6c0.2,0.1,0.5,0.1,0.8,0l19.8-11.5c0.2-0.2,0.2-0.4,0-0.5l-13.1-7.6
		c-0.2-0.1-0.5-0.1-0.8,0l-19.8,11.5C118.6,198.6,118.6,198.9,118.8,199z"/>
	
		<linearGradient id="SVGID_4_" gradientUnits="userSpaceOnUse" x1="851.054" y1="1004.8851" x2="864.994" y2="973.6652" gradientTransform="matrix(1 0 0 1 -724.44 -787.87)">
		<stop  offset="0" style="stop-color:#61CBE8"/>
		<stop  offset="1" style="stop-color:#EAEDED"/>
	</linearGradient>
	<path class="st25" d="M118.8,199l13.1,7.6c0.2,0.1,0.5,0.1,0.8,0l19.8-11.5c0.2-0.2,0.2-0.4,0-0.5l-13.1-7.6
		c-0.2-0.1-0.5-0.1-0.8,0l-19.8,11.5C118.6,198.6,118.6,198.9,118.8,199z"/>
	<path class="st17" d="M69.6,117.5c0.4,0.6,0.7,1.3,0.9,2.1c0,0.7,0,1.4,0.2,2c0,0,0,0,0,0c1.9-1.3,5.1-1.7,7.9-0.8
		c0.5,0.1,1.1,0.4,1.6,0.6l-4.6,2.7l-5-1.5c-0.1,0.2-0.1,0.3-0.2,0.5c-0.1,0.1-0.1,0.2-0.2,0.3l5.5,1.7l5.6-3.3
		c3.1,1.8,3.1,4.7,0,6.5c-3.5,1.8-7.6,1.8-11.1,0c-1.9-1.1-2.6-2.5-2.2-3.9c-0.2,0-0.5,0-0.7-0.2c-0.5-0.2-0.5-0.4,0.1-0.7
		c0.4-0.2,0.7-0.5,1-0.8c-0.5,0.4-1.1,0.7-1.7,0.8c-1.2,0.2-2.4,0.1-3.6-0.3l-1.9-0.9l-5.8,3.4l29.2,16.9l20.5-11.8l-29.2-17
		L69.6,117.5C69.6,117.5,69.6,117.5,69.6,117.5z M93.9,128.8c0.3,0.1,0.3,0.4,0,0.5l-8.7,5c-0.3,0.1-0.6,0.1-0.9,0
		c-0.1-0.1-0.2-0.1-0.2-0.2c0-0.2,0.1-0.4,0.2-0.4l8.7-4.9C93.3,128.7,93.6,128.7,93.9,128.8z M92.5,127.7c0.1,0.1,0.2,0.1,0.2,0.2
		c0,0.2-0.1,0.3-0.2,0.4l-5.5,3.2c-0.3,0.1-0.6,0.1-0.9,0c-0.3-0.1-0.3-0.4,0-0.5l5.5-3.3C91.9,127.6,92.2,127.6,92.5,127.7z
		 M91,127c0.3,0.1,0.3,0.4,0,0.5L78,135c-0.3,0.1-0.6,0.1-0.9,0c-0.3-0.1-0.3-0.4,0-0.5l13-7.5C90.4,126.9,90.7,126.9,91,127z"/>
	<path class="st19" d="M80.2,121.4c-0.5-0.2-1.1-0.5-1.6-0.6c-2.8-0.8-6-0.5-7.9,0.8c0.1,0.4,0,0.7-0.1,1l5,1.5L80.2,121.4z"/>
	<path class="st26" d="M70.2,128.3c3.5,1.8,7.6,1.8,11.1,0c3.1-1.8,3.1-4.7,0-6.5l-5.6,3.3l-5.5-1.7c-0.3,0.3-0.7,0.4-1.2,0.7
		c-0.3,0.2-0.7,0.3-1,0.3C67.6,125.8,68.3,127.2,70.2,128.3z"/>
	<path class="st16" d="M77.1,135c0.3,0.1,0.6,0.1,0.9,0l13-7.5c0.3-0.1,0.3-0.4,0-0.5c-0.3-0.1-0.6-0.1-0.9,0l-13,7.5
		C76.8,134.6,76.8,134.9,77.1,135z"/>
	<path class="st20" d="M86.1,131.5c0.3,0.1,0.6,0.1,0.9,0l5.5-3.2c0.1-0.1,0.2-0.2,0.2-0.4c0-0.1-0.1-0.1-0.2-0.2
		c-0.3-0.1-0.6-0.1-0.9,0l-5.5,3.3C85.8,131.1,85.8,131.4,86.1,131.5z"/>
	<path class="st26" d="M84.1,134.1c0,0.1,0.1,0.1,0.2,0.2c0.3,0.1,0.6,0.1,0.9,0l8.7-5c0.3-0.1,0.3-0.4,0-0.5
		c-0.3-0.1-0.6-0.1-0.9,0l-8.7,4.9C84.2,133.7,84.1,133.9,84.1,134.1z"/>
	<polygon class="st27" points="98.3,182.1 102.3,179.7 102.4,177.9 98.3,180.3 	"/>
	<polygon class="st28" points="98.3,180.3 63.9,160.4 63.9,162.2 98.3,182.1 	"/>
	<polygon class="st29" points="68,158.1 63.9,160.4 98.3,180.3 102.4,177.9 	"/>
	<polygon class="st30" points="83,180.6 83,182.4 87.1,180 87.1,178.3 	"/>
	<polygon class="st31" points="83,180.6 56,165 56,166.8 83,182.4 	"/>
	<polygon class="st32" points="83,180.6 87.1,178.3 60.1,162.7 56,165 	"/>
	<polygon class="st33" points="60.5,176.8 60.5,178.5 64.5,176.2 64.5,174.4 	"/>
	<polygon class="st34" points="60.5,176.8 48.1,169.6 48.1,171.4 60.5,178.5 	"/>
	<polygon class="st35" points="64.5,174.4 52.2,167.3 48.1,169.6 60.5,176.8 	"/>
	<path class="st16" d="M37.2,165.5c0.5,0.2,1,0.2,1.4,0l20.5-11.9c0.2-0.1,0.3-0.3,0.3-0.6c0-0.1-0.1-0.2-0.3-0.3
		c-0.5-0.2-1-0.2-1.4,0l-20.5,12C36.8,164.9,36.8,165.3,37.2,165.5z"/>
	<path class="st16" d="M51.4,160.2c0.5,0.2,1,0.2,1.5,0l8.7-5c0.4-0.2,0.4-0.6,0-0.8c-0.5-0.2-1-0.2-1.5,0l-8.7,4.9
		c-0.2,0.1-0.4,0.3-0.3,0.6C51.1,160,51.3,160.1,51.4,160.2z"/>
	<path class="st16" d="M63.8,155.6c-0.5-0.2-1-0.2-1.5,0l-13.6,7.8c-0.4,0.2-0.4,0.6,0,0.9c0.5,0.2,1,0.2,1.5,0l13.6-7.9
		C64.2,156.2,64.2,155.8,63.8,155.6z"/>
	<path class="st36" d="M33.7,146.4c3.3-1.7,7.2-1.7,10.5-0.1l3.3-1.9c-4.8-2.6-12.4-2.6-17.1,0.1l-0.2,0.1l3.3,1.9L33.7,146.4z"/>
	<path class="st36" d="M49.2,153.4c3.1-2.7,2.7-6.3-1.2-8.7l-3.3,1.8c2.1,1.4,2.5,3.3,1.1,4.9L49.2,153.4z"/>
	<path class="st37" d="M30.9,154.7c4.8,2.6,12.2,2.5,16.8-0.2c0.4-0.2,0.8-0.4,1.1-0.7l-3.3-1.9c-0.3,0.2-0.6,0.5-1,0.7
		c-3.2,1.6-7,1.7-10.3,0.2L30.9,154.7z"/>
	<path class="st37" d="M30.3,154.3l3.3-1.9c-2.6-1.5-2.7-3.9-0.5-5.6l-3.4-2C25.7,147.6,25.9,151.7,30.3,154.3z"/>
	<path class="st32" d="M108.8,80.1v-2.8c0-0.4-0.2-0.9-0.5-1.1c-0.4-0.2-0.5,0-0.5,0.5v2.8c0,0.4,0.2,0.9,0.5,1.1
		C108.7,80.8,108.8,80.6,108.8,80.1z"/>
	<path class="st32" d="M104.6,70.9c-0.4-0.2-0.5,0-0.5,0.5v2.8c0,0.4,0.2,0.9,0.5,1.1c0.4,0.1,0.5-0.1,0.5-0.5V72
		C105.1,71.6,104.9,71.1,104.6,70.9z"/>
	<path class="st32" d="M114.8,87.8v-3.4V61.5c-0.1-1.9-1.1-3.7-2.7-4.7L93.9,46.3c-1.5-0.9-2.7-0.2-2.7,1.5v26.3
		c0.1,1.9,1.1,3.7,2.7,4.7l7.3,4.2l0.3,0.9l1.4,3.6l1.4-2l0.4-0.5l3.5,2.1l3.9,2.2C113.6,90.2,114.8,89.5,114.8,87.8z M94.8,55.8V55
		c0-0.3,0.2-0.6,0.5-0.6c0.1,0,0.2,0,0.3,0.1l3.5,2c0.3,0.1,0.4,0.4,0.4,0.6v0.7c0,0.3-0.3,0.6-0.6,0.6c-0.1,0-0.2,0-0.3-0.1l-3.5-2
		C94.9,56.2,94.8,56,94.8,55.8z M98.6,67.7l-2,6.7l-0.8-0.5l1.9-6.7l-2.5-1.5v-0.9l3.4,2V67.7z M102.8,75.8c0,1.3-0.5,1.9-1.7,1.2
		c-1.1-0.7-1.8-1.9-1.7-3.2v-0.6l0.8,0.5v0.6c-0.1,0.7,0.3,1.4,0.9,1.8c0.6,0.4,0.9,0,0.9-0.8v-1.7c0.1-0.7-0.3-1.4-0.9-1.8
		c-0.5-0.3-0.8-0.1-0.8,0.4v0.2l-0.8-0.5l0.2-4.7l2.9,1.9V70l-2.2-1.3l-0.1,2.6c0.2-0.3,0.6-0.4,1.1-0.1c1,0.6,1.5,1.7,1.4,2.9V75.8
		z M95.2,59.9c-0.2-0.1-0.3-0.3-0.3-0.5v-0.7c0-0.3,0.3-0.6,0.6-0.6c0.1,0,0.2,0,0.3,0.1l14.5,8.4c0.1,0.1,0.2,0.3,0.2,0.5v0.7
		c0,0.3-0.2,0.6-0.5,0.6c-0.1,0-0.2,0-0.3-0.1L95.2,59.9z M104.6,75.8c-0.7-0.4-1.1-1.2-1.1-2V71c0-0.8,0.3-1.2,1.1-0.8
		c0.7,0.4,1.1,1.2,1.1,2V75C105.7,75.8,105.4,76.2,104.6,75.8z M104.7,79l3-6.9l0.5,0.2l-3,7L104.7,79z M107.2,79.1v-2.7
		c0-0.8,0.4-1.2,1.1-0.8c0.7,0.4,1.1,1.2,1.1,2v2.7c0,0.9-0.3,1.2-1.1,0.8C107.6,80.7,107.2,79.9,107.2,79.1z"/>
	<path class="st17" d="M98.6,58.3c0.1,0.1,0.2,0.1,0.3,0.1c0.3,0,0.6-0.3,0.6-0.6v-0.7c0-0.2-0.1-0.5-0.4-0.6l-3.5-2
		c-0.1-0.1-0.2-0.1-0.3-0.1c-0.3,0-0.5,0.3-0.5,0.6v0.8c0,0.2,0.1,0.4,0.3,0.5L98.6,58.3z"/>
	<path class="st16" d="M110,68.4c0.3,0,0.5-0.3,0.5-0.6v-0.7c0-0.2-0.1-0.4-0.2-0.5l-14.5-8.4c-0.1-0.1-0.2-0.1-0.3-0.1
		c-0.3,0-0.6,0.3-0.6,0.6v0.7c0,0.2,0.1,0.4,0.3,0.5l14.5,8.4C109.8,68.4,109.9,68.4,110,68.4z"/>
	<polygon class="st17" points="95.2,65.7 97.7,67.2 95.8,73.9 96.6,74.4 98.6,67.7 98.6,66.8 95.2,64.8 	"/>
	<path class="st17" d="M101.4,71.2c-0.5-0.3-0.9-0.2-1.1,0.1l0.1-2.6l2.2,1.3v-0.9l-2.9-1.9l-0.2,4.7l0.8,0.5v-0.2
		c0-0.5,0.3-0.7,0.8-0.4c0.6,0.4,1,1.1,0.9,1.8v1.7c0,0.8-0.3,1.2-0.9,0.8c-0.6-0.4-1-1.1-0.9-1.8v-0.6l-0.8-0.5v0.6
		c-0.1,1.3,0.6,2.5,1.7,3.2c1.2,0.7,1.7,0.1,1.7-1.2v-1.7C102.9,72.9,102.4,71.8,101.4,71.2z"/>
	<path class="st17" d="M109.4,80.3v-2.7c0-0.8-0.4-1.6-1.1-2c-0.7-0.4-1.1,0-1.1,0.8v2.7c0,0.8,0.4,1.6,1.1,2
		C109.1,81.5,109.4,81.2,109.4,80.3z M107.8,79.5v-2.8c0-0.5,0.1-0.7,0.5-0.5c0.3,0.2,0.5,0.7,0.5,1.1v2.8c0,0.5-0.1,0.7-0.5,0.5
		C108,80.4,107.8,79.9,107.8,79.5z"/>
	<path class="st17" d="M105.7,75v-2.8c0-0.8-0.4-1.6-1.1-2c-0.8-0.4-1.1,0-1.1,0.8v2.8c0,0.8,0.4,1.6,1.1,2
		C105.4,76.2,105.7,75.8,105.7,75z M105.1,74.8c0,0.4-0.1,0.6-0.5,0.5c-0.3-0.2-0.5-0.7-0.5-1.1v-2.8c0-0.5,0.1-0.7,0.5-0.5
		c0.3,0.2,0.5,0.7,0.5,1.1V74.8z"/>
	<polygon class="st17" points="107.7,72.1 104.7,79 105.2,79.3 108.2,72.3 	"/>
	<path class="st16" d="M117.3,125.8c0.3,0.2,0.6,0.4,1,0.5h0.1l0.9,0.4l0.6,0.2l0.6,0.2l0.6,0.2l0.7,0.2l0.5,0.1
		c0.3,0.1,0.5,0.1,0.8,0.2l0.4,0.1c0.4,0.1,0.8,0.1,1.2,0.2l1.3,0.2h0.3l1,0.1h0.3l1.3,0.1h0.2h0.9c-4.6-0.1-9.3-1.1-13-2.9l-0.1,0
		c0.1,0,0.1,0.1,0.2,0.1L117.3,125.8z"/>
	<path class="st16" d="M117.8,113.9v-0.1c0-0.1,0-0.1,0-0.2c0-0.1,0-0.1,0-0.2v-0.2c0-0.1,0-0.1,0-0.1V113c-0.3,0.9-0.3,1.8,0,2.7
		v-1.2V113.9z"/>
	<path class="st16" d="M109.9,115.7c0.5,2.7,2.6,5.2,6,7.3C112.4,121,110.4,118.4,109.9,115.7z"/>
	<path class="st16" d="M109.8,115.5c0-0.2,0-0.3,0-0.5C109.8,115.2,109.8,115.3,109.8,115.5z"/>
	<path class="st16" d="M141.9,127.3l0.4-0.2l0.7-0.3l0,0c-0.7,0.3-1.3,0.5-2,0.8l0.2,0L141.9,127.3z"/>
	<polygon class="st16" points="115.9,123.1 119.4,121 115.9,123 	"/>
	<path class="st16" d="M134.8,123.6l0.3,0.6c1.7-0.3,3.3-0.9,4.8-1.7v-1.6l0.2-0.1c2.1-1.3,3.4-2.8,3.7-4.4c-0.4-1.5-1.7-3-3.7-4.2
		v-0.1l-0.1,0.1v0.2c-0.3-0.2-0.7-0.3-1-0.5l-0.3-0.1l-0.7-0.3l-0.2-0.1c-0.3-0.1-0.5-0.2-0.8-0.3l-0.3-0.1l-1-0.3h-0.2
		c-0.2,0-0.4-0.1-0.7-0.1l-0.7-0.1l-0.6-0.1l-0.7-0.1h-0.6h-0.7h-0.6h-0.7h-0.7h-0.2c-0.4,0-0.8,0.1-1.1,0.1h-0.3l-0.9,0.1h-0.2
		l-0.5,0.1l-0.7,0.1l-0.5,0.1l-0.7,0.2c-0.4,0.1-0.7,0.2-1,0.3h-0.1c-0.3,0.1-0.5,0.2-0.8,0.4l-0.2,0.1c-0.3,0.2-0.6,0.3-0.9,0.5
		l-0.3,0.2l-0.2,0.2l-0.2,0.1l-0.2,0.1l-0.2,0.1l-0.2,0.2l-0.2,0.1l-0.2,0.2l-0.1,0.1l-0.3,0.3l-0.1,0.1c-0.1,0.1-0.2,0.3-0.3,0.4
		l-0.1,0.1l-0.2,0.3l-0.1,0.1c0,0.1-0.1,0.1-0.1,0.2l-0.1,0.2c0,0.1-0.1,0.1-0.1,0.2c-0.1,0.1-0.1,0.1-0.1,0.2l-0.1,0.2l-0.1,0.2
		c0.5,1.4,1.7,2.7,3.6,3.7l-0.1,0.1v1.9C125.1,123.8,130.3,124.4,134.8,123.6z"/>
	<path class="st16" d="M138.6,128.2c-0.2,0.1-0.5,0.1-0.7,0.2c0.2,0,0.3,0,0.5-0.1L138.6,128.2z"/>
	<path class="st16" d="M114.1,129.3c8.6,5,22.7,5,31.3,0c4.9-2.8,7-6.7,6.3-10.4c0,0.1,0,0.1,0,0.2c0,0.1,0,0.3,0,0.3v0.1v0.2
		c-0.1,0.1-0.1,0.2-0.1,0.3c0,0.1-0.1,0.2-0.1,0.3c0,0.1-0.1,0.2-0.1,0.3v0.1c-0.1,0-0.1,0.1-0.1,0.1l-0.1,0.3l-0.1,0.3
		c-0.1,0.1-0.2,0.2-0.2,0.3c-0.1,0-0.1,0-0.1,0.1c-0.1,0-0.1,0.1-0.1,0.1c0,0.1-0.1,0.3-0.2,0.4l-0.1,0.2l-0.3,0.4L150,123
		c-0.1,0.2-0.3,0.4-0.5,0.6l-0.2,0.2c-0.2,0.2-0.3,0.4-0.5,0.5l-0.1,0.1l-0.1,0.1l-0.3,0.3L148,125l-0.3,0.3
		c-0.1,0.1-0.2,0.1-0.3,0.2l-0.4,0.3l-0.3,0.2l-0.4,0.2l-0.2,0.1l-0.3,0.1l-0.2,0.1V124l-0.2,0.1v1.4l0.1,0.1c0,0-0.1,0-0.1,0.1v0.6
		c-0.3,0.2-0.7,0.3-1,0.5l-0.3,0.2l-0.7,0.3l-0.4,0.2l-0.7,0.3l-0.4,0.2l-0.7,0.2l-0.3,0.1h-0.2l-0.3,0.1l-0.6,0.2l-0.4,0.1
		l-0.7,0.2l-0.3,0.1c-0.3,0.1-0.7,0.1-1,0.2v-0.1l-0.4,0.1l-0.5,0.1l-0.6,0.1l-0.8,0.1l-0.6,0.1h-0.1l-1,0.1h-0.1
		c-0.4,0.1-0.8,0.1-1.2,0.1h-2.2c-0.3,0-0.5,0-0.8,0h-0.2l-1.1-0.1h-0.2h-0.3l-1-0.1H126h-0.2l-1-0.2l-1-0.2h-0.2l-0.4-0.1l-0.8-0.2
		l-0.5-0.1l-0.3-0.1l-0.4-0.1l-0.6-0.2l-0.6-0.2l-0.6-0.2l-0.3-0.1l-0.7-0.3h-0.1c-0.3-0.2-0.7-0.3-1-0.5l-0.2-0.1
		c-0.3-0.1-0.7-0.3-1-0.5v-0.4l-0.2,0.1c-4.1-2.4-6.2-5.5-6.2-8.7v-2.7C105.9,119.5,107.3,125.4,114.1,129.3z"/>
	<path class="st16" d="M131.9,128.5l0.1,0C132,128.5,131.9,128.5,131.9,128.5L131.9,128.5z"/>
	<path class="st16" d="M137.5,128.5l-0.1-0.1L137.5,128.5C137.4,128.5,137.5,128.5,137.5,128.5z"/>
	<path class="st38" d="M140,109c-5.2-3-13.5-3-18.6,0c-1.9,1.1-3.1,2.6-3.6,4v0.1c0,0,0,0,0,0.1v0.2c0,0.1,0,0.1,0,0.2
		c0,0.1,0,0.1,0,0.2v0.1v0.6v1.2c0,0.1,0.1,0.2,0.1,0.3l0.1-0.2l0.1-0.2c0-0.1,0-0.1,0.1-0.2c0-0.1,0.1-0.1,0.1-0.2l0.1-0.2
		c0-0.1,0.1-0.1,0.1-0.2l0.1-0.1l0.2-0.3l0.1-0.1c0.1-0.1,0.2-0.3,0.3-0.4l0.1-0.1l0.3-0.3l0.1-0.1l0.2-0.2l0.2-0.1l0.2-0.2l0.2-0.1
		l0.2-0.1l0.2-0.1l0.2-0.2l0.3-0.2c0.3-0.2,0.6-0.3,0.9-0.5l0.2-0.1c0.3-0.2,0.5-0.3,0.8-0.4h0.1c0.3-0.1,0.6-0.2,1-0.3l0.7-0.2
		l0.5-0.1l0.7-0.1l0.5-0.1h0.2l0.9-0.1h0.3c0.3,0,0.7-0.1,1.1-0.1h0.2h0.7h0.7h0.6h0.7h0.6l0.7,0.1l0.6,0.1l0.7,0.1
		c0.3,0,0.5,0.1,0.7,0.1h0.2l1,0.3l0.3,0.1c0.3,0.1,0.5,0.2,0.8,0.3l0.2,0.1l0.7,0.3l0.3,0.1c0.3,0.2,0.7,0.3,1,0.5v-0.2l0.1-0.1
		V110l5.4-3.2v-1L140,109z"/>
	<path class="st38" d="M109.7,114.3L109.7,114.3C109.7,114.4,109.7,114.3,109.7,114.3C109.7,114.3,109.7,114.3,109.7,114.3z"/>
	<path class="st38" d="M115.9,126.2l0.2-0.1v-0.9c0.2,0.1,0.6,0.2,0.8,0.4l0.1,0c-0.4-0.2-0.7-0.4-1.1-0.6l5.5-3.2v-1.9l-2,1.1
		l-3.5,2.1V123c-3.5-2-5.5-4.6-6-7.3c0-0.1,0-0.2-0.1-0.2c0-0.2,0-0.3,0-0.5c0-0.2-0.1-0.4-0.1-0.6v0.4v2.7
		C109.7,120.7,111.8,123.8,115.9,126.2z"/>
	<path class="st18" d="M109.8,115c0,0.2,0,0.3,0,0.5c0,0.1,0,0.2,0.1,0.2c0.5,2.6,2.5,5.2,6,7.3l3.5-2l2-1.1l0.1-0.1
		c-1.9-1.1-3-2.4-3.6-3.7c0-0.1-0.1-0.2-0.1-0.3c-0.3-0.9-0.3-1.8,0-2.7c0.5-1.5,1.7-2.9,3.6-4c5.1-3,13.4-3,18.6,0l5.5-3.2
		c-8.2-4.7-21.5-4.7-29.7,0c-4.1,2.3-6.1,5.4-6.1,8.5c0,0,0,0,0,0C109.7,114.6,109.7,114.8,109.8,115z"/>
	<path class="st39" d="M143.8,116.4c0.5-2.3-0.7-4.6-3.7-6.4v2.1v0.1C142.1,113.4,143.4,114.9,143.8,116.4z"/>
	<path class="st39" d="M139.9,122.5C139.9,122.4,140,122.4,139.9,122.5l5.5,3.1v-1.4l-5.5-3.2V122.5z"/>
	<path class="st40" d="M151.7,115.4c0-0.1,0-0.2,0-0.2c0-0.1,0-0.2,0-0.3v0c0-0.1,0-0.2,0-0.1"/>
	<path class="st40" d="M151.7,115.8c0-0.1,0-0.2,0-0.3c0,0,0,0,0-0.1"/>
	<path class="st39" d="M145.6,124L145.6,124l0,2.5l0.2-0.1l0.3-0.1l0.2-0.1l0.4-0.2l0.3-0.2l0.4-0.3c0.1-0.1,0.2-0.1,0.3-0.2
		l0.3-0.3l0.3-0.2l0.3-0.3l0.1-0.1l0.1-0.1c0.2-0.1,0.3-0.3,0.5-0.5l0.2-0.2c0.2-0.2,0.4-0.4,0.5-0.6l0.1-0.1l0.3-0.4l0.1-0.2
		c0.1-0.1,0.2-0.3,0.2-0.4c0,0,0-0.1,0.1-0.1c0-0.1,0-0.1,0.1-0.1c0-0.1,0.1-0.2,0.2-0.3l0.1-0.3l0.1-0.3c0,0,0-0.1,0.1-0.1v-0.1
		c0-0.1,0.1-0.2,0.1-0.3c0-0.1,0.1-0.2,0.1-0.3c0-0.1,0-0.2,0.1-0.3v-0.2v-0.1c0,0,0-0.2,0-0.3c0-0.1,0-0.1,0-0.2c0,0,0-0.1,0-0.1
		c0-0.1,0-0.2,0-0.3c0-0.1,0-0.1,0-0.2c0-0.1,0-0.1,0-0.2v-2.3l0,0.1C151.5,118.9,149.5,121.8,145.6,124z"/>
	<path class="st32" d="M140.1,110c3,1.7,4.2,4.1,3.7,6.4c-0.4,1.6-1.6,3.2-3.7,4.4l-0.2,0.1l5.5,3.2l0.2-0.1h0
		c3.9-2.2,5.9-5.1,6.1-8.1c0-0.2,0-0.3,0-0.5c0-3.1-2.1-6.2-6.2-8.6L140.1,110z"/>
	<path class="st41" d="M143,126.8L143,126.8l-0.7,0.3l-0.4,0.2l-0.7,0.2l-0.2,0c-0.8,0.3-1.6,0.5-2.4,0.7l-0.2,0.1
		c-0.1,0-0.3,0.1-0.5,0.1c-0.1,0-0.3,0.1-0.4,0.1l0,0c0,0-0.1,0-0.1,0v0.6v0.1c0.3-0.1,0.7-0.1,1-0.2l0.3-0.1l0.7-0.2l0.4-0.1
		l0.6-0.2l0.3-0.1h0.2l0.3-0.1l0.7-0.2l0.4-0.2l0.7-0.3l0.4-0.2l0.7-0.3l0.3-0.2c0.3-0.2,0.7-0.3,1-0.5v-0.6
		C144.6,126.1,143.8,126.4,143,126.8z"/>
	<path class="st42" d="M139.9,122.5c-1.5,0.8-3.1,1.4-4.8,1.7l2.2,3.7l0.1,0v0.1v0.4l0.1,0.1l0,0c0.1,0,0.3-0.1,0.4-0.1
		c0.2-0.1,0.5-0.1,0.7-0.2c0.8-0.2,1.6-0.4,2.4-0.7c0.7-0.2,1.4-0.5,2-0.8c0.8-0.3,1.6-0.7,2.4-1.1c0,0,0.1,0,0.1-0.1l-0.1-0.1
		L139.9,122.5C140,122.4,139.9,122.4,139.9,122.5z"/>
	<path class="st29" d="M137.4,128.3v-0.4c-1.7,0.3-3.5,0.5-5.4,0.6l-0.1,0h-0.1c-0.6,0-1.2,0-1.9,0h-0.9h-0.2l-1.3-0.1h-0.3l-1-0.1
		H126l-1.3-0.2c-0.4-0.1-0.8-0.1-1.2-0.2l-0.4-0.1c-0.3-0.1-0.5-0.1-0.8-0.2l-0.5-0.1l-0.7-0.2l-0.6-0.2l-0.6-0.2l-0.6-0.2l-0.9-0.4
		h-0.1c-0.4-0.1-0.7-0.3-1-0.5l-0.2-0.1c-0.1,0-0.1-0.1-0.2-0.1c-0.3-0.2-0.6-0.3-0.8-0.4v0.9v0.4c0.3,0.2,0.7,0.4,1,0.5l0.2,0.1
		c0.3,0.2,0.7,0.3,1,0.5h0.1l0.7,0.3l0.3,0.1l0.6,0.2l0.6,0.2l0.6,0.2l0.4,0.1l0.3,0.1l0.5,0.1l0.8,0.2l0.4,0.1h0.2l1,0.2l1,0.2h0.2
		h0.3l1,0.1h0.3h0.2l1.1,0.1h0.2c0.3,0,0.5,0,0.8,0h2.2c0.4,0,0.8,0,1.2-0.1h0.1l1-0.1h0.1l0.6-0.1l0.8-0.1l0.6-0.1l0.5-0.1l0.4-0.1
		v-0.6V128.3z"/>
	<polygon class="st29" points="137.4,127.8 137.3,127.8 137.4,127.9 	"/>
	<path class="st19" d="M131.8,128.5c0.1,0,0.2,0,0.2,0c1.8-0.1,3.6-0.3,5.4-0.6l-0.1-0.1l-2.2-3.7l-0.3-0.6
		c-4.5,0.8-9.7,0.2-13.4-1.8l-5.5,3.2c0.4,0.2,0.7,0.4,1.1,0.6c3.7,1.8,8.3,2.8,13,2.9C130.6,128.5,131.2,128.5,131.8,128.5z"/>
	
		<linearGradient id="SVGID_5_" gradientUnits="userSpaceOnUse" x1="-1037.0623" y1="933.9721" x2="-1015.2923" y2="772.1121" gradientTransform="matrix(-1 0 0 1 -859.1201 -787.87)">
		<stop  offset="0" style="stop-color:#61CBE8"/>
		<stop  offset="0.38" style="stop-color:#AADDEB"/>
		<stop  offset="0.7" style="stop-color:#EAEDED"/>
	</linearGradient>
	<path class="st43" d="M146.7,0.7l-0.2-0.1l-0.2-0.1l-0.2-0.1l-0.2-0.1l-0.2-0.1l-0.2-0.1L145.3,0h-0.2h-0.2h-0.5h-0.3h-0.3
		l-0.3,0.1c-0.1,0.1-0.3,0.1-0.4,0.2l-3.5,2c0.2-0.1,0.5-0.2,0.8-0.3c0.3,0,0.6,0,0.9,0s0.7,0.1,1,0.2c0.4,0.1,0.7,0.3,1.1,0.5
		L180,23.9l0-3.9L146.7,0.7z"/>
	
		<linearGradient id="SVGID_6_" gradientUnits="userSpaceOnUse" x1="-1099.7819" y1="925.5364" x2="-1078.0118" y2="763.6764" gradientTransform="matrix(-1 0 0 1 -859.1201 -787.87)">
		<stop  offset="0" style="stop-color:#61CBE8"/>
		<stop  offset="0.38" style="stop-color:#AADDEB"/>
		<stop  offset="0.7" style="stop-color:#EAEDED"/>
	</linearGradient>
	<path class="st44" d="M240.5,58.9C240.5,58.9,240.5,58.9,240.5,58.9l0.5-0.2c0,0-0.1-0.1-0.1-0.1l3-1.7L214,39.6l0,4L240.5,58.9z"
		/>
	
		<linearGradient id="SVGID_7_" gradientUnits="userSpaceOnUse" x1="-1108.3401" y1="884.7438" x2="-1099.62" y2="884.7438" gradientTransform="matrix(-1 0 0 1 -859.1201 -787.87)">
		<stop  offset="0" style="stop-color:#555DA9"/>
		<stop  offset="1" style="stop-color:#79D0E3"/>
	</linearGradient>
	<path class="st45" d="M249.2,65.7c0-0.1,0-0.2,0-0.3v-0.3c0-0.1,0-0.2,0-0.3c0-0.1,0-0.2,0-0.3c0-0.1,0-0.2,0-0.3
		c0-0.1,0-0.2,0-0.3s0-0.2-0.1-0.3c0-0.1,0-0.2-0.1-0.3l-0.1-0.2V63l-0.1-0.3l-0.1-0.3l-0.1-0.3c0-0.1-0.1-0.2-0.1-0.3
		c0-0.1-0.1-0.1-0.1-0.2s-0.1-0.2-0.1-0.3l-0.1-0.3c0-0.1-0.1-0.2-0.2-0.3c-0.1-0.1-0.1-0.2-0.2-0.3c0,0,0,0,0-0.1
		c-0.1-0.2-0.3-0.4-0.4-0.6l-0.3-0.5l-0.2-0.3l-0.2-0.3c-0.1-0.1-0.1-0.2-0.2-0.2l-0.2-0.2c0,0-0.1-0.1-0.2-0.2
		c-0.1-0.1-0.2-0.1-0.2-0.2l-0.2-0.2l-0.2-0.2l-0.1-0.1l-0.1-0.1l-0.2-0.2l-0.2-0.2l-0.2-0.1l-0.2-0.1h-0.1l-0.5,0.3L244,57l-3,1.7
		c0.3,0.2,0.6,0.4,0.9,0.6c0.4,0.3,0.7,0.6,1,0.9c0.6,0.7,1.2,1.4,1.7,2.2v0.1c0.2,0.4,0.4,0.8,0.6,1.2c0.2,0.4,0.3,0.9,0.5,1.3
		c0.1,0.4,0.2,0.9,0.3,1.3c0.1,0.4,0.1,0.9,0.1,1.3l-0.2,66.5c0,0.4,0,0.8-0.1,1.1c-0.1,0.3-0.2,0.6-0.3,0.9
		c-0.1,0.2-0.2,0.4-0.4,0.6l-0.2,0.2c-0.1,0.1-0.1,0.2-0.2,0.3l3.1-1.7c0.2-0.1,0.4-0.3,0.6-0.5c0.1-0.1,0.1-0.1,0.2-0.2
		c0.1-0.1,0.1-0.1,0.2-0.2s0.1-0.2,0.2-0.4c0-0.1,0.1-0.2,0.1-0.3c0-0.1,0.1-0.2,0.1-0.3c0-0.1,0-0.2,0.1-0.3v-0.1V133v-0.3v-0.3
		l0.2-66.5L249.2,65.7z"/>
	
		<linearGradient id="SVGID_8_" gradientUnits="userSpaceOnUse" x1="-1112.0894" y1="923.881" x2="-1090.3195" y2="762.0211" gradientTransform="matrix(-1 0 0 1 -859.1201 -787.87)">
		<stop  offset="0" style="stop-color:#61CBE8"/>
		<stop  offset="0.38" style="stop-color:#AADDEB"/>
		<stop  offset="0.7" style="stop-color:#EAEDED"/>
	</linearGradient>
	<path class="st46" d="M241,58.7l3-1.7l-0.1-0.1l-3,1.7C240.9,58.6,241,58.7,241,58.7z"/>
	
		<linearGradient id="SVGID_9_" gradientUnits="userSpaceOnUse" x1="-1108.3401" y1="845.6741" x2="-1099.62" y2="845.6741" gradientTransform="matrix(-1 0 0 1 -859.1201 -787.87)">
		<stop  offset="0" style="stop-color:#555DA9"/>
		<stop  offset="1" style="stop-color:#79D0E3"/>
	</linearGradient>
	<path class="st47" d="M241,58.7l3-1.7l-0.1-0.1l-3,1.7C240.9,58.6,241,58.7,241,58.7z"/>
	<path class="st48" d="M215.4,101.5c0,0,0.1,0.1,0.1,0.1C215.5,101.5,215.5,101.5,215.4,101.5z"/>
	<path class="st48" d="M224,118.2c0.1,0.1,0.1,0.2,0.1,0.3c0,0,0,0,0-0.1C224.1,118.4,224,118.3,224,118.2z"/>
	<path class="st48" d="M245.5,134.5l0.2-66.5c-0.2-3.7-2.1-7-5.1-9c0,0,0,0-0.1-0.1L214,43.6l-0.1,11.9c0,1-0.7,1.5-1.7,0.9
		l-30.6-17.6c-1-0.6-1.6-1.7-1.7-2.9L180,24L143.3,2.8c-2.9-1.7-5.3-0.3-5.3,3l-0.2,66.4c0.2,3.7,2.1,7.1,5.2,9.1l66.5,38.4v-9
		l-2.2-1.3c-0.4-0.2-0.6-0.9-0.3-1.1l8.2-6.8c-0.1-0.1,0.1-0.1,0.2,0c-0.1-0.1-0.1-0.1-0.2-0.1s-0.2,0-0.2,0l3.1-1.2h0.3
		c0,0.1,0,0.1,0,0.1l8.2,16.3v0.2v0.2l0.1,0.2v0.1c-0.1,0.1-0.1,0.1-0.1,0.1l-2.6,1.5l0.1-0.1c0-0.1,0-0.1,0-0.1
		c0,0.2-0.1,0.3-0.2,0.3l-0.1,9.1l16.4,9.5c1.9,1.1,3.6,0.9,4.5-0.4c0.1-0.1,0.1-0.2,0.2-0.3C245.3,136.3,245.5,135.5,245.5,134.5z
		 M169.5,47.9v1c0,0.4-0.3,0.7-0.8,0.7c-0.1,0-0.3,0-0.4-0.1l-19.3-11c-0.2-0.1-0.4-0.4-0.4-0.6v-1c0-0.4,0.4-0.8,0.8-0.7
		c0.1,0,0.2,0,0.4,0.1l19.3,11C169.3,47.4,169.5,47.6,169.5,47.9z M149.1,43.5c-0.2-0.1-0.4-0.4-0.4-0.6v-1c0-0.4,0.3-0.7,0.8-0.7
		c0.1,0,0.3,0,0.4,0.1l16.3,9.3c0.1-0.1,0.3,0.2,0.3,0.5v1c0,0.4-0.3,0.8-0.7,0.8c-0.1,0-0.3,0-0.4-0.1L149.1,43.5z M161.5,53.1v1
		c0,0.4-0.3,0.7-0.8,0.7c-0.1,0-0.3,0-0.4-0.1L149,48.2c-0.2-0.1-0.4-0.4-0.4-0.6v-1c0-0.4,0.3-0.7,0.8-0.7c0.1,0,0.3,0,0.4,0.1
		l11.3,6.5C161.4,52.6,161.5,52.8,161.5,53.1z M148.6,33v-1c0-0.4,0.3-0.8,0.7-0.8c0.1,0,0.3,0,0.4,0.1l4.6,2.7
		c0.4,0.1,0.5,0.4,0.5,0.7v1c0,0.4-0.3,0.7-0.8,0.7c-0.1,0-0.3,0-0.4-0.1l-4.6-2.7C148.8,33.5,148.6,33.2,148.6,33z M148.5,19.8
		c0-0.4,0.3-0.7,0.7-0.7c0.1,0,0.2,0,0.4,0.1l4.5,2.6c0.2,0,0.3,0.3,0.3,0.6v1c0,0.4-0.3,0.7-0.7,0.7c-0.1,0-0.2,0-0.3-0.1l-4.5-2.6
		c-0.2-0.1-0.4-0.4-0.4-0.6V19.8z M148.5,24.5c0-0.4,0.3-0.7,0.7-0.7c0.1,0,0.2,0,0.4,0.1l18.6,10.8c0.2,0.1,0.4,0.3,0.4,0.6v1
		c0,0.4-0.3,0.7-0.7,0.7c-0.1,0-0.2,0-0.4-0.1l-18.6-10.8c-0.2-0.1-0.4-0.4-0.4-0.6V24.5z M235.3,81.8c-2.1-1.3-3.6-3.2-4.6-5.3
		l-8.1,0.7l-8.3-2.2l-4.1,3.3l-7.6-3.6l-6.7,13.8l-5.1-7.6l-5.2-4.4l-5.1-7.1l-11.2,3.6l-5.7,3.5l-5.8-5.9l-4.6-7.5l-7,3.6l-0.5-0.9
		l7.8-4l5,8.2l5.1,5.2l5.2-3.1l11.9-3.8l5.5,7.6l5.2,4.5l4.2,6.2l6.3-13.2l8,3.8L214,74l8.7,2.2l7.7-0.7c-0.4-1.1-0.7-2.3-0.7-3.5
		c0-3.7,2.6-5.1,5.7-3.3c3.3,2.2,5.4,5.8,5.7,9.8C241,82.2,238.4,83.6,235.3,81.8z"/>
	<path class="st30" d="M181.6,38.8l30.6,17.6c1,0.6,1.7,0.1,1.7-0.9l0.1-11.9l0-4l0-5c-0.1-1.2-0.7-2.3-1.7-2.9L181.7,14
		c-0.9-0.5-1.7-0.1-1.7,1l0,5l0,3.9l0,0.1l-0.1,11.9C180,37.1,180.6,38.2,181.6,38.8z M206.7,46c0,0.2-0.2,0.4-0.4,0.4
		c-0.1,0-0.1,0-0.2-0.1l-6.3-3.7c-0.1-0.1-0.2-0.2-0.2-0.4v-0.5c0-0.2,0.2-0.4,0.4-0.4c0.1,0,0.1,0,0.2,0.1l6.3,3.6
		c0.1,0.2,0.2,0.4,0.2,0.5V46z M209.5,44.9c0,0.2-0.2,0.4-0.4,0.4c-0.1,0-0.1,0-0.2-0.1l-9.1-5.3c-0.1-0.1-0.2-0.2-0.2-0.4V39
		c0-0.2,0.2-0.4,0.4-0.4c0.1,0,0.1,0,0.2,0.1l9.1,5.3c0.1,0.1,0.2,0.2,0.2,0.4V44.9z M211.1,43.1c0,0.2-0.2,0.4-0.4,0.4
		c-0.1,0-0.2,0-0.2-0.1l-10.8-6.2c-0.1-0.1-0.2-0.2-0.2-0.4v-0.5c0-0.2,0.2-0.4,0.4-0.4c0.1,0,0.1,0,0.2,0.1l10.8,6.2
		c0.2,0.1,0.2,0.3,0.2,0.4V43.1z M199.6,34.1v-0.5c0-0.2,0.2-0.4,0.4-0.4c0.1,0,0.1,0,0.2,0.1l2.6,1.5c0.1,0.1,0.2,0.2,0.2,0.4v0.5
		c0,0.2-0.2,0.4-0.4,0.4c-0.1,0-0.1,0-0.2-0.1l-2.6-1.5C199.7,34.4,199.6,34.3,199.6,34.1z M183.1,25c1.1-2.6,3.8-3,6.6-1.4
		c0.8,0.5,1.6,1.1,2.3,1.7c0.1,0.1,0.2,0.2,0.3,0.4c3.7,3.7,5.4,9.4,4,12.8c-1,2.3-3.1,2.9-5.5,1.9l-0.5-0.2l-0.6-0.3l-0.3-0.2
		l-0.4-0.3h-0.1c-0.2-0.2-0.5-0.5-0.8-0.7l-0.1-0.1l-0.3-0.3l-0.1-0.1l-0.4-0.4c-0.2-0.2-0.3-0.3-0.5-0.5l0.8-1.8L188,36l0.4,0.3
		l0.1,0.1l0.2,0.2l0.1,0.1c0.2,0.2,0.4,0.4,0.6,0.5l0.3,0.2l0.2,0.1c0.2,0.2,0.4,0.3,0.7,0.4c1.5,0.6,3,0.3,3.7-1c0-0.1,0-0.1,0-0.1
		c0-0.1,0.1-0.2,0.1-0.3c1-2.3-0.2-6.4-2.8-9l-0.4-0.4c-0.5-0.4-1-0.8-1.5-1.1c-1.9-1.1-3.8-0.8-4.6,1c-1,2.2,0.1,5.9,2.3,8.5
		l-0.8,1.8C183.3,33.6,181.7,28.2,183.1,25z"/>
	<path class="st17" d="M148.9,21.4l4.5,2.6c0.1,0.1,0.2,0.1,0.3,0.1c0.4,0,0.7-0.3,0.7-0.7v-1c0-0.3-0.1-0.6-0.3-0.6l-4.5-2.6
		c-0.2-0.1-0.3-0.1-0.4-0.1c-0.4,0-0.7,0.3-0.7,0.7v1C148.5,21,148.7,21.3,148.9,21.4z"/>
	<path class="st49" d="M148.9,26.1l18.6,10.8c0.2,0.1,0.3,0.1,0.4,0.1c0.4,0,0.7-0.3,0.7-0.7v-1c0-0.3-0.2-0.5-0.4-0.6l-18.6-10.8
		c-0.2-0.1-0.3-0.1-0.4-0.1c-0.4,0-0.7,0.3-0.7,0.7v1C148.5,25.7,148.7,26,148.9,26.1z"/>
	<path class="st50" d="M222.6,76.2L214,74l-4.1,3.3l-8-3.8l-6.3,13.2l-4.2-6.2l-5.2-4.5l-5.5-7.6l-11.9,3.8l-5.2,3.1l-5.1-5.2
		l-5-8.2l-7.8,4l0.5,0.9l7-3.6l4.6,7.5l5.8,5.9l5.7-3.5l11.2-3.6l5.1,7.1l5.2,4.4l5.1,7.6l6.7-13.8l7.6,3.6l4.1-3.3l8.3,2.2l8.1-0.7
		c-0.1-0.3-0.3-0.6-0.4-1L222.6,76.2z"/>
	<path class="st51" d="M186.6,37.3l0.8-1.8c-2.2-2.6-3.3-6.3-2.3-8.5c0.8-1.8,2.7-2.1,4.6-1c0.5,0.3,1,0.7,1.5,1.1l0.8-1.8
		c-0.7-0.6-1.5-1.2-2.3-1.7c-2.8-1.6-5.5-1.2-6.6,1.4C181.7,28.2,183.3,33.6,186.6,37.3z"/>
	<path class="st52" d="M191.2,27.1l0.4,0.4c2.6,2.6,3.8,6.7,2.8,9c0,0.1-0.1,0.2-0.1,0.3c0,0,0,0,0,0.1c-0.7,1.3-2.2,1.6-3.7,1
		c-0.3-0.1-0.5-0.2-0.7-0.4l-0.2-0.1l-0.3-0.2c-0.2-0.1-0.4-0.3-0.6-0.5l-0.1-0.1l-0.2-0.2l-0.1-0.1L188,36l-0.5-0.5l-0.8,1.8
		c0.2,0.2,0.3,0.3,0.5,0.5l0.4,0.4l0.1,0.1l0.3,0.3l0.1,0.1c0.3,0.2,0.6,0.5,0.8,0.7h0.1l0.4,0.3l0.3,0.2l0.6,0.3l0.5,0.2
		c2.4,1,4.5,0.4,5.5-1.9c1.4-3.4-0.3-9.1-4-12.8c-0.1-0.2-0.2-0.3-0.3-0.4L191.2,27.1z"/>
	<path class="st17" d="M202.6,36.1c0.2,0,0.4-0.2,0.4-0.4v-0.5c0-0.2-0.1-0.3-0.2-0.4l-2.6-1.5c-0.1-0.1-0.1-0.1-0.2-0.1
		c-0.2,0-0.4,0.2-0.4,0.4v0.5c0,0.2,0.1,0.3,0.2,0.4l2.6,1.5C202.5,36.1,202.5,36.1,202.6,36.1z"/>
	<path class="st17" d="M210.9,42.2L200.1,36c-0.1-0.1-0.1-0.1-0.2-0.1c-0.2,0-0.4,0.2-0.4,0.4v0.5c0,0.2,0.1,0.3,0.2,0.4l10.8,6.2
		c0,0.1,0.1,0.1,0.2,0.1c0.2,0,0.4-0.2,0.4-0.4v-0.5C211.1,42.5,211.1,42.3,210.9,42.2z"/>
	<path class="st17" d="M200.2,41.4c-0.1-0.1-0.1-0.1-0.2-0.1c-0.2,0-0.4,0.2-0.4,0.4v0.5c0,0.2,0.1,0.3,0.2,0.4l6.3,3.7
		c0.1,0.1,0.1,0.1,0.2,0.1c0.2,0,0.4-0.2,0.4-0.4v-0.5c0-0.1-0.1-0.3-0.2-0.5L200.2,41.4z"/>
	<path class="st32" d="M200.2,38.7c-0.1-0.1-0.1-0.1-0.2-0.1c-0.2,0-0.4,0.2-0.4,0.4v0.5c0,0.2,0.1,0.3,0.2,0.4l9.1,5.3
		c0.1,0.1,0.1,0.1,0.2,0.1c0.2,0,0.4-0.2,0.4-0.4v-0.5c0-0.2-0.1-0.3-0.2-0.4L200.2,38.7z"/>
	<path class="st53" d="M235.3,68.7c-3.1-1.8-5.7-0.4-5.7,3.3c0.1,1.2,0.3,2.4,0.7,3.5c0.1,0.3,0.2,0.7,0.4,1c1,2.1,2.5,4,4.6,5.3
		c3.1,1.8,5.7,0.4,5.7-3.3C240.7,74.5,238.6,70.9,235.3,68.7z M235.2,78.2c-1.5-1-2.5-2.6-2.6-4.4c0-1.6,1.2-2.3,2.6-1.5
		c1.5,1,2.5,2.6,2.6,4.4C237.8,78.4,236.6,79,235.2,78.2z"/>
	<path class="st54" d="M235.2,72.3c-1.4-0.8-2.6-0.1-2.6,1.5c0.1,1.8,1.1,3.4,2.6,4.4c1.4,0.8,2.6,0.2,2.6-1.5
		C237.7,74.9,236.7,73.3,235.2,72.3z"/>
	<path class="st55" d="M149,33.6l4.6,2.7c0.1,0.1,0.3,0.1,0.4,0.1c0.5,0,0.8-0.3,0.8-0.7v-1c0-0.3-0.1-0.6-0.5-0.7l-4.6-2.7
		c-0.1-0.1-0.3-0.1-0.4-0.1c-0.4,0-0.7,0.4-0.7,0.8v1C148.6,33.2,148.8,33.5,149,33.6z"/>
	<path class="st55" d="M149.4,36.2c-0.4-0.1-0.8,0.3-0.8,0.7v1c0,0.2,0.2,0.5,0.4,0.6l19.3,11c0.1,0.1,0.3,0.1,0.4,0.1
		c0.5,0,0.8-0.3,0.8-0.7v-1c0-0.3-0.2-0.5-0.4-0.6l-19.3-11C149.6,36.2,149.5,36.2,149.4,36.2z"/>
	<path class="st55" d="M149.8,46c-0.1-0.1-0.3-0.1-0.4-0.1c-0.5,0-0.8,0.3-0.8,0.7v1c0,0.2,0.2,0.5,0.4,0.6l11.3,6.5
		c0.1,0.1,0.3,0.1,0.4,0.1c0.5,0,0.8-0.3,0.8-0.7v-1c0-0.3-0.1-0.5-0.4-0.6L149.8,46z"/>
	<path class="st55" d="M165.8,52.9c0.4,0,0.7-0.4,0.7-0.8v-1c0-0.3-0.2-0.6-0.3-0.5l-16.3-9.3c-0.1-0.1-0.3-0.1-0.4-0.1
		c-0.5,0-0.8,0.3-0.8,0.7v1c0,0.2,0.2,0.5,0.4,0.6l16.3,9.3C165.5,52.9,165.7,52.9,165.8,52.9z"/>
	<polygon class="st56" points="221.2,135.4 221.3,135.3 221.2,135.3 	"/>
	<path class="st56" d="M223.7,118.9l-2.3-1.3v17.7l2.4-1.5l0-5.8l0.1-9.1C223.8,118.9,223.8,118.9,223.7,118.9z"/>
	<path class="st57" d="M215.5,101.6c0.1,0.1,0.2,0.2,0.3,0.3l8.2,16.3c0,0.1,0.1,0.2,0.1,0.2c0,0,0,0.1,0,0.1c0,0.1,0,0.1,0,0.2
		c0,0,0,0.1,0,0.1l-0.1,0.1l2.6-1.5c0,0,0,0,0.1-0.1v-0.1l-0.1-0.2v-0.2v-0.2l-8.2-16.3c0,0,0,0,0-0.1h-0.3l-3.1,1.2
		c0,0,0.1,0,0.2,0s0.1,0,0.2,0.1C215.5,101.5,215.5,101.5,215.5,101.6z"/>
	<path class="st58" d="M221.4,117.6l2.3,1.3c0.1,0,0.1,0,0.2,0c0.1,0,0.2-0.1,0.2-0.3c0-0.1,0-0.1,0-0.2c0-0.1,0-0.2-0.1-0.3
		l-8.2-16.3c-0.1-0.2-0.2-0.2-0.3-0.3c0,0-0.1-0.1-0.1-0.1c-0.1-0.1-0.3-0.1-0.2,0l-8.2,6.8c-0.3,0.2-0.1,0.9,0.3,1.1l2.2,1.3v9v8.8
		l11.7,6.8l0.1,0.1l0.1,0.1v-0.1V117.6z"/>
	<path class="st17" d="M148.5,157c0.8,0.9,3.7,2.6,4.4,2.5c0.7-0.1,0.9-1.1,0.2-2.9c-0.7-1.8,0.1-3.8,1-2.7c0.3,1.3,1.2,3,1.6,4.8
		c0.4,1.8,0,2.9,0.1,3.7c0,0.2,0.1,0.5,0.2,0.7l21.2-5.4l-23.6-24.1l-23,5.9l12.4,12.6C144.2,152.7,147.8,156.2,148.5,157z
		 M156.1,146.9l-1.9-1.6c1-0.8,1-2.1-0.2-3.2l2.3-0.8C158.5,143.2,158.4,145.6,156.1,146.9z M145.2,139.3c3.7-1.2,7.7-0.5,10.8,1.7
		l-2.3,0.9c-1.9-1.4-4.4-1.7-6.7-1L145.2,139.3L145.2,139.3z M144.6,139.5l2,1.5c-1.6,0.8-1.7,2.4-0.3,3.6l-2.3,0.9
		C141.5,143.4,141.8,140.8,144.6,139.5z M146.6,144.8c1.9,1.3,4.3,1.7,6.5,1c0.2-0.1,0.5-0.2,0.7-0.4l2,1.6
		c-0.2,0.1-0.5,0.2-0.8,0.3c-3.6,1.1-7.6,0.5-10.7-1.6L146.6,144.8z"/>
	<path class="st2" d="M153.7,141.9l2.3-0.9c-3.1-2.2-7.1-2.9-10.8-1.7h-0.1l1.9,1.6C149.3,140.2,151.8,140.5,153.7,141.9z"/>
	<path class="st2" d="M154.2,145.3l1.9,1.6c2.3-1.3,2.4-3.7,0.2-5.6l-2.3,0.8C155.2,143.2,155.2,144.5,154.2,145.3z"/>
	<path class="st37" d="M155,147.3c0.3-0.1,0.6-0.2,0.8-0.3l-2-1.6c-0.2,0.2-0.5,0.3-0.7,0.4c-2.2,0.7-4.6,0.3-6.5-1l-2.3,0.9
		C147.4,147.8,151.4,148.4,155,147.3z"/>
	<path class="st37" d="M146.6,141l-2-1.5c-2.8,1.3-3.1,3.9-0.6,6l2.3-0.9C144.9,143.4,145,141.8,146.6,141z"/>
	<path class="st12" d="M168.1,270.7c2.1-0.2,3.4-1.3,3.7-2.4c0.2-0.6,0-1.4-0.2-2.1c-0.2,1.3-1.9,2.9-4.4,2.8
		c-2.7-0.1-4.2-0.9-5.1-2.1c-0.9-1.2-6.7-3.4-7.8-4.3c-0.8-1-1.1-2.3-1-3.5c-0.4,0.5-1,1.8,0.2,4c0.2,0.3,0.4,0.6,0.6,0.8
		c1,1.3,2.1,1.1,3.8,1.8c0.8,0.3,1.7,0.8,2.9,1.6C164.7,270.3,166,270.9,168.1,270.7z"/>
	<path class="st59" d="M169.6,261.5l-2.2,0.9c-4.7,0.6-6.2-1.9-6.2-1.9c0-0.5-0.1-1-0.2-1.5c-1.4-0.6-2.4-1.3-3.5-1.8
		c-1.4-0.6-3-0.2-4,1c-0.1,0.3-0.2,0.6-0.2,0.9c-0.2,1.2,0.2,2.5,1,3.5c1.1,0.9,6.9,3.1,7.8,4.3c0.9,1.2,2.4,2,5.1,2.1
		c2.4,0.1,4.1-1.4,4.4-2.8c0-0.1,0-0.3,0-0.4c-0.3-1.8-0.7-3.8-1-5.2C170.4,261,170.1,261.3,169.6,261.5z"/>
	<path class="st12" d="M180.5,257c-0.9-1.2-6.7-3.4-7.8-4.3c-0.8-1-1.1-2.2-1-3.5c-0.4,0.6-0.8,1.8,0.3,3.9c1.7,3,3.3,1.2,7.2,4.2
		c1.3,1,2.3,1.7,3.1,2.2c0.2-0.3,0.5-0.5,0.8-0.8C181.9,258.4,181.1,257.8,180.5,257z"/>
	<path class="st59" d="M172.7,252.7c1.1,0.9,6.9,3.1,7.8,4.3c0.6,0.8,1.4,1.4,2.6,1.7c0.9-0.9,2-1.7,3.3-2.5c1-0.6,2.2-1.2,3.4-1.6
		c-0.3-1.5-0.5-3-0.8-4.1c-0.2,0.4-0.6,0.7-1,0.9l-2.2,0.9c-4.7,0.6-6.2-1.9-6.2-1.9c0-0.4-0.1-0.9-0.2-1.4
		c-1.4-0.5-2.4-1.3-3.4-1.7c-1.5-0.6-3.1-0.2-4.1,1c-0.1,0.3-0.2,0.6-0.2,0.9C171.6,250.5,171.9,251.7,172.7,252.7z"/>
	<path class="st60" d="M183.7,209.9C183.7,209.9,183.7,209.9,183.7,209.9c-0.1-0.9-0.2-1.9,0-3c-0.2-0.2-0.5-0.3-0.8-0.4
		c-0.1,0-9.1-1.7-9,6.8c4.7-0.7,8.6-0.9,8.6-0.9L183.7,209.9z"/>
	<path class="st60" d="M179.6,250.4c0,0,1.5,2.5,6.2,1.9l2.2-0.9c0.4-0.2,0.8-0.5,1-0.9c0.2-0.4,0.3-0.8,0.3-1.3
		c-0.1-0.5-0.1-1.1-0.2-1.8c-0.8-0.4-1.5-0.7-2.3-1.2l-8.5-4.9c0.5,3,0.9,5.7,1.2,7.7C179.5,249.5,179.6,250,179.6,250.4z"/>
	<path class="st61" d="M172,215l15.3,9.1c0.3,0.2,0.6,0.3,0.9,0.4c1.4,0.4,2.7,0,3.7-0.8c0.5-0.5,1-1.1,1.2-1.8
		c0.4-1.5,0.9-3.2,1.4-5c-6-1.1-9.9-4-10.7-6.9c0,0,0-0.1,0-0.1c0,0-0.1,0-0.1,0l-1.2,2.5c0,0-3.9,0.2-8.6,0.9
		c-5.7,0.9-12.7,2.5-15.5,5.6c0,0-3.4,0.6-2.5,8c0.8,6.9,4.1,24.3,5.1,32.1c0.1,0.6,0.1,1.1,0.2,1.5c0,0,1.5,2.5,6.2,1.9l2.2-0.9
		c0.5-0.2,0.8-0.5,1-0.9c0.2-0.4,0.3-0.8,0.3-1.3c-0.5-3.7-1.5-13.2-1-18.8c0.1-1.4,0.1-2.8,0.1-4c-0.9-0.6-1.4-1.5-1.6-2.5
		l-2.5-14.8c-0.2-0.9,0-1.9,0.5-2.7c0.2-0.3,0.3-0.5,0.6-0.7C168.2,214.4,170.3,214,172,215z"/>
	<path class="st62" d="M204.2,156.4c-1-1.4-1.8-2.7-2.4-3.8c-1.5,1.4-4.1,3-6.2,3c-0.8,0.3-1.7,0.5-2.7,0.5c0.2,0.5,0.3,1.1,0.5,1.8
		c0.1,1.7-0.4,2.8-0.9,3.6c0.6-0.3,1.4-0.6,2.2-0.9C196.8,159.7,201.4,157.6,204.2,156.4z"/>
	<path class="st42" d="M199.8,174.5c-3.7-8.9-9-8.6-13.5-4.7c0,0-0.1,0-0.1,0c-0.4,0-1.1,0.4-2,0.9c-4,2.4-11.7,8.8-11.7,8.8
		s-2.4,1.1-4.9,2.8c-0.9-1.5-1.8-2.9-2.6-4.2c-0.6-0.9-1.1-1.6-1.5-2.2c-1.1-1.7-2.5-4.3-3.8-6.7c-1.6-3-3-5.7-3-5.7
		c-0.2,0-0.4,0-0.6,0c-1.8,0.1-3.5,1.1-4.5,2.6c-0.1,0.2-0.3,0.4-0.4,0.6c0.2,0.5,1,2.8,1.9,5.7c0.1,0.3,0.2,0.6,0.3,0.9
		c0.1,0.2,0.1,0.4,0.2,0.6c0.1,0.3,0.2,0.6,0.3,0.9c0,0.1,0.1,0.3,0.1,0.4c0.1,0.3,0.2,0.6,0.3,0.9c0.8,2.2,1.6,4.6,2.4,6.7
		c0.8,2.1,1.5,3.9,2.1,5.2c2.6,5.4,7.5,4.5,7.5,4.5c0,0,0,0,0,0c0,0,0.1,0,0.1,0c2.2,0,11.2-4,17.5-7c0.2,0.7,0.4,1.5,0.6,2.2
		c0.1,0.4,0.2,0.8,0.4,1.3c0.5,1.8,0.7,3.6,0.7,5.4c0,4.4-1.4,8.4-1.9,11.6c0.1-0.4,0.1-0.7,0.2-1.1
		C193.3,214.2,204,184.6,199.8,174.5z"/>
	<path class="st42" d="M218.3,162.5c-0.9-1.2-1.8-2.1-2.4-2.6c-1.5-1.2-4.1-2.6-7.7-2.6c3.5,0,6,1.4,7.6,2.6
		c2.3,1.8,7.9,8.3,6.1,18.1c0.3-1.7,0.4-3.3,0.3-4.8c-0.1-2.4-0.7-4.6-1.4-6.4C220.1,165,219.2,163.6,218.3,162.5z"/>
	<path class="st42" d="M183.8,209.9c0,0,0,0.1,0,0.1c-0.2-1.2-0.2-2.4-0.1-3.6c0,0.2-0.1,0.4-0.1,0.5
		C183.5,208,183.6,209,183.8,209.9z"/>
	<path class="st41" d="M215.8,159.9c-1.6-1.2-4.1-2.6-7.6-2.6c3.6,0,6.2,1.4,7.7,2.6c0.6,0.5,1.5,1.4,2.4,2.6c0-0.7,0-1.5-0.2-2.3
		c-0.9-3.9-4.4-4.8-7.2-4.6c-0.6,0-1.7,0.7-3.1,1.5c0.2,0.2,0.4,0.4,0.6,0.6c0.7,0.4,0.2,6.2-7.9,7.4c-6.5,1-9.8-0.2-10.9-0.7
		c-1.8,1.2-3.4,2.7-4.3,4.2c-0.4,0.7-0.8,1.3-1.1,2.1c0.9-0.5,1.5-0.8,2-0.9c0,0,0.1,0,0.1,0c4.5-3.9,9.8-4.1,13.5,4.7
		c4.2,10.1-6.5,39.7-15.8,30.4c-0.1,0.4-0.2,0.7-0.2,1.1c0,0.1,0,0.3-0.1,0.4c-0.2,1.2-0.1,2.4,0.1,3.6c0.8,3,4.7,5.8,10.7,6.9
		c2.6-9.1,6.3-21.5,7.6-24.2c0.1-0.1,0.1-0.2,0.3-0.4c0.1-0.2,0.3-0.3,0.4-0.4c0,0,0,0,0,0c2.4-2,9.8-5.2,17.8-8.4
		c0.2-1.2,0.4-2.4,0.8-3.5c0.2-0.7,0.4-1.3,0.5-2C223.7,168.2,218.1,161.7,215.8,159.9z"/>
	<path class="st17" d="M200.5,165.1c8.1-1.2,8.6-7,7.9-7.4c-0.2-0.2-0.4-0.4-0.6-0.6c-0.6-0.6-1.1-1.1-1.5-1.7c0,0-0.9,0.4-2.1,1
		c-2.7,1.2-7.4,3.3-9.5,4.1c-0.9,0.4-1.6,0.7-2.2,0.9c-1.5,0.6-2.4,1-2.4,1l-0.9,1.8c0,0,0.1,0.1,0.4,0.2
		C190.7,164.9,194,166.1,200.5,165.1z"/>
	<path class="st63" d="M195.6,155.6c-0.3,0-0.6-0.1-0.9-0.2c-2.5-0.9-7.4-2-7.6-5.3c-0.1-1.9-1.4-3-2.6-3.9c0.5,2.2,1.5,4.7,3.1,6.7
		c1.8,2.3,3.6,3.1,5.3,3.1C193.8,156.1,194.7,155.9,195.6,155.6z"/>
	<path class="st64" d="M187.1,129c0,0-3.9,3-3.7,7.4c0.2,4.4-1.2,5.1-0.7,7.4c0.2,1,1,1.6,1.8,2.4c1.2,1,2.5,2,2.6,3.9
		c0.2,3.3,5.1,4.4,7.6,5.3c0.3,0.1,0.6,0.1,0.9,0.2c2,0.1,4.7-1.6,6.2-3c0.3-0.3,0.6-0.6,0.8-0.9c1.2-1.6,0.9-5.8,2.3-9.5
		c1.4-3.7,0.7-8.3-0.5-11.6c0-0.2-0.1-0.3-0.2-0.5c-0.6-1.6-1.8-2.8-3.3-3.4c-0.8-1.6-2.2-2.7-3.9-3c-0.9-0.2-2.4-0.2-4,0
		C189.8,124,186.2,125.4,187.1,129z"/>
	<path class="st16" d="M224.2,266C224.2,266,224.2,265.9,224.2,266c0-0.3,0.1-0.4,0-0.6c0,0.2,0,0.4,0,0.5
		C224.2,265.9,224.2,266,224.2,266z"/>
	<path class="st16" d="M224.1,266.7c0,0.2-0.1,0.4-0.1,0.5c-0.1,0.3-0.2,0.5-0.3,0.8c-0.1,0.2-0.1,0.3-0.2,0.5
		c-0.1,0.2-0.2,0.4-0.3,0.5c0,0,0,0,0,0c-1,1.9-2.8,3.7-5.4,5.2c-8.6,5.1-22.7,5-31.3,0c-1.3-0.8-2.4-1.6-3.3-2.4
		c-0.2-0.2-0.4-0.4-0.6-0.6c0,0,0,0,0,0c-1.6-1.7-2.7-3.8-2.6-6.2c0,3.3,0.2,6.1,2.6,8.7c3.1,3.3,7.7,5.2,12.1,6
		c8.5,1.8,20.2,0.9,26.6-5.7c2.4-2.4,2.9-5,3-8.1c0,0,0,0.1,0,0.1C224.1,266.3,224.1,266.5,224.1,266.7z"/>
	<path class="st2" d="M202.6,267.4l-3.4-2v-12.9c-3.3,0.3-6.5,0.9-9.4,2.1c-1.2,0.5-2.3,1-3.4,1.6c-1.3,0.8-2.4,1.6-3.3,2.5
		c-0.3,0.3-0.5,0.5-0.8,0.8c-3.2,3.7-3.1,8.1,0.2,11.8c0,0,0,0,0,0c0.2,0.2,0.4,0.4,0.6,0.6c0.9,0.9,2,1.7,3.3,2.4
		c8.6,5,22.7,5.1,31.3,0c2.6-1.5,4.4-3.3,5.4-5.2c0,0,0,0,0,0c0.1-0.2,0.2-0.4,0.3-0.5c0.1-0.2,0.1-0.3,0.2-0.5
		c0.1-0.3,0.2-0.5,0.3-0.8c0-0.2,0.1-0.4,0.1-0.5c0-0.2,0.1-0.4,0.1-0.6c0-0.1,0-0.1,0-0.2c0-0.2,0-0.4,0-0.5c0-3.3-2.1-6.6-6.5-9.2
		c-3.3-2-7.4-3.2-11.7-3.6v12.8L202.6,267.4z"/>
	<path class="st13" d="M202.6,267.4l3.4-2v-12.8v-2.4c-1.1,0.1-2.3,0.2-3.4,0.2V267.4z"/>
	<path class="st14" d="M199.2,265.4l3.4,2v-17c-1.1,0-2.3-0.1-3.4-0.2v2.3V265.4z"/>
	<path class="st39" d="M246.7,211.4l-1.2-31.5c-0.1-2.2-2-3.9-4.2-3.8c-0.4,0-0.8,0.1-1.1,0.2c-4.9,1.7-12.4,4.4-19.6,7.2
		c-8,3.1-15.5,6.4-17.8,8.4c0.7,0.2,1.3,0.5,1.9,1c4.8,3.6,6.5,46.8-6.8,57.1c-3.9-0.6-7.7-1.9-11.1-3.9l-16.4-9.4
		c-0.4-0.2-0.7-0.5-1-0.9c-0.2-0.3-0.4-0.6-0.6-0.9c-0.1-0.3-0.2-0.7-0.3-1l-2.5-14.8c-0.2-0.9,0-1.9,0.5-2.7
		c0.1-0.2,0.3-0.4,0.5-0.6c-0.2,0.2-0.4,0.5-0.6,0.7c-0.5,0.8-0.7,1.8-0.5,2.7l2.5,14.8c0.2,1,0.7,1.9,1.6,2.5
		c0.1,0.1,0.3,0.2,0.4,0.3l7.9,4.5l8.5,4.9c0.7,0.4,1.5,0.8,2.3,1.2c3.2,1.5,6.7,2.5,10.1,2.8c1.1,0.1,2.3,0.2,3.4,0.2
		c1.1,0,2.3-0.1,3.4-0.2c3.6-0.4,7.2-1.4,10.6-3.1l1.3-0.7l11.4-5.6C240.4,235.3,247.2,223.8,246.7,211.4z"/>
	<path class="st39" d="M191.9,223.7c0.6-0.5,1-1.1,1.3-1.9c2.4-8.7,7.5-26.1,9-29.2c0-0.1,0.1-0.2,0.2-0.3c-0.1,0.1-0.2,0.2-0.3,0.4
		c-1.3,2.7-5,15.1-7.6,24.2c-0.5,1.8-1,3.5-1.4,5C192.9,222.6,192.5,223.3,191.9,223.7z"/>
	<path class="st3" d="M202.4,192.3c-0.1,0.1-0.1,0.2-0.2,0.3c-1.5,3.1-6.6,20.5-9,29.2c-0.2,0.8-0.7,1.4-1.3,1.9
		c-1,0.8-2.4,1.1-3.7,0.8c-0.3-0.1-0.6-0.2-0.9-0.4L172,215c-1.7-1-3.8-0.6-5,0.8c-0.2,0.2-0.3,0.4-0.5,0.6
		c-0.5,0.8-0.7,1.8-0.5,2.7l2.5,14.8c0.1,0.3,0.2,0.7,0.3,1c0.2,0.3,0.4,0.6,0.6,0.9c0.3,0.4,0.6,0.7,1,0.9l16.4,9.4
		c3.4,2,7.2,3.3,11.1,3.9c13.3-10.3,11.6-53.5,6.8-57.1c-0.6-0.5-1.2-0.8-1.9-1c0,0,0,0,0,0C202.6,192,202.5,192.2,202.4,192.3z"/>
	<path class="st63" d="M151.7,166.1c1-1.5,2.6-2.5,4.5-2.6c0-0.1-0.1-0.2-0.1-0.4c-0.1-0.2-0.1-0.5-0.2-0.7
		c-0.1-0.8,0.3-1.9-0.1-3.7c-0.4-1.8-1.3-3.5-1.6-4.8c-0.9-1.1-1.7,0.9-1,2.7c0.7,1.8,0.5,2.8-0.2,2.9c-0.7,0.1-3.6-1.6-4.4-2.5
		c-0.7-0.8-4.3-4.3-5.5-4.9c-0.2-0.1-0.3-0.1-0.4,0c-0.5,0.5-0.5,1.2,1.2,2.9c1.7,1.7,2.2,2.5,2.3,3c0.1,0.8,0.3,1.6,0.6,2.3
		c0.3,0.6,0.3,1.1,0.4,1.6c0.1,0.6,0.2,1.2,0.8,2C148.9,165.1,150.7,165.4,151.7,166.1z"/>
	<path class="st8" d="M96.1,99.8c0.4-0.1,0.9-0.2,1.2-0.1c1.6,0.4,3.3,0.7,4.9,0.8c1,0.1,2.9-1.6,3.2-1.9c0.3-0.3,0.5-0.9,1-1.3
		s0.6-0.3,0.6-1.1s0.8-1.4,1.1-1.8c0.3-0.4,1.7-1.2,1.6-1.8c-0.1-0.6-0.8-0.3-1.2-0.1c-0.4,0.2-2,1.6-2.7,2c-1,0.5-2.1,0.9-3.2,1
		c-0.5,0-1.1-0.1-1.6-0.2c0,0-0.2,0,0.6-0.3c0.7-0.1,1.3-0.2,2-0.2c0.7-0.1,1-0.5,1-0.9c0-0.4-1-0.3-1.3-0.3c-1.1,0-2.1,0-3.2-0.1
		c-0.8-0.1-2.2,1.2-2.5,1.5c-0.5,0.3-1.1,0.5-1.6,0.6C96.5,97,96.5,98.5,96.1,99.8z"/>
	<path class="st4" d="M29.9,123c0.5,0.5,1.1,0.8,1.7,0.9c1.1,0.9,2.8,1.7,5.3,1.7c0.9,0,2-0.1,3.1-0.2c0.7-0.1,1.4-0.1,2.1-0.2
		c0.2,0,0.5-0.1,0.7-0.1c6.8-0.9,15.3-2.5,16.5-2.5c0.2-0.2,0.3-0.4,0.4-0.7c0.8-1.5,0.9-3.4,0.3-5c-0.1-0.2-0.2-0.4-0.3-0.7
		c0,0-0.7,0-1.9,0c-0.4,0-0.8,0-1.2,0c-3.2,0-8.1-0.1-11-0.3c-2.1-0.2-6.2-0.8-9.8-0.7c-0.5-1.9-1.1-3.6-1.6-4.8
		c-0.3-0.8-0.6-1.3-0.6-1.3s-2.5-14.6-4.1-16.3c-1.9-1.9-4.8-3.3-7.8-1.5c-0.2,0.1-0.4,0.3-0.7,0.4c-2.7,1.8-3.8,5.2-2.8,8.3
		c0,0.1,0.1,0.3,0.2,0.6c0.9,2.3,4.1,9.4,6.9,15C27.3,119.2,29,122.2,29.9,123z"/>
	<path class="st8" d="M59.8,121.9l0.7,0.1l0.7,0.3l1.9,0.9c1.2,0.4,2.4,0.5,3.6,0.3c0.6-0.1,1.2-0.4,1.7-0.8c-0.3,0.3-0.6,0.6-1,0.8
		c-0.6,0.3-0.6,0.5-0.1,0.7c0.2,0.1,0.4,0.2,0.7,0.2c0.4,0,0.7-0.1,1-0.3c0.4-0.2,0.9-0.4,1.2-0.7c0.1-0.1,0.2-0.2,0.2-0.3
		c0.1-0.2,0.1-0.3,0.2-0.5c0.1-0.3,0.2-0.6,0.1-1c0,0,0,0,0,0c-0.2-0.6-0.2-1.3-0.2-2c-0.2-0.8-0.5-1.5-0.9-2.1c0,0,0,0,0,0
		c0-0.2,0-1-0.9-1c-1,0-6.3,0.5-7,0.5c-0.3,0-1,0-1.6,0C60.7,118.6,60.6,120.4,59.8,121.9z"/>
</g>
</svg>
