<svg xmlns="http://www.w3.org/2000/svg" viewBox="0 0 427.15 180"><defs><style>.cls-1{isolation:isolate;}.cls-2,.cls-3{fill:#7471b4;}.cls-17,.cls-20,.cls-21,.cls-23,.cls-25,.cls-3{opacity:0.3;}.cls-17,.cls-20,.cls-21,.cls-23,.cls-25,.cls-27,.cls-28,.cls-3,.cls-7{mix-blend-mode:multiply;}.cls-17,.cls-4{fill:#472f8c;}.cls-28,.cls-5{fill:#3e77bc;}.cls-6{fill:#6abbe9;}.cls-14,.cls-21,.cls-7{fill:#3f96d2;}.cls-27,.cls-7{opacity:0.5;}.cls-8{fill:#efad7f;}.cls-9{fill:#282828;}.cls-10,.cls-20{fill:#d09369;}.cls-11{fill:#e7f6fc;}.cls-12{fill:#333;}.cls-13{fill:#fff;}.cls-15{fill:#f4a740;}.cls-16{fill:#d1eaf2;}.cls-18{fill:#2e225d;}.cls-19{fill:#daeef6;}.cls-22,.cls-25,.cls-27{fill:#96a65f;}.cls-23{fill:#e87b50;}.cls-24{fill:#9ece70;}.cls-26{fill:#5d3013;}</style></defs><g class="cls-1"><g id="Layer_1" data-name="Layer 1"><polygon class="cls-2" points="384.46 128.89 387.79 176.52 386.13 176.52 380.85 129.41 384.46 128.89"/><polygon class="cls-2" points="349.46 128.89 346.13 176.52 347.79 176.52 353.07 129.41 349.46 128.89"/><path class="cls-2" d="M868.35,371.37s-26.64-.79-28.37-.67-3.31,5.67-3.31,5.67S828.88,405.23,829,406s-7.26,19.4-7.26,19.4,6.4-.17,6.68,0,24.73-2.1,25.07-2.33,1.59-4.48,1.64-4.71,1.93-16.79,1.93-16.79l1-9.13s3.68-7.83,3.74-7.86,3.45-6.88,3.68-7.22,3.73-4.14,3.84-4.48S868.35,371.37,868.35,371.37Z" transform="translate(-469.34 -294)"/><path class="cls-3" d="M868.35,371.37s-9.19-.28-17.12-.48c3.08,1.82,4.81,6.89,3.53,15.92-1.09,7.67-2.3,16-7.13,26-2.49,5.15-13.2,2.27-22,2.77-1.89,4.91-3.87,9.88-3.87,9.88s6.4-.17,6.68,0,24.73-2.1,25.07-2.33,1.59-4.48,1.64-4.71,1.93-16.79,1.93-16.79l1-9.13s3.68-7.83,3.74-7.86,3.45-6.88,3.68-7.22,3.73-4.14,3.84-4.48S868.35,371.37,868.35,371.37Z" transform="translate(-469.34 -294)"/><path class="cls-4" d="M816.91,426.44h0a1.67,1.67,0,0,1,1.54-1.76c2.85-.19,9-.63,15.34-1.23,12.13-1.15,16.52-2.09,18.09-2.59a1.65,1.65,0,0,0,1.1-1.16,65,65,0,0,0,.88-8.16c.8-11.18,2.1-29.61,13.59-39.73a1.65,1.65,0,0,1,2.4.24h0a1.65,1.65,0,0,1-.22,2.25c-10.46,9.19-11.66,26.13-12.46,37.47-.46,6.47-.75,9.65-2.16,11.12-.68.72-2,2-20.4,3.81-6.55.63-13,1.09-15.94,1.29A1.65,1.65,0,0,1,816.91,426.44Zm35.79-5.91Z" transform="translate(-469.34 -294)"/><path class="cls-5" d="M74.88,0h139.4a7.89,7.89,0,0,1,7.89,7.89v78A15.12,15.12,0,0,1,207,101H74.88A15.12,15.12,0,0,1,59.76,85.89V15.12A15.12,15.12,0,0,1,74.88,0Z"/><rect class="cls-6" x="62.61" y="3.88" width="156.63" height="93.25" rx="3.08"/><path class="cls-7" d="M688.58,309V299a1,1,0,0,0-.9-1.08H532.84A1,1,0,0,0,532,299V362Z" transform="translate(-469.34 -294)"/><polygon class="cls-8" points="62.81 47.34 62.83 48.62 62.97 51.8 56.72 50.97 56.04 50.05 55.98 47.63 55.78 45.37 59.94 45.37 62.81 47.34"/><path class="cls-8" d="M537.92,418.79a9.2,9.2,0,0,1,0,3.21c-.31,1.79-8.42,44.53-8.42,44.53l4.28.62s14-39.68,14.74-42.34,1.64-6.41-1-9.3S537.92,418.79,537.92,418.79Z" transform="translate(-469.34 -294)"/><path class="cls-8" d="M540.17,467.76l-5.12-6.17-5.12,2.12,1.28,1.78,5.58,2.8s2.38.48,2.51.45A9,9,0,0,0,540.17,467.76Z" transform="translate(-469.34 -294)"/><path class="cls-4" d="M540.17,467.76l1.11,1.4a.82.82,0,0,1-.89,1.29l-10.75-3.57a.71.71,0,0,1-.45-.91l.74-2.26C536.33,468.37,539,468.5,540.17,467.76Z" transform="translate(-469.34 -294)"/><path class="cls-9" d="M522.46,324.19a5.66,5.66,0,0,0-5.71,0c-3,1.75-3,7.67-1.85,9.08s-.06,3.33,2.34,5.18,6.21,2.53,8.39.37.58-7,.58-7Z" transform="translate(-469.34 -294)"/><path class="cls-8" d="M533,468.06l-5.89-3.68L522,467.44l1.78,1.28,6.17.9s2.41-.3,2.52-.37A7.84,7.84,0,0,0,533,468.06Z" transform="translate(-469.34 -294)"/><path class="cls-8" d="M518.75,414.74s.85,20.37.92,23.88,1.88,29.61,2.66,31.88l4.36-.31s3-50.53,2-55.45S518.75,414.74,518.75,414.74Z" transform="translate(-469.34 -294)"/><path class="cls-8" d="M509.4,398.11c-1.51-.31-1.88.66-3.4.34l.35,2.35c-.2.46-.66,1.68-.66,1.68-1.69,4.92-1.6,4.39-1.43,4.48s1.44-1.73,1.59-1.56-.73,3.1-.47,3,1.39-2.68,1.54-2.58-.74,2.91-.36,3,1.25-3,1.52-2.82-.69,3.37-.33,3.41,1.47-3.49,1.84-4.61a.19.19,0,0,1,.33-.06c1.46,1.83,1.68,1.88,1.84,1.68a29.52,29.52,0,0,0-1.23-4l-.79-2.32Z" transform="translate(-469.34 -294)"/><path class="cls-4" d="M533,468.06l1.49,1a.82.82,0,0,1-.44,1.51H522.68a.73.73,0,0,1-.73-.72v-2.38C529.49,469.85,532.1,469.12,533,468.06Z" transform="translate(-469.34 -294)"/><path class="cls-8" d="M569.19,343.86a.18.18,0,0,0,.3.09c.8-.79,3.31-3.26,3.55-3.11s-1.89,2.45-1.75,2.74,2.22-2,2.5-1.72-1.68,2.25-1.6,2.39,2.17-1.56,2.43-1.52-1.76,2.15-1.71,2.36,1.92-.78,2-.63.2.23-3.37,3.66l-1.46,1.29-1.76.41L567.1,348s1-6.3,1.25-6.41S568.74,341.67,569.19,343.86Z" transform="translate(-469.34 -294)"/><path class="cls-4" d="M521.64,414.74l3.62,13.43c8.37,0,20.85-.78,27-4.92,0,0-8.11-37.75-13.49-47.2l-18.47-1s-12.82,17.88-3.46,52.88c0,0,1.6.12,4.15.19Z" transform="translate(-469.34 -294)"/><path class="cls-10" d="M537.42,331.29a1.64,1.64,0,1,0,2.2-1.33A1.85,1.85,0,0,0,537.42,331.29Z" transform="translate(-469.34 -294)"/><path class="cls-10" d="M525.05,338.8s.17,1.28.28,2.83a6.66,6.66,0,0,0,5.08,1.47,6.45,6.45,0,0,0,1.76-.48,8.17,8.17,0,0,1,.13-2.4C532.73,339,525.05,338.8,525.05,338.8Z" transform="translate(-469.34 -294)"/><path class="cls-11" d="M538.35,345.33l17.5,13.29,11.21-11.52s3.35,2.59,3.35,2.54S559.88,366.1,557.29,367,538,356.18,538,356.18Z" transform="translate(-469.34 -294)"/><path class="cls-8" d="M537.33,337.31a9,9,0,0,0,.6-1.43,16.35,16.35,0,0,0,.72-4c0-.27.05-.53.08-.79a8.44,8.44,0,0,0-.18-3.3,8.56,8.56,0,0,0-16.85,2.4,1.86,1.86,0,0,0-1.67-.07,2.59,2.59,0,0,0,2.21,4.54,1.64,1.64,0,0,0,.37-.26,8,8,0,0,0,8.23,7.09,7.67,7.67,0,0,0,5.14-2.35l.28-.28A7.71,7.71,0,0,0,537.33,337.31Z" transform="translate(-469.34 -294)"/><path class="cls-12" d="M529.63,331.4a.8.8,0,1,1-1.6.08.8.8,0,0,1,1.6-.08Z" transform="translate(-469.34 -294)"/><path class="cls-12" d="M536.23,331.4a.8.8,0,1,1-.84-.76A.8.8,0,0,1,536.23,331.4Z" transform="translate(-469.34 -294)"/><path class="cls-10" d="M532.09,329.86q0,.39,0,.78c0,.26,0,.52,0,.78a6.66,6.66,0,0,0,.12.76,2,2,0,0,0,.29.68l.06.07.06.07.08.07.06.08a.89.89,0,0,1-.09,1.15,1.57,1.57,0,0,1-.67.44,2,2,0,0,1-.77.12,2.15,2.15,0,0,0,.75-.19,1.53,1.53,0,0,0,.6-.44.8.8,0,0,0,.2-.67.61.61,0,0,0-.13-.32l-.06-.08-.06-.06-.08-.07-.06-.08a1.43,1.43,0,0,1-.2-.36c0-.13-.08-.25-.11-.38a4.17,4.17,0,0,1-.1-.78A8.22,8.22,0,0,1,532.09,329.86Z" transform="translate(-469.34 -294)"/><path class="cls-11" d="M540.67,362.69c.06-.07,2.75-2.94,2.23-8.32a15.93,15.93,0,0,0-3.12-7.43,6.36,6.36,0,0,0-5.07-2.65c-3.67-.07-9.54-.15-9.54-.15s-7.56-.83-10,2.12-10.52,23.48-11,33.28,1.94,21.35,1.94,21.35a24.92,24.92,0,0,0,3.87,0c1.2-.18-.27-18.95,1-22s7.1-17.65,7.47-19L520,367.5a8,8,0,0,1-.35,4.21c-1.23,3.29-3.58,9.63-4.53,12,0,0,18.16,2.93,27.1-1.51l-.08-.34A61.39,61.39,0,0,1,540.67,362.69Z" transform="translate(-469.34 -294)"/><path class="cls-9" d="M530.31,330.06a5.08,5.08,0,0,0-1.13-.44,3.63,3.63,0,0,0-1.18-.09,3.82,3.82,0,0,0-.57.11l-.28.09-.14.06-.14.06a6.25,6.25,0,0,0-1,.65,3.12,3.12,0,0,1,.92-.85,2.8,2.8,0,0,1,.58-.27,2.21,2.21,0,0,1,.63-.13,2.7,2.7,0,0,1,1.26.16,3,3,0,0,1,.57.27A2.64,2.64,0,0,1,530.31,330.06Z" transform="translate(-469.34 -294)"/><path class="cls-9" d="M533.55,330.06a2.64,2.64,0,0,1,.5-.38,3,3,0,0,1,.57-.27,2.7,2.7,0,0,1,1.26-.16,2.21,2.21,0,0,1,.63.13,2.8,2.8,0,0,1,.58.27,3.12,3.12,0,0,1,.92.85,5.93,5.93,0,0,0-1-.65l-.13-.06-.14-.06-.28-.09a3.71,3.71,0,0,0-.58-.11,3.59,3.59,0,0,0-1.17.09A5.08,5.08,0,0,0,533.55,330.06Z" transform="translate(-469.34 -294)"/><path class="cls-8" d="M523.75,344.05s5.78,7.33,7,10a19.13,19.13,0,0,0,3.54-9.77Z" transform="translate(-469.34 -294)"/><path class="cls-6" d="M530.76,354c.16,2.55.25,5.09.31,7.64,0,1.28,0,2.55.06,3.83s0,2.55,0,3.82l0,1.92c0,.63,0,1.27,0,1.91,0,1.27-.08,2.55-.15,3.82-.14,2.55-.33,5.1-.7,7.62l.06-.95.07-1c0-.63.07-1.27.1-1.9l0-.48,0-.48,0-.95,0-1,0-1c.08-2.55.11-5.09.13-7.64s0-5.09,0-7.64Z" transform="translate(-469.34 -294)"/><path class="cls-6" d="M519.16,357.44c0,.2-.07.41-.11.61s-.08.41-.14.61a6.88,6.88,0,0,1-.38,1.19,10.1,10.1,0,0,0,.28-1.21c.08-.41.14-.82.19-1.23.1-.82.15-1.65.17-2.47l0-.62v-.62c0-.42,0-.83,0-1.25,0-.2,0-.41,0-.62l0-.62c0-.41-.07-.83-.09-1.24.07.41.13.82.19,1.23s.09.83.12,1.24l0,.63c0,.21,0,.41,0,.62v.63Z" transform="translate(-469.34 -294)"/><path class="cls-9" d="M538.25,323.41c-1.59-5.45-8.81-5.64-8.81-5.64-11.18.77-9.42,10.6-9.05,12.22a1.88,1.88,0,0,1,1.31.23,3.87,3.87,0,0,1,.56.39c1.32-.4,1.71-2.59,2.4-3.65.92-1.43,5-.69,6.54-1.71a3.83,3.83,0,0,0,1.71-2.59c6,.95,5.87,7.26,5.87,7.26a2.64,2.64,0,0,1,.57,0S539.66,328.28,538.25,323.41Z" transform="translate(-469.34 -294)"/><path class="cls-13" d="M534.28,335.81a2.65,2.65,0,0,1-4.74.06Z" transform="translate(-469.34 -294)"/><path class="cls-9" d="M818.23,360.25c1.34-5.23,3.48-7.3,7.19-9.25a12.22,12.22,0,0,1,9.64-.86c7,2.27,8.84,10,9.55,13.95,2.42,13.58,13.77,25.12,9.64,34.41s-23.52,8.29-23.52,8.29l-8.89-6.41s-.79-15.6-.79-16.87-3.37-1.19-3.37-7.56C817.68,370.86,816.65,366.4,818.23,360.25Z" transform="translate(-469.34 -294)"/><path class="cls-8" d="M794.69,379.45a.2.2,0,0,1-.32.14c-1-.75-4-3.1-4.26-2.9s2.38,2.4,2.26,2.74-2.67-1.85-2.94-1.54,2.12,2.21,2.05,2.38-2.56-1.41-2.83-1.32,2.19,2.09,2.16,2.32-2.18-.59-2.27-.42-.18.28,4.13,3.53l1.75,1.21,2,.21,1.12-2.1s-1.93-6.69-2.2-6.77S794.88,377,794.69,379.45Z" transform="translate(-469.34 -294)"/><path class="cls-14" d="M824,376.38s-15,17.05-15.66,17.13-10.71-11.73-10.71-11.73a35.41,35.41,0,0,0-4.24,4.05s10.76,17.94,13.53,19,21.12-16.3,21.12-16.3Z" transform="translate(-469.34 -294)"/><path class="cls-15" d="M822.29,398.33l.18.1s0-.14,0-.39Z" transform="translate(-469.34 -294)"/><path class="cls-8" d="M836.22,376.55a6.2,6.2,0,0,0-1.59,2.78c-1,3.66-4.44,15.57-5.88,16.38-1.7,1-23.24,5.57-25.36,5.39s-4.14,1.93-4.56,3.57h36.1s7.22-8.9,8-18.26C843.67,378.07,839.78,373,836.22,376.55Z" transform="translate(-469.34 -294)"/><path class="cls-8" d="M833.45,369.6v6a.88.88,0,0,1-.49.79,5.32,5.32,0,0,1-4.89,0,.86.86,0,0,1-.41-.74v-5.44Z" transform="translate(-469.34 -294)"/><path class="cls-10" d="M833.45,372.82V369.6l-5.79.63V373A10,10,0,0,0,833.45,372.82Z" transform="translate(-469.34 -294)"/><path class="cls-8" d="M823.85,368.57a7.65,7.65,0,0,1-.49-1.31,14.47,14.47,0,0,1-.53-3.62c0-.24,0-.48-.05-.72a7.85,7.85,0,0,1,.26-3,7.75,7.75,0,0,1,15.18,2.7,1.69,1.69,0,0,1,1.52,0,2.34,2.34,0,0,1-2.14,4,1.42,1.42,0,0,1-.34-.25,7.27,7.27,0,0,1-7.66,6.17A7,7,0,0,1,825,370.3a2.18,2.18,0,0,1-.24-.27A6.57,6.57,0,0,1,823.85,368.57Z" transform="translate(-469.34 -294)"/><path class="cls-12" d="M830.85,363.79a.62.62,0,1,0,.67-.57A.63.63,0,0,0,830.85,363.79Z" transform="translate(-469.34 -294)"/><path class="cls-12" d="M825.49,363.68a.62.62,0,1,0,.67-.56A.62.62,0,0,0,825.49,363.68Z" transform="translate(-469.34 -294)"/><path class="cls-12" d="M830.2,362.49a5.62,5.62,0,0,1,.91-.21,2.89,2.89,0,0,1,.88,0,2.8,2.8,0,0,1,.83.24l.1,0a.93.93,0,0,1,.1.05l.21.11c.14.07.26.17.42.24a2.71,2.71,0,0,0-.28-.41,2.37,2.37,0,0,0-.37-.34,1.93,1.93,0,0,0-1-.38,2.08,2.08,0,0,0-1,.11A2,2,0,0,0,830.2,362.49Z" transform="translate(-469.34 -294)"/><path class="cls-12" d="M827.7,362.41a2,2,0,0,0-.78-.62,2.19,2.19,0,0,0-1-.19,2.07,2.07,0,0,0-1,.32,3,3,0,0,0-.4.31,3.79,3.79,0,0,0-.3.4l.43-.21.21-.1.11,0,.11,0a2.75,2.75,0,0,1,.84-.18,2.85,2.85,0,0,1,.87.07A5.46,5.46,0,0,1,827.7,362.41Z" transform="translate(-469.34 -294)"/><path class="cls-10" d="M828.87,363.05a9.68,9.68,0,0,0-.7,1,8.24,8.24,0,0,0-.56,1.06,3.72,3.72,0,0,0-.2.59.91.91,0,0,0,0,.17v.09a.38.38,0,0,0,0,.1l0,0,0,0,.06.06.11.1a4.13,4.13,0,0,0,.52.33,3.88,3.88,0,0,0,.56.23,6.86,6.86,0,0,1-1-.7l-.09-.11-.05-.05,0,0v0a.42.42,0,0,1,0-.22,3.86,3.86,0,0,1,.19-.54c.16-.36.34-.71.51-1.07S828.7,363.41,828.87,363.05Z" transform="translate(-469.34 -294)"/><polygon class="cls-8" points="344.46 162.32 344.82 171.24 340.53 171.27 340.12 162.85 344.46 162.32"/><path class="cls-16" d="M802.87,470.37l12.32.08a.47.47,0,0,0,.48-.48v-.35a.49.49,0,0,0-.49-.48l-12.32-.08a.47.47,0,0,0-.48.47v.35A.5.5,0,0,0,802.87,470.37Z" transform="translate(-469.34 -294)"/><path class="cls-4" d="M815,465.16l.48,3.64c0,.45-.2.86-.54.86l-11.71-.08a.87.87,0,0,1-.77-.54,1.56,1.56,0,0,1,.31-1.62c1-1.45,4.48-1.78,6.16-3l5.45,0C814.71,464.45,815,464.75,815,465.16Z" transform="translate(-469.34 -294)"/><path class="cls-13" d="M809.79,466.53h0a.23.23,0,0,0,.07-.29,2.32,2.32,0,0,0-2.43-1.49.21.21,0,0,0-.12.24h0c0,.11.09.18.17.16a2,2,0,0,1,2.12,1.29A.13.13,0,0,0,809.79,466.53Z" transform="translate(-469.34 -294)"/><path class="cls-13" d="M808.58,467h0a.23.23,0,0,0,.07-.29,2.32,2.32,0,0,0-2.43-1.48c-.08,0-.14.12-.12.23h0a.17.17,0,0,0,.17.17,2,2,0,0,1,2.12,1.28C808.43,467,808.51,467,808.58,467Z" transform="translate(-469.34 -294)"/><path class="cls-13" d="M807.45,467.42h0a.23.23,0,0,0,.07-.29,2.32,2.32,0,0,0-2.43-1.48c-.08,0-.14.12-.12.23h0a.17.17,0,0,0,.17.17,2,2,0,0,1,2.12,1.28C807.3,467.43,807.38,467.47,807.45,467.42Z" transform="translate(-469.34 -294)"/><path class="cls-17" d="M811.84,469.64c.89-2.94,2.48-3.26,3.35-3.18l.31,2.34c0,.45-.2.86-.54.86Z" transform="translate(-469.34 -294)"/><polygon class="cls-8" points="324.29 162.32 324.65 170.85 320.36 170.88 319.95 162.85 324.29 162.32"/><path class="cls-16" d="M782.71,470.37l12.31.08a.48.48,0,0,0,.49-.48v-.35a.49.49,0,0,0-.49-.48l-12.32-.08a.47.47,0,0,0-.48.47v.35A.51.51,0,0,0,782.71,470.37Z" transform="translate(-469.34 -294)"/><path class="cls-4" d="M794.86,465.16l.47,3.64c.06.45-.2.86-.53.86l-11.72-.08a.88.88,0,0,1-.77-.54,1.57,1.57,0,0,1,.32-1.62c1-1.45,4.48-1.78,6.15-3l5.46,0C794.54,464.45,794.8,464.75,794.86,465.16Z" transform="translate(-469.34 -294)"/><path class="cls-13" d="M789.63,466.53h0a.24.24,0,0,0,.06-.29,2.3,2.3,0,0,0-2.42-1.49.21.21,0,0,0-.13.24h0c0,.11.09.18.17.16a2,2,0,0,1,2.12,1.29A.14.14,0,0,0,789.63,466.53Z" transform="translate(-469.34 -294)"/><path class="cls-13" d="M788.41,467h0a.23.23,0,0,0,.07-.29,2.32,2.32,0,0,0-2.43-1.48c-.08,0-.14.12-.12.23h0a.17.17,0,0,0,.17.17,2,2,0,0,1,2.12,1.28C788.26,467,788.34,467,788.41,467Z" transform="translate(-469.34 -294)"/><path class="cls-13" d="M787.29,467.42h0a.24.24,0,0,0,.06-.29,2.29,2.29,0,0,0-2.42-1.48c-.09,0-.14.12-.13.23h0c0,.11.09.18.17.17a2,2,0,0,1,2.12,1.28C787.13,467.43,787.22,467.47,787.29,467.42Z" transform="translate(-469.34 -294)"/><path class="cls-17" d="M791.67,469.64c.9-2.94,2.49-3.26,3.35-3.18l.31,2.34c.06.45-.2.86-.53.86Z" transform="translate(-469.34 -294)"/><path class="cls-18" d="M811.36,409.74s-21.32.08-24.61,4.36-5.79,33.24,0,45.9c0,0,7.5.26,9.21-.79,0,0-.52-21.37-.26-27s4.21-6.46,4.74-7S811.36,409.74,811.36,409.74Z" transform="translate(-469.34 -294)"/><path class="cls-4" d="M813.77,440.8c-.19-1.78-.44-4.1-.71-6.72h0c-.48-5.14-1.09-8.23-.45-8.17,5.14.5,19.11-2,27.36-3.61a7.87,7.87,0,0,0,5.66-11.07,5.53,5.53,0,0,0-1-1.49c-3.85-3.85-11.81-2.61-11.8-3.15-45,3.76-35.09,11.49-30.87,38.17h0c0,.11,0,.23.07.34h0c1.83,8.82,3.56,16.08,3.56,16.08s6.58.27,10.4-.65C816,460.57,814.78,450.14,813.77,440.8Z" transform="translate(-469.34 -294)"/><path class="cls-6" d="M841.54,375.49c-1.47-1.39-4.95-1.71-8.16-1.66l.07,0a3.94,3.94,0,0,1-5.79.37h0l-.91.12a14.32,14.32,0,0,0-4.44,3.87,11.11,11.11,0,0,0-2.75,5.83c-.17,2.24,2.7,5.51,2.7,6.79s-1.33,10.56-1.33,10.56l.5-.06v.06a8,8,0,0,1-2.33.44c-.06,1.66-.09,2.69-.09,2.69v3.23c17.13,2.85,27.39,7.65,27.39,7.65C847.25,382,841.76,375.7,841.54,375.49Z" transform="translate(-469.34 -294)"/><path class="cls-14" d="M836.22,376.55a6.2,6.2,0,0,0-1.59,2.78c-1,3.66-4.44,15.57-5.88,16.38s-15.24,3.84-22,5c0,0,.49,2,.93,4h27.2s7.22-8.9,8-18.26C843.67,378.07,839.78,373,836.22,376.55Z" transform="translate(-469.34 -294)"/><path class="cls-4" d="M752.93,379.14h32.42l9.19,22.47h15.61a.79.79,0,0,1,.79.8h0a.79.79,0,0,1-.79.79H763.7Z" transform="translate(-469.34 -294)"/><path class="cls-19" d="M769,392a1.56,1.56,0,1,0,1.16-2A1.66,1.66,0,0,0,769,392Z" transform="translate(-469.34 -294)"/><path class="cls-9" d="M825.41,353.69s8.7,8,12.81,8.95c0,0,.55-6.23.5-6.44s-5.22-5.12-5.54-5.07-9.68,1.39-9.68,1.39l-2.57,6.35Z" transform="translate(-469.34 -294)"/><path class="cls-9" d="M820.47,355.4l2.27,6.44s4.58-3.24,6.34-6.44-4.57-2-4.57-2Z" transform="translate(-469.34 -294)"/><path class="cls-20" d="M830.76,367.94a2,2,0,0,0-1.61.34,1.47,1.47,0,0,0-1.54.08,1.64,1.64,0,0,0,1.81,1.07A1.45,1.45,0,0,0,830.76,367.94Z" transform="translate(-469.34 -294)"/><path class="cls-10" d="M831.47,367.43a4.54,4.54,0,0,1-.48.39,3.36,3.36,0,0,1-.51.32,3.61,3.61,0,0,1-1.13.39,3,3,0,0,1-1.19,0A4.44,4.44,0,0,1,827,368a4.21,4.21,0,0,0,.52.34,3,3,0,0,0,.58.24,3.14,3.14,0,0,0,.61.12,3.33,3.33,0,0,0,.63,0,3.25,3.25,0,0,0,1.17-.44A3.63,3.63,0,0,0,831.47,367.43Z" transform="translate(-469.34 -294)"/><rect class="cls-16" x="91.72" y="94.57" width="12.53" height="2.56"/><rect class="cls-16" x="111.75" y="94.57" width="12.53" height="2.56"/><polygon class="cls-4" points="238.27 128.83 241.61 176.46 239.94 176.46 234.66 129.34 238.27 128.83"/><polygon class="cls-4" points="203.27 128.83 199.94 176.46 201.6 176.46 206.88 129.34 203.27 128.83"/><path class="cls-14" d="M722.16,371.3s-26.64-.79-28.36-.66-3.32,5.66-3.32,5.66-7.78,28.87-7.63,29.66-7.26,19.4-7.26,19.4,6.4-.17,6.68,0,24.74-2.1,25.07-2.32,1.59-4.48,1.65-4.71,1.92-16.79,1.92-16.79l1-9.13s3.68-7.84,3.74-7.86,3.45-6.89,3.68-7.23,3.73-4.14,3.85-4.48S722.16,371.3,722.16,371.3Z" transform="translate(-469.34 -294)"/><path class="cls-21" d="M722.16,371.3S713,371,705,370.83c3.09,1.81,4.81,6.89,3.53,15.91-1.09,7.67-2.3,16-7.13,26-2.49,5.14-13.2,2.26-22,2.77-1.89,4.91-3.87,9.87-3.87,9.87s6.4-.17,6.68,0,24.74-2.1,25.07-2.32,1.59-4.48,1.65-4.71,1.92-16.79,1.92-16.79l1-9.13s3.68-7.84,3.74-7.86,3.45-6.89,3.68-7.23,3.73-4.14,3.85-4.48S722.16,371.3,722.16,371.3Z" transform="translate(-469.34 -294)"/><path class="cls-5" d="M670.73,426.38h0a1.65,1.65,0,0,1,1.53-1.76c2.85-.19,9-.63,15.34-1.23,12.13-1.16,16.52-2.1,18.09-2.59a1.63,1.63,0,0,0,1.1-1.16,62.87,62.87,0,0,0,.89-8.17c.79-11.17,2.1-29.61,13.58-39.72a1.65,1.65,0,0,1,2.4.23h0a1.66,1.66,0,0,1-.21,2.25C713,383.42,711.78,400.36,711,411.71c-.46,6.47-.74,9.64-2.16,11.12-.68.71-2,2-20.4,3.81-6.55.63-13,1.09-15.93,1.29A1.64,1.64,0,0,1,670.73,426.38Zm35.78-5.92Z" transform="translate(-469.34 -294)"/><polygon class="cls-8" points="179.98 161.9 178.97 170.02 173.54 170.44 173.63 162.91 179.98 161.9"/><path class="cls-16" d="M634.63,470.38l14.84.1a.56.56,0,0,0,.58-.57v-.43a.59.59,0,0,0-.59-.58l-14.84-.1a.57.57,0,0,0-.58.57v.43A.59.59,0,0,0,634.63,470.38Z" transform="translate(-469.34 -294)"/><path class="cls-22" d="M649.27,464.11l.57,4.39c.07.54-.24,1-.64,1l-14.11-.1a1.05,1.05,0,0,1-.93-.65,1.86,1.86,0,0,1,.38-1.95c1.25-1.74,5.39-2.14,7.41-3.62l6.57,0A.88.88,0,0,1,649.27,464.11Z" transform="translate(-469.34 -294)"/><path class="cls-16" d="M643,465.76h0a.28.28,0,0,0,.08-.35,2.78,2.78,0,0,0-2.92-1.79c-.11,0-.17.15-.15.29h0a.21.21,0,0,0,.2.21,2.4,2.4,0,0,1,2.56,1.54C642.79,465.77,642.89,465.81,643,465.76Z" transform="translate(-469.34 -294)"/><path class="cls-16" d="M641.51,466.32h0a.3.3,0,0,0,.08-.36,2.78,2.78,0,0,0-2.92-1.78c-.11,0-.17.15-.15.28h0c0,.13.11.22.2.2a2.4,2.4,0,0,1,2.56,1.55C641.33,466.33,641.43,466.37,641.51,466.32Z" transform="translate(-469.34 -294)"/><path class="cls-16" d="M640.15,466.84h0a.3.3,0,0,0,.08-.36,2.77,2.77,0,0,0-2.92-1.78c-.1,0-.17.14-.15.28h0a.21.21,0,0,0,.21.2,2.4,2.4,0,0,1,2.55,1.55C640,466.84,640.07,466.89,640.15,466.84Z" transform="translate(-469.34 -294)"/><path class="cls-23" d="M645.43,469.5c1.08-3.54,3-3.91,4-3.83l.37,2.83c.07.54-.24,1-.64,1Z" transform="translate(-469.34 -294)"/><polygon class="cls-10" points="205.05 95.13 204.16 104.48 207.72 105.16 209.68 101.46 209.36 96.54 206.59 94.61 205.05 95.13"/><path class="cls-4" d="M678,374.38s-3.62,9.44-3.62,14.75a7.42,7.42,0,0,0,4.64.9c2.73-.34.43-11.11.53-11.4A34.22,34.22,0,0,0,678,374.38Z" transform="translate(-469.34 -294)"/><polygon class="cls-8" points="188.32 162.07 185.92 169.91 180.39 169.94 181.36 164.23 188.32 162.07"/><path class="cls-10" d="M689.63,395.93,683,406l-8.83-1.74-15-11.21,2.63-3.89s14.05,8.43,15.24,8.67,4.45-7.39,4.45-7.39Z" transform="translate(-469.34 -294)"/><path class="cls-18" d="M670.7,407.54s-23.08-.73-28.32,4.24-1.73,42.32-.86,45.75c0,0,4.79,2.28,8.58,1.11s2.33-17.52,2.33-17.52-.44-15.62.15-17.81,8.59-3.8,8.59-3.8,12.38-8.61,11.66-8.61S670.7,407.54,670.7,407.54Z" transform="translate(-469.34 -294)"/><path class="cls-16" d="M641.8,470.53l14.83.1a.58.58,0,0,0,.59-.58v-.42a.59.59,0,0,0-.59-.58l-14.84-.1a.57.57,0,0,0-.58.57V470A.61.61,0,0,0,641.8,470.53Z" transform="translate(-469.34 -294)"/><path class="cls-24" d="M656.43,464.25l.57,4.39c.07.55-.23,1-.64,1l-14.11-.09a1.05,1.05,0,0,1-.93-.65,1.9,1.9,0,0,1,.38-2c1.25-1.74,5.4-2.14,7.41-3.62l6.58,0A.87.87,0,0,1,656.43,464.25Z" transform="translate(-469.34 -294)"/><path class="cls-16" d="M650.13,465.91h0a.3.3,0,0,0,.08-.36,2.77,2.77,0,0,0-2.92-1.78c-.1,0-.17.15-.15.28h0c0,.13.11.22.21.2a2.4,2.4,0,0,1,2.55,1.55C650,465.92,650.05,466,650.13,465.91Z" transform="translate(-469.34 -294)"/><path class="cls-16" d="M648.67,466.46h0a.28.28,0,0,0,.08-.35,2.77,2.77,0,0,0-2.92-1.79.25.25,0,0,0-.15.29h0c0,.13.11.22.21.21a2.39,2.39,0,0,1,2.55,1.54C648.49,466.47,648.59,466.51,648.67,466.46Z" transform="translate(-469.34 -294)"/><path class="cls-16" d="M647.31,467h0a.27.27,0,0,0,.08-.35,2.77,2.77,0,0,0-2.92-1.79.25.25,0,0,0-.15.29h0c0,.13.11.22.21.2a2.4,2.4,0,0,1,2.55,1.55C647.13,467,647.23,467,647.31,467Z" transform="translate(-469.34 -294)"/><path class="cls-25" d="M652.59,469.65c1.09-3.54,3-3.92,4-3.83l.36,2.82c.07.55-.23,1-.64,1Z" transform="translate(-469.34 -294)"/><path class="cls-4" d="M704.87,415.33c-.75-7-9.08-7.15-9.08-7.15l-4.48-.39-.11-1s-30.9-3.68-35.13,10.34-7.43,41.75-7.43,41.75a10.79,10.79,0,0,0,9.62,0s7.83-29.78,10.76-32.7,24-3.4,24-3.4S705.63,422.36,704.87,415.33Z" transform="translate(-469.34 -294)"/><path class="cls-2" d="M675.93,403s.73-25.63,2.08-28.58,6.15-3.52,6.15-3.52,12.48-1.85,15.73,1.21c.24.23,5.88,7.73,5,43.26,0,0-10.72-5.9-28.94-8.92Z" transform="translate(-469.34 -294)"/><path class="cls-8" d="M691.29,365.77v6.4a.9.9,0,0,1-.53.83,5.65,5.65,0,0,1-5.2,0,.93.93,0,0,1-.43-.79v-5.78Z" transform="translate(-469.34 -294)"/><path class="cls-10" d="M691.29,370.69v-3.43l-6.16.68v2.91A10.61,10.61,0,0,0,691.29,370.69Z" transform="translate(-469.34 -294)"/><rect class="cls-6" x="141.76" y="104.31" width="34.34" height="4.76"/><rect class="cls-2" x="137.6" y="99.55" width="34.34" height="4.76"/><path class="cls-4" d="M664.55,385.62l-3.69-10.21a.69.69,0,0,0-1-.38l-7,3.44a.79.79,0,0,0-.37,1l6,13.87a.88.88,0,0,0,1.1.47l6.13-2.27Z" transform="translate(-469.34 -294)"/><path class="cls-8" d="M658.3,386.35a.19.19,0,0,1,0-.08c.17-.67.36-.75.48-.75a.6.6,0,0,1,0-.3c.31-1,.67-.09.67-.09.88,1.32,3.62,2.5,3.62,2.5l.94.21a20.42,20.42,0,0,1,.51-2.22s2,3.54,2,3.58a8.25,8.25,0,0,1-1.4,2.1c-.43.47-1.27,1.63-1.33,1.72s-2-1.29-2.75-1.92a31.33,31.33,0,0,1-2.69-2.41,1.18,1.18,0,0,1-.3-1.16A1.08,1.08,0,0,1,658.3,386.35Z" transform="translate(-469.34 -294)"/><path class="cls-10" d="M658.32,386.29a2.1,2.1,0,0,0,.27.76,3.76,3.76,0,0,0,.48.65,3.87,3.87,0,0,0,.61.53c.1.08.22.14.33.22l.36.18c-.22-.16-.44-.3-.64-.47a7.41,7.41,0,0,1-.58-.54,4.11,4.11,0,0,1-.48-.62A2.93,2.93,0,0,1,658.32,386.29Z" transform="translate(-469.34 -294)"/><path class="cls-10" d="M658,387.53a2.31,2.31,0,0,0,.34.73,3.42,3.42,0,0,0,.52.61,4.19,4.19,0,0,0,.65.48l.36.19a2.39,2.39,0,0,0,.37.15c-.23-.13-.46-.26-.68-.41a7.42,7.42,0,0,1-.62-.49,5.78,5.78,0,0,1-.53-.58A3.62,3.62,0,0,1,658,387.53Z" transform="translate(-469.34 -294)"/><path class="cls-10" d="M658.8,385.52a2.19,2.19,0,0,0,.28.75,3.43,3.43,0,0,0,.47.66,5.15,5.15,0,0,0,.61.53c.11.08.23.14.34.21l.36.19c-.22-.16-.44-.31-.64-.48a4.86,4.86,0,0,1-.58-.53,5,5,0,0,1-.49-.62A3.61,3.61,0,0,1,658.8,385.52Z" transform="translate(-469.34 -294)"/><path class="cls-8" d="M694.26,395.93l-6.65,10-8.83-1.74-15-11.21,2.63-3.89s14.05,8.43,15.24,8.67,4.46-7.39,4.46-7.39Z" transform="translate(-469.34 -294)"/><path class="cls-4" d="M700,378.9c-.72,4-2.63,13.21-5.38,17.47,0,0-6.67-.49-10.42-5.05,0,0,5.13-12.67,6.47-15.27,1.07-2.08,6.26-8.29,8.83-2.13A8.83,8.83,0,0,1,700,378.9Z" transform="translate(-469.34 -294)"/><rect class="cls-2" x="137.6" y="112.41" width="2.34" height="64.05"/><rect class="cls-2" x="159.68" y="112.41" width="2.34" height="64.05"/><rect class="cls-2" x="226.44" y="112.41" width="2.34" height="64.05"/><rect class="cls-2" x="248.52" y="112.41" width="2.34" height="64.05"/><rect class="cls-24" x="131.34" y="109.08" width="126.1" height="4.08" rx="1.59"/><path class="cls-26" d="M696.74,360.25s2.14-7.64-2-10.73a11.19,11.19,0,0,0-11.82-1.39c-3.16,1.59-5.27,7.54-4,11.06l10.36-2.82Z" transform="translate(-469.34 -294)"/><path class="cls-10" d="M680.92,360.17a1.57,1.57,0,1,1-2.12-1.24A1.76,1.76,0,0,1,680.92,360.17Z" transform="translate(-469.34 -294)"/><path class="cls-8" d="M681.09,365.91a8.12,8.12,0,0,1-.59-1.35,15.4,15.4,0,0,1-.75-3.79q0-.37-.09-.75a8.18,8.18,0,1,1,16.26-1.1,1.76,1.76,0,0,1,1.59-.1,2.47,2.47,0,0,1-2,4.37,1.61,1.61,0,0,1-.36-.24,7.67,7.67,0,0,1-7.76,6.89,7.29,7.29,0,0,1-4.94-2.17l-.27-.26A7.1,7.1,0,0,1,681.09,365.91Z" transform="translate(-469.34 -294)"/><path class="cls-10" d="M685.91,358.64c0,.47-.09.93-.15,1.37a3.2,3.2,0,0,1-.36,1.2l0,0a.15.15,0,0,1,0,.06.79.79,0,0,0-.14.17,1,1,0,0,0-.16.41,1,1,0,0,0,.29.79,1.58,1.58,0,0,0,1.38.39,2,2,0,0,1-1.1-.63.64.64,0,0,1-.13-.48.62.62,0,0,1,.1-.22s.06-.06.08-.1l.07-.07.07-.08a1.7,1.7,0,0,0,.28-.73,3.62,3.62,0,0,0,.06-.72A5,5,0,0,0,685.91,358.64Z" transform="translate(-469.34 -294)"/><path class="cls-12" d="M688.56,359.49a.73.73,0,0,0,.69.74.72.72,0,0,0,.74-.69.7.7,0,0,0-.69-.74A.71.71,0,0,0,688.56,359.49Z" transform="translate(-469.34 -294)"/><path class="cls-12" d="M682.42,359.67a.72.72,0,1,0,.74-.69A.73.73,0,0,0,682.42,359.67Z" transform="translate(-469.34 -294)"/><path class="cls-26" d="M687.8,357.8a7.18,7.18,0,0,1,1.06-.16,3.22,3.22,0,0,1,1,.06,3.13,3.13,0,0,1,.93.33,3.57,3.57,0,0,1,.46.26c.15.09.29.2.47.3a3.05,3.05,0,0,0-.28-.5,2.32,2.32,0,0,0-.4-.43,2.41,2.41,0,0,0-2.25-.45A2.19,2.19,0,0,0,687.8,357.8Z" transform="translate(-469.34 -294)"/><path class="cls-26" d="M684.64,357.9a2.22,2.22,0,0,0-1-.57,2.36,2.36,0,0,0-1.18,0,2.22,2.22,0,0,0-1.05.55,1.92,1.92,0,0,0-.38.43,2.78,2.78,0,0,0-.27.51c.17-.1.31-.22.46-.31a3.57,3.57,0,0,1,.45-.27,2.89,2.89,0,0,1,.92-.36,3.21,3.21,0,0,1,1-.09A6.81,6.81,0,0,1,684.64,357.9Z" transform="translate(-469.34 -294)"/><path class="cls-26" d="M695.8,359a1.27,1.27,0,0,1,.84-.34l-.1-2.5-.71-1.54s-2.86-4.18-3-4.28-2.36-1.51-2.5-1.59-3.4.28-3.4.28-5.64-1.42-4.81,1.61,4.92,4.78,5.14,4.65a5,5,0,0,1-.63-2.6C689.48,356,694.94,358.63,695.8,359Z" transform="translate(-469.34 -294)"/><path class="cls-13" d="M683.9,364a2.13,2.13,0,0,0,4.1.27Z" transform="translate(-469.34 -294)"/><rect class="cls-27" x="221.11" y="109.08" width="36.34" height="4.08" rx="1.59"/><rect class="cls-28" x="139.23" y="100.29" width="16.24" height="3.18"/><rect class="cls-16" x="167.08" y="104.31" width="1.75" height="4.76"/><rect class="cls-6" y="176.52" width="427.15" height="3.48" rx="1.36"/><rect class="cls-2" x="279.83" y="112.41" width="2.34" height="64.05"/><rect class="cls-2" x="301.9" y="112.41" width="2.34" height="64.05"/><rect class="cls-2" x="368.67" y="112.41" width="2.34" height="64.05"/><rect class="cls-2" x="390.74" y="112.41" width="2.34" height="64.05"/><rect class="cls-24" x="273.57" y="109.08" width="126.1" height="4.08" rx="1.59"/><rect class="cls-27" x="363.18" y="109.08" width="36.34" height="4.08" rx="1.59"/></g></g></svg>