<svg xmlns="http://www.w3.org/2000/svg" width="6.445" height="10" viewBox="0 0 6.445 10">
  <g id="Group_2685" data-name="Group 2685" transform="translate(-563.218 -314.032)">
    <path id="Path_2127" data-name="Path 2127" d="M568.361,317.011l-1.758-1.172a.3.3,0,0,0-.325,0l-1.758,1.172a.293.293,0,0,0,.325.488l.131-.087v1.62a.293.293,0,0,0,.292.293h2.344a.293.293,0,0,0,.293-.293v-1.62l.131.087a.293.293,0,0,0,.325-.488Zm-1.042,1.728h-1.758v-1.718l.879-.586.879.586Z" fill="#525353"/>
    <path id="Path_2128" data-name="Path 2128" d="M566.44,314.032a3.226,3.226,0,0,0-3.222,3.223c0,1.862,1.782,4.27,3.014,5.518a.293.293,0,0,0,.417,0c1.25-1.266,3.014-3.666,3.014-5.518A3.227,3.227,0,0,0,566.44,314.032Zm0,8.107c-.656-.719-2.636-3.041-2.636-4.884a2.637,2.637,0,1,1,5.273,0C569.077,319.1,567.1,321.42,566.44,322.139Z" fill="#525353"/>
    <path id="Path_2129" data-name="Path 2129" d="M564.683,323.446a.293.293,0,0,0,0,.586H568.2a.293.293,0,1,0,0-.586Z" fill="#525353"/>
  </g>
</svg>
