<svg xmlns="http://www.w3.org/2000/svg" width="23.184" height="33" viewBox="0 0 23.184 33">
  <g id="Group_2072" data-name="Group 2072" transform="translate(-1798.629 -23.5)">
    <path id="Path_1747" data-name="Path 1747" d="M1820.688,46.161l-1.642-1.642a2.093,2.093,0,0,1-.6-1.276c0-.01-.046-.4-1.217-10.134-.01-.1-.023-.205-.039-.307a5.768,5.768,0,0,1-1.421.176c-.108,0-.213,0-.321-.01.018.105.031.213.042.32,0,0,.015.118,1.219,10.134a3.842,3.842,0,0,0,1.1,2.332l1.642,1.642a2.092,2.092,0,0,1-1.478,3.571h-15.5a2.092,2.092,0,0,1-1.478-3.571l1.642-1.642a3.842,3.842,0,0,0,1.1-2.332c1.2-10.016,1.22-10.134,1.22-10.134a5.381,5.381,0,0,1,5.174-4.859,5.589,5.589,0,0,1-.13-1.215c0-.179.008-.353.025-.527a6.9,6.9,0,0,0-4.539,1.867,7.177,7.177,0,0,0-2.27,4.555c-1.17,9.732-1.216,10.124-1.216,10.134a2.1,2.1,0,0,1-.6,1.276l-1.642,1.642a3.838,3.838,0,0,0,2.715,6.553h3.233a4.638,4.638,0,0,0,4.519,3.786,4.514,4.514,0,0,0,2.959-1.1,4.694,4.694,0,0,0,1.56-2.684h3.233a3.838,3.838,0,0,0,2.715-6.553Zm-10.467,8.592a2.865,2.865,0,0,1-2.723-2.039h5.446A2.864,2.864,0,0,1,1810.221,54.753Z" fill="#546974"/>
    <circle id="Ellipse_334" data-name="Ellipse 334" cx="3.714" cy="3.714" r="3.714" transform="translate(1812.05 23.5)" fill="#546974"/>
  </g>
</svg>
