<?xml version="1.0" encoding="utf-8"?>
<!-- Generator: Adobe Illustrator 24.2.3, SVG Export Plug-In . SVG Version: 6.00 Build 0)  -->
<svg version="1.1" id="Layer_1" xmlns="http://www.w3.org/2000/svg" xmlns:xlink="http://www.w3.org/1999/xlink" x="0px" y="0px"
	 viewBox="0 0 174.2 125" style="enable-background:new 0 0 174.2 125;" xml:space="preserve">
<style type="text/css">
	.st0{fill:#EC7B6D;}
</style>
<g>
	<path class="st0" d="M170.9,10.4h-11.5V6.5c0.1-1.5-0.9-2.9-2.4-3.4C149,1,140.8,0,132.6,0c-13.5,0-31.9,3-45.5,16.9
		C73.6,2.9,55.1,0,41.5,0c-8.2,0-16.4,1-24.3,3.1c-1.5,0.4-2.5,1.8-2.4,3.4v3.9H3.4c-1.9,0-3.4,1.5-3.4,3.4l0,0v107.9
		c0,1.9,1.5,3.4,3.4,3.4c0.6,0,1.2-0.2,1.7-0.4c0.3-0.2,34.1-18.6,81.3-6.8h0.8c0.3,0,0.5,0,0.8,0c47.3-12,81,6.5,81.3,6.8
		c1.6,0.9,3.7,0.4,4.6-1.2c0.3-0.5,0.4-1.1,0.5-1.7V13.8C174.2,11.9,172.7,10.4,170.9,10.4z M6.8,116.2V17.2h8.1v84.7
		c0,1.9,1.5,3.4,3.3,3.4c0,0,0,0,0,0c0.2,0,0.4,0,0.5,0c7-1.1,14-1.6,21.1-1.7c9.8-0.2,19.5,1.3,28.8,4.4
		C47.7,105.4,26.3,108.2,6.8,116.2z M39.8,96.8c-6.1,0-12.3,0.4-18.4,1.2V9.1c6.6-1.5,13.3-2.2,20-2.2c12.6,0,30,2.9,42.1,16.5
		l0.1,84.1C76.7,103,63,96.8,39.8,96.8z M90.5,23.4C102.6,9.9,120,6.9,132.6,6.9c6.7,0,13.4,0.8,20,2.2V98
		c-6.1-0.8-12.1-1.2-18.2-1.2c-23,0-36.8,6.2-43.9,10.8V23.4z M167.5,116.2c-19.6-8-41-10.9-62-8.3c9.4-3.1,19.2-4.5,29-4.4
		c7.1,0,14.2,0.6,21.2,1.7c1.8,0.3,3.6-1,3.8-2.8c0,0,0,0,0,0c0-0.2,0-0.4,0-0.5V17.2h8.1L167.5,116.2z"/>
</g>
</svg>
