<?xml version="1.0" encoding="utf-8"?>
<!-- Generator: Adobe Illustrator 24.2.3, SVG Export Plug-In . SVG Version: 6.00 Build 0)  -->
<svg version="1.1" id="Layer_1" xmlns="http://www.w3.org/2000/svg" xmlns:xlink="http://www.w3.org/1999/xlink" x="0px" y="0px"
	 viewBox="0 0 19.3 14.7" style="enable-background:new 0 0 19.3 14.7;" xml:space="preserve">
<style type="text/css">
	.st0{fill:#C2C2C2;}
</style>
<g>
	<path class="st0" d="M16.9,0H2.4C1.1,0,0,1.1,0,2.4v10c0,1.3,1.1,2.4,2.4,2.4h14.5c1.3,0,2.4-1.1,2.4-2.4v-10C19.3,1,18.2,0,16.9,0
		z M18.2,12.3c0,0.7-0.6,1.3-1.3,1.3H2.4c-0.7,0-1.3-0.6-1.3-1.3v0v-10C1.1,1.6,1.7,1,2.4,1l0,0h14.5c0.7,0,1.3,0.6,1.3,1.3v0
		L18.2,12.3L18.2,12.3z"/>
	<path class="st0" d="M12.1,7.2L16.9,3c0.2-0.2,0.2-0.5,0-0.8c-0.2-0.2-0.6-0.2-0.8,0L9.6,8L8.3,6.9l0,0L8.2,6.8L3.1,2.2
		C2.9,2,2.5,2,2.3,2.2C2.1,2.4,2.1,2.8,2.4,3c0,0,0,0,0,0l4.8,4.3l-4.7,4.5c-0.2,0.2-0.2,0.5,0,0.8c0.1,0.1,0.2,0.2,0.4,0.2
		c0.1,0,0.3-0.1,0.4-0.1L8,8l1.3,1.2c0.1,0.1,0.2,0.1,0.4,0.1c0.1,0,0.3-0.1,0.4-0.1l1.3-1.2l4.8,4.5c0.1,0.1,0.2,0.1,0.4,0.1
		c0.2,0,0.3-0.1,0.4-0.2c0.2-0.2,0.2-0.5,0-0.8L12.1,7.2z"/>
</g>
</svg>
