<svg id="Layer_1" data-name="Layer 1" xmlns="http://www.w3.org/2000/svg" viewBox="0 0 42.65 42.69"><defs><style>.cls-1{fill:#a28ec2;}.cls-2{fill:#56bfe7;}.cls-3{fill:#fad376;}.cls-4{fill:#f6f7f7;}</style></defs><polygon class="cls-1" points="5.13 31.21 5.13 27.38 8.73 29.5 5.13 31.21"/><polygon class="cls-2" points="7.35 28.08 9.05 29.48 12.05 27.92 15.61 29.98 18.7 27.11 12.39 23.52 7.35 28.08"/><polygon class="cls-1" points="18.46 31.92 27.86 26.7 21.52 24.99 15.29 29.86 18.46 31.92"/><polygon class="cls-2" points="24.81 26.32 27.58 27.16 30.16 25.56 32.47 28.93 37.39 29.72 37.39 18.81 31.1 17.06 24.81 26.32"/><polyline class="cls-1" points="37.55 36.96 31.83 27.91 37.55 29.34 37.55 36.96"/><polygon class="cls-3" points="12.05 28.13 5.19 31.97 5.03 37.53 37.49 37.63 30.32 25.48 18.96 32.14 12.05 28.13"/><path class="cls-4" d="M428.69,342.78a.67.67,0,0,1-.66-.67V305.5a.67.67,0,1,1,1.33,0v36.61A.67.67,0,0,1,428.69,342.78Z" transform="translate(-426.53 -301.58)"/><path class="cls-4" d="M463.35,308H431.56a.66.66,0,0,1-.66-.66.67.67,0,0,1,.66-.67h31.79a.67.67,0,0,1,.66.67A.66.66,0,0,1,463.35,308Z" transform="translate(-426.53 -301.58)"/><path class="cls-4" d="M463.35,311.58H431.56a.67.67,0,0,1,0-1.33h31.79a.67.67,0,0,1,0,1.33Z" transform="translate(-426.53 -301.58)"/><path class="cls-4" d="M463.35,315.13H431.56a.67.67,0,0,1-.66-.67.66.66,0,0,1,.66-.66h31.79a.66.66,0,0,1,.66.66A.67.67,0,0,1,463.35,315.13Z" transform="translate(-426.53 -301.58)"/><path class="cls-4" d="M453,318.67H431.56a.66.66,0,0,1-.66-.66.67.67,0,0,1,.66-.67H453a.66.66,0,0,1,.66.67A.65.65,0,0,1,453,318.67Z" transform="translate(-426.53 -301.58)"/><path class="cls-4" d="M451,322.22h-19.4a.67.67,0,0,1,0-1.33H451a.67.67,0,1,1,0,1.33Z" transform="translate(-426.53 -301.58)"/><path class="cls-4" d="M434.49,325.77h-2.93a.67.67,0,0,1-.66-.67.66.66,0,0,1,.66-.66h2.93a.66.66,0,0,1,.66.66A.67.67,0,0,1,434.49,325.77Z" transform="translate(-426.53 -301.58)"/><path class="cls-4" d="M428.69,305.91a2.17,2.17,0,1,1,2.16-2.16A2.16,2.16,0,0,1,428.69,305.91Zm0-3a.84.84,0,1,0,.83.84A.84.84,0,0,0,428.69,302.91Z" transform="translate(-426.53 -301.58)"/><path class="cls-4" d="M465.32,342.78H428.69a.67.67,0,0,1-.66-.67.66.66,0,0,1,.66-.66h36.63a.66.66,0,0,1,.67.66A.67.67,0,0,1,465.32,342.78Z" transform="translate(-426.53 -301.58)"/><path class="cls-4" d="M467,344.27a2.16,2.16,0,1,1,2.16-2.16A2.16,2.16,0,0,1,467,344.27Zm0-3a.83.83,0,1,0,.83.83A.83.83,0,0,0,467,341.28Z" transform="translate(-426.53 -301.58)"/><path class="cls-4" d="M464.75,323.68v15.54a.28.28,0,0,1,0,.09s0,0,0,.06a.08.08,0,0,1,0,0s0,0,0,0l0,.07,0,.06,0,0a.69.69,0,0,1-.18.16h0l-.06,0-.06,0H431.56a.67.67,0,0,1-.66-.66v-10.6a.67.67,0,0,1,.34-.58.65.65,0,0,1,.67,0l1.69,1,1.17.72.84.51.33.21a.66.66,0,0,1,.22.91.72.72,0,0,1-.23.23h0a.63.63,0,0,1-.65,0l-1-.6-.91-.56-1.13-.69v8.74h31.19V323.68a.67.67,0,1,1,1.33,0Z" transform="translate(-426.53 -301.58)"/><path class="cls-4" d="M464.75,339.22a.28.28,0,0,1,0,.09s0,0,0,.06a.08.08,0,0,1,0,0s0,0,0,0l0,.07,0,.06,0,0a.69.69,0,0,1-.18.16h0l-.06,0-.06,0h-.22a.66.66,0,0,1-.57-.32l-.59-1-5.1-8.62-1-1.64-.25-.42-.42.24-1.65.92-9,5a.69.69,0,0,1-.67,0l-3-1.79-1.22-.73-2.15-1.3-2.62,1.45h0l-3.67,2-.35.19a.66.66,0,0,1-.9-.26.61.61,0,0,1-.08-.32.66.66,0,0,1,.34-.58l1-.55,2-1.12,1.34-.74,2.64-1.45a.65.65,0,0,1,.66,0l2.9,1.74,1.22.74,2.22,1.33,7.44-4.17,1.66-.92,2.17-1.22a.67.67,0,0,1,.9.24l1.27,2.16h0l1,1.65h0l3.75,6.35,1.23,2.09A.61.61,0,0,1,464.75,339.22Z" transform="translate(-426.53 -301.58)"/><path class="cls-4" d="M454.35,327.61l1.83.5-1.65.92-1.84-.5-1.41-.38-3.12-.85h0l-2.51,1.95a.67.67,0,0,1-.73.05l-.84-.47-5.21-2.91-4.1,3.89-.63.59a.65.65,0,0,1-.78.1.83.83,0,0,1-.16-.12.66.66,0,0,1,0-.94l.37-.35,4.71-4.47a.67.67,0,0,1,.78-.1l6.09,3.41,2.37-1.84h0l.05,0h0l0,0,.08,0a.09.09,0,0,1,.07,0h0l.09,0a.94.94,0,0,1,.29,0l3,.82,1.35.37h0Z" transform="translate(-426.53 -301.58)"/><polygon class="cls-4" points="38.22 28.86 38.22 30.24 36.89 29.88 33.13 28.85 33.13 28.85 31.29 28.35 30.32 26.7 32.16 27.21 32.16 27.21 36.89 28.5 38.22 28.86"/><path class="cls-4" d="M464.72,320.05a.66.66,0,0,1-.83.44l-5.79-1.71-5.58,8.33-.52.76a.66.66,0,0,1-.72.28l-3.12-.85h0L443,331.37l-1.11.88-1.22-.73,1.11-.89,2.27-1.8,3.47-2.75.05,0h0l0,0,.16-.08.09,0a.94.94,0,0,1,.29,0l3,.82,6.1-9.1a.67.67,0,0,1,.74-.27l6.26,1.85A.67.67,0,0,1,464.72,320.05Z" transform="translate(-426.53 -301.58)"/></svg>