<svg id="Layer_1" data-name="Layer 1" xmlns="http://www.w3.org/2000/svg" viewBox="0 0 58.12 42.69"><defs><style>.cls-1{fill:#a6d16b;}.cls-2{fill:#7fcff4;}.cls-3{fill:#f5c76d;}.cls-4{fill:#f15e5e;}.cls-5{fill:#f6f7f7;}</style></defs><rect class="cls-1" x="6.36" y="29.07" width="7.26" height="12.49"/><rect class="cls-2" x="31.78" y="26.11" width="7.26" height="15.44"/><rect class="cls-3" x="19.07" y="16.52" width="7.26" height="25.04"/><rect class="cls-4" x="44.5" y="14.82" width="7.26" height="26.73"/><circle class="cls-3" cx="22.06" cy="4.09" r="2.95"/><circle class="cls-2" cx="35.31" cy="17.6" r="2.95"/><circle class="cls-4" cx="48.13" cy="4.09" r="2.95"/><circle class="cls-1" cx="9.91" cy="16.52" r="2.95"/><path class="cls-5" d="M475.78,342h-4.09V316.4a1.13,1.13,0,0,0-1.13-1.13h-7.27a1.14,1.14,0,0,0-1.13,1.13v5.74a1.14,1.14,0,0,0,2.27,0v-4.6h5V342h-5V329.77a1.14,1.14,0,0,0-2.27,0V342H459V327.7a1.14,1.14,0,0,0-1.13-1.14h-7.27a1.13,1.13,0,0,0-1.13,1.14V342h-3.18V318.1a1.14,1.14,0,0,0-1.14-1.14h-7.26a1.14,1.14,0,0,0-1.14,1.14V342h-3.18V330.65a1.12,1.12,0,0,0-1.13-1.13h-7.27a1.13,1.13,0,0,0-1.13,1.13V342h-4.09a1.14,1.14,0,0,0,0,2.27h55.85a1.14,1.14,0,1,0,0-2.27Zm-44.5,0h-5V331.79h5ZM444,342h-5V319.23h5Zm12.71,0h-5V328.83h5Z" transform="translate(-418.8 -301.58)"/><path class="cls-5" d="M463.29,325.05a1.15,1.15,0,0,0-.8.33,1.14,1.14,0,0,0-.33.8,1.18,1.18,0,0,0,.33.81,1.15,1.15,0,0,0,1.61,0,1.18,1.18,0,0,0,.33-.81,1.14,1.14,0,0,0-.33-.8A1.16,1.16,0,0,0,463.29,325.05Z" transform="translate(-418.8 -301.58)"/><path class="cls-5" d="M466.93,309.76a4.09,4.09,0,1,0-3.31-1.69l-7.54,7.54a4.06,4.06,0,0,0-3.77-.09l-7.87-7.88a4.09,4.09,0,1,0-7.05.18l-6.71,6.7a4.1,4.1,0,1,0,1.61,1.61l6.78-6.79a4,4,0,0,0,1.79.42,4.07,4.07,0,0,0,2-.51l7.8,7.79a4.08,4.08,0,1,0,7.56,2.15,4.13,4.13,0,0,0-.5-2l7.74-7.74A3.93,3.93,0,0,0,466.93,309.76Zm0-5.9a1.82,1.82,0,1,1-1.82,1.81A1.81,1.81,0,0,1,466.93,303.86Zm-38.22,16.06a1.82,1.82,0,1,1,1.82-1.82A1.82,1.82,0,0,1,428.71,319.92Zm12.15-12.43a1.82,1.82,0,1,1,1.82-1.82A1.82,1.82,0,0,1,440.86,307.49ZM454.11,321a1.82,1.82,0,1,1,1.81-1.81A1.82,1.82,0,0,1,454.11,321Z" transform="translate(-418.8 -301.58)"/></svg>