<svg id="Layer_1" data-name="Layer 1" xmlns="http://www.w3.org/2000/svg" viewBox="0 0 26.16 42.69"><defs><style>.cls-1{fill:#aab1bd;}.cls-2{fill:#e6e8eb;}.cls-3{fill:#6dc6ab;}.cls-4{fill:#fad670;}.cls-5{fill:#fbe7a5;}.cls-6{fill:#f38170;}.cls-7{fill:#46606b;}</style></defs><path class="cls-1" d="M485.11,342.67v2.75a2.75,2.75,0,0,1-2.76,2.76H463.08a2.75,2.75,0,0,1-2.76-2.76v-2.75a2.75,2.75,0,0,0,2.76,2.75h19.27A2.75,2.75,0,0,0,485.11,342.67Z" transform="translate(-459.63 -314.44)"/><path class="cls-2" d="M479.94,321.33l-1.75-.24a3.93,3.93,0,0,1-3.41-3.89,2.07,2.07,0,1,0-4.13,0,3.95,3.95,0,0,1-3.42,3.89l-1.75.24a6,6,0,0,0-5.16,5.9v15.44a2.75,2.75,0,0,0,2.76,2.75h19.27a2.75,2.75,0,0,0,2.76-2.75V327.23A6,6,0,0,0,479.94,321.33Z" transform="translate(-459.63 -314.44)"/><circle class="cls-3" cx="7.57" cy="12.39" r="1.38"/><circle class="cls-3" cx="18.59" cy="12.39" r="1.38"/><path class="cls-4" d="M475.47,331H481v5.5h-5.51Z" transform="translate(-459.63 -314.44)"/><path class="cls-4" d="M464.45,331H470v5.5h-5.51Z" transform="translate(-459.63 -314.44)"/><path class="cls-4" d="M470,339.23v6.19h-5.51v-1.68a1.37,1.37,0,0,1,1-1.33l.68-.17a1.37,1.37,0,0,0,1-1.33v-1.68Z" transform="translate(-459.63 -314.44)"/><path class="cls-4" d="M481,343.74v1.68h-5.51v-6.19h2.75v1.68a1.37,1.37,0,0,0,1,1.33l.68.17a1.37,1.37,0,0,1,1,1.33Z" transform="translate(-459.63 -314.44)"/><path class="cls-5" d="M481,336.47v1.38a1.38,1.38,0,0,1-1.38,1.38H465.83a1.38,1.38,0,0,1-1.38-1.38v-1.38H481Z" transform="translate(-459.63 -314.44)"/><path class="cls-5" d="M481,329.59V331H464.45v-1.38a1.38,1.38,0,0,1,1.38-1.38H479.6A1.38,1.38,0,0,1,481,329.59Z" transform="translate(-459.63 -314.44)"/><path class="cls-6" d="M470,339.23h5.51v6.19H470Z" transform="translate(-459.63 -314.44)"/><path class="cls-6" d="M470,331h5.51v5.5H470Z" transform="translate(-459.63 -314.44)"/><path class="cls-6" d="M474.09,324.08v4.13h-2.75v-4.13a1.37,1.37,0,0,1,2.35-1A1.36,1.36,0,0,1,474.09,324.08Z" transform="translate(-459.63 -314.44)"/><path class="cls-2" d="M465.83,348.18v6.88a1.38,1.38,0,0,1-1.38,1.38,1.33,1.33,0,0,1-1-.41,1.34,1.34,0,0,1-.4-1v-6.88Z" transform="translate(-459.63 -314.44)"/><path class="cls-2" d="M471.34,348.18v6.88a1.38,1.38,0,0,1-1.38,1.38,1.33,1.33,0,0,1-1-.41,1.31,1.31,0,0,1-.41-1v-6.88Z" transform="translate(-459.63 -314.44)"/><path class="cls-2" d="M476.85,348.18v6.88a1.38,1.38,0,0,1-1.38,1.38,1.33,1.33,0,0,1-1-.41,1.31,1.31,0,0,1-.41-1v-6.88Z" transform="translate(-459.63 -314.44)"/><path class="cls-2" d="M482.35,348.18v6.88a1.38,1.38,0,0,1-1.37,1.38,1.4,1.4,0,0,1-1.38-1.38v-6.88Z" transform="translate(-459.63 -314.44)"/><path class="cls-7" d="M480,320.64l-1.75-.23a3.24,3.24,0,0,1-2.81-3.21,2.76,2.76,0,1,0-5.51,0,3.24,3.24,0,0,1-2.81,3.21l-1.76.23a6.67,6.67,0,0,0-5.76,6.58v18.2a3.45,3.45,0,0,0,2.76,3.38v6.26a2.07,2.07,0,1,0,4.13,0v-6.19h1.37v6.19a2.07,2.07,0,0,0,4.14,0v-6.19h1.37v6.19a2.07,2.07,0,1,0,4.13,0v-6.19h1.38v6.19a2.07,2.07,0,1,0,4.13,0V348.8a3.45,3.45,0,0,0,2.76-3.38v-18.2A6.67,6.67,0,0,0,480,320.64Zm-14.89,34.42a.69.69,0,0,1-1.38,0v-6.19h1.38Zm5.51,0a.69.69,0,0,1-1.38,0v-6.19h1.38Zm5.51,0a.69.69,0,0,1-1.38,0v-6.19h1.38Zm4.82.69a.69.69,0,0,1-.69-.69v-6.19h1.37v6.19A.68.68,0,0,1,481,355.75Zm1.37-8.26H463.08a2.07,2.07,0,0,1-2.07-2.07h0a3.46,3.46,0,0,0,2.07.7h19.27a3.46,3.46,0,0,0,2.07-.7h0A2.07,2.07,0,0,1,482.35,347.49Zm-15.83-20.65a.69.69,0,0,1,.69-.69.69.69,0,1,1-.69.69Zm-.69,2.06H479.6a.69.69,0,0,1,.69.69v.69H465.14v-.69A.69.69,0,0,1,465.83,328.9Zm7.57-1.38H472v-3.44a.68.68,0,0,1,.68-.69.69.69,0,0,1,.69.69Zm4.13-.68a.69.69,0,1,1,.69.68A.69.69,0,0,1,477.53,326.84Zm2.76,9h-4.13v-4.14h4.13Zm-5.51-4.14v4.14h-4.13v-4.14Zm-9.64,0h4.13v4.14h-4.13Zm0,5.51h15.15v.69a.69.69,0,0,1-.69.69H465.83a.69.69,0,0,1-.69-.69Zm14,5.75.67.17a.69.69,0,0,1,.52.67v1h-4.13v-4.82h1.37v1A2.06,2.06,0,0,0,479.1,342.91Zm-4.32-3v4.82h-4.13v-4.82Zm-6.89,1v-1h1.38v4.82h-4.13v-1a.7.7,0,0,1,.52-.67l.67-.17A2.05,2.05,0,0,0,467.89,340.91Zm14.46,3.83h-.69v-1a2.07,2.07,0,0,0-1.56-2l-.67-.16a.71.71,0,0,1-.52-.67v-1h.69a2.07,2.07,0,0,0,2.06-2.07v-8.26a2.07,2.07,0,0,0-1.52-2,2.1,2.1,0,0,0,.15-.76,2.07,2.07,0,1,0-4.13,0,2.16,2.16,0,0,0,.12.68h-1.5v-3.44a2.07,2.07,0,0,0-4.13,0v3.44h-1.5a2.16,2.16,0,0,0,.12-.68,2.07,2.07,0,1,0-4.13,0,2.1,2.1,0,0,0,.15.76,2.07,2.07,0,0,0-1.53,2v8.26a2.07,2.07,0,0,0,2.07,2.07h.69v1a.68.68,0,0,1-.52.66l-.67.17a2.08,2.08,0,0,0-1.57,2v1h-.68a2.07,2.07,0,0,1-2.07-2.07V327.22a5.28,5.28,0,0,1,4.57-5.21l1.75-.23a4.65,4.65,0,0,0,4-4.58,1.38,1.38,0,1,1,2.75,0,4.65,4.65,0,0,0,4,4.58l1.75.23a5.28,5.28,0,0,1,4.57,5.21v15.45A2.07,2.07,0,0,1,482.35,344.74Z" transform="translate(-459.63 -314.44)"/></svg>