<svg id="Layer_1" data-name="Layer 1" xmlns="http://www.w3.org/2000/svg" viewBox="0 0 39.93 42.69"><defs><style>.cls-1{fill:#fad670;}.cls-2{fill:#fbe7a5;}.cls-3{fill:#cdd1d9;}.cls-4{fill:#f38170;}.cls-5{fill:#47616c;}</style></defs><path class="cls-1" d="M492,316.51v8.26a1.38,1.38,0,0,1-1.37,1.38H454.81a1.38,1.38,0,0,1-1.37-1.38v-8.26a1.38,1.38,0,0,1,1.37-1.38h35.81A1.38,1.38,0,0,1,492,316.51Z" transform="translate(-452.75 -314.44)"/><path class="cls-1" d="M492,333v9.64H453.44V333a1.38,1.38,0,0,1,1.37-1.38h35.81A1.38,1.38,0,0,1,492,333Z" transform="translate(-452.75 -314.44)"/><path class="cls-2" d="M492,342.67v1.38a1.37,1.37,0,0,1-1.37,1.37H454.81a1.37,1.37,0,0,1-1.37-1.37v-1.38Z" transform="translate(-452.75 -314.44)"/><path class="cls-3" d="M467.89,345.42v2.76h-4.13v-2.76Z" transform="translate(-452.75 -314.44)"/><path class="cls-3" d="M474.78,345.42v2.76h-4.13v-2.76Z" transform="translate(-452.75 -314.44)"/><path class="cls-3" d="M488.55,345.42v2.76h-4.13v-2.76Z" transform="translate(-452.75 -314.44)"/><path class="cls-3" d="M481.66,345.42v2.76h-4.13v-2.76Z" transform="translate(-452.75 -314.44)"/><path class="cls-3" d="M461,345.42v2.76h-4.13v-2.76Z" transform="translate(-452.75 -314.44)"/><path class="cls-3" d="M456.19,326.15h4.13v5.5h-4.13Z" transform="translate(-452.75 -314.44)"/><path class="cls-3" d="M470.65,326.15h4.13v5.5h-4.13Z" transform="translate(-452.75 -314.44)"/><path class="cls-3" d="M485.11,326.15h4.13v5.5h-4.13Z" transform="translate(-452.75 -314.44)"/><circle class="cls-4" cx="33.74" cy="6.2" r="1.38"/><circle class="cls-4" cx="33.74" cy="22.72" r="1.38"/><circle class="cls-4" cx="26.85" cy="6.2" r="1.38"/><circle class="cls-4" cx="26.85" cy="22.72" r="1.38"/><circle class="cls-4" cx="19.97" cy="6.2" r="1.38"/><circle class="cls-4" cx="19.97" cy="22.72" r="1.38"/><circle class="cls-4" cx="13.08" cy="6.2" r="1.38"/><circle class="cls-4" cx="13.08" cy="22.72" r="1.38"/><circle class="cls-4" cx="6.2" cy="6.2" r="1.38"/><circle class="cls-4" cx="6.2" cy="22.72" r="1.38"/><path class="cls-5" d="M458.94,339.23a2.07,2.07,0,1,0-2.06-2.07A2.07,2.07,0,0,0,458.94,339.23Zm0-2.76a.69.69,0,0,1,0,1.38.69.69,0,0,1,0-1.38Z" transform="translate(-452.75 -314.44)"/><path class="cls-5" d="M465.83,339.23a2.07,2.07,0,1,0-2.07-2.07A2.07,2.07,0,0,0,465.83,339.23Zm0-2.76a.69.69,0,1,1-.69.69A.69.69,0,0,1,465.83,336.47Z" transform="translate(-452.75 -314.44)"/><path class="cls-5" d="M472.71,339.23a2.07,2.07,0,1,0-2.06-2.07A2.07,2.07,0,0,0,472.71,339.23Zm0-2.76a.69.69,0,0,1,0,1.38.69.69,0,0,1,0-1.38Z" transform="translate(-452.75 -314.44)"/><path class="cls-5" d="M479.6,339.23a2.07,2.07,0,1,0-2.07-2.07A2.07,2.07,0,0,0,479.6,339.23Zm0-2.76a.69.69,0,1,1-.69.69A.69.69,0,0,1,479.6,336.47Z" transform="translate(-452.75 -314.44)"/><path class="cls-5" d="M486.48,339.23a2.07,2.07,0,1,0-2.06-2.07A2.07,2.07,0,0,0,486.48,339.23Zm0-2.76a.69.69,0,1,1-.68.69A.69.69,0,0,1,486.48,336.47Z" transform="translate(-452.75 -314.44)"/><path class="cls-5" d="M458.94,318.57a2.07,2.07,0,1,0,2.07,2.07A2.07,2.07,0,0,0,458.94,318.57Zm0,2.76a.69.69,0,0,1,0-1.38.69.69,0,0,1,0,1.38Z" transform="translate(-452.75 -314.44)"/><path class="cls-5" d="M465.83,318.57a2.07,2.07,0,1,0,2.06,2.07A2.07,2.07,0,0,0,465.83,318.57Zm0,2.76a.69.69,0,1,1,.69-.69A.69.69,0,0,1,465.83,321.33Z" transform="translate(-452.75 -314.44)"/><path class="cls-5" d="M472.71,318.57a2.07,2.07,0,1,0,2.07,2.07A2.07,2.07,0,0,0,472.71,318.57Zm0,2.76a.69.69,0,0,1,0-1.38.69.69,0,0,1,0,1.38Z" transform="translate(-452.75 -314.44)"/><path class="cls-5" d="M479.6,318.57a2.07,2.07,0,1,0,2.06,2.07A2.07,2.07,0,0,0,479.6,318.57Zm0,2.76a.69.69,0,1,1,.69-.69A.69.69,0,0,1,479.6,321.33Z" transform="translate(-452.75 -314.44)"/><path class="cls-5" d="M486.48,318.57a2.07,2.07,0,1,0,2.07,2.07A2.07,2.07,0,0,0,486.48,318.57Zm0,2.76a.69.69,0,1,1,.69-.69A.69.69,0,0,1,486.48,321.33Z" transform="translate(-452.75 -314.44)"/><path class="cls-5" d="M490.62,326.84a2.07,2.07,0,0,0,2.06-2.07v-8.26a2.07,2.07,0,0,0-2.06-2.07H454.81a2.07,2.07,0,0,0-2.06,2.07v8.26a2.07,2.07,0,0,0,2.06,2.07h.69V331h-.69a2.06,2.06,0,0,0-2.06,2.06v11a2.06,2.06,0,0,0,2.06,2.06h1.38v2.76h2.07v8.26h1.37v-8.26h2.07v-2.76h1.38v2.76h2.06v8.26h1.38v-8.26h2.06v-2.76H470v2.76H472v8.26h1.37v-8.26h2.07v-2.76h1.38v2.76h2.06v8.26h1.38v-8.26h2.06v-2.76h1.38v2.76h2.07v8.26h1.37v-8.26h2.07v-2.76h1.38a2.06,2.06,0,0,0,2.06-2.06V333a2.06,2.06,0,0,0-2.06-2.06h-.69v-4.13Zm-36.5-2.07v-8.26a.69.69,0,0,1,.69-.69h35.81a.69.69,0,0,1,.68.69v8.26a.69.69,0,0,1-.68.69H454.81A.69.69,0,0,1,454.12,324.77Zm21.35,6.2v-4.13h8.95V331ZM470,326.84V331H461v-4.13Zm1.38,0h2.75V331h-2.75Zm-14.46,0h2.75V331h-2.75Zm3.44,20.65h-2.75v-1.38h2.75Zm6.89,0h-2.76v-1.38h2.76Zm6.88,0h-2.75v-1.38h2.75Zm6.89,0h-2.76v-1.38H481Zm6.88,0h-2.75v-1.38h2.75Zm2.76-2.75H454.81a.69.69,0,0,1-.69-.69v-.69H491.3v.69A.69.69,0,0,1,490.62,344.74ZM491.3,333v9H454.12v-9a.69.69,0,0,1,.69-.69h35.81A.69.69,0,0,1,491.3,333ZM488.55,331H485.8v-4.13h2.75Z" transform="translate(-452.75 -314.44)"/></svg>