<svg id="Layer_1" data-name="Layer 1" xmlns="http://www.w3.org/2000/svg" viewBox="0 0 42.69 42.69"><defs><style>.cls-1{fill:#969fa9;}.cls-2{fill:#cdd1d9;}.cls-3{fill:#e6e8eb;}.cls-4{fill:#fad670;}.cls-5{fill:#fbe7a5;}.cls-6{fill:#f38170;}.cls-7{fill:#48626d;}</style></defs><path class="cls-1" d="M452.06,315.13h41.31v41.31H452.06Z" transform="translate(-451.37 -314.44)"/><path class="cls-2" d="M489.24,350.24v2.07H456.19V319.26h33.05v31Z" transform="translate(-451.37 -314.44)"/><path class="cls-3" d="M486.48,322.7v26.17a.69.69,0,0,1-.68.69H459.63a.69.69,0,0,1-.69-.69V322.7a.69.69,0,0,1,.69-.68H485.8A.69.69,0,0,1,486.48,322.7Z" transform="translate(-451.37 -314.44)"/><path class="cls-4" d="M476.85,341.29h-9.64v-11h11v11Z" transform="translate(-451.37 -314.44)"/><path class="cls-5" d="M475.47,333.72v4.13a.69.69,0,0,1-.69.69h-4.13a.69.69,0,0,1-.69-.69v-4.13a.69.69,0,0,1,.69-.69h4.13A.69.69,0,0,1,475.47,333.72Z" transform="translate(-451.37 -314.44)"/><circle class="cls-6" cx="11.7" cy="30.98" r="1.38"/><circle class="cls-6" cx="11.7" cy="11.7" r="1.38"/><circle class="cls-6" cx="30.98" cy="11.7" r="1.38"/><circle class="cls-6" cx="30.98" cy="30.98" r="1.38"/><path class="cls-7" d="M451.37,314.44v42.69h42.69V314.44Zm41.31,35.12h-2.75V346.8h2.75Zm0-4.14h-2.75v-2.75h2.75Zm0-4.13h-2.75v-2.75h2.75Zm0-4.13h-2.75v-2.75h2.75Zm0-4.13h-2.75v-2.75h2.75Zm0-4.13h-2.75v-2.75h2.75Zm0-4.13h-2.75V322h2.75Zm-3.73-6.2h-1.09v-2.75h3.85Zm-32.07,33.05V320h31.67v31.67Zm29.6-33.05h-2.75v-2.75h2.75Zm-4.13,0H479.6v-2.75h2.75Zm-4.13,0h-2.75v-2.75h2.75Zm-4.13,0h-2.75v-2.75h2.75Zm-4.13,0h-2.75v-2.75H470Zm-4.13,0h-2.75v-2.75h2.75Zm-4.13,0h-2.76v-2.75h2.76Zm-4.13,0h-1.09l-2.76-2.75h3.85ZM452.75,322h2.75v2.75h-2.75Zm0,4.13h2.75v2.75h-2.75Zm0,4.13h2.75V333h-2.75Zm0,4.13h2.75v2.75h-2.75Zm0,4.13h2.75v2.75h-2.75Zm0,4.13h2.75v2.75h-2.75Zm0,4.13h2.75v2.76h-2.75Zm2.75-27.25v1.09h-2.75v-3.85Zm-2.75,31.38h2.75V352l-2.75,2.76Zm3.73,2.07h1.09v2.75h-3.85Zm2.46,0h2.76v2.75h-2.76Zm4.14,0h2.75v2.75h-2.75Zm4.13,0H470v2.75h-2.75Zm4.13,0h2.75v2.75h-2.75Zm4.13,0h2.75v2.75h-2.75Zm4.13,0h2.75v2.75H479.6Zm4.13,0h2.75v2.75h-2.75Zm4.13,0H489l2.76,2.75h-3.85Zm2.07-1v-1.09h2.75v3.85Zm2.75-31.38h-2.75v-1.09l2.75-2.76Z" transform="translate(-451.37 -314.44)"/><path class="cls-7" d="M485.8,321.33H459.63a1.37,1.37,0,0,0-1.37,1.37v26.17a1.37,1.37,0,0,0,1.37,1.37H485.8a1.37,1.37,0,0,0,1.37-1.37V322.7A1.37,1.37,0,0,0,485.8,321.33Zm-26.17,27.54V322.7H485.8v26.17Z" transform="translate(-451.37 -314.44)"/><path class="cls-7" d="M470.65,339.23h4.13a1.38,1.38,0,0,0,1.38-1.38v-4.13a1.38,1.38,0,0,0-1.38-1.38h-4.13a1.38,1.38,0,0,0-1.38,1.38v4.13A1.38,1.38,0,0,0,470.65,339.23Zm0-5.51h4.13v4.13h-4.13Z" transform="translate(-451.37 -314.44)"/><path class="cls-7" d="M478.91,340.61h2.75v-1.38h-2.75v-1.38h2.75v-1.38h-2.75V335.1h2.75v-1.38h-2.75v-1.38h2.75V331h-2.75v-1.38h-1.38v-2.75h-1.37v2.75h-1.38v-2.75H473.4v2.75H472v-2.75h-1.38v2.75h-1.38v-2.75h-1.38v2.75h-1.37V331h-2.76v1.37h2.76v1.38h-2.76v1.38h2.76v1.37h-2.76v1.38h2.76v1.38h-2.76v1.38h2.76V342h1.37v2.76h1.38V342h1.38v2.76H472V342h1.37v2.76h1.38V342h1.38v2.76h1.37V342h1.38Zm-1.38,0h-9.64V331h9.64Z" transform="translate(-451.37 -314.44)"/><path class="cls-7" d="M463.08,328.21a2.07,2.07,0,1,0-2.07-2.06A2.06,2.06,0,0,0,463.08,328.21Zm0-2.75a.69.69,0,1,1-.69.69A.69.69,0,0,1,463.08,325.46Z" transform="translate(-451.37 -314.44)"/><path class="cls-7" d="M463.08,343.36a2.07,2.07,0,1,0,2.06,2.06A2.07,2.07,0,0,0,463.08,343.36Zm0,2.75a.69.69,0,0,1-.69-.69.69.69,0,1,1,.69.69Z" transform="translate(-451.37 -314.44)"/><path class="cls-7" d="M482.35,324.08a2.07,2.07,0,1,0,2.07,2.07A2.07,2.07,0,0,0,482.35,324.08Zm0,2.76a.69.69,0,1,1,.69-.69A.69.69,0,0,1,482.35,326.84Z" transform="translate(-451.37 -314.44)"/><path class="cls-7" d="M482.35,343.36a2.07,2.07,0,1,0,2.07,2.06A2.06,2.06,0,0,0,482.35,343.36Zm0,2.75a.69.69,0,0,1-.69-.69.69.69,0,0,1,1.38,0A.69.69,0,0,1,482.35,346.11Z" transform="translate(-451.37 -314.44)"/><path class="cls-7" d="M472,335.1h1.37v1.37H472Z" transform="translate(-451.37 -314.44)"/></svg>