<svg id="Layer_1" data-name="Layer 1" xmlns="http://www.w3.org/2000/svg" viewBox="0 0 42.69 42.69"><defs><style>.cls-1{fill:#969fa9;}.cls-2{fill:#cdd1d9;}.cls-3{fill:#6dc6ab;}.cls-4{fill:#fad670;}.cls-5{fill:#fbe7a5;}.cls-6{fill:#e6e8eb;}.cls-7{fill:#f38170;}.cls-8{fill:#47616c;}</style></defs><path class="cls-1" d="M458.94,324.77v22h-5.5a1.38,1.38,0,0,1-1.38-1.38v-6.88h1.38a2.76,2.76,0,0,0,0-5.51h-1.38v-6.88a1.38,1.38,0,0,1,1.38-1.38h5.5Z" transform="translate(-451.37 -314.44)"/><path class="cls-1" d="M493.37,338.54v6.88A1.38,1.38,0,0,1,492,346.8h-5.51v-22H492a1.38,1.38,0,0,1,1.38,1.38V333H492a2.75,2.75,0,0,0-2.75,2.76,2.75,2.75,0,0,0,2.75,2.75Z" transform="translate(-451.37 -314.44)"/><path class="cls-2" d="M486.48,324.77v22H458.94v-22h27.54Z" transform="translate(-451.37 -314.44)"/><path class="cls-3" d="M488.55,315.82v2.75a.69.69,0,0,1-.69.69h-1.38a.69.69,0,0,1-.68-.69v-2.75a.69.69,0,0,1,.68-.69h1.38A.69.69,0,0,1,488.55,315.82Z" transform="translate(-451.37 -314.44)"/><path class="cls-3" d="M487.17,353v2.75a.69.69,0,0,1-.69.69h-1.37a.69.69,0,0,1-.69-.69V353a.69.69,0,0,1,.69-.69h1.37A.69.69,0,0,1,487.17,353Z" transform="translate(-451.37 -314.44)"/><path class="cls-3" d="M481.66,315.82v2.75a.68.68,0,0,1-.68.69H479.6a.69.69,0,0,1-.69-.69v-2.75a.69.69,0,0,1,.69-.69H481A.68.68,0,0,1,481.66,315.82Z" transform="translate(-451.37 -314.44)"/><path class="cls-4" d="M481,339.92v4.13h-4.13v-2.76h1.37v-1.37Z" transform="translate(-451.37 -314.44)"/><path class="cls-5" d="M478.22,331.65H481v8.27h-2.76Z" transform="translate(-451.37 -314.44)"/><path class="cls-5" d="M464.45,331.65h2.76v8.27h-2.76Z" transform="translate(-451.37 -314.44)"/><path class="cls-5" d="M468.58,327.52h8.27v2.76h-8.27Z" transform="translate(-451.37 -314.44)"/><path class="cls-5" d="M468.58,341.29h8.27v2.76h-8.27Z" transform="translate(-451.37 -314.44)"/><path class="cls-4" d="M481,327.52v4.13h-2.76v-1.37h-1.37v-2.76Z" transform="translate(-451.37 -314.44)"/><path class="cls-3" d="M480.29,353v2.75a.69.69,0,0,1-.69.69h-1.38a.69.69,0,0,1-.69-.69V353a.69.69,0,0,1,.69-.69h1.38A.69.69,0,0,1,480.29,353Z" transform="translate(-451.37 -314.44)"/><path class="cls-6" d="M478.22,339.92v1.37h-11v-11h11v9.64Z" transform="translate(-451.37 -314.44)"/><circle class="cls-7" cx="21.34" cy="21.34" r="2.75"/><path class="cls-3" d="M474.78,315.82v2.75a.69.69,0,0,1-.69.69h-1.38a.69.69,0,0,1-.68-.69v-2.75a.69.69,0,0,1,.68-.69h1.38A.69.69,0,0,1,474.78,315.82Z" transform="translate(-451.37 -314.44)"/><path class="cls-3" d="M473.4,353v2.75a.69.69,0,0,1-.69.69h-1.37a.69.69,0,0,1-.69-.69V353a.69.69,0,0,1,.69-.69h1.37A.69.69,0,0,1,473.4,353Z" transform="translate(-451.37 -314.44)"/><path class="cls-4" d="M468.58,341.29v2.76h-4.13v-4.13h2.76v1.37Z" transform="translate(-451.37 -314.44)"/><path class="cls-4" d="M468.58,327.52v2.76h-1.37v1.37h-2.76v-4.13Z" transform="translate(-451.37 -314.44)"/><path class="cls-3" d="M467.89,315.82v2.75a.69.69,0,0,1-.68.69h-1.38a.69.69,0,0,1-.69-.69v-2.75a.69.69,0,0,1,.69-.69h1.38A.69.69,0,0,1,467.89,315.82Z" transform="translate(-451.37 -314.44)"/><path class="cls-3" d="M466.52,353v2.75a.69.69,0,0,1-.69.69h-1.38a.69.69,0,0,1-.69-.69V353a.69.69,0,0,1,.69-.69h1.38A.69.69,0,0,1,466.52,353Z" transform="translate(-451.37 -314.44)"/><path class="cls-3" d="M461,315.82v2.75a.69.69,0,0,1-.69.69h-1.38a.69.69,0,0,1-.68-.69v-2.75a.69.69,0,0,1,.68-.69h1.38A.69.69,0,0,1,461,315.82Z" transform="translate(-451.37 -314.44)"/><path class="cls-3" d="M459.63,353v2.75a.69.69,0,0,1-.69.69h-1.37a.69.69,0,0,1-.69-.69V353a.69.69,0,0,1,.69-.69h1.37A.69.69,0,0,1,459.63,353Z" transform="translate(-451.37 -314.44)"/><path class="cls-8" d="M494.06,326.15a2.07,2.07,0,0,0-2.07-2.07h-6.88V322.7h2.75V320a1.38,1.38,0,0,0,1.38-1.38v-2.75a1.38,1.38,0,0,0-1.38-1.38h-1.38a1.38,1.38,0,0,0-1.37,1.38v2.75a1.38,1.38,0,0,0,1.37,1.38v1.38h-2.75v2.75h-5.51V322.7H481V320a1.37,1.37,0,0,0,1.37-1.38v-2.75a1.37,1.37,0,0,0-1.37-1.38H479.6a1.38,1.38,0,0,0-1.38,1.38v2.75A1.38,1.38,0,0,0,479.6,320v1.38h-2.75v2.75h-5.51V322.7h2.75V320a1.38,1.38,0,0,0,1.38-1.38v-2.75a1.38,1.38,0,0,0-1.38-1.38h-1.38a1.37,1.37,0,0,0-1.37,1.38v2.75a1.37,1.37,0,0,0,1.37,1.38v1.38H470v2.75h-5.51V322.7h2.76V320a1.37,1.37,0,0,0,1.37-1.38v-2.75a1.37,1.37,0,0,0-1.37-1.38h-1.38a1.38,1.38,0,0,0-1.38,1.38v2.75a1.38,1.38,0,0,0,1.38,1.38v1.38h-2.75v2.75h-5.51V322.7h2.75V320a1.38,1.38,0,0,0,1.38-1.38v-2.75a1.38,1.38,0,0,0-1.38-1.38h-1.38a1.37,1.37,0,0,0-1.37,1.38v2.75a1.37,1.37,0,0,0,1.37,1.38v1.38h-2.75v2.75h-2.75a2.07,2.07,0,0,0-2.07,2.07v7.57h2.07a2.07,2.07,0,0,1,0,4.13h-2.07v7.57a2.07,2.07,0,0,0,2.07,2.07h6.88v1.38h-2.75v2.75a1.38,1.38,0,0,0-1.38,1.38v2.75a1.38,1.38,0,0,0,1.38,1.38h1.37a1.38,1.38,0,0,0,1.38-1.38V353a1.38,1.38,0,0,0-1.38-1.38v-1.38h2.76v-2.75h5.51v1.38h-2.76v2.75a1.37,1.37,0,0,0-1.37,1.38v2.75a1.37,1.37,0,0,0,1.37,1.38h1.38a1.38,1.38,0,0,0,1.38-1.38V353a1.38,1.38,0,0,0-1.38-1.38v-1.38h2.75v-2.75h5.51v1.38h-2.75v2.75A1.38,1.38,0,0,0,470,353v2.75a1.38,1.38,0,0,0,1.38,1.38h1.37a1.38,1.38,0,0,0,1.38-1.38V353a1.38,1.38,0,0,0-1.38-1.38v-1.38h2.76v-2.75H481v1.38h-2.76v2.75a1.37,1.37,0,0,0-1.37,1.38v2.75a1.37,1.37,0,0,0,1.37,1.38h1.38a1.38,1.38,0,0,0,1.38-1.38V353a1.38,1.38,0,0,0-1.38-1.38v-1.38h2.75v-2.75h5.51v1.38h-2.75v2.75a1.38,1.38,0,0,0-1.38,1.38v2.75a1.38,1.38,0,0,0,1.38,1.38h1.37a1.38,1.38,0,0,0,1.38-1.38V353a1.38,1.38,0,0,0-1.38-1.38v-1.38h2.76v-2.75H492a2.07,2.07,0,0,0,2.07-2.07v-7.57H492a2.07,2.07,0,0,1,0-4.13h2.07Zm-7.58-10.33h1.38v2.75h-1.38Zm-6.88,0H481v2.75H479.6Zm-6.89,0h1.38v2.75h-1.38Zm-6.88,0h1.38v2.75h-1.38Zm-6.89,0h1.38v2.75h-1.38Zm0,39.93h-1.37V353h1.37Zm6.89,0h-1.38V353h1.38Zm6.88,0h-1.37V353h1.37Zm6.89,0h-1.38V353h1.38Zm6.88,0h-1.37V353h1.37Zm-.68-30.29v20.65H459.63V325.46Zm-33.05,20v-6.19h.69a3.45,3.45,0,0,0,0-6.89h-.69v-6.19a.69.69,0,0,1,.69-.69h4.82v20.65h-4.82A.69.69,0,0,1,452.75,345.42Zm39.93-13.08H492a3.45,3.45,0,0,0,0,6.89h.69v6.19a.69.69,0,0,1-.69.69h-4.82V325.46H492a.69.69,0,0,1,.69.69Z" transform="translate(-451.37 -314.44)"/><path class="cls-8" d="M491.3,335.1h1.38v1.37H491.3Z" transform="translate(-451.37 -314.44)"/><path class="cls-8" d="M452.75,335.1h1.37v1.37h-1.37Z" transform="translate(-451.37 -314.44)"/><path class="cls-8" d="M481.66,326.84h-17.9v17.9h17.9ZM480.29,331h-1.38v-1.38h-1.38v-1.38h2.76Zm-1.38,6.88h1.38v1.38h-1.38Zm0-1.38V335.1h1.38v1.37Zm0-2.75v-1.38h1.38v1.38ZM470.65,342v1.38h-1.38V342Zm1.38,0h1.37v1.38H472Zm2.75,0h1.38v1.38h-1.38Zm-6.89-1.37V331h9.64v9.64Zm5.51-11H472v-1.38h1.37Zm1.38-1.38h1.38v1.38h-1.38Zm-4.13,1.38h-1.38v-1.38h1.38Zm-2.76-1.38v1.38h-1.37V331h-1.38v-2.76Zm-1.37,11h-1.38v-1.38h1.38Zm0-2.76h-1.38V335.1h1.38Zm0-2.75h-1.38v-1.38h1.38Zm-1.38,6.89h1.38V342h1.37v1.38h-2.75Zm12.39,2.75V342h1.38v-1.37h1.38v2.75Z" transform="translate(-451.37 -314.44)"/><path class="cls-8" d="M472.71,332.34a3.45,3.45,0,1,0,3.45,3.45A3.45,3.45,0,0,0,472.71,332.34Zm0,5.51a2.07,2.07,0,1,1,2.07-2.06A2.07,2.07,0,0,1,472.71,337.85Z" transform="translate(-451.37 -314.44)"/><path class="cls-8" d="M461,332.34h1.38v1.38H461Z" transform="translate(-451.37 -314.44)"/><path class="cls-8" d="M461,329.59h1.38V331H461Z" transform="translate(-451.37 -314.44)"/><path class="cls-8" d="M461,326.84h1.38v1.37H461Z" transform="translate(-451.37 -314.44)"/><path class="cls-8" d="M483,343.36h1.38v1.38H483Z" transform="translate(-451.37 -314.44)"/><path class="cls-8" d="M483,337.85h1.38v1.38H483Z" transform="translate(-451.37 -314.44)"/><path class="cls-8" d="M483,340.61h1.38V342H483Z" transform="translate(-451.37 -314.44)"/><path class="cls-8" d="M489.93,326.84h1.37v1.37h-1.37Z" transform="translate(-451.37 -314.44)"/><path class="cls-8" d="M489.93,343.36h1.37v1.38h-1.37Z" transform="translate(-451.37 -314.44)"/><path class="cls-8" d="M454.12,343.36h1.38v1.38h-1.38Z" transform="translate(-451.37 -314.44)"/><path class="cls-8" d="M454.12,326.84h1.38v1.37h-1.38Z" transform="translate(-451.37 -314.44)"/></svg>