<svg id="Layer_1" data-name="Layer 1" xmlns="http://www.w3.org/2000/svg" viewBox="0 0 30.29 42.69"><defs><style>.cls-1{fill:#aab1bd;}.cls-2{fill:#cdd1d9;}.cls-3{fill:#fad670;}.cls-4{fill:#fbe7a5;}.cls-5{fill:#e6e8eb;}.cls-6{fill:#6dc6ab;}.cls-7{fill:#48626d;}</style></defs><path class="cls-1" d="M567.9,306.87v1.38a1.38,1.38,0,0,1-1.38,1.37h-17.9a1.38,1.38,0,0,1-1.38-1.37v-1.38a1.38,1.38,0,0,1,1.38-1.38h17.9A1.38,1.38,0,0,1,567.9,306.87Z" transform="translate(-542.42 -288.28)"/><path class="cls-2" d="M563.77,302.74v2.75h-12.4v-2.75a1.38,1.38,0,0,1,1.38-1.38h9.64A1.38,1.38,0,0,1,563.77,302.74Z" transform="translate(-542.42 -288.28)"/><path class="cls-3" d="M557.57,301.36h-3.44l-1.28-6.42a4.92,4.92,0,0,1-.1-.94v-.21a4.82,4.82,0,0,1,4.82-4.82,4.81,4.81,0,0,1,4.82,4.82V294a4.23,4.23,0,0,1-.1.94L561,301.36Z" transform="translate(-542.42 -288.28)"/><path class="cls-2" d="M562.39,309.62h4.13v4.13h-4.13Z" transform="translate(-542.42 -288.28)"/><path class="cls-2" d="M548.62,309.62h4.13v4.13h-4.13Z" transform="translate(-542.42 -288.28)"/><path class="cls-4" d="M547.24,313.75H567.9v9.64H547.24Z" transform="translate(-542.42 -288.28)"/><path class="cls-3" d="M572,315.13V322a1.38,1.38,0,0,1-1.38,1.37H567.9v-9.64h2.75A1.38,1.38,0,0,1,572,315.13Z" transform="translate(-542.42 -288.28)"/><path class="cls-5" d="M569.28,323.39v5.51l-2.07,1.38h-.69v-6.89h2.76Z" transform="translate(-542.42 -288.28)"/><path class="cls-6" d="M561,320.64h2.76v2.75H561Z" transform="translate(-542.42 -288.28)"/><path class="cls-5" d="M559,323.39v5.51a1.38,1.38,0,0,1-1.38,1.38,1.33,1.33,0,0,1-1-.41,1.37,1.37,0,0,1-.41-1v-5.51Z" transform="translate(-542.42 -288.28)"/><path class="cls-6" d="M551.37,320.64h2.76v2.75h-2.76Z" transform="translate(-542.42 -288.28)"/><path class="cls-5" d="M548.62,323.39v6.89h-.69l-2.06-1.38v-5.51h2.75Z" transform="translate(-542.42 -288.28)"/><path class="cls-3" d="M547.24,313.75v9.64h-2.75a1.38,1.38,0,0,1-1.38-1.37v-6.89a1.38,1.38,0,0,1,1.38-1.38Z" transform="translate(-542.42 -288.28)"/><path class="cls-7" d="M552.06,315.82h1.38v1.38h-1.38Z" transform="translate(-542.42 -288.28)"/><path class="cls-7" d="M554.82,315.82h1.37v1.38h-1.37Z" transform="translate(-542.42 -288.28)"/><path class="cls-7" d="M549.31,315.82h1.38v1.38h-1.38Z" transform="translate(-542.42 -288.28)"/><path class="cls-7" d="M564.46,315.82h1.37v1.38h-1.37Z" transform="translate(-542.42 -288.28)"/><path class="cls-7" d="M559,315.82h1.38v1.38H559Z" transform="translate(-542.42 -288.28)"/><path class="cls-7" d="M561.7,315.82h1.38v1.38H561.7Z" transform="translate(-542.42 -288.28)"/><path class="cls-7" d="M570.65,313.06h-3.44v-2.88a2.05,2.05,0,0,0,1.38-1.93v-1.38a2.07,2.07,0,0,0-2.07-2.07h-2.06v-2.06a2.07,2.07,0,0,0-2.07-2.07h-.54l1.12-5.59a5.65,5.65,0,0,0,.11-1.08v-.21a5.51,5.51,0,1,0-11,0V294a5.65,5.65,0,0,0,.11,1.08l1.12,5.59h-.54a2.07,2.07,0,0,0-2.06,2.07v2.06h-2.07a2.07,2.07,0,0,0-2.06,2.07v1.38a2,2,0,0,0,1.37,1.93v2.88h-3.44a2.07,2.07,0,0,0-2.07,2.07V322a2.07,2.07,0,0,0,2.07,2.06h.69v5.19l2.54,1.7h1.59v-6.89h6.2v4.82a2.07,2.07,0,1,0,4.13,0v-4.82h6.19V331h1.59l2.54-1.7v-5.19h.69a2.07,2.07,0,0,0,2.07-2.06v-6.89A2.07,2.07,0,0,0,570.65,313.06Zm-6.19,9.64V320h-4.13v2.75h-5.51V320h-4.13v2.75h-2.76v-8.26h19.28v8.26Zm-1.38,0H561.7v-1.37h1.38Zm-9.64,0h-1.38v-1.37h1.38Zm8.26-12.39v2.75h-8.26v-2.75Zm1.38,2.75v-2.75h2.75v2.75Zm-9.56-18.25a4.45,4.45,0,0,1-.08-.81v-.21a4.13,4.13,0,1,1,8.26,0V294a3.71,3.71,0,0,1-.08.81l-1.17,5.86h-2.19v-5.6a2.77,2.77,0,0,0,2.07-2.66H559a1.38,1.38,0,1,1-2.76,0h-1.37a2.76,2.76,0,0,0,2.06,2.66v5.6h-2.19Zm-1.46,7.93a.69.69,0,0,1,.69-.69h9.64a.69.69,0,0,1,.69.69v2.06h-11Zm-4.13,4.13a.69.69,0,0,1,.69-.69h17.9a.69.69,0,0,1,.69.69v1.38a.68.68,0,0,1-.69.68h-17.9a.68.68,0,0,1-.69-.68Zm1.38,3.44h2.75v2.75h-2.75ZM543.8,322v-6.89a.69.69,0,0,1,.69-.69h2.07v8.26h-2.07A.68.68,0,0,1,543.8,322Zm4.13,7.43-1.37-.92v-4.45h1.37Zm10.33-.55a.69.69,0,0,1-1.38,0v-4.82h1.38Zm10.33-.37-1.38.92v-5.37h1.38Zm2.75-6.51a.68.68,0,0,1-.69.68h-2.06v-8.26h2.06a.69.69,0,0,1,.69.69Z" transform="translate(-542.42 -288.28)"/></svg>