<svg id="Layer_1" data-name="Layer 1" xmlns="http://www.w3.org/2000/svg" viewBox="0 0 42.69 42.69"><defs><style>.cls-1{fill:#aab1bd;}.cls-2{fill:#fad670;}.cls-3{fill:#6dc6ab;}.cls-4{fill:#f38170;}.cls-5{fill:#cdd1d9;}.cls-6{fill:#e6e8eb;}.cls-7{fill:#47616c;}</style></defs><path class="cls-1" d="M493.37,328.9v8.26a1.38,1.38,0,0,1-1.38,1.38H453.44a1.38,1.38,0,0,1-1.38-1.38V328.9h.69a2.07,2.07,0,0,0,2.06-2.06,2.06,2.06,0,0,0-2.06-2.07h-.69v-8.26a1.38,1.38,0,0,1,1.38-1.38H492a1.38,1.38,0,0,1,1.38,1.38v8.26h-.69a2.07,2.07,0,0,0-2.06,2.07,2.06,2.06,0,0,0,2.06,2.06Z" transform="translate(-451.37 -314.44)"/><path class="cls-2" d="M475.47,327.52h12.39v8.27H475.47Z" transform="translate(-451.37 -314.44)"/><path class="cls-3" d="M457.57,323.39h11v5.51h-11Z" transform="translate(-451.37 -314.44)"/><path class="cls-2" d="M454.81,317.88h2.76v2.76h-2.76Z" transform="translate(-451.37 -314.44)"/><circle class="cls-4" cx="5.51" cy="19.28" r="2.07"/><circle class="cls-4" cx="37.18" cy="5.51" r="2.07"/><path class="cls-5" d="M467.21,338.54l-1.38,5.51h-2.75l-1.38-5.51Z" transform="translate(-451.37 -314.44)"/><path class="cls-5" d="M492,338.54l-1.37,5.51h-2.76l-1.38-5.51Z" transform="translate(-451.37 -314.44)"/><path class="cls-5" d="M475.47,338.54l-1.38,5.51h-2.75L470,338.54Z" transform="translate(-451.37 -314.44)"/><path class="cls-5" d="M483.73,338.54l-1.38,5.51H479.6l-1.38-5.51Z" transform="translate(-451.37 -314.44)"/><path class="cls-5" d="M458.94,338.54l-1.37,5.51h-2.76l-1.37-5.51Z" transform="translate(-451.37 -314.44)"/><path class="cls-6" d="M454.81,344.05h2.76v12.39h-2.76Z" transform="translate(-451.37 -314.44)"/><path class="cls-6" d="M463.08,344.05h2.75v12.39h-2.75Z" transform="translate(-451.37 -314.44)"/><path class="cls-6" d="M471.34,344.05h2.75v12.39h-2.75Z" transform="translate(-451.37 -314.44)"/><path class="cls-6" d="M479.6,344.05h2.75v12.39H479.6Z" transform="translate(-451.37 -314.44)"/><path class="cls-6" d="M487.86,344.05h2.76v12.39h-2.76Z" transform="translate(-451.37 -314.44)"/><path class="cls-7" d="M458.26,317.2h-4.14v4.13h4.14ZM456.88,320H455.5v-1.38h1.38Z" transform="translate(-451.37 -314.44)"/><path class="cls-7" d="M459.63,317.2H461v1.37h-1.38Z" transform="translate(-451.37 -314.44)"/><path class="cls-7" d="M462.39,317.2h11v1.37h-11Z" transform="translate(-451.37 -314.44)"/><path class="cls-7" d="M459.63,320H473.4v1.38H459.63Z" transform="translate(-451.37 -314.44)"/><path class="cls-7" d="M488.55,317.2A2.75,2.75,0,1,0,491.3,320,2.75,2.75,0,0,0,488.55,317.2Zm0,4.13a1.38,1.38,0,1,1,1.38-1.38A1.38,1.38,0,0,1,488.55,321.33Z" transform="translate(-451.37 -314.44)"/><path class="cls-7" d="M456.88,331a2.75,2.75,0,1,0,2.75,2.75A2.76,2.76,0,0,0,456.88,331Zm0,4.13a1.38,1.38,0,1,1,1.38-1.38A1.38,1.38,0,0,1,456.88,335.1Z" transform="translate(-451.37 -314.44)"/><path class="cls-7" d="M474.78,336.47h13.77v-9.63H474.78Zm1.38-8.26h11v6.89h-11Z" transform="translate(-451.37 -314.44)"/><path class="cls-7" d="M492.68,325.46h1.38v-8.95a2.07,2.07,0,0,0-2.07-2.07H453.44a2.07,2.07,0,0,0-2.07,2.07v8.95h1.38a1.38,1.38,0,0,1,0,2.75h-1.38v9a2.05,2.05,0,0,0,1.51,2l1.24,5v13h4.14v-13l1.22-4.9h1.68l1.23,4.9v13h4.13v-13l1.22-4.9h1.68l1.23,4.9v13h4.13v-13l1.23-4.9h1.67l1.23,4.9v13H483v-13l1.23-4.9H486l1.22,4.9v13h4.13v-13l1.25-5a2.05,2.05,0,0,0,1.51-2v-9h-1.38a1.38,1.38,0,1,1,0-2.75ZM455.5,355.75v-11h1.38v11ZM457,343.36h-1.68l-1-4.13h3.74Zm6.73,12.39v-11h1.38v11Zm1.53-12.39h-1.68l-1-4.13h3.74ZM472,355.75v-11h1.37v11Zm1.52-12.39h-1.68l-1-4.13h3.75Zm6.74,12.39v-11h1.37v11Zm1.53-12.39h-1.68l-1-4.13h3.75Zm6.58,0-1-4.13h3.74l-1,4.13Zm.15,12.39v-11h1.38v11Zm4.13-26.16v7.57a.69.69,0,0,1-.69.69H453.44a.69.69,0,0,1-.69-.69v-7.57a2.76,2.76,0,0,0,0-5.51v-7.57a.69.69,0,0,1,.69-.69H492a.69.69,0,0,1,.69.69v7.57a2.76,2.76,0,0,0,0,5.51Z" transform="translate(-451.37 -314.44)"/><path class="cls-7" d="M477.53,329.59h8.27V331h-8.27Z" transform="translate(-451.37 -314.44)"/><path class="cls-7" d="M477.53,332.34h8.27v1.38h-8.27Z" transform="translate(-451.37 -314.44)"/><path class="cls-7" d="M456.88,329.59h12.39V322.7H456.88Zm1.38-5.51h9.63v4.13h-9.63Z" transform="translate(-451.37 -314.44)"/><path class="cls-7" d="M462.39,325.46h1.37v1.38h-1.37Z" transform="translate(-451.37 -314.44)"/><path class="cls-7" d="M459.63,325.46H461v1.38h-1.38Z" transform="translate(-451.37 -314.44)"/><path class="cls-7" d="M465.14,325.46h1.38v1.38h-1.38Z" transform="translate(-451.37 -314.44)"/></svg>