<svg id="Layer_1" data-name="Layer 1" xmlns="http://www.w3.org/2000/svg" viewBox="0 0 28.92 42.69"><defs><style>.cls-1{fill:#aab1bd;}.cls-2{fill:#cdd1d9;}.cls-3{fill:#f38170;}.cls-4{fill:#e6e8eb;}.cls-5{fill:#47616c;}</style></defs><path class="cls-1" d="M486.48,342.67v6.89h-4.13v-4.14H463.08v4.14h-4.14v-6.89Z" transform="translate(-458.26 -314.44)"/><path class="cls-2" d="M486.48,315.13v27.54H458.94V315.13Z" transform="translate(-458.26 -314.44)"/><path class="cls-3" d="M479.6,320.64v8.26l-2.75-1.38V322l2.34-2.35A1.33,1.33,0,0,1,479.6,320.64Z" transform="translate(-458.26 -314.44)"/><path class="cls-3" d="M476.85,335.79l2.34,2.34a1.31,1.31,0,0,1-1,.41h-11a1.31,1.31,0,0,1-1-.41l2.34-2.34Z" transform="translate(-458.26 -314.44)"/><path class="cls-3" d="M479.6,328.9v8.26a1.31,1.31,0,0,1-.41,1l-2.34-2.34v-5.51Z" transform="translate(-458.26 -314.44)"/><path class="cls-3" d="M479.19,319.67,476.85,322h-8.27l-2.34-2.35a1.31,1.31,0,0,1,1-.41h11A1.31,1.31,0,0,1,479.19,319.67Z" transform="translate(-458.26 -314.44)"/><path class="cls-3" d="M479.6,328.9l-2.75,1.38h-8.27l-2.75-1.38,2.75-1.38h8.27Z" transform="translate(-458.26 -314.44)"/><path class="cls-3" d="M468.58,335.79l-2.34,2.34a1.31,1.31,0,0,1-.41-1V328.9l2.75,1.38Z" transform="translate(-458.26 -314.44)"/><path class="cls-3" d="M466.24,319.67l2.34,2.35v5.5l-2.75,1.38v-8.26A1.33,1.33,0,0,1,466.24,319.67Z" transform="translate(-458.26 -314.44)"/><path class="cls-4" d="M479.6,345.42v9.64a1.38,1.38,0,0,1-1.38,1.38,1.33,1.33,0,0,1-1-.41,1.34,1.34,0,0,1-.4-1v-9.64Z" transform="translate(-458.26 -314.44)"/><path class="cls-4" d="M468.58,345.42v9.64a1.38,1.38,0,0,1-1.37,1.38,1.4,1.4,0,0,1-1.38-1.38v-9.64Z" transform="translate(-458.26 -314.44)"/><path class="cls-4" d="M474.09,345.42v9.64a1.38,1.38,0,0,1-1.38,1.38,1.38,1.38,0,0,1-1.37-1.38v-9.64Z" transform="translate(-458.26 -314.44)"/><path class="cls-4" d="M463.08,349.56v5.5a1.38,1.38,0,0,1-1.38,1.38,1.33,1.33,0,0,1-1-.41,1.31,1.31,0,0,1-.41-1v-5.5Z" transform="translate(-458.26 -314.44)"/><path class="cls-4" d="M485.11,349.56v5.5a1.38,1.38,0,0,1-1.38,1.38,1.33,1.33,0,0,1-1-.41,1.31,1.31,0,0,1-.41-1v-5.5Z" transform="translate(-458.26 -314.44)"/><path class="cls-5" d="M487.17,314.44H458.26v35.8h1.37v4.82a2.07,2.07,0,1,0,4.13,0v-8.95h1.38v8.95a2.07,2.07,0,1,0,4.13,0v-8.95h1.38v8.95a2.07,2.07,0,1,0,4.13,0v-8.95h1.38v8.95a2.07,2.07,0,1,0,4.13,0v-8.95h1.37v8.95a2.07,2.07,0,1,0,4.14,0v-4.82h1.37Zm-1.37,1.38V342H459.63V315.82Zm-23.41,39.24a.69.69,0,0,1-1.38,0v-4.82h1.38Zm5.5,0a.68.68,0,0,1-.68.69.69.69,0,0,1-.69-.69v-8.95h1.37Zm5.51,0a.69.69,0,0,1-.69.69.68.68,0,0,1-.68-.69v-8.95h1.37Zm5.51,0a.69.69,0,0,1-1.38,0v-8.95h1.38Zm5.51,0a.69.69,0,0,1-1.38,0v-4.82h1.38ZM483,348.87v-4.13H462.39v4.13h-2.76v-5.51H485.8v5.51Z" transform="translate(-458.26 -314.44)"/><path class="cls-5" d="M467.21,339.23h11a2.07,2.07,0,0,0,2.07-2.07V320.64a2.07,2.07,0,0,0-2.07-2.07h-11a2.07,2.07,0,0,0-2.07,2.07v16.52A2.07,2.07,0,0,0,467.21,339.23Zm9-12.39h-6.89V322.7h6.89Zm-7.41,1.37h7.93l1.38.69-1.38.69h-7.93l-1.38-.69Zm.52,2.76h6.89v4.13h-6.89Zm-.4,5.5h7.69l1.38,1.38H467.49Zm8.66-1v-4.8l1.38-.69v6.87Zm0-8.4v-4.8l1.38-1.38v6.87Zm-1-5.77h-7.69L467.49,320h10.45Zm-8.67,1v4.8l-1.37.69v-6.87Zm0,8.4v4.8l-1.37,1.38V330Z" transform="translate(-458.26 -314.44)"/><path class="cls-5" d="M461,317.2h1.38v1.37H461Z" transform="translate(-458.26 -314.44)"/><path class="cls-5" d="M461,339.23h1.38v1.38H461Z" transform="translate(-458.26 -314.44)"/><path class="cls-5" d="M483,339.23h1.38v1.38H483Z" transform="translate(-458.26 -314.44)"/><path class="cls-5" d="M483,317.2h1.38v1.37H483Z" transform="translate(-458.26 -314.44)"/></svg>