<svg id="Layer_1" data-name="Layer 1" xmlns="http://www.w3.org/2000/svg" viewBox="0 0 42.69 42.69"><defs><style>.cls-1{fill:#969fa9;}.cls-2{fill:#f38170;}.cls-3{fill:#fad670;}.cls-4{fill:#ffc82c;}.cls-5{fill:#fbe7a5;}.cls-6{fill:#e6e8eb;}.cls-7{fill:#46606b;}</style></defs><path class="cls-1" d="M431.33,318.16H410.67a2.76,2.76,0,0,1-2.75-2.76V279.6a2.76,2.76,0,0,1,2.75-2.76h20.66a2.76,2.76,0,0,1,2.75,2.76v35.8A2.76,2.76,0,0,1,431.33,318.16Z" transform="translate(-399.66 -276.16)"/><path class="cls-2" d="M416.87,276.84h8.26a4.13,4.13,0,1,1-8.26,0Z" transform="translate(-399.66 -276.16)"/><path class="cls-3" d="M424.32,301.51l2.66,2.65a9,9,0,0,1-12,0l2.66-2.65a1.35,1.35,0,0,0,.57.12h5.5A1.35,1.35,0,0,0,424.32,301.51Z" transform="translate(-399.66 -276.16)"/><path class="cls-3" d="M427,290.84l-2.66,2.65a1.35,1.35,0,0,0-.57-.12h-5.5a1.35,1.35,0,0,0-.57.12L415,290.84a9,9,0,0,1,12,0Z" transform="translate(-399.66 -276.16)"/><path class="cls-4" d="M417.68,301.51,415,304.16a8.88,8.88,0,0,1-2.28-3.22l4.13-.69A1.4,1.4,0,0,0,417.68,301.51Z" transform="translate(-399.66 -276.16)"/><path class="cls-4" d="M415,290.84l2.66,2.65a1.4,1.4,0,0,0-.81,1.26l-4.13-.69A8.88,8.88,0,0,1,415,290.84Z" transform="translate(-399.66 -276.16)"/><path class="cls-4" d="M416.87,297.5v2.75l-4.13.69a9,9,0,0,1-.69-3.44Z" transform="translate(-399.66 -276.16)"/><path class="cls-4" d="M416.87,294.75v2.75h-4.82a9,9,0,0,1,.69-3.44Z" transform="translate(-399.66 -276.16)"/><path class="cls-4" d="M425.13,297.5H430a8.77,8.77,0,0,1-.69,3.44l-4.13-.69Z" transform="translate(-399.66 -276.16)"/><path class="cls-4" d="M429.26,294.06l-4.13.69a1.4,1.4,0,0,0-.81-1.26l2.66-2.65A8.88,8.88,0,0,1,429.26,294.06Z" transform="translate(-399.66 -276.16)"/><path class="cls-4" d="M425.13,300.25l4.13.69a8.88,8.88,0,0,1-2.28,3.22l-2.66-2.65A1.4,1.4,0,0,0,425.13,300.25Z" transform="translate(-399.66 -276.16)"/><path class="cls-4" d="M430,297.5h-4.82v-2.75l4.13-.69A9,9,0,0,1,430,297.5Z" transform="translate(-399.66 -276.16)"/><path class="cls-5" d="M425.13,297.5v2.75a1.4,1.4,0,0,1-.81,1.26,1.35,1.35,0,0,1-.57.12h-5.5a1.35,1.35,0,0,1-.57-.12,1.4,1.4,0,0,1-.81-1.26v-5.5a1.4,1.4,0,0,1,.81-1.26,1.35,1.35,0,0,1,.57-.12h5.5a1.35,1.35,0,0,1,.57.12,1.4,1.4,0,0,1,.81,1.26Z" transform="translate(-399.66 -276.16)"/><path class="cls-6" d="M407.92,285.11v2.75h-4.13v-2.75Z" transform="translate(-399.66 -276.16)"/><path class="cls-6" d="M407.92,312.65v2.75h-4.13v-2.75Z" transform="translate(-399.66 -276.16)"/><path class="cls-6" d="M407.92,296.12v2.76h-4.13v-2.76Z" transform="translate(-399.66 -276.16)"/><path class="cls-6" d="M407.92,279.6v2.75h-4.13V279.6Z" transform="translate(-399.66 -276.16)"/><path class="cls-6" d="M407.92,307.14v2.75h-4.13v-2.75Z" transform="translate(-399.66 -276.16)"/><path class="cls-6" d="M407.92,290.61v2.76h-4.13v-2.76Z" transform="translate(-399.66 -276.16)"/><path class="cls-6" d="M407.92,301.63v2.76h-4.13v-2.76Z" transform="translate(-399.66 -276.16)"/><path class="cls-6" d="M438.21,303v1.38h-4.13v-2.76h4.13Z" transform="translate(-399.66 -276.16)"/><path class="cls-6" d="M438.21,314v1.38h-4.13v-2.75h4.13Z" transform="translate(-399.66 -276.16)"/><path class="cls-6" d="M438.21,308.52v1.37h-4.13v-2.75h4.13Z" transform="translate(-399.66 -276.16)"/><path class="cls-6" d="M438.21,297.5v1.38h-4.13v-2.76h4.13Z" transform="translate(-399.66 -276.16)"/><path class="cls-6" d="M438.21,292v1.38h-4.13v-2.76h4.13Z" transform="translate(-399.66 -276.16)"/><path class="cls-6" d="M438.21,286.48v1.38h-4.13v-2.75h4.13Z" transform="translate(-399.66 -276.16)"/><path class="cls-6" d="M438.21,281v1.37h-4.13V279.6h4.13Z" transform="translate(-399.66 -276.16)"/><path class="cls-7" d="M438.9,283v-1.38h3.44v-1.37H438.9v-1.38h-4.2a3.44,3.44,0,0,0-3.37-2.75H410.67a3.44,3.44,0,0,0-3.37,2.75h-4.2v1.38h-3.44v1.37h3.44V283h4.13v1.38H403.1v1.38h-3.44v1.37h3.44v1.38h4.13v1.38H403.1v1.37h-3.44v1.38h3.44v1.38h4.13v1.37H403.1v1.38h-3.44v1.38h3.44v1.38h4.13v1.37H403.1v1.38h-3.44v1.38h3.44v1.37h4.13v1.38H403.1v1.38h-3.44v1.37h3.44v1.38h4.13V312H403.1v1.38h-3.44v1.37h3.44v1.38h4.2a3.44,3.44,0,0,0,3.37,2.75h20.66a3.44,3.44,0,0,0,3.37-2.75h4.2v-1.38h3.44v-1.37H438.9V312h-4.13v-1.38h4.13V309.2h3.44v-1.37H438.9v-1.38h-4.13v-1.38h4.13V303.7h3.44v-1.38H438.9v-1.38h-4.13v-1.37h4.13v-1.38h3.44v-1.38H438.9v-1.38h-4.13v-1.37h4.13v-1.38h3.44V291.3H438.9v-1.37h-4.13v-1.38h4.13v-1.38h3.44V285.8H438.9v-1.38h-4.13V283Zm-34.42-1.38v-1.37h2.75v1.37Zm0,5.51V285.8h2.75v1.37Zm0,5.51V291.3h2.75v1.38Zm0,5.51v-1.38h2.75v1.38Zm0,5.51v-1.38h2.75v1.38Zm0,5.5v-1.37h2.75v1.37Zm0,4.14h2.75v1.37h-2.75Zm19.89-35.81a3.44,3.44,0,0,1-6.74,0Zm9,37.87a2.07,2.07,0,0,1-2.06,2.07H410.67a2.07,2.07,0,0,1-2.06-2.07V279.6a2.07,2.07,0,0,1,2.06-2.07h5.57a4.81,4.81,0,0,0,9.52,0h5.57a2.07,2.07,0,0,1,2.06,2.07Zm4.13-33.74h-2.75v-1.37h2.75Zm0,31.68v1.37h-2.75v-1.37Zm0-5.51v1.37h-2.75v-1.37Zm0-5.51v1.38h-2.75v-1.38Zm0-5.51v1.38h-2.75v-1.38Zm0-5.51v1.38h-2.75V291.3Zm0-5.5v1.37h-2.75V285.8Z" transform="translate(-399.66 -276.16)"/><path class="cls-7" d="M421,287.86a9.64,9.64,0,1,0,9.64,9.64A9.65,9.65,0,0,0,421,287.86Zm-7.81,12.31a8.11,8.11,0,0,1-.42-2h3.41v1.48Zm3-3.36h-3.41a8.11,8.11,0,0,1,.42-2l3,.5Zm1.38,3.44v-5.5a.69.69,0,0,1,.69-.69h5.5a.69.69,0,0,1,.69.69v5.5a.69.69,0,0,1-.69.69h-5.5a.69.69,0,0,1-.69-.69Zm8.26-2.06h3.41a8.11,8.11,0,0,1-.42,2l-3-.5Zm0-1.38v-1.48l3-.5a8.11,8.11,0,0,1,.42,2Zm-.16-2.85a2.14,2.14,0,0,0-.32-.52l1.63-1.63a7.89,7.89,0,0,1,1.27,1.72Zm.28-3.06-1.82,1.82a2.21,2.21,0,0,0-.37,0h-5.5a2.21,2.21,0,0,0-.37,0l-1.82-1.82a8.18,8.18,0,0,1,9.88,0Zm-10.91.91,1.63,1.63a2.14,2.14,0,0,0-.32.52l-2.58-.43A7.89,7.89,0,0,1,415,291.81Zm-1.27,9.66,2.58-.43a2.14,2.14,0,0,0,.32.52L415,303.19a7.89,7.89,0,0,1-1.27-1.72Zm2.3,2.63,1.82-1.82a2.21,2.21,0,0,0,.37,0h5.5a2.21,2.21,0,0,0,.37,0l1.82,1.82a8.18,8.18,0,0,1-9.88,0Zm10.92-.91-1.64-1.63a2.14,2.14,0,0,0,.32-.52l2.58.43a8.18,8.18,0,0,1-1.26,1.72Z" transform="translate(-399.66 -276.16)"/><path class="cls-7" d="M414.8,310.58h12.4V312H414.8Z" transform="translate(-399.66 -276.16)"/><path class="cls-7" d="M425.82,313.34h1.38v1.37h-1.38Z" transform="translate(-399.66 -276.16)"/><path class="cls-7" d="M417.56,313.34h6.88v1.37h-6.88Z" transform="translate(-399.66 -276.16)"/><path class="cls-7" d="M414.8,313.34h1.38v1.37H414.8Z" transform="translate(-399.66 -276.16)"/></svg>