<svg id="Layer_1" data-name="Layer 1" xmlns="http://www.w3.org/2000/svg" viewBox="0 0 21.48 17.08"><defs><style>.cls-1{fill:#fff;}</style></defs><path class="cls-1" d="M397.26,314.89a.82.82,0,0,0-1.06-.1c-1.26.85-7.56,5.16-8.23,5.83a2.52,2.52,0,1,0,3.56,3.56c.67-.67,5-7,5.83-8.23A.82.82,0,0,0,397.26,314.89ZM390.34,323a.84.84,0,0,1-1.19-1.19c.27-.26,2.05-1.54,4.25-3.06C391.88,321,390.6,322.73,390.34,323Z" transform="translate(-379.01 -311.66)"/><path class="cls-1" d="M382.88,326.31l-1,.5a9,9,0,0,1-1.15-4.41,8.8,8.8,0,0,1,.59-3.21l1.18.56a.8.8,0,0,0,.36.09.84.84,0,0,0,.37-1.6l-1.17-.56a9,9,0,0,1,6.89-4.3v1.26a.84.84,0,1,0,1.68,0v-1.26a8.77,8.77,0,0,1,2.88.76.84.84,0,0,0,.69-1.53,10.73,10.73,0,0,0-13.33,15.75.84.84,0,0,0,.7.38.8.8,0,0,0,.36-.09l1.72-.84a.84.84,0,0,0,.39-1.12A.83.83,0,0,0,382.88,326.31Z" transform="translate(-379.01 -311.66)"/><path class="cls-1" d="M399.54,318a.84.84,0,1,0-1.53.69,9,9,0,0,1-.36,8.14l-1.08-.52a.84.84,0,1,0-.72,1.52l1.76.84a.94.94,0,0,0,.36.08.85.85,0,0,0,.7-.38,10.69,10.69,0,0,0,.87-10.37Z" transform="translate(-379.01 -311.66)"/></svg>