<svg id="Layer_1" data-name="Layer 1" xmlns="http://www.w3.org/2000/svg" viewBox="0 0 47.95 42.69"><defs><style>.cls-1{fill:#f0efef;}.cls-2{fill:#f3705a;}.cls-3{fill:#e5e8ee;}.cls-4{fill:#e66455;}</style></defs><path class="cls-1" d="M429.6,301.58l2.18,4.85h-1.55v35H467v-1.55l4.84,2.17L467,344.27v-1.55H429V306.43h-1.55Z" transform="translate(-423.88 -301.58)"/><path class="cls-1" d="M423.88,340.89h2.82v1.29h-2.82Z" transform="translate(-423.88 -301.58)"/><path class="cls-1" d="M423.88,336.37h2.82v1.29h-2.82Z" transform="translate(-423.88 -301.58)"/><path class="cls-1" d="M423.88,331.85h2.82v1.29h-2.82Z" transform="translate(-423.88 -301.58)"/><path class="cls-1" d="M423.88,327.32h2.82v1.29h-2.82Z" transform="translate(-423.88 -301.58)"/><path class="cls-1" d="M423.88,322.8h2.82v1.28h-2.82Z" transform="translate(-423.88 -301.58)"/><path class="cls-1" d="M423.88,318.28h2.82v1.28h-2.82Z" transform="translate(-423.88 -301.58)"/><path class="cls-1" d="M423.88,313.75h2.82V315h-2.82Z" transform="translate(-423.88 -301.58)"/><path class="cls-1" d="M423.88,309.22h2.82v1.29h-2.82Z" transform="translate(-423.88 -301.58)"/><path class="cls-2" d="M430.23,334.15l8.25-5.54,11.15,1.07,15.87-12v23.78H430.23Z" transform="translate(-423.88 -301.58)"/><path class="cls-1" d="M432.72,325.37l-.83-.93,7.54-6.7,9.34,3.54,11.81-8.85.76,1L449,322.7l-9.28-3.52Z" transform="translate(-423.88 -301.58)"/><path class="cls-3" d="M450.76,321.74a1.71,1.71,0,1,1-1.7-1.71A1.7,1.7,0,0,1,450.76,321.74Z" transform="translate(-423.88 -301.58)"/><path class="cls-4" d="M449.06,324.07a2.34,2.34,0,1,1,2.33-2.33A2.33,2.33,0,0,1,449.06,324.07Zm0-3.41a1.08,1.08,0,1,0,0,2.16,1.08,1.08,0,1,0,0-2.16Z" transform="translate(-423.88 -301.58)"/><path class="cls-3" d="M462.3,313.09a1.71,1.71,0,1,1-1.71-1.71A1.71,1.71,0,0,1,462.3,313.09Z" transform="translate(-423.88 -301.58)"/><path class="cls-4" d="M460.58,315.4a2.34,2.34,0,1,1,0-4.67,2.32,2.32,0,0,1,2.32,2.34v0A2.34,2.34,0,0,1,460.58,315.4Zm0-3.42a1.08,1.08,0,1,0,1.09,1.11,1.08,1.08,0,0,0-1.09-1.11h0v0Z" transform="translate(-423.88 -301.58)"/><path class="cls-3" d="M441.42,318.53a1.71,1.71,0,1,1-1.73-1.68h0A1.7,1.7,0,0,1,441.42,318.53Z" transform="translate(-423.88 -301.58)"/><path class="cls-4" d="M439.7,320.89a2.34,2.34,0,1,1,0-4.67,2.34,2.34,0,0,1,0,4.67Zm0-3.42a1.08,1.08,0,1,0,0,2.16,1.07,1.07,0,0,0,1.07-1.09h0A1.09,1.09,0,0,0,439.7,317.47Z" transform="translate(-423.88 -301.58)"/><path class="cls-3" d="M435.06,324.34a1.71,1.71,0,1,1-1.7-1.71A1.71,1.71,0,0,1,435.06,324.34Z" transform="translate(-423.88 -301.58)"/><path class="cls-4" d="M433.36,326.7a2.34,2.34,0,1,1,2.33-2.34A2.34,2.34,0,0,1,433.36,326.7Zm0-3.42a1.08,1.08,0,1,0,1.08,1.08,1.08,1.08,0,0,0-1.08-1.08h0Z" transform="translate(-423.88 -301.58)"/></svg>