<svg id="Layer_1" data-name="Layer 1" xmlns="http://www.w3.org/2000/svg" viewBox="0 0 23.11 42.69"><defs><style>.cls-1{fill:#fff;}.cls-2{fill:#f89e1f;}.cls-3{fill:#f8bf2b;}.cls-4{fill:#ebeceb;}</style></defs><path class="cls-1" d="M459.41,341.15c0,1.73-5.17,3.12-11.55,3.12s-11.56-1.39-11.56-3.12c0-.8,1.12-1.53,3-2.08-.65.35-1,.75-1,1.16,0,1.44,4.3,2.6,9.62,2.6s9.62-1.16,9.62-2.6c0-.41-.37-.81-1-1.16C458.29,339.62,459.41,340.35,459.41,341.15Z" transform="translate(-436.3 -301.58)"/><path class="cls-1" d="M453.62,340.5c0,.86-2.58,1.56-5.76,1.56s-5.77-.7-5.77-1.56c0-.4.56-.76,1.48-1-.33.17-.51.37-.51.58,0,.72,2.15,1.3,4.8,1.3s4.8-.58,4.8-1.3c0-.21-.19-.41-.51-.58C453.07,339.74,453.62,340.1,453.62,340.5Z" transform="translate(-436.3 -301.58)"/><ellipse class="cls-1" cx="11.56" cy="38.33" rx="2.2" ry="0.58"/><circle class="cls-2" cx="11.56" cy="11.46" r="6.43"/><path class="cls-3" d="M451.91,308.06a13.69,13.69,0,0,1-8.64,9.48,6.36,6.36,0,0,1-1.84-4.49,6.43,6.43,0,0,1,10.48-5Z" transform="translate(-436.3 -301.58)"/><path class="cls-1" d="M447.86,301.58a11.57,11.57,0,0,0-11.56,11.56c0,6.38,5,14.91,11.56,24,6.57-9.12,11.55-17.65,11.55-24A11.56,11.56,0,0,0,447.86,301.58Zm0,19.58a8.12,8.12,0,1,1,8.11-8.11A8.12,8.12,0,0,1,447.86,321.16Z" transform="translate(-436.3 -301.58)"/><path class="cls-4" d="M447.86,301.58a11.57,11.57,0,0,0-11.56,11.56c0,3.64,1.63,8,4.24,12.74a22.47,22.47,0,0,0,18.87-12.65v-.09A11.56,11.56,0,0,0,447.86,301.58Zm0,19.58a8.12,8.12,0,1,1,8.11-8.11A8.12,8.12,0,0,1,447.86,321.16Z" transform="translate(-436.3 -301.58)"/></svg>