<svg id="Layer_1" data-name="Layer 1" xmlns="http://www.w3.org/2000/svg" viewBox="0 0 12.81 17.08"><defs><style>.cls-1{fill:#d0d1ce;}</style></defs><path class="cls-1" d="M329.59,418h11.74V419H329.59Z" transform="translate(-329.05 -410.12)"/><path class="cls-1" d="M329.59,414h11.74v1.06H329.59Z" transform="translate(-329.05 -410.12)"/><path class="cls-1" d="M329.59,422.22h11.74v1.07H329.59Z" transform="translate(-329.05 -410.12)"/><path class="cls-1" d="M340.61,427.2H330.3a1.25,1.25,0,0,1-1.25-1.25V414.57a.5.5,0,0,1,0-.12l.76-3.36a1.24,1.24,0,0,1,1.21-1h8.83a1.24,1.24,0,0,1,1.21,1l.77,3.36s0,.08,0,.12V426a1.25,1.25,0,0,1-1.25,1.25Zm-10.49-12.57V426a.18.18,0,0,0,.18.18h10.31a.18.18,0,0,0,.18-.18V414.63l-.75-3.3a.18.18,0,0,0-.17-.14H331a.18.18,0,0,0-.17.14Z" transform="translate(-329.05 -410.12)"/><path class="cls-1" d="M337.41,415.81h1.78v1.07h-1.78Z" transform="translate(-329.05 -410.12)"/><path class="cls-1" d="M331.21,415.81h1.06v1.43h-1.06Z" transform="translate(-329.05 -410.12)"/><path class="cls-1" d="M333.34,415.81h1.07v1.43h-1.07Z" transform="translate(-329.05 -410.12)"/><path class="cls-1" d="M337.41,420.08h1.78v1.07h-1.78Z" transform="translate(-329.05 -410.12)"/><path class="cls-1" d="M331.21,420.08h1.06v1.43h-1.06Z" transform="translate(-329.05 -410.12)"/><path class="cls-1" d="M333.34,420.08h1.07v1.43h-1.07Z" transform="translate(-329.05 -410.12)"/><path class="cls-1" d="M337.41,424h1.78v1.06h-1.78Z" transform="translate(-329.05 -410.12)"/><path class="cls-1" d="M331.21,424h1.06v1.42h-1.06Z" transform="translate(-329.05 -410.12)"/><path class="cls-1" d="M333.34,424h1.07v1.42h-1.07Z" transform="translate(-329.05 -410.12)"/></svg>