<svg id="Layer_1" data-name="Layer 1" xmlns="http://www.w3.org/2000/svg" viewBox="0 0 17.11 17.08"><defs><style>.cls-1{fill:#d0d1ce;}</style></defs><path class="cls-1" d="M358.81,431.08v-3.51h-5.48l-2.09-2-2,2H345a2.26,2.26,0,0,0-2.24,2h0v9.9a3.15,3.15,0,0,0,3.14,3.14h14V431.08Zm-1-2.51v2.51h-.86l-2.58-2.51ZM351.26,427l4.24,4.13h-8.25ZM345,428.57h3.33l-2.43,2.51H345a1.26,1.26,0,0,1,0-2.51Zm13.86,10h-3.63a1.73,1.73,0,0,1,0-3.45h3.63Zm-3.63-4.45a2.73,2.73,0,0,0,0,5.45h3.63v2h-13a2.14,2.14,0,0,1-2.14-2.13V431.7a2.26,2.26,0,0,0,1.17.38h13.94v2Z" transform="translate(-342.7 -425.53)"/><path class="cls-1" d="M355.6,436.34h1v1h-1Z" transform="translate(-342.7 -425.53)"/><path class="cls-1" d="M345.36,434.38l.71-.7.71.7-.71.71Z" transform="translate(-342.7 -425.53)"/><path class="cls-1" d="M345.36,436.82l.71-.71.71.71-.71.71Z" transform="translate(-342.7 -425.53)"/><path class="cls-1" d="M345.36,439.26l.71-.71.71.71-.71.71Z" transform="translate(-342.7 -425.53)"/><path class="cls-1" d="M347.84,434.38l.7-.7.71.7-.71.71Z" transform="translate(-342.7 -425.53)"/><path class="cls-1" d="M347.84,436.82l.7-.71.71.71-.71.71Z" transform="translate(-342.7 -425.53)"/><path class="cls-1" d="M347.84,439.26l.7-.71.71.71-.71.71Z" transform="translate(-342.7 -425.53)"/></svg>