<svg id="Layer_1" data-name="Layer 1" xmlns="http://www.w3.org/2000/svg" viewBox="0 0 42.64 42.69"><defs><style>.cls-1{fill:#fabe17;}.cls-2{fill:#478ecc;}.cls-3{fill:#4eae4d;}.cls-4{fill:#f6f7f7;}</style></defs><path class="cls-1" d="M448.75,301.45a.89.89,0,0,0-.89.89v19.54a.89.89,0,0,0,.89.89h19.54a.89.89,0,0,0,.89-.89A20.45,20.45,0,0,0,448.75,301.45Z" transform="translate(-426.54 -301.45)"/><path class="cls-2" d="M458.33,339.1l-12.25-15.75V304.11a.88.88,0,0,0-.89-.88c-10.29,0-18.65,9.16-18.65,20.43A20.45,20.45,0,0,0,447,344.09a15.17,15.17,0,0,0,11.22-3.76A.88.88,0,0,0,458.33,339.1Z" transform="translate(-426.54 -301.45)"/><path class="cls-3" d="M468.29,324.55H450.52a.88.88,0,0,0-.89.88.87.87,0,0,0,.2.56l11.55,14.3a.89.89,0,0,0,.63.33h.06a.92.92,0,0,0,.61-.24,20.51,20.51,0,0,0,6.5-14.95A.88.88,0,0,0,468.29,324.55Z" transform="translate(-426.54 -301.45)"/><path class="cls-4" d="M468.29,322.77H448.75a.89.89,0,0,1-.89-.89V302.34a.89.89,0,0,1,.89-.89,20.45,20.45,0,0,1,20.43,20.43A.89.89,0,0,1,468.29,322.77ZM449.63,321h17.75a18.68,18.68,0,0,0-17.75-17.74Z" transform="translate(-426.54 -301.45)"/><path class="cls-4" d="M447,344.09a20.45,20.45,0,0,1-20.43-20.43c0-11.27,8.36-20.43,18.65-20.43a.88.88,0,0,1,.89.88v19.24l12.25,15.75a.88.88,0,0,1-.14,1.23A15.16,15.16,0,0,1,447,344.09ZM444.3,305c-8.89.51-16,8.68-16,18.63A18.67,18.67,0,0,0,447,342.31a13.45,13.45,0,0,0,9.42-2.81l-11.91-15.3a.88.88,0,0,1-.18-.54V305Z" transform="translate(-426.54 -301.45)"/><path class="cls-4" d="M462.07,340.62H462a.89.89,0,0,1-.63-.33L449.83,326a.89.89,0,0,1,.13-1.25,1,1,0,0,1,.56-.19h17.77a.88.88,0,0,1,.89.88,20.51,20.51,0,0,1-6.5,14.95A.92.92,0,0,1,462.07,340.62Zm-9.69-14.3,9.77,12.08a18.69,18.69,0,0,0,5.23-12.08Z" transform="translate(-426.54 -301.45)"/></svg>