<svg id="Layer_1" data-name="Layer 1" xmlns="http://www.w3.org/2000/svg" viewBox="0 0 17.07 17.08"><defs><style>.cls-1{fill:#d0d1ce;}</style></defs><g id="Semiconductor-transistor-chip-electronics-4"><path class="cls-1" d="M328.5,432.49a.86.86,0,1,0,0-1.71h-.85v-.57h.85a.86.86,0,1,0,0-1.71h-.85v-.56a.32.32,0,0,0-.08-.21l-.57-.57a.32.32,0,0,0-.2-.08h-.57v-.85a.86.86,0,1,0-1.71,0v.85H324v-.85a.86.86,0,1,0-1.71,0v.85h-.57v-.85a.85.85,0,1,0-1.7,0v.85h-.57v-.85a.86.86,0,1,0-1.71,0v.85h-.57v-.85a.86.86,0,1,0-1.71,0v.85h-.57a.32.32,0,0,0-.2.08l-.57.57a.32.32,0,0,0-.08.21v.56h-.85a.86.86,0,1,0,0,1.71H314v.57h-.85a.86.86,0,1,0,0,1.71H314v.57h-.85a.86.86,0,1,0,0,1.71H314v.56h-.85a.86.86,0,1,0,0,1.71H314v.57h-.85a.86.86,0,1,0,0,1.71H314v.57a.3.3,0,0,0,.08.2l.57.57a.32.32,0,0,0,.2.08h.57v.86a.86.86,0,0,0,.86.85.85.85,0,0,0,.85-.85v-.86h.57v.86a.86.86,0,0,0,1.71,0v-.86H320v.86a.85.85,0,1,0,1.7,0v-.86h.57v.86a.86.86,0,0,0,.86.85.85.85,0,0,0,.85-.85v-.86h.57v.86a.86.86,0,0,0,1.71,0v-.86h.57a.32.32,0,0,0,.2-.08l.57-.57a.3.3,0,0,0,.08-.2v-.57h.85a.86.86,0,1,0,0-1.71h-.85V437h.85a.86.86,0,1,0,0-1.71h-.85v-.56h.85a.86.86,0,1,0,0-1.71h-.85v-.57Zm-.85-3.42h.85a.29.29,0,0,1,.29.29.28.28,0,0,1-.29.28h-.85Zm0,2.28h.85a.29.29,0,1,1,0,.57h-.85ZM314,438.75h-.85a.29.29,0,1,1,0-.57H314Zm0-2.28h-.85a.28.28,0,0,1-.29-.28.29.29,0,0,1,.29-.29H314Zm0-2.27h-.85a.29.29,0,0,1-.29-.29.28.28,0,0,1,.29-.28H314Zm0-2.28h-.85a.29.29,0,1,1,0-.57H314Zm0-2.28h-.85a.28.28,0,0,1-.29-.28.29.29,0,0,1,.29-.29H314Zm11.1-3.41a.29.29,0,1,1,.57,0v.85h-.57Zm-2.28,0a.29.29,0,1,1,.57,0v.85h-.57Zm-2.27,0a.28.28,0,0,1,.28-.29.29.29,0,0,1,.29.29v.85h-.57Zm-2.28,0a.29.29,0,1,1,.57,0v.85h-.57Zm-2.28,0a.29.29,0,1,1,.57,0v.85H316Zm.57,15.37a.29.29,0,0,1-.57,0v-.86h.57Zm2.28,0a.29.29,0,0,1-.57,0v-.86h.57Zm2.28,0a.29.29,0,0,1-.29.28.28.28,0,0,1-.28-.28v-.86h.57Zm2.27,0a.29.29,0,0,1-.57,0v-.86h.57Zm2.28,0a.29.29,0,0,1-.57,0v-.86h.57Zm1.42-1.83-.4.4H315l-.4-.4V428.05l.4-.4h11.72l.4.4Zm1.42-1.59a.29.29,0,1,1,0,.57h-.85v-.57Zm0-2.28a.29.29,0,0,1,.29.29.28.28,0,0,1-.29.28h-.85v-.57Zm0-2.27a.28.28,0,0,1,.29.28.29.29,0,0,1-.29.29h-.85v-.57Z" transform="translate(-312.28 -425.37)"/><path class="cls-1" d="M326.23,428.22H315.41a.29.29,0,0,0-.28.28v10.82a.28.28,0,0,0,.28.28h10.82a.28.28,0,0,0,.28-.28V428.5A.29.29,0,0,0,326.23,428.22ZM325.94,439H315.7V428.79h10.24Z" transform="translate(-312.28 -425.37)"/><circle class="cls-1" cx="4.55" cy="4.55" r="0.57"/></g></svg>