<svg id="Layer_1" data-name="Layer 1" xmlns="http://www.w3.org/2000/svg" viewBox="0 0 40.91 42.69"><defs><style>.cls-1{fill:#cfd8db;}.cls-2{fill:#478ecc;}.cls-3{fill:#fff;}</style></defs><path class="cls-1" d="M428.25,326.49a.89.89,0,0,0,.89-.89V322a.89.89,0,0,0-1.78,0v3.56A.89.89,0,0,0,428.25,326.49Z" transform="translate(-427.36 -301.58)"/><path class="cls-1" d="M430,330h-.89v-.89a.89.89,0,0,0-1.78,0v1.78a.89.89,0,0,0,.89.89H430a.89.89,0,0,0,0-1.78Z" transform="translate(-427.36 -301.58)"/><path class="cls-1" d="M430,301.58h-1.78a.89.89,0,0,0-.89.89v1.78a.89.89,0,0,0,1.78,0v-.89H430a.89.89,0,1,0,0-1.78Z" transform="translate(-427.36 -301.58)"/><path class="cls-1" d="M428.25,312.26a.89.89,0,0,0,.89-.89v-3.56a.89.89,0,1,0-1.78,0v3.56A.89.89,0,0,0,428.25,312.26Z" transform="translate(-427.36 -301.58)"/><path class="cls-1" d="M437.14,330h-3.56a.89.89,0,0,0,0,1.78h3.56a.89.89,0,0,0,0-1.78Z" transform="translate(-427.36 -301.58)"/><path class="cls-1" d="M428.25,319.37a.89.89,0,0,0,.89-.89v-3.56a.89.89,0,0,0-1.78,0v3.56A.89.89,0,0,0,428.25,319.37Z" transform="translate(-427.36 -301.58)"/><path class="cls-1" d="M456.71,306.92a.89.89,0,0,0-.89.89v3.56a.89.89,0,0,0,1.78,0v-3.56A.89.89,0,0,0,456.71,306.92Z" transform="translate(-427.36 -301.58)"/><path class="cls-1" d="M456.71,314a.88.88,0,0,0-.89.88v3.56a.89.89,0,0,0,1.78,0v-3.56A.88.88,0,0,0,456.71,314Z" transform="translate(-427.36 -301.58)"/><path class="cls-1" d="M451.37,301.58h-3.56a.89.89,0,1,0,0,1.78h3.56a.89.89,0,1,0,0-1.78Z" transform="translate(-427.36 -301.58)"/><path class="cls-1" d="M456.71,301.58h-1.78a.89.89,0,1,0,0,1.78h.89v.89a.89.89,0,0,0,1.78,0v-1.78A.89.89,0,0,0,456.71,301.58Z" transform="translate(-427.36 -301.58)"/><path class="cls-1" d="M444.26,330H440.7a.89.89,0,0,0,0,1.78h3.56a.89.89,0,0,0,0-1.78Z" transform="translate(-427.36 -301.58)"/><path class="cls-1" d="M444.26,301.58H440.7a.89.89,0,1,0,0,1.78h3.56a.89.89,0,0,0,0-1.78Z" transform="translate(-427.36 -301.58)"/><path class="cls-1" d="M437.14,301.58h-3.56a.89.89,0,1,0,0,1.78h3.56a.89.89,0,1,0,0-1.78Z" transform="translate(-427.36 -301.58)"/><path class="cls-2" d="M468,332.08,444.89,309a.89.89,0,0,0-1.26,0,.86.86,0,0,0-.26.63v33.79a.89.89,0,0,0,.89.89.87.87,0,0,0,.65-.29l9.52-10.38h12.95a.89.89,0,0,0,.63-1.52Z" transform="translate(-427.36 -301.58)"/><path class="cls-3" d="M444.26,344.27a.89.89,0,0,1-.89-.89V309.59a.88.88,0,0,1,.88-.89.9.9,0,0,1,.64.26L468,332.08a.89.89,0,0,1-.63,1.52H454.43L444.91,344A.87.87,0,0,1,444.26,344.27Zm.88-32.53V341.1l8.24-9a.92.92,0,0,1,.66-.29h11.19Z" transform="translate(-427.36 -301.58)"/><path class="cls-3" d="M444.26,331.82H440.7a.89.89,0,0,1,0-1.78h3.56a.89.89,0,0,1,0,1.78Zm-7.12,0h-3.56a.89.89,0,0,1,0-1.78h3.56a.89.89,0,0,1,0,1.78Zm-7.11,0h-1.78a.89.89,0,0,1-.89-.89v-1.78a.89.89,0,0,1,1.78,0V330H430a.89.89,0,0,1,0,1.78Zm-1.78-5.33a.89.89,0,0,1-.89-.89V322a.89.89,0,0,1,1.78,0v3.56A.89.89,0,0,1,428.25,326.49Zm28.46-7.12a.89.89,0,0,1-.89-.89v-3.56a.89.89,0,0,1,1.78,0v3.56A.89.89,0,0,1,456.71,319.37Zm-28.46,0a.89.89,0,0,1-.89-.89v-3.56a.89.89,0,0,1,1.78,0v3.56A.89.89,0,0,1,428.25,319.37Zm28.46-7.11a.89.89,0,0,1-.89-.89v-3.56a.89.89,0,1,1,1.78,0v3.56A.89.89,0,0,1,456.71,312.26Zm-28.46,0a.89.89,0,0,1-.89-.89v-3.56a.89.89,0,1,1,1.78,0v3.56A.89.89,0,0,1,428.25,312.26Zm28.46-7.12a.89.89,0,0,1-.89-.89v-.89h-.89a.89.89,0,1,1,0-1.78h1.78a.89.89,0,0,1,.89.89v1.78A.89.89,0,0,1,456.71,305.14Zm-28.46,0a.89.89,0,0,1-.89-.89v-1.78a.89.89,0,0,1,.89-.89H430a.89.89,0,1,1,0,1.78h-.89v.89A.89.89,0,0,1,428.25,305.14Zm23.12-1.78h-3.56a.89.89,0,1,1,0-1.78h3.56a.89.89,0,1,1,0,1.78Zm-7.11,0H440.7a.89.89,0,1,1,0-1.78h3.56a.89.89,0,0,1,0,1.78Zm-7.12,0h-3.56a.89.89,0,1,1,0-1.78h3.56a.89.89,0,1,1,0,1.78Z" transform="translate(-427.36 -301.58)"/></svg>