<svg id="Layer_1" data-name="Layer 1" xmlns="http://www.w3.org/2000/svg" viewBox="0 0 15.07 17.07"><defs><style>.cls-1{fill:#d0d1ce;}</style></defs><path class="cls-1" d="M355,433.26a2.9,2.9,0,0,0-.35-.21l-.16-.08-.26-.62.06-.18c0-.14.08-.31.1-.39a.48.48,0,0,0-.14-.44l-.7-.71a.53.53,0,0,0-.45-.14l-.39.1-.17.06-.63-.26a1.19,1.19,0,0,0-.08-.16,2.9,2.9,0,0,0-.21-.35.48.48,0,0,0-.41-.22h-1a.48.48,0,0,0-.41.22,2.9,2.9,0,0,0-.21.35,1.19,1.19,0,0,0-.08.16l-.63.26-.17-.06-.4-.1a.52.52,0,0,0-.44.14l-.7.71a.48.48,0,0,0-.14.44,3.76,3.76,0,0,0,.1.39l.06.18L347,433l-.17.08a3.62,3.62,0,0,0-.34.21.49.49,0,0,0-.22.41v1a.51.51,0,0,0,.22.42l.34.2.17.08.26.63-.06.17a3.84,3.84,0,0,0-.1.4.49.49,0,0,0,.14.44l.7.7a.49.49,0,0,0,.44.14,2.31,2.31,0,0,0,.4-.1l.17-.06.63.26.08.17a3.62,3.62,0,0,0,.21.34.48.48,0,0,0,.41.22h1a.48.48,0,0,0,.41-.22,3.62,3.62,0,0,0,.21-.34l.08-.17.63-.26.17.06a2.48,2.48,0,0,0,.39.1.5.5,0,0,0,.45-.14l.7-.7a.49.49,0,0,0,.14-.44c0-.09-.06-.25-.1-.4l-.06-.17.26-.63.16-.08.35-.2a.51.51,0,0,0,.22-.42v-1A.49.49,0,0,0,355,433.26Zm-.78,1.12-.14.07a.49.49,0,0,0-.42.31l-.45,1.07a.51.51,0,0,0,.08.52.46.46,0,0,1,.05.14l-.3.31-.14-.05a.51.51,0,0,0-.52-.09l-1.08.45a.51.51,0,0,0-.31.43.69.69,0,0,1-.06.13h-.43l-.07-.13a.48.48,0,0,0-.3-.43l-1.08-.45a.51.51,0,0,0-.52.09l-.14.05-.3-.31a1.27,1.27,0,0,1,0-.14.49.49,0,0,0,.09-.52l-.45-1.07a.49.49,0,0,0-.42-.31l-.14-.07V434l.14-.06a.5.5,0,0,0,.42-.31l.45-1.08a.49.49,0,0,0-.09-.52.84.84,0,0,1,0-.14l.3-.3.14,0a.49.49,0,0,0,.52.08l1.08-.44a.5.5,0,0,0,.3-.43l.07-.13H351a.49.49,0,0,1,.06.13.53.53,0,0,0,.31.43l1.08.44a.49.49,0,0,0,.52-.08l.14,0,.3.3a.38.38,0,0,1-.05.14.51.51,0,0,0-.08.52l.45,1.08a.5.5,0,0,0,.42.31l.14.06Z" transform="translate(-343.21 -425.63)"/><path class="cls-1" d="M350.74,425.63a1.5,1.5,0,0,0-1.45,1.14,7.54,7.54,0,0,0-6.08,7.4.5.5,0,0,0,.5.5.51.51,0,0,0,.5-.5,6.52,6.52,0,0,1,5.18-6.4,1.5,1.5,0,1,0,1.35-2.14Zm0,2a.5.5,0,0,1,0-1,.5.5,0,0,1,0,1Z" transform="translate(-343.21 -425.63)"/><path class="cls-1" d="M350.74,432.17a2,2,0,1,0,2,2A2,2,0,0,0,350.74,432.17Zm0,3a1,1,0,1,1,1-1A1,1,0,0,1,350.74,435.17Z" transform="translate(-343.21 -425.63)"/><path class="cls-1" d="M357.78,433.67a.5.5,0,0,0-.5.5,6.52,6.52,0,0,1-5.18,6.39,1.5,1.5,0,1,0-1.36,2.14,1.49,1.49,0,0,0,1.46-1.14,7.52,7.52,0,0,0,6.08-7.39A.5.5,0,0,0,357.78,433.67Zm-7,8a.5.5,0,0,1-.5-.5.51.51,0,0,1,.5-.5.5.5,0,0,1,.5.5A.5.5,0,0,1,350.74,441.7Z" transform="translate(-343.21 -425.63)"/></svg>