<svg id="Layer_1" data-name="Layer 1" xmlns="http://www.w3.org/2000/svg" viewBox="0 0 56.11 72.14"><defs><style>.cls-1{fill:#f8bf2b;}.cls-2{fill:#6dccdd;}.cls-3,.cls-5{fill:none;stroke-linecap:round;stroke-linejoin:round;stroke-width:3px;}.cls-3{stroke:#47616c;}.cls-4{fill:#fff;}.cls-5{stroke:#fff;}</style></defs><path class="cls-1" d="M367.75,417.88A17.77,17.77,0,1,0,336,428.75a23.43,23.43,0,0,1,4.77,14.38v.74h18.54v-.74a24.9,24.9,0,0,1,5.07-14.77A17.6,17.6,0,0,0,367.75,417.88Z" transform="translate(-320.59 -385.97)"/><path class="cls-2" d="M358.69,448.64h-17.5a2.38,2.38,0,0,1-2.38-2.39h0a2.37,2.37,0,0,1,2.38-2.38h17.5a2.38,2.38,0,0,1,2.39,2.38h0A2.42,2.42,0,0,1,358.69,448.64Z" transform="translate(-320.59 -385.97)"/><path class="cls-2" d="M357.39,453.31H342.45a2.17,2.17,0,0,1-2.17-2.16v-.26a2.17,2.17,0,0,1,2.17-2.17h14.94a2.17,2.17,0,0,1,2.17,2.17v.26A2.14,2.14,0,0,1,357.39,453.31Z" transform="translate(-320.59 -385.97)"/><path class="cls-2" d="M343.79,454.44v0A3.5,3.5,0,0,0,347.3,458h5.29a3.49,3.49,0,0,0,3.5-3.51v0a1.15,1.15,0,0,0-1.12-1.13H344.92A1.15,1.15,0,0,0,343.79,454.44Z" transform="translate(-320.59 -385.97)"/><path class="cls-3" d="M366.4,416.53A17.77,17.77,0,0,0,331,414.24a17.54,17.54,0,0,0,3.6,13.17,23.42,23.42,0,0,1,4.76,14.38v.74h18.54v-.74A25,25,0,0,1,363,427,17.65,17.65,0,0,0,366.4,416.53Z" transform="translate(-320.59 -385.97)"/><path class="cls-3" d="M356.05,451.93H341.1a2.17,2.17,0,0,1-2.16-2.17v-.26a2.17,2.17,0,0,1,2.16-2.16h14.95a2.17,2.17,0,0,1,2.17,2.16v.26A2.16,2.16,0,0,1,356.05,451.93Z" transform="translate(-320.59 -385.97)"/><path class="cls-3" d="M342.4,453.05v.05a3.5,3.5,0,0,0,3.51,3.51h5.29a3.5,3.5,0,0,0,3.51-3.51v-.05a1.15,1.15,0,0,0-1.13-1.12H343.53A1.15,1.15,0,0,0,342.4,453.05Z" transform="translate(-320.59 -385.97)"/><ellipse class="cls-4" cx="339.58" cy="409.6" rx="5.11" ry="2.99" transform="translate(-513.06 25.71) rotate(-50.56)"/><polyline class="cls-5" points="32 40.14 28.06 56.22 24.16 40.14"/><path class="cls-5" d="M341.58,424.16c1.78,0,1.78,1.47,3.51,1.47s1.78-1.47,3.51-1.47,1.78,1.47,3.51,1.47,1.77-1.47,3.51-1.47" transform="translate(-320.59 -385.97)"/><line class="cls-3" x1="28.06" y1="8.3" x2="28.06" y2="1.5"/><line class="cls-3" x1="40.14" y1="9.9" x2="43.22" y2="3.84"/><line class="cls-3" x1="48.37" y1="16.71" x2="52.45" y2="14.02"/><line class="cls-3" x1="51.32" y1="26.19" x2="54.61" y2="25.67"/><line class="cls-3" x1="15.97" y1="9.9" x2="12.89" y2="3.84"/><line class="cls-3" x1="7.74" y1="16.71" x2="3.67" y2="14.02"/><line class="cls-3" x1="4.79" y1="26.19" x2="1.5" y2="25.67"/><path class="cls-3" d="M357.31,447.25h-17.5a2.38,2.38,0,0,1-2.39-2.38h0a2.38,2.38,0,0,1,2.39-2.39h17.5a2.38,2.38,0,0,1,2.38,2.39h0A2.37,2.37,0,0,1,357.31,447.25Z" transform="translate(-320.59 -385.97)"/></svg>