<svg id="Layer_1" data-name="Layer 1" xmlns="http://www.w3.org/2000/svg" viewBox="0 0 37.6 59.28"><defs><style>.cls-1{fill:#d2d2d2;}.cls-2,.cls-4{fill:none;stroke-linecap:round;stroke-linejoin:round;stroke-width:3px;}.cls-2{stroke:#47616c;}.cls-3{fill:#fff;}.cls-4{stroke:#fff;}</style></defs><path class="cls-1" d="M367.25,412.48a17.3,17.3,0,1,0-30.95,10.58,22.81,22.81,0,0,1,4.64,14v.72h18v-.72a24.29,24.29,0,0,1,4.94-14.38A17,17,0,0,0,367.25,412.48Z" transform="translate(-329.84 -392.4)"/><path class="cls-1" d="M358.44,442.42h-17a2.32,2.32,0,0,1-2.32-2.32h0a2.31,2.31,0,0,1,2.32-2.32h17a2.32,2.32,0,0,1,2.32,2.32h0A2.35,2.35,0,0,1,358.44,442.42Z" transform="translate(-329.84 -392.4)"/><path class="cls-1" d="M357.17,447H342.62a2.11,2.11,0,0,1-2.1-2.11v-.25a2.11,2.11,0,0,1,2.1-2.11h14.55a2.12,2.12,0,0,1,2.11,2.11v.25A2.09,2.09,0,0,1,357.17,447Z" transform="translate(-329.84 -392.4)"/><path class="cls-1" d="M343.93,448.07v0a3.4,3.4,0,0,0,3.42,3.41h5.14a3.4,3.4,0,0,0,3.42-3.41v0a1.12,1.12,0,0,0-1.1-1.1H345A1.12,1.12,0,0,0,343.93,448.07Z" transform="translate(-329.84 -392.4)"/><path class="cls-2" d="M365.94,411.17A17.3,17.3,0,1,0,335,421.76a22.76,22.76,0,0,1,4.64,14v.72h18.05v-.72a24.25,24.25,0,0,1,4.93-14.37A17.18,17.18,0,0,0,365.94,411.17Z" transform="translate(-329.84 -392.4)"/><path class="cls-2" d="M355.86,445.62H341.32a2.12,2.12,0,0,1-2.11-2.11v-.25a2.12,2.12,0,0,1,2.11-2.11h14.54a2.12,2.12,0,0,1,2.11,2.11v.25A2.09,2.09,0,0,1,355.86,445.62Z" transform="translate(-329.84 -392.4)"/><path class="cls-2" d="M342.58,446.72v0a3.41,3.41,0,0,0,3.42,3.42h5.14a3.41,3.41,0,0,0,3.42-3.42v0a1.12,1.12,0,0,0-1.1-1.1h-9.78A1.12,1.12,0,0,0,342.58,446.72Z" transform="translate(-329.84 -392.4)"/><ellipse class="cls-3" cx="339.83" cy="404.43" rx="4.98" ry="2.91" transform="translate(-518.23 17.59) rotate(-50.56)"/><polyline class="cls-4" points="22.65 28.09 18.81 43.74 15.02 28.09"/><path class="cls-4" d="M341.78,418.59c1.73,0,1.73,1.44,3.42,1.44s1.72-1.44,3.41-1.44S350.34,420,352,420s1.73-1.44,3.41-1.44" transform="translate(-329.84 -392.4)"/><path class="cls-2" d="M357.09,441.07h-17a2.32,2.32,0,0,1-2.32-2.32h0a2.31,2.31,0,0,1,2.32-2.32h17a2.32,2.32,0,0,1,2.32,2.32h0A2.32,2.32,0,0,1,357.09,441.07Z" transform="translate(-329.84 -392.4)"/></svg>