<svg id="Layer_1" data-name="Layer 1" xmlns="http://www.w3.org/2000/svg" viewBox="0 0 42.69 42.69"><defs><style>.cls-1{fill:#eb5765;}.cls-2{fill:#dc4755;}.cls-3{fill:#fff;}</style></defs><circle class="cls-1" cx="21.34" cy="21.34" r="21.34"/><path class="cls-2" d="M516.25,311.69a21.34,21.34,0,0,1-36.59,14.93l30.18-30.18A21.29,21.29,0,0,1,516.25,311.69Z" transform="translate(-473.56 -290.34)"/><path class="cls-3" d="M499.08,299.33v2.89a.46.46,0,0,0,.25.41,10.08,10.08,0,1,1-8.86,0,.44.44,0,0,0,.25-.41v-2.89a.64.64,0,0,0-.87-.59,13.9,13.9,0,1,0,10.1,0A.63.63,0,0,0,499.08,299.33Z" transform="translate(-473.56 -290.34)"/><rect class="cls-3" x="19.44" y="5.9" width="3.81" height="17.33" rx="0.64"/></svg>