<svg id="Layer_1" data-name="Layer 1" xmlns="http://www.w3.org/2000/svg" viewBox="0 0 26.16 42.69"><defs><style>.cls-1{fill:#aab1bd;}.cls-2{fill:#e6e8eb;}.cls-3{fill:#6dc6ab;}.cls-4{fill:#fad670;}.cls-5{fill:#fbe7a5;}.cls-6{fill:#f38170;}.cls-7{fill:#010101;}</style></defs><path class="cls-1" d="M446.54,291.24V294a2.76,2.76,0,0,1-2.76,2.75H424.5a2.75,2.75,0,0,1-2.75-2.75v-2.76A2.76,2.76,0,0,0,424.5,294h19.28A2.77,2.77,0,0,0,446.54,291.24Z" transform="translate(-421.06 -263.01)"/><path class="cls-2" d="M441.37,269.9l-1.75-.24a3.93,3.93,0,0,1-3.41-3.89,2.06,2.06,0,0,0-2.07-2.07,2.09,2.09,0,0,0-1.46.61,2.06,2.06,0,0,0-.6,1.46,3.93,3.93,0,0,1-3.42,3.89l-1.75.24a6,6,0,0,0-5.16,5.9v15.44A2.76,2.76,0,0,0,424.5,294h19.28a2.77,2.77,0,0,0,2.76-2.76V275.8A6,6,0,0,0,441.37,269.9Z" transform="translate(-421.06 -263.01)"/><circle class="cls-3" cx="7.57" cy="12.39" r="1.38"/><circle class="cls-3" cx="18.59" cy="12.39" r="1.38"/><path class="cls-4" d="M436.9,279.54h5.5v5.51h-5.5Z" transform="translate(-421.06 -263.01)"/><path class="cls-4" d="M425.88,279.54h5.51v5.51h-5.51Z" transform="translate(-421.06 -263.01)"/><path class="cls-4" d="M431.39,287.8V294h-5.51v-1.68a1.37,1.37,0,0,1,1-1.34l.68-.16a1.38,1.38,0,0,0,1-1.34V287.8Z" transform="translate(-421.06 -263.01)"/><path class="cls-4" d="M442.4,292.32V294h-5.5v-6.2h2.75v1.68a1.39,1.39,0,0,0,1,1.34l.68.16a1.36,1.36,0,0,1,1,1.34Z" transform="translate(-421.06 -263.01)"/><path class="cls-5" d="M442.4,285.05v1.37A1.37,1.37,0,0,1,441,287.8H427.26a1.38,1.38,0,0,1-1.38-1.38v-1.37H442.4Z" transform="translate(-421.06 -263.01)"/><path class="cls-5" d="M442.4,278.16v1.38H425.88v-1.38a1.38,1.38,0,0,1,1.38-1.38H441A1.37,1.37,0,0,1,442.4,278.16Z" transform="translate(-421.06 -263.01)"/><path class="cls-6" d="M431.39,287.8h5.51V294h-5.51Z" transform="translate(-421.06 -263.01)"/><path class="cls-6" d="M431.39,279.54h5.51v5.51h-5.51Z" transform="translate(-421.06 -263.01)"/><path class="cls-6" d="M435.52,272.65v4.13h-2.75v-4.13a1.38,1.38,0,0,1,1.37-1.37,1.34,1.34,0,0,1,1,.4A1.33,1.33,0,0,1,435.52,272.65Z" transform="translate(-421.06 -263.01)"/><path class="cls-2" d="M427.26,296.75v6.89a1.38,1.38,0,0,1-1.38,1.37,1.36,1.36,0,0,1-1-.4,1.39,1.39,0,0,1-.41-1v-6.89Z" transform="translate(-421.06 -263.01)"/><path class="cls-2" d="M432.77,296.75v6.89a1.38,1.38,0,0,1-1.38,1.37,1.36,1.36,0,0,1-1-.4,1.35,1.35,0,0,1-.41-1v-6.89Z" transform="translate(-421.06 -263.01)"/><path class="cls-2" d="M438.27,296.75v6.89A1.38,1.38,0,0,1,436.9,305a1.38,1.38,0,0,1-1.38-1.37v-6.89Z" transform="translate(-421.06 -263.01)"/><path class="cls-2" d="M443.78,296.75v6.89a1.38,1.38,0,1,1-2.75,0v-6.89Z" transform="translate(-421.06 -263.01)"/><path class="cls-7" d="M441.46,269.22l-1.75-.24a3.24,3.24,0,0,1-2.81-3.21,2.76,2.76,0,1,0-5.51,0,3.24,3.24,0,0,1-2.82,3.21l-1.75.24a6.65,6.65,0,0,0-5.76,6.58V294a3.45,3.45,0,0,0,2.76,3.37v6.27a2.07,2.07,0,0,0,4.13,0v-6.2h1.37v6.2a2.07,2.07,0,0,0,4.13,0v-6.2h1.38v6.2a2.07,2.07,0,0,0,4.13,0v-6.2h1.38v6.2a2.07,2.07,0,0,0,4.13,0v-6.27a3.44,3.44,0,0,0,2.75-3.37V275.8A6.64,6.64,0,0,0,441.46,269.22Zm-14.89,34.42a.69.69,0,0,1-1.38,0v-6.2h1.38Zm5.51,0a.69.69,0,0,1-1.38,0v-6.2h1.38Zm5.51,0a.69.69,0,0,1-1.38,0v-6.2h1.38Zm4.81.68a.67.67,0,0,1-.68-.68v-6.2h1.37v6.2A.68.68,0,0,1,442.4,304.32Zm1.38-8.26H424.5a2.06,2.06,0,0,1-2.06-2.06v0a3.39,3.39,0,0,0,2.06.7h19.28a3.4,3.4,0,0,0,2.07-.7v0A2.07,2.07,0,0,1,443.78,296.06ZM428,275.41a.68.68,0,0,1,.68-.69.69.69,0,1,1,0,1.38A.68.68,0,0,1,428,275.41Zm-.69,2.06H441a.69.69,0,0,1,.69.69v.69H426.57v-.69A.69.69,0,0,1,427.26,277.47Zm7.57-1.37h-1.38v-3.45a.69.69,0,0,1,1.38,0Zm4.13-.69a.69.69,0,1,1,.69.69A.69.69,0,0,1,439,275.41Zm2.76,8.95h-4.13v-4.13h4.13Zm-5.51-4.13v4.13h-4.13v-4.13Zm-9.64,0h4.13v4.13h-4.13Zm0,5.5h15.15v.69a.69.69,0,0,1-.69.69H427.26a.69.69,0,0,1-.69-.69Zm14,5.75.66.17a.69.69,0,0,1,.53.67v1h-4.13v-4.82H439v1A2.06,2.06,0,0,0,440.53,291.48Zm-4.32-3v4.82h-4.13v-4.82Zm-6.89,1v-1h1.38v4.82h-4.13v-1a.69.69,0,0,1,.52-.67l.67-.17A2.05,2.05,0,0,0,429.32,289.48Zm14.46,3.83h-.69v-1a2.07,2.07,0,0,0-1.56-2l-.67-.16a.69.69,0,0,1-.52-.67v-1H441a2.07,2.07,0,0,0,2.06-2.07v-8.26a2.07,2.07,0,0,0-1.53-2,1.91,1.91,0,0,0,.16-.76,2.07,2.07,0,1,0-4.13,0,2,2,0,0,0,.12.69h-1.5v-3.45a2.07,2.07,0,0,0-4.13,0v3.45h-1.51a2,2,0,0,0,.13-.69,2.07,2.07,0,1,0-4.13,0,2.1,2.1,0,0,0,.15.76,2.07,2.07,0,0,0-1.53,2v8.26a2.07,2.07,0,0,0,2.07,2.07H428v1a.71.71,0,0,1-.52.67l-.67.16a2.08,2.08,0,0,0-1.57,2v1h-.69a2.07,2.07,0,0,1-2.06-2.07V275.8a5.28,5.28,0,0,1,4.56-5.22l1.76-.23a4.65,4.65,0,0,0,4-4.58,1.38,1.38,0,1,1,2.75,0,4.64,4.64,0,0,0,4,4.58l1.75.23a5.29,5.29,0,0,1,4.57,5.22v15.44A2.07,2.07,0,0,1,443.78,293.31Z" transform="translate(-421.06 -263.01)"/></svg>