<svg id="Layer_1" data-name="Layer 1" xmlns="http://www.w3.org/2000/svg" viewBox="0 0 28.92 42.69"><defs><style>.cls-1{fill:#aab1bd;}.cls-2{fill:#cdd1d9;}.cls-3{fill:#f38170;}.cls-4{fill:#e6e8eb;}.cls-5{fill:#010101;}</style></defs><path class="cls-1" d="M434.77,304.39v6.88h-4.13v-4.13H411.36v4.13h-4.13v-6.88Z" transform="translate(-406.54 -276.16)"/><path class="cls-2" d="M434.77,276.84v27.55H407.23V276.84Z" transform="translate(-406.54 -276.16)"/><path class="cls-3" d="M427.89,282.35v8.26l-2.76-1.37v-5.51l2.35-2.35A1.37,1.37,0,0,1,427.89,282.35Z" transform="translate(-406.54 -276.16)"/><path class="cls-3" d="M425.13,297.5l2.35,2.35a1.36,1.36,0,0,1-1,.4h-11a1.36,1.36,0,0,1-1-.4l2.35-2.35Z" transform="translate(-406.54 -276.16)"/><path class="cls-3" d="M427.89,290.61v8.27a1.37,1.37,0,0,1-.41,1l-2.35-2.35V292Z" transform="translate(-406.54 -276.16)"/><path class="cls-3" d="M427.48,281.38l-2.35,2.35h-8.26l-2.35-2.35a1.36,1.36,0,0,1,1-.4h11A1.36,1.36,0,0,1,427.48,281.38Z" transform="translate(-406.54 -276.16)"/><path class="cls-3" d="M427.89,290.61,425.13,292h-8.26l-2.76-1.38,2.76-1.37h8.26Z" transform="translate(-406.54 -276.16)"/><path class="cls-3" d="M416.87,297.5l-2.35,2.35a1.37,1.37,0,0,1-.41-1v-8.27l2.76,1.38Z" transform="translate(-406.54 -276.16)"/><path class="cls-3" d="M414.52,281.38l2.35,2.35v5.51l-2.76,1.37v-8.26A1.37,1.37,0,0,1,414.52,281.38Z" transform="translate(-406.54 -276.16)"/><path class="cls-4" d="M427.89,307.14v9.64a1.38,1.38,0,0,1-1.38,1.38,1.37,1.37,0,0,1-1-.41,1.33,1.33,0,0,1-.41-1v-9.64Z" transform="translate(-406.54 -276.16)"/><path class="cls-4" d="M416.87,307.14v9.64a1.38,1.38,0,0,1-1.38,1.38,1.4,1.4,0,0,1-1.38-1.38v-9.64Z" transform="translate(-406.54 -276.16)"/><path class="cls-4" d="M422.38,307.14v9.64a1.38,1.38,0,0,1-1.38,1.38,1.37,1.37,0,0,1-1-.41,1.33,1.33,0,0,1-.41-1v-9.64Z" transform="translate(-406.54 -276.16)"/><path class="cls-4" d="M411.36,311.27v5.51a1.37,1.37,0,0,1-2.35,1,1.36,1.36,0,0,1-.4-1v-5.51Z" transform="translate(-406.54 -276.16)"/><path class="cls-4" d="M433.39,311.27v5.51a1.38,1.38,0,0,1-1.37,1.38,1.35,1.35,0,0,1-1-.41,1.33,1.33,0,0,1-.41-1v-5.51Z" transform="translate(-406.54 -276.16)"/><path class="cls-5" d="M435.46,276.16H406.54V312h1.38v4.82a2.07,2.07,0,0,0,4.13,0v-8.95h1.38v8.95a2.07,2.07,0,0,0,4.13,0v-8.95h1.37v8.95a2.07,2.07,0,0,0,4.14,0v-8.95h1.37v8.95a2.07,2.07,0,0,0,4.13,0v-8.95H430v8.95a2.07,2.07,0,0,0,4.13,0V312h1.38Zm-1.38,1.37V303.7H407.92V277.53Zm-23.41,39.25a.69.69,0,0,1-.69.69.68.68,0,0,1-.68-.69V312h1.37Zm5.51,0a.69.69,0,1,1-1.38,0v-8.95h1.38Zm5.51,0a.69.69,0,1,1-1.38,0v-8.95h1.38Zm5.51,0a.69.69,0,1,1-1.38,0v-8.95h1.38Zm5.5,0a.68.68,0,0,1-.68.69.69.69,0,0,1-.69-.69V312h1.37Zm-1.37-6.2v-4.13H410.67v4.13h-2.75v-5.51h26.16v5.51Z" transform="translate(-406.54 -276.16)"/><path class="cls-5" d="M415.49,300.94h11a2.06,2.06,0,0,0,2.06-2.06V282.35a2.06,2.06,0,0,0-2.06-2.06h-11a2.06,2.06,0,0,0-2.06,2.06v16.53A2.06,2.06,0,0,0,415.49,300.94Zm8.95-12.39h-6.88v-4.13h6.88ZM417,289.93H425l1.37.68-1.37.69H417l-1.38-.69Zm.53,2.75h6.88v4.13h-6.88Zm-.41,5.51h7.7l1.37,1.38H415.78Zm8.67-1v-4.79l1.38-.69v6.86Zm0-8.4V284l1.38-1.37v6.86Zm-1-5.77h-7.7l-1.37-1.38h10.44Zm-8.67,1v4.8l-1.38.69v-6.86Zm0,8.41v4.79l-1.38,1.38v-6.86Z" transform="translate(-406.54 -276.16)"/><path class="cls-5" d="M409.3,278.91h1.37v1.38H409.3Z" transform="translate(-406.54 -276.16)"/><path class="cls-5" d="M409.3,300.94h1.37v1.38H409.3Z" transform="translate(-406.54 -276.16)"/><path class="cls-5" d="M431.33,300.94h1.37v1.38h-1.37Z" transform="translate(-406.54 -276.16)"/><path class="cls-5" d="M431.33,278.91h1.37v1.38h-1.37Z" transform="translate(-406.54 -276.16)"/></svg>