<svg id="Layer_1" data-name="Layer 1" xmlns="http://www.w3.org/2000/svg" viewBox="0 0 39.93 42.69"><defs><style>.cls-1{fill:#fad670;}.cls-2{fill:#fbe7a5;}.cls-3{fill:#cdd1d9;}.cls-4{fill:#f38170;}.cls-5{fill:#010101;}</style></defs><path class="cls-1" d="M535.71,416.26v8.26a1.38,1.38,0,0,1-1.38,1.38h-35.8a1.38,1.38,0,0,1-1.38-1.38v-8.26a1.38,1.38,0,0,1,1.38-1.38h35.8A1.38,1.38,0,0,1,535.71,416.26Z" transform="translate(-496.46 -414.19)"/><path class="cls-1" d="M535.71,432.78v9.64H497.15v-9.64a1.38,1.38,0,0,1,1.38-1.38h35.8A1.38,1.38,0,0,1,535.71,432.78Z" transform="translate(-496.46 -414.19)"/><path class="cls-2" d="M535.71,442.42v1.38a1.37,1.37,0,0,1-1.38,1.37h-35.8a1.37,1.37,0,0,1-1.38-1.37v-1.38Z" transform="translate(-496.46 -414.19)"/><path class="cls-3" d="M511.61,445.17v2.76h-4.13v-2.76Z" transform="translate(-496.46 -414.19)"/><path class="cls-3" d="M518.49,445.17v2.76h-4.13v-2.76Z" transform="translate(-496.46 -414.19)"/><path class="cls-3" d="M532.26,445.17v2.76h-4.13v-2.76Z" transform="translate(-496.46 -414.19)"/><path class="cls-3" d="M525.38,445.17v2.76h-4.13v-2.76Z" transform="translate(-496.46 -414.19)"/><path class="cls-3" d="M504.72,445.17v2.76h-4.13v-2.76Z" transform="translate(-496.46 -414.19)"/><path class="cls-3" d="M499.9,425.9H504v5.5H499.9Z" transform="translate(-496.46 -414.19)"/><path class="cls-3" d="M514.36,425.9h4.13v5.5h-4.13Z" transform="translate(-496.46 -414.19)"/><path class="cls-3" d="M528.82,425.9H533v5.5h-4.13Z" transform="translate(-496.46 -414.19)"/><circle class="cls-4" cx="33.74" cy="6.2" r="1.38"/><circle class="cls-4" cx="33.74" cy="22.72" r="1.38"/><circle class="cls-4" cx="26.85" cy="6.2" r="1.38"/><circle class="cls-4" cx="26.85" cy="22.72" r="1.38"/><circle class="cls-4" cx="19.97" cy="6.2" r="1.38"/><circle class="cls-4" cx="19.97" cy="22.72" r="1.38"/><circle class="cls-4" cx="13.08" cy="6.2" r="1.38"/><circle class="cls-4" cx="13.08" cy="22.72" r="1.38"/><circle class="cls-4" cx="6.2" cy="6.2" r="1.38"/><circle class="cls-4" cx="6.2" cy="22.72" r="1.38"/><path class="cls-5" d="M502.66,439a2.07,2.07,0,1,0-2.07-2.07A2.07,2.07,0,0,0,502.66,439Zm0-2.76a.69.69,0,1,1-.69.69A.69.69,0,0,1,502.66,436.22Z" transform="translate(-496.46 -414.19)"/><path class="cls-5" d="M509.54,439a2.07,2.07,0,1,0-2.06-2.07A2.07,2.07,0,0,0,509.54,439Zm0-2.76a.69.69,0,1,1-.69.69A.69.69,0,0,1,509.54,436.22Z" transform="translate(-496.46 -414.19)"/><path class="cls-5" d="M516.43,439a2.07,2.07,0,1,0-2.07-2.07A2.07,2.07,0,0,0,516.43,439Zm0-2.76a.69.69,0,1,1-.69.69A.69.69,0,0,1,516.43,436.22Z" transform="translate(-496.46 -414.19)"/><path class="cls-5" d="M523.31,439a2.07,2.07,0,1,0-2.06-2.07A2.07,2.07,0,0,0,523.31,439Zm0-2.76a.69.69,0,0,1,0,1.38.69.69,0,0,1,0-1.38Z" transform="translate(-496.46 -414.19)"/><path class="cls-5" d="M530.2,439a2.07,2.07,0,1,0-2.07-2.07A2.07,2.07,0,0,0,530.2,439Zm0-2.76a.69.69,0,1,1-.69.69A.69.69,0,0,1,530.2,436.22Z" transform="translate(-496.46 -414.19)"/><path class="cls-5" d="M502.66,418.32a2.07,2.07,0,1,0,2.06,2.07A2.07,2.07,0,0,0,502.66,418.32Zm0,2.76a.69.69,0,1,1,.69-.69A.69.69,0,0,1,502.66,421.08Z" transform="translate(-496.46 -414.19)"/><path class="cls-5" d="M509.54,418.32a2.07,2.07,0,1,0,2.07,2.07A2.07,2.07,0,0,0,509.54,418.32Zm0,2.76a.69.69,0,1,1,.69-.69A.69.69,0,0,1,509.54,421.08Z" transform="translate(-496.46 -414.19)"/><path class="cls-5" d="M516.43,418.32a2.07,2.07,0,1,0,2.06,2.07A2.07,2.07,0,0,0,516.43,418.32Zm0,2.76a.69.69,0,1,1,.69-.69A.69.69,0,0,1,516.43,421.08Z" transform="translate(-496.46 -414.19)"/><path class="cls-5" d="M523.31,418.32a2.07,2.07,0,1,0,2.07,2.07A2.07,2.07,0,0,0,523.31,418.32Zm0,2.76a.69.69,0,0,1,0-1.38.69.69,0,0,1,0,1.38Z" transform="translate(-496.46 -414.19)"/><path class="cls-5" d="M530.2,418.32a2.07,2.07,0,1,0,2.06,2.07A2.07,2.07,0,0,0,530.2,418.32Zm0,2.76a.69.69,0,1,1,.69-.69A.69.69,0,0,1,530.2,421.08Z" transform="translate(-496.46 -414.19)"/><path class="cls-5" d="M534.33,426.59a2.07,2.07,0,0,0,2.07-2.07v-8.26a2.07,2.07,0,0,0-2.07-2.07h-35.8a2.07,2.07,0,0,0-2.07,2.07v8.26a2.07,2.07,0,0,0,2.07,2.07h.69v4.13h-.69a2.07,2.07,0,0,0-2.07,2.06v11a2.07,2.07,0,0,0,2.07,2.06h1.37v2.76H502v8.26h1.38v-8.26h2.06v-2.76h1.38v2.76h2.06v8.26h1.38v-8.26h2.07v-2.76h1.37v2.76h2.07v8.26h1.38v-8.26h2.06v-2.76h1.38v2.76h2.07v8.26H524v-8.26h2.07v-2.76h1.37v2.76h2.07v8.26h1.38v-8.26H533v-2.76h1.38a2.07,2.07,0,0,0,2.07-2.06v-11a2.07,2.07,0,0,0-2.07-2.06h-.69v-4.13Zm-36.49-2.07v-8.26a.69.69,0,0,1,.69-.69h35.8a.69.69,0,0,1,.69.69v8.26a.69.69,0,0,1-.69.69h-35.8A.69.69,0,0,1,497.84,424.52Zm21.34,6.2v-4.13h9v4.13Zm-5.51-4.13v4.13h-8.95v-4.13Zm1.38,0h2.76v4.13h-2.76Zm-14.46,0h2.76v4.13h-2.76ZM504,447.24h-2.76v-1.38H504Zm6.88,0h-2.75v-1.38h2.75Zm6.89,0h-2.76v-1.38h2.76Zm6.88,0h-2.75v-1.38h2.75Zm6.89,0h-2.76v-1.38h2.76Zm2.75-2.75h-35.8a.69.69,0,0,1-.69-.69v-.69H535v.69A.69.69,0,0,1,534.33,444.49Zm.69-11.71v9H497.84v-9a.69.69,0,0,1,.69-.69h35.8A.69.69,0,0,1,535,432.78Zm-2.76-2.06h-2.75v-4.13h2.75Z" transform="translate(-496.46 -414.19)"/></svg>