<svg id="Layer_1" data-name="Layer 1" xmlns="http://www.w3.org/2000/svg" viewBox="0 0 11.75 14.23"><defs><style>.cls-1{fill:#fff;}.cls-2{fill:#939eb4;}</style></defs><path class="cls-1" d="M360.61,338.54v1.86h3.72v9.28a.61.61,0,0,1-.62.61h-9.9a.61.61,0,0,1-.62-.61V337.3a.62.62,0,0,1,.62-.62h6.8Zm1.24,6.8a3.1,3.1,0,1,0-3.09,3.1A3.09,3.09,0,0,0,361.85,345.34Z" transform="translate(-352.88 -336.37)"/><path class="cls-2" d="M358.76,348.75a3.41,3.41,0,1,0-3.4-3.41A3.41,3.41,0,0,0,358.76,348.75Zm0-6.19a2.79,2.79,0,1,1-2.79,2.78A2.79,2.79,0,0,1,358.76,342.56Z" transform="translate(-352.88 -336.37)"/><path class="cls-2" d="M357.52,345.65h.93v.93a.31.31,0,1,0,.62,0v-.93H360a.31.31,0,1,0,0-.61h-.92v-.93a.31.31,0,0,0-.62,0V345h-.93a.31.31,0,1,0,0,.61Z" transform="translate(-352.88 -336.37)"/><path class="cls-2" d="M363.71,350.6a.92.92,0,0,0,.92-.92v-9.9a.29.29,0,0,0-.09-.22l-3.09-3.1a.36.36,0,0,0-.22-.09h-7.42a.93.93,0,0,0-.93.93v12.38a.93.93,0,0,0,.93.92ZM360.92,337h.18L364,339.9v.19h-3.1Zm-7.42,12.69V337.3a.31.31,0,0,1,.31-.31h6.49v1.24h-5.25a.31.31,0,0,0-.31.31v1.86a.3.3,0,0,0,.31.3.3.3,0,0,0,.31-.3v-1.55h4.94v1.55a.3.3,0,0,0,.31.3H364v9a.3.3,0,0,1-.31.3h-9.9A.3.3,0,0,1,353.5,349.68Z" transform="translate(-352.88 -336.37)"/></svg>