<svg id="Layer_1" data-name="Layer 1" xmlns="http://www.w3.org/2000/svg" viewBox="0 0 42.65 42.69"><defs><style>.cls-1{fill:#a28ec2;}.cls-2{fill:#56bfe7;}.cls-3{fill:#fad376;}.cls-4{fill:#373737;}</style></defs><polygon class="cls-1" points="5.13 31.21 5.13 27.38 8.73 29.5 5.13 31.21"/><polygon class="cls-2" points="7.35 28.08 9.05 29.48 12.05 27.92 15.61 29.98 18.7 27.11 12.39 23.52 7.35 28.08"/><polygon class="cls-1" points="18.46 31.92 27.86 26.7 21.52 24.99 15.29 29.86 18.46 31.92"/><polygon class="cls-2" points="24.81 26.32 27.58 27.16 30.16 25.56 32.47 28.93 37.39 29.72 37.39 18.81 31.1 17.06 24.81 26.32"/><polyline class="cls-1" points="37.55 36.96 31.83 27.91 37.55 29.34 37.55 36.96"/><polygon class="cls-3" points="12.05 28.13 5.19 31.97 5.03 37.53 37.49 37.63 30.32 25.48 18.96 32.14 12.05 28.13"/><path class="cls-4" d="M438.12,323.06a.66.66,0,0,1-.66-.66V285.78a.66.66,0,0,1,.66-.66.67.67,0,0,1,.67.66V322.4A.67.67,0,0,1,438.12,323.06Z" transform="translate(-435.96 -281.87)"/><path class="cls-4" d="M472.77,288.32H441a.67.67,0,0,1,0-1.33h31.78a.67.67,0,1,1,0,1.33Z" transform="translate(-435.96 -281.87)"/><path class="cls-4" d="M472.77,291.87H441a.66.66,0,0,1-.66-.67.65.65,0,0,1,.66-.66h31.78a.66.66,0,0,1,.67.66A.67.67,0,0,1,472.77,291.87Z" transform="translate(-435.96 -281.87)"/><path class="cls-4" d="M472.77,295.41H441a.67.67,0,0,1,0-1.33h31.78a.67.67,0,1,1,0,1.33Z" transform="translate(-435.96 -281.87)"/><path class="cls-4" d="M462.43,299H441a.67.67,0,0,1,0-1.33h21.44a.67.67,0,0,1,0,1.33Z" transform="translate(-435.96 -281.87)"/><path class="cls-4" d="M460.39,302.5H441a.65.65,0,0,1-.66-.66.66.66,0,0,1,.66-.67h19.4a.67.67,0,0,1,.67.67A.66.66,0,0,1,460.39,302.5Z" transform="translate(-435.96 -281.87)"/><path class="cls-4" d="M443.92,306.05H441a.67.67,0,0,1,0-1.33h2.93a.67.67,0,0,1,0,1.33Z" transform="translate(-435.96 -281.87)"/><path class="cls-4" d="M438.12,286.19a2.16,2.16,0,1,1,2.16-2.16A2.16,2.16,0,0,1,438.12,286.19Zm0-3a.83.83,0,1,0,.83.83A.83.83,0,0,0,438.12,283.2Z" transform="translate(-435.96 -281.87)"/><path class="cls-4" d="M474.75,323.06H438.12a.67.67,0,0,1,0-1.33h36.63a.67.67,0,1,1,0,1.33Z" transform="translate(-435.96 -281.87)"/><path class="cls-4" d="M476.45,324.56a2.16,2.16,0,1,1,2.16-2.16A2.16,2.16,0,0,1,476.45,324.56Zm0-3a.83.83,0,1,0,.83.83A.83.83,0,0,0,476.45,321.57Z" transform="translate(-435.96 -281.87)"/><path class="cls-4" d="M474.18,304V319.5s0,.07,0,.1,0,0,0,0,0,0,0,0,0,0,0,.06l0,.07,0,.06,0,0a.93.93,0,0,1-.18.16h0l-.06,0-.06,0-.06,0H441a.66.66,0,0,1-.66-.67V308.91a.67.67,0,0,1,1-.57l1.68,1,1.18.72.84.52.33.2a.67.67,0,0,1,.22.92.69.69,0,0,1-.23.22l0,0a.7.7,0,0,1-.66,0l-1-.6-.91-.56-1.13-.7v8.75h31.19V304a.65.65,0,0,1,.66-.66A.66.66,0,0,1,474.18,304Z" transform="translate(-435.96 -281.87)"/><path class="cls-4" d="M474.18,319.5s0,.07,0,.1,0,0,0,0,0,0,0,0,0,0,0,.06l0,.07,0,.06,0,0a.93.93,0,0,1-.18.16h0l-.06,0-.06,0-.06,0h-.16a.67.67,0,0,1-.57-.33l-.59-1-5.1-8.62-1-1.65-.25-.41-.42.23-1.66.93-8.95,5a.65.65,0,0,1-.67,0l-3-1.79-1.22-.73L448,310.51,445.36,312l0,0-3.67,2-.35.19a.67.67,0,0,1-.9-.26.68.68,0,0,1,.26-.91l1-.54,2-1.12,1.34-.74,2.63-1.45a.69.69,0,0,1,.67,0l2.9,1.75,1.22.73,2.22,1.33,7.44-4.16,1.66-.93,2.17-1.21a.67.67,0,0,1,.9.24l1.27,2.16h0l1,1.64h0l3.76,6.35,1.23,2.1A.58.58,0,0,1,474.18,319.5Z" transform="translate(-435.96 -281.87)"/><path class="cls-4" d="M463.78,307.89l1.83.5-1.66.93-1.83-.5-1.41-.39-3.12-.85h0l-2.51,1.95a.65.65,0,0,1-.73.06l-.84-.47-5.21-2.91-4.1,3.88-.63.6a.67.67,0,0,1-.78.1.48.48,0,0,1-.16-.13.67.67,0,0,1,0-.94l.37-.35,4.72-4.47a.65.65,0,0,1,.78-.09l6.09,3.4,2.36-1.84h0l0,0h0l.05,0,.07,0,.07,0h0l.09,0a.53.53,0,0,1,.28,0l3,.81,1.36.37h0Z" transform="translate(-435.96 -281.87)"/><polygon class="cls-4" points="38.22 28.86 38.22 30.24 36.89 29.88 33.13 28.85 33.13 28.85 31.29 28.35 30.32 26.7 32.16 27.21 32.16 27.21 36.89 28.5 38.22 28.86"/><path class="cls-4" d="M474.15,300.33a.67.67,0,0,1-.83.45l-5.79-1.71L462,307.39l-.52.77a.65.65,0,0,1-.72.27l-3.12-.85h0l-5.13,4.07-1.11.88-1.22-.73,1.11-.88,2.27-1.8,3.47-2.75,0,0h0l.05,0,.16-.07.09,0a.53.53,0,0,1,.28,0l3,.81,6.11-9.1a.65.65,0,0,1,.74-.26l6.26,1.84A.68.68,0,0,1,474.15,300.33Z" transform="translate(-435.96 -281.87)"/></svg>