<svg id="Layer_1" data-name="Layer 1" xmlns="http://www.w3.org/2000/svg" viewBox="0 0 58.12 42.69"><defs><style>.cls-1{fill:#a6d16b;}.cls-2{fill:#7fcff4;}.cls-3{fill:#f5c76d;}.cls-4{fill:#f15e5e;}.cls-5{fill:#010101;}</style></defs><rect class="cls-1" x="6.36" y="29.07" width="7.26" height="12.49"/><rect class="cls-2" x="31.78" y="26.11" width="7.26" height="15.44"/><rect class="cls-3" x="19.07" y="16.52" width="7.26" height="25.04"/><rect class="cls-4" x="44.5" y="14.82" width="7.26" height="26.73"/><circle class="cls-3" cx="22.06" cy="4.09" r="2.95"/><circle class="cls-2" cx="35.31" cy="17.6" r="2.95"/><circle class="cls-4" cx="48.13" cy="4.09" r="2.95"/><circle class="cls-1" cx="9.91" cy="16.52" r="2.95"/><path class="cls-5" d="M485.21,322.29h-4.09v-25.6a1.13,1.13,0,0,0-1.13-1.13h-7.27a1.13,1.13,0,0,0-1.13,1.13v5.73a1.14,1.14,0,1,0,2.27,0v-4.59h5v24.46h-5V310.06a1.14,1.14,0,1,0-2.27,0v12.23h-3.18V308a1.14,1.14,0,0,0-1.14-1.14H460a1.14,1.14,0,0,0-1.14,1.14v14.3H455.7v-23.9a1.14,1.14,0,0,0-1.14-1.14H447.3a1.14,1.14,0,0,0-1.14,1.14v23.9H443V310.94a1.14,1.14,0,0,0-1.13-1.14h-7.27a1.14,1.14,0,0,0-1.13,1.14v11.35h-4.09a1.14,1.14,0,0,0,0,2.27h55.85a1.14,1.14,0,1,0,0-2.27Zm-44.5,0h-5V312.07h5Zm12.72,0h-5V299.52h5Zm12.71,0h-5V309.12h5Z" transform="translate(-428.23 -281.87)"/><path class="cls-5" d="M472.72,305.33a1.1,1.1,0,0,0-.8.34,1.13,1.13,0,0,0,.8,1.93,1.18,1.18,0,0,0,.81-.33,1.14,1.14,0,0,0-.81-1.94Z" transform="translate(-428.23 -281.87)"/><path class="cls-5" d="M476.36,290a4.09,4.09,0,1,0-3.31-1.69l-7.54,7.54a4.14,4.14,0,0,0-3.77-.09l-7.87-7.87a4.09,4.09,0,1,0-7.67-2,4,4,0,0,0,.62,2.14l-6.71,6.71a4,4,0,0,0-2-.51,4.09,4.09,0,1,0,3.58,2.11l6.78-6.78a4.13,4.13,0,0,0,1.79.41,4,4,0,0,0,2-.51l7.8,7.8a4,4,0,0,0-.61,2.14,4.09,4.09,0,1,0,8.17,0,4,4,0,0,0-.51-2l7.75-7.74A4.12,4.12,0,0,0,476.36,290Zm0-5.9a1.82,1.82,0,1,1-1.82,1.82A1.82,1.82,0,0,1,476.36,284.14ZM438.14,300.2a1.82,1.82,0,1,1,1.82-1.81A1.82,1.82,0,0,1,438.14,300.2Zm12.15-12.43a1.82,1.82,0,1,1,1.82-1.81A1.82,1.82,0,0,1,450.29,287.77Zm13.25,13.52a1.82,1.82,0,1,1,1.81-1.82A1.83,1.83,0,0,1,463.54,301.29Z" transform="translate(-428.23 -281.87)"/></svg>