<svg id="Layer_1" data-name="Layer 1" xmlns="http://www.w3.org/2000/svg" viewBox="0 0 42.69 42.69"><defs><style>.cls-1{fill:#aab1bd;}.cls-2{fill:#fad670;}.cls-3{fill:#6dc6ab;}.cls-4{fill:#f38170;}.cls-5{fill:#cdd1d9;}.cls-6{fill:#e6e8eb;}.cls-7{fill:#010101;}</style></defs><path class="cls-1" d="M535.8,403.9v8.26a1.38,1.38,0,0,1-1.38,1.38H495.86a1.38,1.38,0,0,1-1.37-1.38V403.9h.69a2.07,2.07,0,0,0,0-4.13h-.69v-8.26a1.38,1.38,0,0,1,1.37-1.38h38.56a1.38,1.38,0,0,1,1.38,1.38v8.26h-.69a2,2,0,0,0-1.46.61,2.06,2.06,0,0,0,1.46,3.52Z" transform="translate(-493.8 -389.44)"/><path class="cls-2" d="M517.9,402.52h12.39v8.27H517.9Z" transform="translate(-493.8 -389.44)"/><path class="cls-3" d="M500,398.39h11v5.51H500Z" transform="translate(-493.8 -389.44)"/><path class="cls-2" d="M497.24,392.88H500v2.76h-2.76Z" transform="translate(-493.8 -389.44)"/><circle class="cls-4" cx="5.51" cy="19.28" r="2.07"/><circle class="cls-4" cx="37.18" cy="5.51" r="2.07"/><path class="cls-5" d="M509.63,413.54l-1.37,5.51H505.5l-1.37-5.51Z" transform="translate(-493.8 -389.44)"/><path class="cls-5" d="M534.42,413.54,533,419.05h-2.75l-1.38-5.51Z" transform="translate(-493.8 -389.44)"/><path class="cls-5" d="M517.9,413.54l-1.38,5.51h-2.75l-1.38-5.51Z" transform="translate(-493.8 -389.44)"/><path class="cls-5" d="M526.16,413.54l-1.38,5.51H522l-1.38-5.51Z" transform="translate(-493.8 -389.44)"/><path class="cls-5" d="M501.37,413.54,500,419.05h-2.76l-1.38-5.51Z" transform="translate(-493.8 -389.44)"/><path class="cls-6" d="M497.24,419.05H500v12.39h-2.76Z" transform="translate(-493.8 -389.44)"/><path class="cls-6" d="M505.5,419.05h2.76v12.39H505.5Z" transform="translate(-493.8 -389.44)"/><path class="cls-6" d="M513.77,419.05h2.75v12.39h-2.75Z" transform="translate(-493.8 -389.44)"/><path class="cls-6" d="M522,419.05h2.75v12.39H522Z" transform="translate(-493.8 -389.44)"/><path class="cls-6" d="M530.29,419.05H533v12.39h-2.75Z" transform="translate(-493.8 -389.44)"/><path class="cls-7" d="M500.68,392.2h-4.13v4.13h4.13ZM499.31,395h-1.38v-1.38h1.38Z" transform="translate(-493.8 -389.44)"/><path class="cls-7" d="M502.06,392.2h1.38v1.37h-1.38Z" transform="translate(-493.8 -389.44)"/><path class="cls-7" d="M504.82,392.2h11v1.37h-11Z" transform="translate(-493.8 -389.44)"/><path class="cls-7" d="M502.06,395h13.77v1.38H502.06Z" transform="translate(-493.8 -389.44)"/><path class="cls-7" d="M531,392.2a2.75,2.75,0,1,0,2.75,2.75A2.76,2.76,0,0,0,531,392.2Zm0,4.13a1.38,1.38,0,1,1,1.38-1.38A1.38,1.38,0,0,1,531,396.33Z" transform="translate(-493.8 -389.44)"/><path class="cls-7" d="M499.31,406a2.75,2.75,0,1,0,2.75,2.75A2.76,2.76,0,0,0,499.31,406Zm0,4.13a1.38,1.38,0,1,1,1.37-1.38A1.38,1.38,0,0,1,499.31,410.1Z" transform="translate(-493.8 -389.44)"/><path class="cls-7" d="M517.21,411.47H531v-9.63H517.21Zm1.38-8.26h11v6.89h-11Z" transform="translate(-493.8 -389.44)"/><path class="cls-7" d="M535.11,400.46h1.38v-8.95a2.07,2.07,0,0,0-2.07-2.07H495.86a2.07,2.07,0,0,0-2.06,2.07v8.95h1.38a1.38,1.38,0,0,1,0,2.75H493.8v9a2.05,2.05,0,0,0,1.51,2l1.24,5v13h4.13v-13l1.23-4.9h1.68l1.23,4.9v13H509v-13l1.22-4.9h1.68l1.23,4.9v13h4.13v-13l1.22-4.9h1.68l1.23,4.9v13h4.13v-13l1.23-4.9h1.68l1.22,4.9v13h4.13v-13l1.25-5a2.05,2.05,0,0,0,1.51-2v-9h-1.38a1.38,1.38,0,1,1,0-2.75Zm-37.18,30.29v-11h1.38v11Zm1.53-12.39h-1.68l-1-4.13h3.74Zm6.73,12.39v-11h1.38v11Zm1.53-12.39H506l-1-4.13h3.74Zm6.73,12.39v-11h1.38v11ZM516,418.36H514.3l-1-4.13H517Zm6.74,12.39v-11h1.37v11Zm1.52-12.39h-1.67l-1-4.13h3.75Zm6.59,0-1-4.13h3.75l-1,4.13Zm.15,12.39v-11h1.38v11Zm4.13-26.16v7.57a.69.69,0,0,1-.69.69H495.86a.68.68,0,0,1-.68-.69v-7.57a2.76,2.76,0,0,0,0-5.51v-7.57a.68.68,0,0,1,.68-.69h38.56a.69.69,0,0,1,.69.69v7.57a2.76,2.76,0,0,0,0,5.51Z" transform="translate(-493.8 -389.44)"/><path class="cls-7" d="M520,404.59h8.26V406H520Z" transform="translate(-493.8 -389.44)"/><path class="cls-7" d="M520,407.34h8.26v1.38H520Z" transform="translate(-493.8 -389.44)"/><path class="cls-7" d="M499.31,404.59H511.7V397.7H499.31Zm1.37-5.51h9.64v4.13h-9.64Z" transform="translate(-493.8 -389.44)"/><path class="cls-7" d="M504.82,400.46h1.37v1.38h-1.37Z" transform="translate(-493.8 -389.44)"/><path class="cls-7" d="M502.06,400.46h1.38v1.38h-1.38Z" transform="translate(-493.8 -389.44)"/><path class="cls-7" d="M507.57,400.46H509v1.38h-1.38Z" transform="translate(-493.8 -389.44)"/></svg>