<svg id="Layer_1" data-name="Layer 1" xmlns="http://www.w3.org/2000/svg" viewBox="0 0 42.69 42.69"><defs><style>.cls-1{fill:#969fa9;}.cls-2{fill:#cdd1d9;}.cls-3{fill:#e6e8eb;}.cls-4{fill:#fad670;}.cls-5{fill:#fbe7a5;}.cls-6{fill:#f38170;}.cls-7{fill:#010101;}</style></defs><path class="cls-1" d="M495.77,414.88h41.31v41.31H495.77Z" transform="translate(-495.08 -414.19)"/><path class="cls-2" d="M533,450v2.07H499.9V419H533v31Z" transform="translate(-495.08 -414.19)"/><path class="cls-3" d="M530.2,422.45v26.17a.69.69,0,0,1-.69.69H503.35a.69.69,0,0,1-.69-.69V422.45a.69.69,0,0,1,.69-.68h26.16A.69.69,0,0,1,530.2,422.45Z" transform="translate(-495.08 -414.19)"/><path class="cls-4" d="M520.56,441h-9.64V430h11v11Z" transform="translate(-495.08 -414.19)"/><path class="cls-5" d="M519.18,433.47v4.13a.69.69,0,0,1-.69.69h-4.13a.69.69,0,0,1-.69-.69v-4.13a.69.69,0,0,1,.69-.69h4.13A.69.69,0,0,1,519.18,433.47Z" transform="translate(-495.08 -414.19)"/><circle class="cls-6" cx="11.7" cy="30.98" r="1.38"/><circle class="cls-6" cx="11.7" cy="11.7" r="1.38"/><circle class="cls-6" cx="30.98" cy="11.7" r="1.38"/><circle class="cls-6" cx="30.98" cy="30.98" r="1.38"/><path class="cls-7" d="M495.08,414.19v42.69h42.69V414.19Zm41.32,35.12h-2.76v-2.76h2.76Zm0-4.14h-2.76v-2.75h2.76Zm0-4.13h-2.76v-2.75h2.76Zm0-4.13h-2.76v-2.75h2.76Zm0-4.13h-2.76V430h2.76Zm0-4.13h-2.76V425.9h2.76Zm0-4.13h-2.76v-2.75h2.76Zm-3.73-6.2h-1.09v-2.75h3.84Zm-32.08,33.05V419.7h31.67v31.67Zm29.61-33.05h-2.76v-2.75h2.76Zm-4.13,0h-2.76v-2.75h2.76Zm-4.13,0h-2.76v-2.75h2.76Zm-4.13,0h-2.76v-2.75h2.76Zm-4.14,0h-2.75v-2.75h2.75Zm-4.13,0h-2.75v-2.75h2.75Zm-4.13,0h-2.75v-2.75h2.75Zm-4.13,0h-1.09l-2.75-2.75h3.84Zm-4.82,3.45h2.76v2.75h-2.76Zm0,4.13h2.76v2.75h-2.76Zm0,4.13h2.76v2.75h-2.76Zm0,4.13h2.76v2.75h-2.76Zm0,4.13h2.76V441h-2.76Zm0,4.13h2.76v2.75h-2.76Zm0,4.13h2.76v2.76h-2.76Zm2.76-27.25v1.09h-2.76v-3.85Zm-2.76,31.38h2.76v1.09l-2.76,2.76Zm3.73,2.07h1.09v2.75h-3.84Zm2.47,0h2.75v2.75h-2.75Zm4.13,0h2.75v2.75h-2.75Zm4.13,0h2.75v2.75h-2.75Zm4.13,0h2.76v2.75h-2.76Zm4.13,0h2.76v2.75h-2.76Zm4.13,0h2.76v2.75h-2.76Zm4.13,0h2.76v2.75h-2.76Zm4.14,0h1.09l2.75,2.75h-3.84Zm2.06-1v-1.09h2.76v3.85Zm2.76-31.38h-2.76V419.3l2.76-2.76Z" transform="translate(-495.08 -414.19)"/><path class="cls-7" d="M529.51,421.08H503.35a1.37,1.37,0,0,0-1.38,1.37v26.17a1.37,1.37,0,0,0,1.38,1.37h26.16a1.37,1.37,0,0,0,1.38-1.37V422.45A1.37,1.37,0,0,0,529.51,421.08Zm-26.16,27.54V422.45h26.16v26.17Z" transform="translate(-495.08 -414.19)"/><path class="cls-7" d="M514.36,439h4.13a1.38,1.38,0,0,0,1.38-1.38v-4.13a1.38,1.38,0,0,0-1.38-1.38h-4.13a1.37,1.37,0,0,0-1.37,1.38v4.13A1.37,1.37,0,0,0,514.36,439Zm0-5.51h4.13v4.13h-4.13Z" transform="translate(-495.08 -414.19)"/><path class="cls-7" d="M522.63,440.36h2.75V439h-2.75V437.6h2.75v-1.38h-2.75v-1.37h2.75v-1.38h-2.75v-1.38h2.75v-1.37h-2.75v-1.38h-1.38v-2.75h-1.38v2.75h-1.38v-2.75h-1.37v2.75h-1.38v-2.75h-1.38v2.75H513v-2.75h-1.38v2.75h-1.38v1.38h-2.75v1.37h2.75v1.38h-2.75v1.38h2.75v1.37h-2.75v1.38h2.75V439h-2.75v1.38h2.75v1.37h1.38v2.76H513v-2.76h1.37v2.76h1.38v-2.76h1.38v2.76h1.37v-2.76h1.38v2.76h1.38v-2.76h1.38Zm-1.38,0h-9.64v-9.64h9.64Z" transform="translate(-495.08 -414.19)"/><path class="cls-7" d="M506.79,428a2.07,2.07,0,1,0-2.07-2.06A2.06,2.06,0,0,0,506.79,428Zm0-2.75a.69.69,0,1,1-.69.69A.69.69,0,0,1,506.79,425.21Z" transform="translate(-495.08 -414.19)"/><path class="cls-7" d="M506.79,443.11a2.07,2.07,0,1,0,2.06,2.06A2.07,2.07,0,0,0,506.79,443.11Zm0,2.75a.69.69,0,0,1-.69-.69.69.69,0,0,1,1.38,0A.69.69,0,0,1,506.79,445.86Z" transform="translate(-495.08 -414.19)"/><path class="cls-7" d="M526.07,423.83a2.07,2.07,0,1,0,2.06,2.07A2.07,2.07,0,0,0,526.07,423.83Zm0,2.76a.69.69,0,1,1,.69-.69A.69.69,0,0,1,526.07,426.59Z" transform="translate(-495.08 -414.19)"/><path class="cls-7" d="M526.07,443.11a2.07,2.07,0,1,0,2.06,2.06A2.07,2.07,0,0,0,526.07,443.11Zm0,2.75a.69.69,0,0,1-.69-.69.69.69,0,0,1,1.38,0A.69.69,0,0,1,526.07,445.86Z" transform="translate(-495.08 -414.19)"/><path class="cls-7" d="M515.74,434.85h1.38v1.37h-1.38Z" transform="translate(-495.08 -414.19)"/></svg>