<svg id="Layer_1" data-name="Layer 1" xmlns="http://www.w3.org/2000/svg" viewBox="0 0 30.29 42.69"><defs><style>.cls-1{fill:#aab1bd;}.cls-2{fill:#cdd1d9;}.cls-3{fill:#fad670;}.cls-4{fill:#fbe7a5;}.cls-5{fill:#e6e8eb;}.cls-6{fill:#6dc6ab;}.cls-7{fill:#010101;}</style></defs><path class="cls-1" d="M526.76,432.78v1.38a1.38,1.38,0,0,1-1.38,1.38h-17.9a1.38,1.38,0,0,1-1.38-1.38v-1.38a1.38,1.38,0,0,1,1.38-1.38h17.9A1.38,1.38,0,0,1,526.76,432.78Z" transform="translate(-501.28 -414.19)"/><path class="cls-2" d="M522.63,428.65v2.75h-12.4v-2.75a1.38,1.38,0,0,1,1.38-1.38h9.64A1.38,1.38,0,0,1,522.63,428.65Z" transform="translate(-501.28 -414.19)"/><path class="cls-3" d="M516.43,427.27H513l-1.28-6.41a4.32,4.32,0,0,1-.1-.95v-.21a4.82,4.82,0,1,1,9.64,0v.21a5,5,0,0,1-.1.95l-1.28,6.41Z" transform="translate(-501.28 -414.19)"/><path class="cls-2" d="M521.25,435.54h4.13v4.13h-4.13Z" transform="translate(-501.28 -414.19)"/><path class="cls-2" d="M507.48,435.54h4.13v4.13h-4.13Z" transform="translate(-501.28 -414.19)"/><path class="cls-4" d="M506.1,439.67h20.66v9.64H506.1Z" transform="translate(-501.28 -414.19)"/><path class="cls-3" d="M530.89,441v6.89a1.38,1.38,0,0,1-1.38,1.38h-2.75v-9.64h2.75A1.38,1.38,0,0,1,530.89,441Z" transform="translate(-501.28 -414.19)"/><path class="cls-5" d="M528.13,449.31v5.5l-2.06,1.38h-.69v-6.88h2.75Z" transform="translate(-501.28 -414.19)"/><path class="cls-6" d="M519.87,446.55h2.76v2.76h-2.76Z" transform="translate(-501.28 -414.19)"/><path class="cls-5" d="M517.81,449.31v5.5a1.38,1.38,0,0,1-1.38,1.38,1.33,1.33,0,0,1-1-.41,1.31,1.31,0,0,1-.41-1v-5.5Z" transform="translate(-501.28 -414.19)"/><path class="cls-6" d="M510.23,446.55H513v2.76h-2.76Z" transform="translate(-501.28 -414.19)"/><path class="cls-5" d="M507.48,449.31v6.88h-.69l-2.07-1.38v-5.5h2.76Z" transform="translate(-501.28 -414.19)"/><path class="cls-3" d="M506.1,439.67v9.64h-2.75a1.38,1.38,0,0,1-1.38-1.38V441a1.38,1.38,0,0,1,1.38-1.37Z" transform="translate(-501.28 -414.19)"/><path class="cls-7" d="M510.92,441.73h1.38v1.38h-1.38Z" transform="translate(-501.28 -414.19)"/><path class="cls-7" d="M513.67,441.73h1.38v1.38h-1.38Z" transform="translate(-501.28 -414.19)"/><path class="cls-7" d="M508.17,441.73h1.37v1.38h-1.37Z" transform="translate(-501.28 -414.19)"/><path class="cls-7" d="M523.31,441.73h1.38v1.38h-1.38Z" transform="translate(-501.28 -414.19)"/><path class="cls-7" d="M517.81,441.73h1.37v1.38h-1.37Z" transform="translate(-501.28 -414.19)"/><path class="cls-7" d="M520.56,441.73h1.38v1.38h-1.38Z" transform="translate(-501.28 -414.19)"/><path class="cls-7" d="M529.51,439h-3.44V436.1a2.06,2.06,0,0,0,1.37-1.94v-1.38a2.06,2.06,0,0,0-2.06-2.06h-2.07v-2.07a2.06,2.06,0,0,0-2.06-2.06h-.54l1.12-5.6a5.57,5.57,0,0,0,.11-1.08v-.21a5.51,5.51,0,0,0-11,0v.21A5.57,5.57,0,0,0,511,421l1.12,5.6h-.54a2.07,2.07,0,0,0-2.07,2.06v2.07h-2.06a2.07,2.07,0,0,0-2.07,2.06v1.38a2.07,2.07,0,0,0,1.38,1.94V439h-3.44a2.07,2.07,0,0,0-2.07,2.06v6.89a2.07,2.07,0,0,0,2.07,2.06H504v5.19l2.54,1.7h1.59V450h6.19v4.82a2.07,2.07,0,1,0,4.13,0V450h6.2v6.89h1.59l2.54-1.7V450h.69a2.07,2.07,0,0,0,2.07-2.06V441A2.07,2.07,0,0,0,529.51,439Zm-6.2,9.64v-2.76h-4.13v2.76h-5.51v-2.76h-4.13v2.76h-2.75v-8.26h19.28v8.26Zm-1.37,0h-1.38v-1.38h1.38Zm-9.64,0h-1.38v-1.38h1.38Zm8.26-12.4V439H512.3v-2.76Zm1.38,2.76v-2.76h2.75V439Zm-9.56-18.26a3.65,3.65,0,0,1-.08-.81v-.21a4.13,4.13,0,1,1,8.26,0v.21a4.36,4.36,0,0,1-.08.81l-1.17,5.87h-2.19V421a2.76,2.76,0,0,0,2.06-2.66h-1.37a1.38,1.38,0,1,1-2.76,0h-1.38a2.77,2.77,0,0,0,2.07,2.66v5.61h-2.19Zm-1.46,7.93a.69.69,0,0,1,.69-.69h9.64a.69.69,0,0,1,.69.69v2.07h-11Zm-4.13,4.13a.69.69,0,0,1,.69-.69h17.9a.69.69,0,0,1,.69.69v1.38a.69.69,0,0,1-.69.69h-17.9a.69.69,0,0,1-.69-.69Zm1.38,3.44h2.75V439h-2.75Zm-5.51,11.71V441a.68.68,0,0,1,.69-.68h2.06v8.26h-2.06A.69.69,0,0,1,502.66,447.93Zm4.13,7.43-1.38-.91V450h1.38Zm10.33-.55a.69.69,0,1,1-1.38,0V450h1.38Zm10.32-.36-1.37.91V450h1.37Zm2.76-6.52a.69.69,0,0,1-.69.69h-2.07v-8.26h2.07a.68.68,0,0,1,.69.68Z" transform="translate(-501.28 -414.19)"/></svg>