<svg id="Layer_1" data-name="Layer 1" xmlns="http://www.w3.org/2000/svg" viewBox="0 0 42.69 42.69"><defs><style>.cls-1{fill:#969fa9;}.cls-2{fill:#f38170;}.cls-3{fill:#fad670;}.cls-4{fill:#ffc82c;}.cls-5{fill:#fbe7a5;}.cls-6{fill:#e6e8eb;}.cls-7{fill:#010101;}</style></defs><path class="cls-1" d="M444.47,305H423.82a2.75,2.75,0,0,1-2.76-2.75v-35.8a2.76,2.76,0,0,1,2.76-2.76h20.65a2.76,2.76,0,0,1,2.75,2.76v35.8A2.75,2.75,0,0,1,444.47,305Z" transform="translate(-412.8 -263.01)"/><path class="cls-2" d="M430,263.7h8.26a4.13,4.13,0,0,1-8.26,0Z" transform="translate(-412.8 -263.01)"/><path class="cls-3" d="M437.46,288.36l2.66,2.66a8.94,8.94,0,0,1-11.95,0l2.65-2.66a1.25,1.25,0,0,0,.57.13h5.51A1.18,1.18,0,0,0,437.46,288.36Z" transform="translate(-412.8 -263.01)"/><path class="cls-3" d="M440.12,277.69l-2.66,2.66a1.31,1.31,0,0,0-.56-.12h-5.51a1.39,1.39,0,0,0-.57.12l-2.65-2.66a9,9,0,0,1,11.95,0Z" transform="translate(-412.8 -263.01)"/><path class="cls-4" d="M430.82,288.36,428.17,291a9,9,0,0,1-2.29-3.22l4.13-.69A1.37,1.37,0,0,0,430.82,288.36Z" transform="translate(-412.8 -263.01)"/><path class="cls-4" d="M428.17,277.69l2.65,2.66a1.38,1.38,0,0,0-.81,1.25l-4.13-.69A9.08,9.08,0,0,1,428.17,277.69Z" transform="translate(-412.8 -263.01)"/><path class="cls-4" d="M430,284.36v2.75l-4.13.69a9,9,0,0,1-.69-3.44Z" transform="translate(-412.8 -263.01)"/><path class="cls-4" d="M430,281.6v2.76h-4.82a9,9,0,0,1,.69-3.45Z" transform="translate(-412.8 -263.01)"/><path class="cls-4" d="M438.27,284.36h4.82a8.77,8.77,0,0,1-.69,3.44l-4.13-.69Z" transform="translate(-412.8 -263.01)"/><path class="cls-4" d="M442.4,280.91l-4.13.69a1.37,1.37,0,0,0-.81-1.25l2.66-2.66A9.05,9.05,0,0,1,442.4,280.91Z" transform="translate(-412.8 -263.01)"/><path class="cls-4" d="M438.27,287.11l4.13.69a9,9,0,0,1-2.28,3.22l-2.66-2.66A1.36,1.36,0,0,0,438.27,287.11Z" transform="translate(-412.8 -263.01)"/><path class="cls-4" d="M443.09,284.36h-4.82V281.6l4.13-.69A8.82,8.82,0,0,1,443.09,284.36Z" transform="translate(-412.8 -263.01)"/><path class="cls-5" d="M438.27,284.36v2.75a1.36,1.36,0,0,1-.81,1.25,1.18,1.18,0,0,1-.56.13h-5.51a1.25,1.25,0,0,1-.57-.13,1.37,1.37,0,0,1-.81-1.25V281.6a1.37,1.37,0,0,1,1.38-1.37h5.51a1.31,1.31,0,0,1,.56.12,1.37,1.37,0,0,1,.81,1.25Z" transform="translate(-412.8 -263.01)"/><path class="cls-6" d="M421.06,272v2.76h-4.13V272Z" transform="translate(-412.8 -263.01)"/><path class="cls-6" d="M421.06,299.5v2.76h-4.13V299.5Z" transform="translate(-412.8 -263.01)"/><path class="cls-6" d="M421.06,283v2.75h-4.13V283Z" transform="translate(-412.8 -263.01)"/><path class="cls-6" d="M421.06,266.46v2.75h-4.13v-2.75Z" transform="translate(-412.8 -263.01)"/><path class="cls-6" d="M421.06,294v2.75h-4.13V294Z" transform="translate(-412.8 -263.01)"/><path class="cls-6" d="M421.06,277.47v2.76h-4.13v-2.76Z" transform="translate(-412.8 -263.01)"/><path class="cls-6" d="M421.06,288.49v2.75h-4.13v-2.75Z" transform="translate(-412.8 -263.01)"/><path class="cls-6" d="M451.36,289.87v1.37h-4.14v-2.75h4.14Z" transform="translate(-412.8 -263.01)"/><path class="cls-6" d="M451.36,300.88v1.38h-4.14V299.5h4.14Z" transform="translate(-412.8 -263.01)"/><path class="cls-6" d="M451.36,295.37v1.38h-4.14V294h4.14Z" transform="translate(-412.8 -263.01)"/><path class="cls-6" d="M451.36,284.36v1.37h-4.14V283h4.14Z" transform="translate(-412.8 -263.01)"/><path class="cls-6" d="M451.36,278.85v1.38h-4.14v-2.76h4.14Z" transform="translate(-412.8 -263.01)"/><path class="cls-6" d="M451.36,273.34v1.38h-4.14V272h4.14Z" transform="translate(-412.8 -263.01)"/><path class="cls-6" d="M451.36,267.83v1.38h-4.14v-2.75h4.14Z" transform="translate(-412.8 -263.01)"/><path class="cls-7" d="M452,269.9v-1.38h3.45v-1.38H452v-1.37h-4.2a3.45,3.45,0,0,0-3.37-2.76H423.82a3.45,3.45,0,0,0-3.38,2.76h-4.2v1.37H412.8v1.38h3.44v1.38h4.13v1.38h-4.13v1.37H412.8V274h3.44v1.38h4.13v1.37h-4.13v1.38H412.8v1.38h3.44v1.37h4.13v1.38h-4.13v1.38H412.8v1.38h3.44v1.37h4.13v1.38h-4.13v1.38H412.8v1.37h3.44v1.38h4.13v1.38h-4.13v1.37H412.8v1.38h3.44v1.38h4.13v1.38h-4.13v1.37H412.8v1.38h3.44V303h4.2a3.45,3.45,0,0,0,3.38,2.75h20.65a3.44,3.44,0,0,0,3.37-2.75H452v-1.38h3.45v-1.38H452v-1.37h-4.13v-1.38H452v-1.38h3.45v-1.38H452v-1.37h-4.13v-1.38H452v-1.38h3.45v-1.37H452V287.8h-4.13v-1.38H452v-1.37h3.45v-1.38H452v-1.38h-4.13v-1.38H452v-1.37h3.45v-1.38H452v-1.38h-4.13v-1.37H452V274h3.45v-1.38H452v-1.37h-4.13V269.9Zm-34.42-1.38v-1.38h2.75v1.38Zm0,5.51v-1.38h2.75V274Zm0,5.51v-1.38h2.75v1.38Zm0,5.51v-1.38h2.75v1.38Zm0,5.5v-1.37h2.75v1.37Zm0,5.51v-1.38h2.75v1.38Zm0,4.13h2.75v1.38h-2.75Zm19.9-35.8a3.45,3.45,0,0,1-6.75,0Zm9,37.87a2.07,2.07,0,0,1-2.07,2.06H423.82a2.07,2.07,0,0,1-2.07-2.06v-35.8a2.07,2.07,0,0,1,2.07-2.07h5.56a4.81,4.81,0,0,0,9.53,0h5.56a2.07,2.07,0,0,1,2.07,2.07Zm4.13-33.74h-2.76v-1.38h2.76Zm0,31.67v1.38h-2.76v-1.38Zm0-5.51v1.38h-2.76v-1.38Zm0-5.5v1.37h-2.76v-1.37Zm0-5.51v1.38h-2.76v-1.38Zm0-5.51v1.38h-2.76v-1.38Zm0-5.51V274h-2.76v-1.38Z" transform="translate(-412.8 -263.01)"/><path class="cls-7" d="M434.14,274.72a9.64,9.64,0,1,0,9.64,9.64A9.65,9.65,0,0,0,434.14,274.72ZM426.33,287a8.2,8.2,0,0,1-.41-2h3.4v1.48Zm3-3.36h-3.4a8.1,8.1,0,0,1,.41-2l3,.5Zm1.38,3.44V281.6a.69.69,0,0,1,.69-.69h5.51a.69.69,0,0,1,.69.69v5.51a.69.69,0,0,1-.69.69h-5.51a.69.69,0,0,1-.69-.69Zm8.26-2.06h3.41a8.21,8.21,0,0,1-.42,2l-3-.5Zm0-1.38v-1.48l3-.5a8.11,8.11,0,0,1,.42,2Zm-.16-2.85a2.11,2.11,0,0,0-.31-.52l1.63-1.63a7.93,7.93,0,0,1,1.26,1.72Zm.29-3.07-1.83,1.82-.36,0h-5.51a2.22,2.22,0,0,0-.37,0l-1.82-1.82a8.24,8.24,0,0,1,9.89,0Zm-10.92.92,1.63,1.63a2.14,2.14,0,0,0-.32.52l-2.58-.43A8.32,8.32,0,0,1,428.17,278.67Zm-1.27,9.66,2.58-.43a2.14,2.14,0,0,0,.32.52l-1.63,1.63a8.6,8.6,0,0,1-1.27-1.72Zm2.3,2.63,1.82-1.82a2.21,2.21,0,0,0,.37,0h5.51a2.2,2.2,0,0,0,.36,0l1.83,1.82a8.2,8.2,0,0,1-9.89,0Zm10.92-.91-1.63-1.64a2.2,2.2,0,0,0,.32-.51l2.58.43a8.6,8.6,0,0,1-1.27,1.72Z" transform="translate(-412.8 -263.01)"/><path class="cls-7" d="M428,297.44h12.39v1.38H428Z" transform="translate(-412.8 -263.01)"/><path class="cls-7" d="M439,300.19h1.38v1.38H439Z" transform="translate(-412.8 -263.01)"/><path class="cls-7" d="M430.7,300.19h6.89v1.38H430.7Z" transform="translate(-412.8 -263.01)"/><path class="cls-7" d="M428,300.19h1.37v1.38H428Z" transform="translate(-412.8 -263.01)"/></svg>