<svg id="Layer_1" data-name="Layer 1" xmlns="http://www.w3.org/2000/svg" viewBox="0 0 42.69 42.69"><defs><style>.cls-1{fill:#969fa9;}.cls-2{fill:#cdd1d9;}.cls-3{fill:#6dc6ab;}.cls-4{fill:#fad670;}.cls-5{fill:#fbe7a5;}.cls-6{fill:#e6e8eb;}.cls-7{fill:#f38170;}.cls-8{fill:#010101;}</style></defs><path class="cls-1" d="M420.37,273.34v22h-5.51a1.38,1.38,0,0,1-1.37-1.37v-6.89h1.37a2.76,2.76,0,1,0,0-5.51h-1.37v-6.88a1.38,1.38,0,0,1,1.37-1.38h5.51Z" transform="translate(-412.8 -263.01)"/><path class="cls-1" d="M454.8,287.11V294a1.38,1.38,0,0,1-1.38,1.37h-5.51v-22h5.51a1.38,1.38,0,0,1,1.38,1.38v6.88h-1.38a2.76,2.76,0,0,0,0,5.51Z" transform="translate(-412.8 -263.01)"/><path class="cls-2" d="M447.91,273.34v22H420.37v-22h27.54Z" transform="translate(-412.8 -263.01)"/><path class="cls-3" d="M450,264.39v2.75a.69.69,0,0,1-.69.69h-1.38a.69.69,0,0,1-.69-.69v-2.75a.69.69,0,0,1,.69-.69h1.38A.69.69,0,0,1,450,264.39Z" transform="translate(-412.8 -263.01)"/><path class="cls-3" d="M448.6,301.57v2.75a.69.69,0,0,1-.69.69h-1.37a.69.69,0,0,1-.69-.69v-2.75a.69.69,0,0,1,.69-.69h1.37A.69.69,0,0,1,448.6,301.57Z" transform="translate(-412.8 -263.01)"/><path class="cls-3" d="M443.09,264.39v2.75a.69.69,0,0,1-.69.69H441a.69.69,0,0,1-.69-.69v-2.75a.69.69,0,0,1,.69-.69h1.37A.69.69,0,0,1,443.09,264.39Z" transform="translate(-412.8 -263.01)"/><path class="cls-4" d="M442.4,288.49v4.13h-4.13v-2.75h1.38v-1.38Z" transform="translate(-412.8 -263.01)"/><path class="cls-5" d="M439.65,280.23h2.75v8.26h-2.75Z" transform="translate(-412.8 -263.01)"/><path class="cls-5" d="M425.88,280.23h2.75v8.26h-2.75Z" transform="translate(-412.8 -263.01)"/><path class="cls-5" d="M430,276.1h8.26v2.75H430Z" transform="translate(-412.8 -263.01)"/><path class="cls-5" d="M430,289.87h8.26v2.75H430Z" transform="translate(-412.8 -263.01)"/><path class="cls-4" d="M442.4,276.1v4.13h-2.75v-1.38h-1.38V276.1Z" transform="translate(-412.8 -263.01)"/><path class="cls-3" d="M441.72,301.57v2.75a.69.69,0,0,1-.69.69h-1.38a.69.69,0,0,1-.69-.69v-2.75a.69.69,0,0,1,.69-.69H441A.69.69,0,0,1,441.72,301.57Z" transform="translate(-412.8 -263.01)"/><path class="cls-6" d="M439.65,288.49v1.38h-11v-11h11v9.64Z" transform="translate(-412.8 -263.01)"/><circle class="cls-7" cx="21.34" cy="21.34" r="2.75"/><path class="cls-3" d="M436.21,264.39v2.75a.69.69,0,0,1-.69.69h-1.38a.69.69,0,0,1-.69-.69v-2.75a.69.69,0,0,1,.69-.69h1.38A.69.69,0,0,1,436.21,264.39Z" transform="translate(-412.8 -263.01)"/><path class="cls-3" d="M434.83,301.57v2.75a.69.69,0,0,1-.69.69h-1.37a.69.69,0,0,1-.69-.69v-2.75a.69.69,0,0,1,.69-.69h1.37A.69.69,0,0,1,434.83,301.57Z" transform="translate(-412.8 -263.01)"/><path class="cls-4" d="M430,289.87v2.75h-4.13v-4.13h2.75v1.38Z" transform="translate(-412.8 -263.01)"/><path class="cls-4" d="M430,276.1v2.75h-1.38v1.38h-2.75V276.1Z" transform="translate(-412.8 -263.01)"/><path class="cls-3" d="M429.32,264.39v2.75a.69.69,0,0,1-.69.69h-1.37a.69.69,0,0,1-.69-.69v-2.75a.69.69,0,0,1,.69-.69h1.37A.69.69,0,0,1,429.32,264.39Z" transform="translate(-412.8 -263.01)"/><path class="cls-3" d="M428,301.57v2.75a.69.69,0,0,1-.69.69h-1.38a.69.69,0,0,1-.69-.69v-2.75a.69.69,0,0,1,.69-.69h1.38A.69.69,0,0,1,428,301.57Z" transform="translate(-412.8 -263.01)"/><path class="cls-3" d="M422.44,264.39v2.75a.69.69,0,0,1-.69.69h-1.38a.69.69,0,0,1-.69-.69v-2.75a.69.69,0,0,1,.69-.69h1.38A.69.69,0,0,1,422.44,264.39Z" transform="translate(-412.8 -263.01)"/><path class="cls-3" d="M421.06,301.57v2.75a.69.69,0,0,1-.69.69H419a.69.69,0,0,1-.69-.69v-2.75a.69.69,0,0,1,.69-.69h1.37A.69.69,0,0,1,421.06,301.57Z" transform="translate(-412.8 -263.01)"/><path class="cls-8" d="M455.49,274.72a2.07,2.07,0,0,0-2.07-2.07h-6.88v-1.37h2.75v-2.76a1.38,1.38,0,0,0,1.38-1.38v-2.75a1.38,1.38,0,0,0-1.38-1.38h-1.38a1.37,1.37,0,0,0-1.37,1.38v2.75a1.37,1.37,0,0,0,1.37,1.38v1.38h-2.75v2.75h-5.51v-1.37h2.75v-2.76a1.38,1.38,0,0,0,1.38-1.38v-2.75A1.38,1.38,0,0,0,442.4,263H441a1.38,1.38,0,0,0-1.38,1.38v2.75a1.38,1.38,0,0,0,1.38,1.38v1.38h-2.76v2.75h-5.5v-1.37h2.75v-2.76a1.38,1.38,0,0,0,1.38-1.38v-2.75a1.38,1.38,0,0,0-1.38-1.38h-1.38a1.37,1.37,0,0,0-1.37,1.38v2.75a1.37,1.37,0,0,0,1.37,1.38v1.38h-2.75v2.75h-5.51v-1.37h2.75v-2.76a1.38,1.38,0,0,0,1.38-1.38v-2.75a1.38,1.38,0,0,0-1.38-1.38h-1.37a1.38,1.38,0,0,0-1.38,1.38v2.75a1.38,1.38,0,0,0,1.38,1.38v1.38H424.5v2.75H419v-1.37h2.75v-2.76a1.38,1.38,0,0,0,1.38-1.38v-2.75a1.38,1.38,0,0,0-1.38-1.38h-1.38a1.37,1.37,0,0,0-1.37,1.38v2.75a1.37,1.37,0,0,0,1.37,1.38v1.38h-2.75v2.75h-2.76a2.07,2.07,0,0,0-2.06,2.07v7.57h2.06a2.07,2.07,0,1,1,0,4.13H412.8V294a2.06,2.06,0,0,0,2.06,2.06h6.89v1.38H419v2.75a1.38,1.38,0,0,0-1.38,1.38v2.75A1.38,1.38,0,0,0,419,305.7h1.37a1.38,1.38,0,0,0,1.38-1.38v-2.75a1.38,1.38,0,0,0-1.38-1.38v-1.37h2.76v-2.76h5.5v1.38h-2.75v2.75a1.38,1.38,0,0,0-1.38,1.38v2.75a1.38,1.38,0,0,0,1.38,1.38h1.38a1.37,1.37,0,0,0,1.37-1.38v-2.75a1.37,1.37,0,0,0-1.37-1.38v-1.37H430v-2.76h5.51v1.38h-2.75v2.75a1.38,1.38,0,0,0-1.38,1.38v2.75a1.38,1.38,0,0,0,1.38,1.38h1.37a1.38,1.38,0,0,0,1.38-1.38v-2.75a1.38,1.38,0,0,0-1.38-1.38v-1.37h2.76v-2.76h5.5v1.38h-2.75v2.75a1.38,1.38,0,0,0-1.38,1.38v2.75a1.38,1.38,0,0,0,1.38,1.38H441a1.37,1.37,0,0,0,1.37-1.38v-2.75a1.37,1.37,0,0,0-1.37-1.38v-1.37h2.75v-2.76h5.51v1.38h-2.75v2.75a1.38,1.38,0,0,0-1.38,1.38v2.75a1.38,1.38,0,0,0,1.38,1.38h1.37a1.38,1.38,0,0,0,1.38-1.38v-2.75a1.38,1.38,0,0,0-1.38-1.38v-1.37h2.76v-2.76h2.75a2.07,2.07,0,0,0,2.07-2.06v-7.58h-2.07a2.07,2.07,0,0,1,0-4.13h2.07Zm-7.58-10.33h1.38v2.75h-1.38Zm-6.88,0h1.37v2.75H441Zm-6.89,0h1.38v2.75h-1.38Zm-6.88,0h1.37v2.75h-1.38Zm-6.89,0h1.38v2.75h-1.38Zm0,39.93H419v-2.75h1.38Zm6.89,0h-1.38v-2.75h1.38Zm6.88,0h-1.37v-2.75h1.37Zm6.89,0h-1.38v-2.75H441Zm6.88,0h-1.37v-2.75h1.37ZM447.22,274v20.65H421.06V274Zm-33,20v-6.2h.68a3.45,3.45,0,1,0,0-6.89h-.68v-6.19a.69.69,0,0,1,.68-.69h4.82v20.65h-4.82A.68.68,0,0,1,414.18,294Zm39.93-13.09h-.69a3.45,3.45,0,0,0,0,6.89h.69V294a.68.68,0,0,1-.69.68H448.6V274h4.82a.69.69,0,0,1,.69.69Z" transform="translate(-412.8 -263.01)"/><path class="cls-8" d="M452.73,283.67h1.38v1.38h-1.38Z" transform="translate(-412.8 -263.01)"/><path class="cls-8" d="M414.18,283.67h1.37v1.38h-1.37Z" transform="translate(-412.8 -263.01)"/><path class="cls-8" d="M443.09,275.41h-17.9v17.9h17.9Zm-1.37,4.13h-1.38v-1.38H439v-1.38h2.76Zm-1.38,6.88h1.38v1.38h-1.38Zm0-1.37v-1.38h1.38v1.38Zm0-2.76v-1.38h1.38v1.38Zm-8.26,8.26v1.38H430.7v-1.38Zm1.37,0h1.38v1.38h-1.38Zm2.76,0h1.38v1.38h-1.38Zm-6.89-1.37v-9.64H439v9.64Zm5.51-11h-1.38v-1.38h1.38Zm1.38-1.38h1.38v1.38h-1.38Zm-4.13,1.38H430.7v-1.38h1.38Zm-2.76-1.38v1.38H428v1.38h-1.38v-2.76Zm-1.37,11h-1.38v-1.38H428Zm0-2.75h-1.38v-1.38H428Zm0-2.76h-1.38v-1.38H428Zm-1.38,6.89H428v1.37h1.37v1.38h-2.75ZM439,291.93v-1.38h1.38v-1.37h1.38v2.75Z" transform="translate(-412.8 -263.01)"/><path class="cls-8" d="M434.14,280.91a3.45,3.45,0,1,0,3.45,3.45A3.45,3.45,0,0,0,434.14,280.91Zm0,5.51a2.07,2.07,0,1,1,2.07-2.06A2.06,2.06,0,0,1,434.14,286.42Z" transform="translate(-412.8 -263.01)"/><path class="cls-8" d="M422.44,280.91h1.38v1.38h-1.38Z" transform="translate(-412.8 -263.01)"/><path class="cls-8" d="M422.44,278.16h1.38v1.38h-1.38Z" transform="translate(-412.8 -263.01)"/><path class="cls-8" d="M422.44,275.41h1.38v1.37h-1.38Z" transform="translate(-412.8 -263.01)"/><path class="cls-8" d="M444.47,291.93h1.38v1.38h-1.38Z" transform="translate(-412.8 -263.01)"/><path class="cls-8" d="M444.47,286.42h1.38v1.38h-1.38Z" transform="translate(-412.8 -263.01)"/><path class="cls-8" d="M444.47,289.18h1.38v1.37h-1.38Z" transform="translate(-412.8 -263.01)"/><path class="cls-8" d="M451.36,275.41h1.37v1.37h-1.37Z" transform="translate(-412.8 -263.01)"/><path class="cls-8" d="M451.36,291.93h1.37v1.38h-1.37Z" transform="translate(-412.8 -263.01)"/><path class="cls-8" d="M415.55,291.93h1.38v1.38h-1.38Z" transform="translate(-412.8 -263.01)"/><path class="cls-8" d="M415.55,275.41h1.38v1.37h-1.38Z" transform="translate(-412.8 -263.01)"/></svg>