<svg id="Layer_1" data-name="Layer 1" xmlns="http://www.w3.org/2000/svg" viewBox="0 0 21.48 17.07"><defs><style>.cls-1{fill:#101928;}</style></defs><path class="cls-1" d="M464.8,297.9a.83.83,0,0,0-1.06-.1c-1.26.86-7.56,5.16-8.23,5.84a2.52,2.52,0,0,0,3.56,3.56c.67-.68,5-7,5.83-8.23A.83.83,0,0,0,464.8,297.9ZM457.88,306a.84.84,0,0,1-1.19,0,.86.86,0,0,1,0-1.19c.27-.26,2.05-1.53,4.25-3.06C459.41,304,458.14,305.75,457.88,306Z" transform="translate(-446.55 -294.68)"/><path class="cls-1" d="M450.42,309.32l-1,.5a9,9,0,0,1-.57-7.62l1.19.57a.78.78,0,0,0,.36.08.83.83,0,0,0,.76-.47.84.84,0,0,0-.39-1.12l-1.18-.57a9.1,9.1,0,0,1,6.9-4.3v1.27a.84.84,0,0,0,1.67,0v-1.27a9.09,9.09,0,0,1,2.89.76.83.83,0,0,0,1.11-.42.84.84,0,0,0-.42-1.11,10.78,10.78,0,0,0-4.41-.94,10.72,10.72,0,0,0-8.92,16.7.82.82,0,0,0,.69.37,1,1,0,0,0,.37-.08l1.72-.84a.84.84,0,1,0-.73-1.51Z" transform="translate(-446.55 -294.68)"/><path class="cls-1" d="M467.08,301a.84.84,0,0,0-1.53.69,9,9,0,0,1-.36,8.14l-1.08-.51a.84.84,0,1,0-.72,1.51l1.76.84a.76.76,0,0,0,.36.08.84.84,0,0,0,.7-.37,10.71,10.71,0,0,0,.87-10.38Z" transform="translate(-446.55 -294.68)"/></svg>