<svg id="Layer_1" data-name="Layer 1" xmlns="http://www.w3.org/2000/svg" viewBox="0 0 11.62 14.23"><defs><style>.cls-1{fill:#f06448;}</style></defs><path class="cls-1" d="M426.77,293.57l-.31-.95a.88.88,0,0,0-.83-.6H423v-.86a.78.78,0,0,0-.78-.77h-2.42a.78.78,0,0,0-.78.77V292h-2.64a.88.88,0,0,0-.83.6l-.31.95a.68.68,0,0,0,.09.63.72.72,0,0,0,.57.29h.33l.73,8.94a1.28,1.28,0,0,0,1.28,1.18h5.69a1.28,1.28,0,0,0,1.28-1.18l.72-8.94h.19a.72.72,0,0,0,.57-.29A.68.68,0,0,0,426.77,293.57Zm-6.92-2.35h2.3v.8h-2.3Zm4.52,12.14a.46.46,0,0,1-.45.42h-5.69a.45.45,0,0,1-.45-.42l-.72-8.87h8Zm-8.3-9.7.26-.77s0,0,0,0h9.26s0,0,0,0l.26.77Z" transform="translate(-415.19 -290.39)"/><path class="cls-1" d="M423,303.33h0a.43.43,0,0,0,.42-.4l.39-7.51a.42.42,0,1,0-.83-.05l-.39,7.52A.4.4,0,0,0,423,303.33Z" transform="translate(-415.19 -290.39)"/><path class="cls-1" d="M418.54,302.94a.43.43,0,0,0,.42.4h0a.41.41,0,0,0,.39-.43l-.41-7.52a.42.42,0,1,0-.83.05Z" transform="translate(-415.19 -290.39)"/><path class="cls-1" d="M421,303.34a.42.42,0,0,0,.42-.42V295.4A.41.41,0,0,0,421,295a.41.41,0,0,0-.41.41v7.52A.41.41,0,0,0,421,303.34Z" transform="translate(-415.19 -290.39)"/></svg>