<svg id="Layer_1" data-name="Layer 1" xmlns="http://www.w3.org/2000/svg" viewBox="0 0 49.8 49.8"><defs><style>.cls-1{fill:#aab1bd;}.cls-2{fill:#fad670;}.cls-3{fill:#6dc6ab;}.cls-4{fill:#f38170;}.cls-5{fill:#cdd1d9;}.cls-6{fill:#e6e8eb;}.cls-7{fill:#010101;}</style></defs><path class="cls-1" d="M445.1,289.47v9.64a1.61,1.61,0,0,1-1.61,1.6h-45a1.61,1.61,0,0,1-1.61-1.6v-9.64h.81a2.42,2.42,0,0,0,2.41-2.41,2.4,2.4,0,0,0-2.41-2.41h-.81V275a1.62,1.62,0,0,1,1.61-1.61h45A1.62,1.62,0,0,1,445.1,275v9.64h-.81a2.41,2.41,0,0,0,0,4.82Z" transform="translate(-396.1 -272.6)"/><path class="cls-2" d="M424.21,287.86h14.46v9.64H424.21Z" transform="translate(-396.1 -272.6)"/><path class="cls-3" d="M403.33,283h12.85v6.43H403.33Z" transform="translate(-396.1 -272.6)"/><path class="cls-2" d="M400.12,276.62h3.21v3.21h-3.21Z" transform="translate(-396.1 -272.6)"/><circle class="cls-4" cx="6.43" cy="22.49" r="2.41"/><circle class="cls-4" cx="43.38" cy="6.43" r="2.41"/><path class="cls-5" d="M414.57,300.71l-1.6,6.43h-3.22l-1.6-6.43Z" transform="translate(-396.1 -272.6)"/><path class="cls-5" d="M443.49,300.71l-1.61,6.43h-3.21l-1.6-6.43Z" transform="translate(-396.1 -272.6)"/><path class="cls-5" d="M424.21,300.71l-1.6,6.43h-3.22l-1.6-6.43Z" transform="translate(-396.1 -272.6)"/><path class="cls-5" d="M433.85,300.71l-1.6,6.43H429l-1.6-6.43Z" transform="translate(-396.1 -272.6)"/><path class="cls-5" d="M404.93,300.71l-1.6,6.43h-3.21l-1.61-6.43Z" transform="translate(-396.1 -272.6)"/><path class="cls-6" d="M400.12,307.14h3.21V321.6h-3.21Z" transform="translate(-396.1 -272.6)"/><path class="cls-6" d="M409.75,307.14H413V321.6h-3.22Z" transform="translate(-396.1 -272.6)"/><path class="cls-6" d="M419.39,307.14h3.22V321.6h-3.22Z" transform="translate(-396.1 -272.6)"/><path class="cls-6" d="M429,307.14h3.22V321.6H429Z" transform="translate(-396.1 -272.6)"/><path class="cls-6" d="M438.67,307.14h3.21V321.6h-3.21Z" transform="translate(-396.1 -272.6)"/><path class="cls-7" d="M404.13,275.81h-4.82v4.82h4.82Zm-1.6,3.22h-1.61v-1.61h1.61Z" transform="translate(-396.1 -272.6)"/><path class="cls-7" d="M405.74,275.81h1.6v1.61h-1.6Z" transform="translate(-396.1 -272.6)"/><path class="cls-7" d="M409,275.81H421.8v1.61H409Z" transform="translate(-396.1 -272.6)"/><path class="cls-7" d="M405.74,279H421.8v1.6H405.74Z" transform="translate(-396.1 -272.6)"/><path class="cls-7" d="M439.47,275.81a3.22,3.22,0,1,0,3.22,3.22A3.22,3.22,0,0,0,439.47,275.81Zm0,4.82a1.61,1.61,0,1,1,1.61-1.6A1.6,1.6,0,0,1,439.47,280.63Z" transform="translate(-396.1 -272.6)"/><path class="cls-7" d="M402.53,291.88a3.21,3.21,0,1,0,3.21,3.21A3.22,3.22,0,0,0,402.53,291.88Zm0,4.82a1.61,1.61,0,1,1,1.6-1.61A1.61,1.61,0,0,1,402.53,296.7Z" transform="translate(-396.1 -272.6)"/><path class="cls-7" d="M423.41,298.3h16.06V287.06H423.41Zm1.61-9.64h12.85v8H425Z" transform="translate(-396.1 -272.6)"/><path class="cls-7" d="M444.29,285.45h1.61V275a2.41,2.41,0,0,0-2.41-2.41h-45A2.41,2.41,0,0,0,396.1,275v10.44h1.61a1.61,1.61,0,0,1,0,3.21H396.1v10.45a2.41,2.41,0,0,0,1.76,2.31l1.45,5.82V322.4h4.82V307.24l1.43-5.72h2l1.43,5.72V322.4h4.82V307.24l1.43-5.72h2l1.43,5.72V322.4h4.82V307.24l1.43-5.72h2l1.43,5.72V322.4h4.82V307.24l1.43-5.72h2l1.43,5.72V322.4h4.82V307.24l1.45-5.82a2.41,2.41,0,0,0,1.76-2.31V288.66h-1.61a1.61,1.61,0,0,1,0-3.21Zm-43.37,35.34V307.94h1.61v12.85Zm1.78-14.45h-2l-1.2-4.82h4.37Zm7.86,14.45V307.94h1.6v12.85Zm1.78-14.45h-2l-1.2-4.82h4.36Zm7.86,14.45V307.94h1.6v12.85ZM422,306.34h-2l-1.2-4.82h4.36Zm7.86,14.45V307.94h1.6v12.85Zm1.78-14.45h-2l-1.21-4.82h4.37Zm7.68,0-1.21-4.82h4.37l-1.2,4.82Zm.17,14.45V307.94h1.61v12.85Zm4.82-30.52v8.84a.8.8,0,0,1-.8.8h-45a.8.8,0,0,1-.8-.8v-8.84a3.22,3.22,0,0,0,0-6.43V275a.8.8,0,0,1,.8-.8h45a.8.8,0,0,1,.8.8v8.83a3.22,3.22,0,0,0,0,6.43Z" transform="translate(-396.1 -272.6)"/><path class="cls-7" d="M426.62,290.27h9.64v1.61h-9.64Z" transform="translate(-396.1 -272.6)"/><path class="cls-7" d="M426.62,293.48h9.64v1.61h-9.64Z" transform="translate(-396.1 -272.6)"/><path class="cls-7" d="M402.53,290.27H417v-8H402.53Zm1.6-6.43h11.25v4.82H404.13Z" transform="translate(-396.1 -272.6)"/><path class="cls-7" d="M409,285.45h1.61v1.61H409Z" transform="translate(-396.1 -272.6)"/><path class="cls-7" d="M405.74,285.45h1.6v1.61h-1.6Z" transform="translate(-396.1 -272.6)"/><path class="cls-7" d="M412.16,285.45h1.61v1.61h-1.61Z" transform="translate(-396.1 -272.6)"/></svg>