<svg id="Layer_1" data-name="Layer 1" xmlns="http://www.w3.org/2000/svg" viewBox="0 0 47.95 42.69"><defs><style>.cls-1{fill:#3d576a;}.cls-2{fill:#f3705a;}.cls-3{fill:#e5e8ee;}.cls-4{fill:#e66455;}</style></defs><path class="cls-1" d="M439,281.87l2.18,4.85h-1.55v35h36.76V320.2l4.84,2.18-4.84,2.18V323h-38V286.72h-1.55Z" transform="translate(-433.31 -281.87)"/><path class="cls-1" d="M433.31,321.18h2.81v1.29h-2.81Z" transform="translate(-433.31 -281.87)"/><path class="cls-1" d="M433.31,316.65h2.81v1.29h-2.81Z" transform="translate(-433.31 -281.87)"/><path class="cls-1" d="M433.31,312.13h2.81v1.29h-2.81Z" transform="translate(-433.31 -281.87)"/><path class="cls-1" d="M433.31,307.61h2.81v1.29h-2.81Z" transform="translate(-433.31 -281.87)"/><path class="cls-1" d="M433.31,303.08h2.81v1.29h-2.81Z" transform="translate(-433.31 -281.87)"/><path class="cls-1" d="M433.31,298.56h2.81v1.29h-2.81Z" transform="translate(-433.31 -281.87)"/><path class="cls-1" d="M433.31,294h2.81v1.28h-2.81Z" transform="translate(-433.31 -281.87)"/><path class="cls-1" d="M433.31,289.51h2.81v1.29h-2.81Z" transform="translate(-433.31 -281.87)"/><path class="cls-2" d="M439.66,314.44l8.25-5.54L459.06,310l15.87-12v23.78H439.66Z" transform="translate(-433.31 -281.87)"/><path class="cls-1" d="M442.15,305.66l-.83-.94,7.53-6.7,9.35,3.55L470,292.72l.75,1L458.4,303l-9.28-3.52Z" transform="translate(-433.31 -281.87)"/><path class="cls-3" d="M460.19,302a1.71,1.71,0,1,1-1.71-1.71A1.71,1.71,0,0,1,460.19,302Z" transform="translate(-433.31 -281.87)"/><path class="cls-4" d="M458.48,304.36a2.34,2.34,0,1,1,2.34-2.34A2.34,2.34,0,0,1,458.48,304.36Zm0-3.42a1.08,1.08,0,1,0,1.08,1.08A1.08,1.08,0,0,0,458.48,300.94Z" transform="translate(-433.31 -281.87)"/><path class="cls-3" d="M471.72,293.37a1.71,1.71,0,1,1-1.7-1.71A1.71,1.71,0,0,1,471.72,293.37Z" transform="translate(-433.31 -281.87)"/><path class="cls-4" d="M470,295.68a2.34,2.34,0,1,1,2.35-2.32h0A2.35,2.35,0,0,1,470,295.68Zm0-3.41a1.07,1.07,0,0,0-1.06,1.09,1.08,1.08,0,0,0,1.09,1.07,1.1,1.1,0,0,0,1.07-1.06,1.08,1.08,0,0,0-1.08-1.08h0v0Z" transform="translate(-433.31 -281.87)"/><path class="cls-3" d="M450.85,298.82a1.71,1.71,0,1,1-1.73-1.69h0A1.72,1.72,0,0,1,450.85,298.82Z" transform="translate(-433.31 -281.87)"/><path class="cls-4" d="M449.12,301.17a2.34,2.34,0,1,1,2.35-2.35,2.33,2.33,0,0,1-2.35,2.35Zm0-3.41a1.08,1.08,0,1,0,1.1,1.07h0A1.08,1.08,0,0,0,449.12,297.76Z" transform="translate(-433.31 -281.87)"/><path class="cls-3" d="M444.49,304.63a1.71,1.71,0,1,1-1.71-1.71A1.7,1.7,0,0,1,444.49,304.63Z" transform="translate(-433.31 -281.87)"/><path class="cls-4" d="M442.78,307a2.34,2.34,0,1,1,2.34-2.33A2.33,2.33,0,0,1,442.78,307Zm0-3.41a1.08,1.08,0,1,0,1.08,1.08,1.08,1.08,0,0,0-1.08-1.08h0Z" transform="translate(-433.31 -281.87)"/></svg>