<svg id="Layer_1" data-name="Layer 1" xmlns="http://www.w3.org/2000/svg" viewBox="0 0 23.11 42.69"><defs><style>.cls-1{fill:#101928;}.cls-2{fill:#f89e1f;}.cls-3{fill:#f8bf2b;}.cls-4{fill:#222837;}</style></defs><path class="cls-1" d="M468.84,321.44c0,1.72-5.17,3.12-11.55,3.12s-11.56-1.4-11.56-3.12c0-.8,1.12-1.53,3-2.09-.66.35-1,.75-1,1.17,0,1.43,4.3,2.6,9.62,2.6s9.62-1.17,9.62-2.6c0-.42-.37-.82-1-1.17C467.72,319.91,468.84,320.64,468.84,321.44Z" transform="translate(-445.73 -281.87)"/><path class="cls-1" d="M463.05,320.78c0,.86-2.58,1.56-5.76,1.56s-5.77-.7-5.77-1.56c0-.4.56-.76,1.48-1-.33.18-.51.38-.51.59,0,.71,2.14,1.29,4.8,1.29s4.8-.58,4.8-1.29c0-.21-.19-.41-.51-.59C462.49,320,463.05,320.38,463.05,320.78Z" transform="translate(-445.73 -281.87)"/><ellipse class="cls-1" cx="11.56" cy="38.33" rx="2.2" ry="0.58"/><circle class="cls-2" cx="11.56" cy="11.46" r="6.43"/><path class="cls-3" d="M461.34,288.35a13.71,13.71,0,0,1-8.64,9.48,6.42,6.42,0,0,1,8.64-9.48Z" transform="translate(-445.73 -281.87)"/><path class="cls-1" d="M457.29,281.87a11.55,11.55,0,0,0-11.56,11.56c0,6.38,5,14.91,11.56,24,6.57-9.11,11.55-17.64,11.55-24A11.55,11.55,0,0,0,457.29,281.87Zm0,19.58a8.12,8.12,0,1,1,8.11-8.12A8.13,8.13,0,0,1,457.29,301.45Z" transform="translate(-445.73 -281.87)"/><path class="cls-4" d="M457.29,281.87a11.55,11.55,0,0,0-11.56,11.56c0,3.64,1.62,8,4.24,12.73a22.46,22.46,0,0,0,18.87-12.64v-.09A11.55,11.55,0,0,0,457.29,281.87Zm0,19.58a8.12,8.12,0,1,1,8.11-8.12A8.13,8.13,0,0,1,457.29,301.45Z" transform="translate(-445.73 -281.87)"/></svg>