<svg id="Layer_1" data-name="Layer 1" xmlns="http://www.w3.org/2000/svg" viewBox="0 0 12.81 17.08"><defs><style>.cls-1{fill:#101928;}</style></defs><path class="cls-1" d="M373.3,300.09H385v1.07H373.3Z" transform="translate(-372.77 -292.27)"/><path class="cls-1" d="M373.3,296.18H385v1.07H373.3Z" transform="translate(-372.77 -292.27)"/><path class="cls-1" d="M373.3,304.36H385v1.07H373.3Z" transform="translate(-372.77 -292.27)"/><path class="cls-1" d="M384.33,309.34H374a1.25,1.25,0,0,1-1.24-1.24V296.71a.49.49,0,0,1,0-.12l.76-3.36a1.23,1.23,0,0,1,1.22-1h8.82a1.23,1.23,0,0,1,1.22,1l.76,3.36a.49.49,0,0,1,0,.12V308.1a1.25,1.25,0,0,1-1.24,1.24Zm-10.5-12.57V308.1a.18.18,0,0,0,.18.17h10.32a.18.18,0,0,0,.18-.17V296.77l-.75-3.3a.18.18,0,0,0-.18-.14h-8.82a.18.18,0,0,0-.18.14Z" transform="translate(-372.77 -292.27)"/><path class="cls-1" d="M381.13,298h1.78V299h-1.78Z" transform="translate(-372.77 -292.27)"/><path class="cls-1" d="M374.92,298H376v1.42h-1.07Z" transform="translate(-372.77 -292.27)"/><path class="cls-1" d="M377.06,298h1.06v1.42h-1.06Z" transform="translate(-372.77 -292.27)"/><path class="cls-1" d="M381.13,302.23h1.78v1.06h-1.78Z" transform="translate(-372.77 -292.27)"/><path class="cls-1" d="M374.92,302.23H376v1.42h-1.07Z" transform="translate(-372.77 -292.27)"/><path class="cls-1" d="M377.06,302.23h1.06v1.42h-1.06Z" transform="translate(-372.77 -292.27)"/><path class="cls-1" d="M381.13,306.14h1.78v1.07h-1.78Z" transform="translate(-372.77 -292.27)"/><path class="cls-1" d="M374.92,306.14H376v1.42h-1.07Z" transform="translate(-372.77 -292.27)"/><path class="cls-1" d="M377.06,306.14h1.06v1.42h-1.06Z" transform="translate(-372.77 -292.27)"/></svg>