<svg id="Layer_1" data-name="Layer 1" xmlns="http://www.w3.org/2000/svg" viewBox="0 0 16.49 23.48"><defs><style>.cls-1{fill:#687c86;}</style></defs><path class="cls-1" d="M474.38,262.06l-1.17-1.17a1.42,1.42,0,0,1-.43-.9s0-.29-.87-7.21a1.46,1.46,0,0,0,0-.22,4.17,4.17,0,0,1-1,.12h-.23a.83.83,0,0,1,0,.22l.87,7.21a2.68,2.68,0,0,0,.79,1.66l1.17,1.17a1.49,1.49,0,0,1-1.06,2.54h-11a1.49,1.49,0,0,1-1.05-2.54l1.17-1.17a2.79,2.79,0,0,0,.79-1.66l.86-7.21a3.83,3.83,0,0,1,3.68-3.45,4.14,4.14,0,0,1-.09-.87c0-.13,0-.25,0-.37a4.89,4.89,0,0,0-3.23,1.33,5,5,0,0,0-1.61,3.24c-.84,6.92-.87,7.2-.87,7.21a1.47,1.47,0,0,1-.43.9l-1.17,1.17a2.73,2.73,0,0,0,1.93,4.66h2.3a3.31,3.31,0,0,0,3.22,2.7,3.17,3.17,0,0,0,2.1-.79,3.3,3.3,0,0,0,1.11-1.91h2.3a2.73,2.73,0,0,0,1.94-4.66Zm-7.45,6.11a2,2,0,0,1-1.94-1.45h3.88A2,2,0,0,1,466.93,268.17Z" transform="translate(-458.68 -245.94)"/><circle class="cls-1" cx="12.19" cy="2.64" r="2.64"/></svg>