<svg id="Layer_1" data-name="Layer 1" xmlns="http://www.w3.org/2000/svg" viewBox="0 0 42.64 42.69"><defs><style>.cls-1{fill:#fabe17;}.cls-2{fill:#478ecc;}.cls-3{fill:#4eae4d;}.cls-4{fill:#010101;}</style></defs><path class="cls-1" d="M421.89,276a.89.89,0,0,0-.89.89v19.54a.89.89,0,0,0,.89.89h19.54a.89.89,0,0,0,.89-.89A20.45,20.45,0,0,0,421.89,276Z" transform="translate(-399.68 -276.02)"/><path class="cls-2" d="M431.47,313.67l-12.25-15.74V278.69a.88.88,0,0,0-.89-.89c-10.28,0-18.65,9.16-18.65,20.43a20.45,20.45,0,0,0,20.43,20.43,15.21,15.21,0,0,0,11.23-3.75A.9.9,0,0,0,431.47,313.67Z" transform="translate(-399.68 -276.02)"/><path class="cls-3" d="M441.43,299.12H423.67a.89.89,0,0,0-.7,1.44l11.55,14.3a.93.93,0,0,0,.63.33h.06a.85.85,0,0,0,.61-.24,20.5,20.5,0,0,0,6.5-14.94A.89.89,0,0,0,441.43,299.12Z" transform="translate(-399.68 -276.02)"/><path class="cls-4" d="M441.43,297.34H421.89a.89.89,0,0,1-.89-.89V276.91a.89.89,0,0,1,.89-.89,20.45,20.45,0,0,1,20.43,20.43A.89.89,0,0,1,441.43,297.34Zm-18.65-1.78h17.74a18.67,18.67,0,0,0-17.74-17.74Z" transform="translate(-399.68 -276.02)"/><path class="cls-4" d="M420.11,318.66a20.45,20.45,0,0,1-20.43-20.43c0-11.27,8.37-20.43,18.65-20.43a.88.88,0,0,1,.89.89v19.23l12.25,15.75a.88.88,0,0,1-.13,1.23A15.18,15.18,0,0,1,420.11,318.66Zm-2.66-39.06c-8.9.51-16,8.68-16,18.63a18.68,18.68,0,0,0,18.65,18.66,13.49,13.49,0,0,0,9.42-2.82l-11.91-15.3a.85.85,0,0,1-.17-.54V279.6Z" transform="translate(-399.68 -276.02)"/><path class="cls-4" d="M435.21,315.19h-.06a.89.89,0,0,1-.63-.33L423,300.57a.89.89,0,0,1,.13-1.25.9.9,0,0,1,.57-.2h17.76a.89.89,0,0,1,.89.89,20.5,20.5,0,0,1-6.5,14.94A.85.85,0,0,1,435.21,315.19Zm-9.69-14.3L435.3,313a18.77,18.77,0,0,0,5.22-12.09Z" transform="translate(-399.68 -276.02)"/></svg>