<svg id="Layer_1" data-name="Layer 1" xmlns="http://www.w3.org/2000/svg" viewBox="0 0 73.52 49.8"><defs><style>.cls-1{fill:#6dc6ab;}.cls-2{fill:#3bba98;}.cls-3{fill:#fbe7a5;}.cls-4{fill:#f38170;}.cls-5{fill:#fad670;}.cls-6{fill:#010101;}</style></defs><path class="cls-1" d="M451.83,276.16v7.11h2.37a2.38,2.38,0,0,1,2.37,2.37v23.72a2.38,2.38,0,0,1-2.37,2.37h-2.37v7.11a2.38,2.38,0,0,1-2.37,2.38H413.89a2.39,2.39,0,0,1-2.38-2.38v-2.37a4.74,4.74,0,0,0-9.48,0v2.37a2.38,2.38,0,0,1-2.37,2.38H387.8a2.38,2.38,0,0,1-2.37-2.38V276.16a2.38,2.38,0,0,1,2.37-2.38h61.66A2.38,2.38,0,0,1,451.83,276.16Z" transform="translate(-384.24 -272.6)"/><path class="cls-2" d="M404.4,279.71V305.8a1.19,1.19,0,0,1-1.19,1.19h-2.37a1.19,1.19,0,0,1-1.18-1.19V279.71a1.18,1.18,0,0,1,1.18-1.18h2.37A1.18,1.18,0,0,1,404.4,279.71Z" transform="translate(-384.24 -272.6)"/><path class="cls-2" d="M394.91,279.71V305.8a1.19,1.19,0,0,1-1.18,1.19h-2.37a1.19,1.19,0,0,1-1.19-1.19V279.71a1.18,1.18,0,0,1,1.19-1.18h2.37A1.18,1.18,0,0,1,394.91,279.71Z" transform="translate(-384.24 -272.6)"/><path class="cls-3" d="M432.86,297.5v2.37h-19V285.64h19V297.5Z" transform="translate(-384.24 -272.6)"/><circle class="cls-4" cx="62.85" cy="17.79" r="2.37"/><circle class="cls-4" cx="62.85" cy="29.64" r="2.37"/><path class="cls-5" d="M390.17,311.73h7.11v4.74h-7.11Z" transform="translate(-384.24 -272.6)"/><path class="cls-5" d="M416.26,311.73h7.11v4.74h-7.11Z" transform="translate(-384.24 -272.6)"/><path class="cls-5" d="M428.11,311.73h7.12v4.74h-7.12Z" transform="translate(-384.24 -272.6)"/><path class="cls-5" d="M440,311.73h7.12v4.74H440Z" transform="translate(-384.24 -272.6)"/><path class="cls-6" d="M454.2,282.09H453v-5.93a3.56,3.56,0,0,0-3.56-3.56H387.8a3.56,3.56,0,0,0-3.56,3.56v42.68a3.56,3.56,0,0,0,3.56,3.56h11.86a3.55,3.55,0,0,0,3.55-3.56v-2.37a3.56,3.56,0,0,1,7.12,0v2.37a3.56,3.56,0,0,0,3.56,3.56h35.57a3.56,3.56,0,0,0,3.56-3.56v-5.93h1.18a3.56,3.56,0,0,0,3.56-3.55V285.64A3.56,3.56,0,0,0,454.2,282.09Zm1.19,27.27a1.18,1.18,0,0,1-1.19,1.18h-3.56v8.3a1.18,1.18,0,0,1-1.18,1.19H413.89a1.19,1.19,0,0,1-1.19-1.19v-2.37a5.93,5.93,0,0,0-11.86,0v2.37a1.18,1.18,0,0,1-1.18,1.19H387.8a1.19,1.19,0,0,1-1.19-1.19V276.16A1.19,1.19,0,0,1,387.8,275h61.66a1.18,1.18,0,0,1,1.18,1.19v8.3h3.56a1.18,1.18,0,0,1,1.19,1.18Z" transform="translate(-384.24 -272.6)"/><path class="cls-6" d="M389,317.66h9.49v-7.12H389Zm2.38-4.75h4.74v2.38h-4.74Z" transform="translate(-384.24 -272.6)"/><path class="cls-6" d="M415.07,317.66h9.49v-7.12h-9.49Zm2.37-4.75h4.75v2.38h-4.75Z" transform="translate(-384.24 -272.6)"/><path class="cls-6" d="M426.93,317.66h9.48v-7.12h-9.48Zm2.37-4.75H434v2.38H429.3Z" transform="translate(-384.24 -272.6)"/><path class="cls-6" d="M438.79,317.66h9.48v-7.12h-9.48Zm2.37-4.75h4.74v2.38h-4.74Z" transform="translate(-384.24 -272.6)"/><path class="cls-6" d="M426.93,305.8v-4.74h2.37v4.74h2.37v-4.74H434v-2.37h4.75v-2.38H434v-2.37h4.75v-2.37H434V289.2h4.75v-2.37H434v-2.37h-2.37v-4.75H429.3v4.75h-2.37v-4.75h-2.37v4.75h-2.37v-4.75h-2.38v4.75h-2.37v-4.75h-2.37v4.75H412.7v2.37H408v2.37h4.74v2.37H408v2.37h4.74v2.37H408v2.38h4.74v2.37h2.37v4.74h2.37v-4.74h2.37v4.74h2.38v-4.74h2.37v4.74Zm-11.86-19h16.6v11.86h-16.6Z" transform="translate(-384.24 -272.6)"/><path class="cls-6" d="M417.44,289.2h2.37v2.37h-2.37Z" transform="translate(-384.24 -272.6)"/><path class="cls-6" d="M422.19,289.2h7.11v2.37h-7.11Z" transform="translate(-384.24 -272.6)"/><path class="cls-6" d="M417.44,293.94H429.3v2.37H417.44Z" transform="translate(-384.24 -272.6)"/><path class="cls-6" d="M391.36,308.17h2.37a2.37,2.37,0,0,0,2.37-2.37V279.71a2.38,2.38,0,0,0-2.37-2.37h-2.37a2.38,2.38,0,0,0-2.38,2.37V305.8A2.38,2.38,0,0,0,391.36,308.17Zm0-28.46h2.37V305.8h-2.37Z" transform="translate(-384.24 -272.6)"/><path class="cls-6" d="M403.21,277.34h-2.37a2.38,2.38,0,0,0-2.37,2.37V305.8a2.37,2.37,0,0,0,2.37,2.37h2.37a2.38,2.38,0,0,0,2.38-2.37V279.71A2.38,2.38,0,0,0,403.21,277.34Zm-2.37,28.46V279.71h2.37V305.8Z" transform="translate(-384.24 -272.6)"/><path class="cls-6" d="M447.09,286.83a3.56,3.56,0,1,0,3.55,3.56A3.56,3.56,0,0,0,447.09,286.83Zm0,4.74a1.19,1.19,0,1,1,1.18-1.18A1.18,1.18,0,0,1,447.09,291.57Z" transform="translate(-384.24 -272.6)"/><path class="cls-6" d="M447.09,298.69a3.56,3.56,0,1,0,3.55,3.55A3.56,3.56,0,0,0,447.09,298.69Zm0,4.74a1.19,1.19,0,1,1,1.18-1.19A1.19,1.19,0,0,1,447.09,303.43Z" transform="translate(-384.24 -272.6)"/><path class="cls-6" d="M436.41,277.34h2.38v2.37h-2.38Z" transform="translate(-384.24 -272.6)"/><path class="cls-6" d="M445.9,277.34h2.37v2.37H445.9Z" transform="translate(-384.24 -272.6)"/><path class="cls-6" d="M441.16,277.34h2.37v2.37h-2.37Z" transform="translate(-384.24 -272.6)"/></svg>