<svg id="Layer_1" data-name="Layer 1" xmlns="http://www.w3.org/2000/svg" viewBox="0 0 17.08 17.07"><defs><style>.cls-1{fill:#101928;}</style></defs><g id="Semiconductor-transistor-chip-electronics-4"><path class="cls-1" d="M384.86,298.88a.86.86,0,1,0,0-1.71H384v-.56h.85a.86.86,0,1,0,0-1.71H384v-.57a.28.28,0,0,0-.08-.2l-.57-.57a.4.4,0,0,0-.21-.09h-.56v-.85a.86.86,0,0,0-.86-.85.85.85,0,0,0-.85.85v.85h-.57v-.85a.86.86,0,0,0-1.71,0v.85H378v-.85a.85.85,0,0,0-.85-.85.86.86,0,0,0-.86.85v.85h-.56v-.85a.86.86,0,0,0-.86-.85.85.85,0,0,0-.85.85v.85h-.57v-.85a.86.86,0,0,0-1.71,0v.85h-.57a.37.37,0,0,0-.2.09l-.57.57a.28.28,0,0,0-.08.2v.57h-.86a.85.85,0,0,0-.85.85.86.86,0,0,0,.85.86h.86v.56h-.86a.86.86,0,0,0-.85.86.85.85,0,0,0,.85.85h.86v.57h-.86a.86.86,0,0,0,0,1.71h.86v.57h-.86a.85.85,0,0,0-.85.85.86.86,0,0,0,.85.86h.86V304h-.86a.86.86,0,0,0-.85.86.85.85,0,0,0,.85.85h.86v.57a.28.28,0,0,0,.08.2l.57.57a.3.3,0,0,0,.2.08h.57V308a.86.86,0,0,0,1.71,0v-.86h.57V308a.85.85,0,0,0,.85.85.86.86,0,0,0,.86-.85v-.86h.56V308a.86.86,0,0,0,.86.85A.85.85,0,0,0,378,308v-.86h.57V308a.86.86,0,0,0,1.71,0v-.86h.57V308a.85.85,0,0,0,.85.85.86.86,0,0,0,.86-.85v-.86h.56a.32.32,0,0,0,.21-.08l.57-.57a.28.28,0,0,0,.08-.2v-.57h.85a.86.86,0,1,0,0-1.71H384v-.56h.85a.86.86,0,1,0,0-1.71H384v-.57h.85a.86.86,0,1,0,0-1.71H384v-.57Zm-.85-3.41h.85a.28.28,0,0,1,.29.28.29.29,0,0,1-.29.29H384Zm0,2.27h.85a.29.29,0,0,1,.29.29.28.28,0,0,1-.29.28H384Zm-13.66,7.4h-.86a.28.28,0,0,1-.28-.28.29.29,0,0,1,.28-.29h.86Zm0-2.27h-.86a.29.29,0,0,1-.28-.29.28.28,0,0,1,.28-.28h.86Zm0-2.28h-.86a.29.29,0,0,1,0-.57h.86Zm0-2.28h-.86a.28.28,0,0,1-.28-.28.29.29,0,0,1,.28-.29h.86Zm0-2.27h-.86a.29.29,0,0,1-.28-.29.28.28,0,0,1,.28-.28h.86Zm11.1-3.42a.27.27,0,0,1,.28-.28.28.28,0,0,1,.29.28v.85h-.57Zm-2.28,0a.29.29,0,0,1,.57,0v.85h-.57Zm-2.28,0a.28.28,0,0,1,.29-.28.27.27,0,0,1,.28.28v.85h-.57Zm-2.27,0a.27.27,0,0,1,.28-.28.28.28,0,0,1,.29.28v.85h-.57Zm-2.28,0a.29.29,0,0,1,.57,0v.85h-.57Zm.57,15.37a.29.29,0,0,1-.57,0v-.86h.57Zm2.28,0a.28.28,0,0,1-.29.28.27.27,0,0,1-.28-.28v-.86h.57Zm2.27,0a.27.27,0,0,1-.28.28.28.28,0,0,1-.29-.28v-.86h.57Zm2.28,0a.29.29,0,0,1-.57,0v-.86h.57Zm2.28,0a.28.28,0,0,1-.29.28.27.27,0,0,1-.28-.28v-.86H382Zm1.42-1.83-.4.41H371.32l-.4-.41V294.45l.4-.41H383l.4.41Zm1.42-1.59a.29.29,0,0,1,.29.29.28.28,0,0,1-.29.28H384v-.57Zm0-2.27a.28.28,0,0,1,.29.28.29.29,0,0,1-.29.29H384v-.57Zm0-2.28a.29.29,0,1,1,0,.57H384V300Z" transform="translate(-368.64 -291.77)"/><path class="cls-1" d="M382.59,294.61H371.77a.28.28,0,0,0-.28.29v10.81a.28.28,0,0,0,.28.29h10.82a.29.29,0,0,0,.28-.29V294.9A.29.29,0,0,0,382.59,294.61Zm-.29,10.82H372.06V295.18H382.3Z" transform="translate(-368.64 -291.77)"/><circle class="cls-1" cx="4.55" cy="4.55" r="0.57"/></g></svg>