<svg id="Layer_1" data-name="Layer 1" xmlns="http://www.w3.org/2000/svg" viewBox="0 0 40.91 42.69"><defs><style>.cls-1{fill:#cfd8db;}.cls-2{fill:#478ecc;}.cls-3{fill:#010101;}</style></defs><path class="cls-1" d="M437.68,306.77a.89.89,0,0,0,.89-.89v-3.56a.89.89,0,0,0-1.78,0v3.56A.89.89,0,0,0,437.68,306.77Z" transform="translate(-436.79 -281.87)"/><path class="cls-1" d="M439.45,310.33h-.88v-.89a.89.89,0,0,0-1.78,0v1.78a.89.89,0,0,0,.89.89h1.77a.89.89,0,1,0,0-1.78Z" transform="translate(-436.79 -281.87)"/><path class="cls-1" d="M439.45,281.87h-1.77a.89.89,0,0,0-.89.89v1.78a.89.89,0,0,0,1.78,0v-.89h.88a.89.89,0,1,0,0-1.78Z" transform="translate(-436.79 -281.87)"/><path class="cls-1" d="M437.68,292.54a.89.89,0,0,0,.89-.89V288.1a.89.89,0,0,0-1.78,0v3.55A.89.89,0,0,0,437.68,292.54Z" transform="translate(-436.79 -281.87)"/><path class="cls-1" d="M446.57,310.33H443a.89.89,0,1,0,0,1.78h3.56a.89.89,0,1,0,0-1.78Z" transform="translate(-436.79 -281.87)"/><path class="cls-1" d="M437.68,299.66a.89.89,0,0,0,.89-.89v-3.56a.89.89,0,0,0-1.78,0v3.56A.89.89,0,0,0,437.68,299.66Z" transform="translate(-436.79 -281.87)"/><path class="cls-1" d="M466.13,287.21a.88.88,0,0,0-.88.89v3.55a.89.89,0,1,0,1.77,0V288.1A.88.88,0,0,0,466.13,287.21Z" transform="translate(-436.79 -281.87)"/><path class="cls-1" d="M466.13,294.32a.88.88,0,0,0-.88.89v3.56a.89.89,0,1,0,1.77,0v-3.56A.89.89,0,0,0,466.13,294.32Z" transform="translate(-436.79 -281.87)"/><path class="cls-1" d="M460.8,281.87h-3.56a.89.89,0,0,0,0,1.78h3.56a.89.89,0,0,0,0-1.78Z" transform="translate(-436.79 -281.87)"/><path class="cls-1" d="M466.13,281.87h-1.77a.89.89,0,0,0,0,1.78h.89v.89a.89.89,0,1,0,1.77,0v-1.78A.89.89,0,0,0,466.13,281.87Z" transform="translate(-436.79 -281.87)"/><path class="cls-1" d="M453.68,310.33h-3.55a.89.89,0,1,0,0,1.78h3.55a.89.89,0,1,0,0-1.78Z" transform="translate(-436.79 -281.87)"/><path class="cls-1" d="M453.68,281.87h-3.55a.89.89,0,0,0,0,1.78h3.55a.89.89,0,1,0,0-1.78Z" transform="translate(-436.79 -281.87)"/><path class="cls-1" d="M446.57,281.87H443a.89.89,0,0,0,0,1.78h3.56a.89.89,0,0,0,0-1.78Z" transform="translate(-436.79 -281.87)"/><path class="cls-2" d="M477.44,312.37l-23.13-23.13a.89.89,0,0,0-1.25,0,.9.9,0,0,0-.27.63v33.8a.9.9,0,0,0,.89.89.92.92,0,0,0,.66-.29l9.52-10.38h12.95a.89.89,0,0,0,.89-.89A.9.9,0,0,0,477.44,312.37Z" transform="translate(-436.79 -281.87)"/><path class="cls-3" d="M453.68,324.56a.89.89,0,0,1-.89-.89v-33.8a.89.89,0,0,1,.89-.89.9.9,0,0,1,.63.26l23.13,23.13a.89.89,0,0,1,0,1.25.9.9,0,0,1-.63.27H463.86l-9.52,10.38A.92.92,0,0,1,453.68,324.56Zm.89-32.54v29.36l8.24-9a.88.88,0,0,1,.66-.29h11.19Z" transform="translate(-436.79 -281.87)"/><path class="cls-3" d="M453.68,312.11h-3.55a.89.89,0,1,1,0-1.78h3.55a.89.89,0,1,1,0,1.78Zm-7.11,0H443a.89.89,0,1,1,0-1.78h3.56a.89.89,0,1,1,0,1.78Zm-7.12,0h-1.77a.89.89,0,0,1-.89-.89v-1.78a.89.89,0,0,1,1.78,0v.89h.89a.89.89,0,0,1,0,1.78Zm-1.77-5.34a.89.89,0,0,1-.89-.89v-3.56a.89.89,0,0,1,1.78,0v3.56A.89.89,0,0,1,437.68,306.77Zm28.45-7.11a.88.88,0,0,1-.88-.89v-3.56a.89.89,0,1,1,1.77,0v3.56A.89.89,0,0,1,466.13,299.66Zm-28.45,0a.89.89,0,0,1-.89-.89v-3.56a.89.89,0,0,1,1.78,0v3.56A.89.89,0,0,1,437.68,299.66Zm28.45-7.12a.88.88,0,0,1-.88-.89V288.1a.89.89,0,1,1,1.77,0v3.55A.89.89,0,0,1,466.13,292.54Zm-28.45,0a.89.89,0,0,1-.89-.89V288.1a.89.89,0,0,1,1.78,0v3.55A.89.89,0,0,1,437.68,292.54Zm28.45-7.11a.88.88,0,0,1-.88-.89v-.89h-.89a.89.89,0,0,1,0-1.78h1.77a.89.89,0,0,1,.89.89v1.78A.89.89,0,0,1,466.13,285.43Zm-28.45,0a.89.89,0,0,1-.89-.89v-1.78a.89.89,0,0,1,.89-.89h1.77a.89.89,0,1,1,0,1.78h-.88v.89A.89.89,0,0,1,437.68,285.43Zm23.12-1.78h-3.56a.89.89,0,0,1,0-1.78h3.56a.89.89,0,0,1,0,1.78Zm-7.12,0h-3.55a.89.89,0,0,1,0-1.78h3.55a.89.89,0,1,1,0,1.78Zm-7.11,0H443a.89.89,0,0,1,0-1.78h3.56a.89.89,0,0,1,0,1.78Z" transform="translate(-436.79 -281.87)"/></svg>