<svg id="Layer_1" data-name="Layer 1" xmlns="http://www.w3.org/2000/svg" viewBox="0 0 15.07 17.07"><defs><style>.cls-1{fill:#101928;}</style></defs><path class="cls-1" d="M411.39,299.65a2.9,2.9,0,0,0-.35-.21l-.17-.08-.26-.62a1.34,1.34,0,0,0,.07-.18c0-.14.08-.3.1-.39a.54.54,0,0,0-.14-.44l-.71-.71a.5.5,0,0,0-.44-.13,2.23,2.23,0,0,0-.39.1.64.64,0,0,0-.18.06l-.62-.26-.08-.17a4,4,0,0,0-.21-.35.51.51,0,0,0-.41-.21h-1a.52.52,0,0,0-.41.21c-.05.07-.13.22-.2.35a1.3,1.3,0,0,0-.08.17l-.63.26a.48.48,0,0,0-.18-.06,2,2,0,0,0-.39-.1.51.51,0,0,0-.44.13l-.7.71a.48.48,0,0,0-.14.44,2,2,0,0,0,.1.39l.06.18-.26.62-.17.08-.35.21a.52.52,0,0,0-.21.41v1a.52.52,0,0,0,.21.41l.35.21.17.08.26.62-.06.18a2,2,0,0,0-.1.39.48.48,0,0,0,.14.44l.7.71a.51.51,0,0,0,.44.13,2,2,0,0,0,.39-.1l.18-.06.63.26a1.3,1.3,0,0,0,.08.17c.07.13.15.28.2.35a.52.52,0,0,0,.41.21h1a.51.51,0,0,0,.41-.21,4,4,0,0,0,.21-.35l.08-.17.62-.26.18.06a2.23,2.23,0,0,0,.39.1.5.5,0,0,0,.44-.13l.71-.71a.54.54,0,0,0,.14-.44c0-.09-.06-.25-.1-.39a1,1,0,0,0-.07-.18l.26-.62.17-.08.35-.21a.52.52,0,0,0,.21-.41v-1A.52.52,0,0,0,411.39,299.65Zm-.79,1.12-.13.07a.51.51,0,0,0-.43.31l-.44,1.07a.49.49,0,0,0,.08.52s0,.09.05.14l-.3.31-.14-.05a.49.49,0,0,0-.52-.08l-1.08.44a.5.5,0,0,0-.31.43l-.06.13h-.43a.88.88,0,0,1-.07-.13.5.5,0,0,0-.31-.43l-1.07-.44a.49.49,0,0,0-.52.08l-.14.05-.31-.31a1.21,1.21,0,0,0,0-.14.51.51,0,0,0,.09-.52l-.45-1.07a.49.49,0,0,0-.43-.31l-.13-.07v-.43l.13-.06a.49.49,0,0,0,.43-.31l.45-1.07a.51.51,0,0,0-.09-.52,1.21,1.21,0,0,0,0-.14l.31-.31.14.05a.49.49,0,0,0,.52.08l1.07-.44a.5.5,0,0,0,.31-.43.88.88,0,0,1,.07-.13h.43l.06.13a.5.5,0,0,0,.31.43l1.08.44a.49.49,0,0,0,.52-.08l.14-.05.3.31c0,.05,0,.1-.05.14a.49.49,0,0,0-.08.52L410,300a.51.51,0,0,0,.43.31l.13.06Z" transform="translate(-399.56 -292.02)"/><path class="cls-1" d="M407.1,292a1.52,1.52,0,0,0-1.46,1.14,7.57,7.57,0,0,0-6.08,7.4.5.5,0,0,0,.5.5.5.5,0,0,0,.5-.5,6.54,6.54,0,0,1,1.62-4.3,6.62,6.62,0,0,1,3.56-2.1A1.5,1.5,0,1,0,407.1,292Zm0,2a.5.5,0,0,1-.5-.5.51.51,0,0,1,.5-.5.5.5,0,0,1,.5.5A.5.5,0,0,1,407.1,294Z" transform="translate(-399.56 -292.02)"/><path class="cls-1" d="M407.1,298.56a2,2,0,1,0,2,2A2,2,0,0,0,407.1,298.56Zm0,3a1,1,0,1,1,1-1A1,1,0,0,1,407.1,301.56Z" transform="translate(-399.56 -292.02)"/><path class="cls-1" d="M414.14,300.06a.5.5,0,0,0-.5.5,6.57,6.57,0,0,1-5.18,6.4,1.5,1.5,0,1,0,.1,1,7.54,7.54,0,0,0,6.08-7.4A.5.5,0,0,0,414.14,300.06Zm-7,8a.51.51,0,0,1-.5-.5.5.5,0,0,1,.5-.5.5.5,0,0,1,.5.5A.5.5,0,0,1,407.1,308.1Z" transform="translate(-399.56 -292.02)"/></svg>