<svg id="Layer_1" data-name="Layer 1" xmlns="http://www.w3.org/2000/svg" viewBox="0 0 28.34 23.48"><defs><style>.cls-1{fill:#687c86;}</style></defs><path class="cls-1" d="M479.21,252.63h-1.63a11.85,11.85,0,0,0-21.34,0h-1.59a1.88,1.88,0,0,0-1.89,1.88v5.07a1.88,1.88,0,0,0,1.89,1.88h2.43a10.5,10.5,0,0,1,.7-8.83,10.49,10.49,0,0,1,18.26,0,10.38,10.38,0,0,1,1.36,5.17,10.73,10.73,0,0,1-.37,2.79h0c0,.11-.07.21-.1.32v0l-.11.32h0a10.49,10.49,0,0,1-7.81,6.79.83.83,0,0,0-.68-.34h-2.17a.84.84,0,0,0,0,1.68h2.17a.84.84,0,0,0,.83-.71,11.17,11.17,0,0,0,8.28-7.25h1.79a1.89,1.89,0,0,0,1.89-1.88v-5.07A1.89,1.89,0,0,0,479.21,252.63Z" transform="translate(-452.76 -245.94)"/><path class="cls-1" d="M475.79,257.8a8.89,8.89,0,1,0-15.74,5.65,5.9,5.9,0,0,1-3.1,4,.35.35,0,0,0,.13.67c3.44.32,5.59-.73,6.9-1.92a8.9,8.9,0,0,0,11.81-8.39Zm-12,7.57-.31.28a7.49,7.49,0,0,1-5.19,1.8,6.8,6.8,0,0,0,2.44-3.81l.1-.36-.24-.29a8.11,8.11,0,1,1,3.61,2.52Z" transform="translate(-452.76 -245.94)"/><circle class="cls-1" cx="10.94" cy="11.86" r="0.72"/><circle class="cls-1" cx="14.15" cy="11.86" r="0.72"/><circle class="cls-1" cx="17.36" cy="11.86" r="0.72"/></svg>