<svg id="Layer_1" data-name="Layer 1" xmlns="http://www.w3.org/2000/svg" viewBox="0 0 56.11 72.14"><defs><style>.cls-1{fill:#f8bf2b;}.cls-2{fill:#6dccdd;}.cls-3,.cls-5{fill:none;stroke-linecap:round;stroke-linejoin:round;stroke-width:3px;}.cls-3{stroke:#221f1f;}.cls-4{fill:#fff;}.cls-5{stroke:#fff;}</style></defs><path class="cls-1" d="M476.39,299.06a17.77,17.77,0,1,0-31.8,10.87,23.37,23.37,0,0,1,4.77,14.38v.74H467.9v-.74A25,25,0,0,1,473,309.54,17.6,17.6,0,0,0,476.39,299.06Z" transform="translate(-429.23 -267.14)"/><path class="cls-2" d="M467.34,329.81H449.83a2.37,2.37,0,0,1-2.38-2.38h0a2.37,2.37,0,0,1,2.38-2.38h17.51a2.37,2.37,0,0,1,2.38,2.38h0A2.4,2.4,0,0,1,467.34,329.81Z" transform="translate(-429.23 -267.14)"/><path class="cls-2" d="M466,334.49h-15a2.17,2.17,0,0,1-2.17-2.16v-.26a2.17,2.17,0,0,1,2.17-2.17h15a2.17,2.17,0,0,1,2.16,2.17v.26A2.13,2.13,0,0,1,466,334.49Z" transform="translate(-429.23 -267.14)"/><path class="cls-2" d="M452.43,335.62v0a3.5,3.5,0,0,0,3.51,3.51h5.29a3.5,3.5,0,0,0,3.51-3.51v0a1.15,1.15,0,0,0-1.13-1.13H453.56A1.15,1.15,0,0,0,452.43,335.62Z" transform="translate(-429.23 -267.14)"/><path class="cls-3" d="M475.05,297.71a17.77,17.77,0,1,0-31.8,10.88A23.42,23.42,0,0,1,448,323v.74h18.55V323a24.9,24.9,0,0,1,5.07-14.77A17.72,17.72,0,0,0,475.05,297.71Z" transform="translate(-429.23 -267.14)"/><path class="cls-3" d="M464.69,333.11H449.75a2.17,2.17,0,0,1-2.17-2.17v-.26a2.18,2.18,0,0,1,2.17-2.17h14.94a2.17,2.17,0,0,1,2.17,2.17v.26A2.15,2.15,0,0,1,464.69,333.11Z" transform="translate(-429.23 -267.14)"/><path class="cls-3" d="M451.05,334.23v0a3.49,3.49,0,0,0,3.51,3.5h5.28a3.49,3.49,0,0,0,3.51-3.5v0a1.15,1.15,0,0,0-1.13-1.12H452.17A1.14,1.14,0,0,0,451.05,334.23Z" transform="translate(-429.23 -267.14)"/><ellipse class="cls-4" cx="448.22" cy="290.78" rx="5.11" ry="2.99" transform="translate(-490.31 185.1) rotate(-50.56)"/><polyline class="cls-5" points="32 40.14 28.06 56.22 24.16 40.14"/><path class="cls-5" d="M450.22,305.34c1.78,0,1.78,1.47,3.51,1.47s1.78-1.47,3.51-1.47,1.78,1.47,3.51,1.47,1.78-1.47,3.51-1.47" transform="translate(-429.23 -267.14)"/><line class="cls-3" x1="28.06" y1="8.3" x2="28.06" y2="1.5"/><line class="cls-3" x1="40.14" y1="9.9" x2="43.22" y2="3.84"/><line class="cls-3" x1="48.37" y1="16.71" x2="52.45" y2="14.02"/><line class="cls-3" x1="51.32" y1="26.19" x2="54.61" y2="25.67"/><line class="cls-3" x1="15.97" y1="9.9" x2="12.89" y2="3.84"/><line class="cls-3" x1="7.74" y1="16.71" x2="3.67" y2="14.02"/><line class="cls-3" x1="4.79" y1="26.19" x2="1.5" y2="25.67"/><path class="cls-3" d="M466,328.43h-17.5a2.38,2.38,0,0,1-2.38-2.39h0a2.38,2.38,0,0,1,2.38-2.38H466a2.37,2.37,0,0,1,2.38,2.38h0A2.38,2.38,0,0,1,466,328.43Z" transform="translate(-429.23 -267.14)"/></svg>