<svg id="Layer_1" data-name="Layer 1" xmlns="http://www.w3.org/2000/svg" viewBox="0 0 37.6 59.28"><defs><style>.cls-1{fill:#d2d2d2;}.cls-2,.cls-4{fill:none;stroke-linecap:round;stroke-linejoin:round;stroke-width:3px;}.cls-2{stroke:#47616c;}.cls-3{fill:#fff;}.cls-4{stroke:#fff;}</style></defs><path class="cls-1" d="M533.32,305.09a17.3,17.3,0,0,0-34.45-2.23,17.07,17.07,0,0,0,3.5,12.81,22.81,22.81,0,0,1,4.64,14v.72h18v-.72A24.25,24.25,0,0,1,530,315.3,17.09,17.09,0,0,0,533.32,305.09Z" transform="translate(-495.92 -285.01)"/><path class="cls-1" d="M524.51,335h-17a2.32,2.32,0,0,1-2.32-2.32h0a2.32,2.32,0,0,1,2.32-2.32h17a2.32,2.32,0,0,1,2.32,2.32h0A2.35,2.35,0,0,1,524.51,335Z" transform="translate(-495.92 -285.01)"/><path class="cls-1" d="M523.24,339.58H508.7a2.11,2.11,0,0,1-2.11-2.11v-.25a2.12,2.12,0,0,1,2.11-2.11h14.54a2.12,2.12,0,0,1,2.11,2.11v.25A2.09,2.09,0,0,1,523.24,339.58Z" transform="translate(-495.92 -285.01)"/><path class="cls-1" d="M510,340.68v0a3.41,3.41,0,0,0,3.42,3.42h5.14a3.41,3.41,0,0,0,3.42-3.42v0a1.12,1.12,0,0,0-1.1-1.1H511.1A1.12,1.12,0,0,0,510,340.68Z" transform="translate(-495.92 -285.01)"/><path class="cls-2" d="M532,303.78a17.3,17.3,0,1,0-30.95,10.59,22.79,22.79,0,0,1,4.64,14v.71h18.05v-.71A24.26,24.26,0,0,1,528.68,314,17.18,17.18,0,0,0,532,303.78Z" transform="translate(-495.92 -285.01)"/><path class="cls-2" d="M521.94,338.23H507.39a2.11,2.11,0,0,1-2.11-2.1v-.26a2.12,2.12,0,0,1,2.11-2.11h14.55a2.11,2.11,0,0,1,2.1,2.11v.26A2.07,2.07,0,0,1,521.94,338.23Z" transform="translate(-495.92 -285.01)"/><path class="cls-2" d="M508.65,339.33v0a3.41,3.41,0,0,0,3.42,3.42h5.14a3.41,3.41,0,0,0,3.42-3.42v0a1.12,1.12,0,0,0-1.1-1.1h-9.78A1.12,1.12,0,0,0,508.65,339.33Z" transform="translate(-495.92 -285.01)"/><ellipse class="cls-3" cx="505.9" cy="297.04" rx="4.98" ry="2.91" transform="matrix(0.64, -0.77, 0.77, 0.64, -540.78, 214.07)"/><polyline class="cls-4" points="22.65 28.09 18.81 43.74 15.02 28.09"/><path class="cls-4" d="M507.85,311.21c1.73,0,1.73,1.43,3.42,1.43s1.73-1.43,3.41-1.43,1.73,1.43,3.42,1.43,1.73-1.43,3.41-1.43" transform="translate(-495.92 -285.01)"/><path class="cls-2" d="M523.16,333.68h-17a2.32,2.32,0,0,1-2.32-2.32h0a2.32,2.32,0,0,1,2.32-2.32h17a2.32,2.32,0,0,1,2.32,2.32h0A2.32,2.32,0,0,1,523.16,333.68Z" transform="translate(-495.92 -285.01)"/></svg>